<?xml version="1.0" standalone="no"?>
<!DOCTYPE svg PUBLIC "-//W3C//DTD SVG 20010904//EN"
 "http://www.w3.org/TR/2001/REC-SVG-20010904/DTD/svg10.dtd">
<svg version="1.0" xmlns="http://www.w3.org/2000/svg"
 width="1080.000000pt" height="1080.000000pt" viewBox="0 0 1080.000000 1080.000000"
 preserveAspectRatio="xMidYMid meet">

<g transform="translate(0.000000,1080.000000) scale(0.100000,-0.100000)"
fill="#000000" stroke="none">
<path d="M5858 8213 c-40 -41 -34 -61 37 -138 31 -33 68 -78 83 -100 15 -22
64 -69 108 -105 44 -36 98 -86 119 -112 21 -27 42 -48 47 -48 13 0 9 38 -4 43
-7 2 -11 7 -8 10 3 3 19 -4 35 -17 24 -19 27 -26 17 -38 -9 -12 -9 -21 4 -47
8 -17 22 -31 30 -31 17 0 18 -14 2 -41 -10 -17 -10 -23 0 -26 18 -7 15 -60 -4
-71 -14 -8 -1 -26 74 -108 50 -54 123 -129 164 -166 93 -85 450 -438 548 -544
84 -89 235 -234 293 -279 48 -38 136 -85 159 -85 30 0 21 19 -31 66 -42 38
-75 91 -51 82 26 -10 140 -132 170 -183 20 -33 58 -77 86 -100 85 -67 259
-194 294 -215 27 -15 0 -24 -65 -22 -37 1 -65 -3 -65 -8 0 -6 11 -10 23 -10
13 0 32 -9 42 -20 18 -19 17 -19 -91 -15 -60 3 -176 7 -259 10 -82 3 -242 10
-355 15 -351 16 -700 11 -700 -10 0 -4 46 -11 103 -14 135 -9 350 -34 401 -46
88 -22 214 -40 286 -41 41 -1 89 -5 105 -9 30 -7 30 -7 5 -13 -14 -3 -106 -8
-205 -11 -191 -7 -260 -13 -605 -56 -67 -8 -154 -9 -295 -3 l-200 8 -3 46 -3
46 -127 7 c-70 4 -176 11 -236 14 -85 6 -113 4 -128 -7 -28 -19 -7 -30 57 -32
45 -1 47 -2 18 -9 -75 -18 -1276 -30 -1453 -14 -71 6 -79 5 -97 -16 -13 -14
-23 -18 -28 -11 -8 14 -80 14 -106 1 -10 -6 -19 -21 -19 -34 0 -32 -5 -34 -49
-23 -33 9 -40 8 -59 -11 -20 -20 -32 -22 -134 -22 -101 1 -111 2 -94 15 11 8
34 18 53 21 18 3 30 10 27 15 -9 16 -87 10 -142 -11 -29 -11 -59 -20 -67 -20
-27 0 -15 19 20 31 19 7 35 16 35 21 0 16 -41 28 -94 28 -34 0 -56 4 -56 11 0
12 -188 2 -225 -11 -11 -4 -30 -4 -42 1 -21 7 -21 10 -8 35 7 15 18 30 24 33
6 4 6 12 1 21 -8 13 -109 15 -727 17 -395 2 -724 5 -732 8 -19 7 -253 28 -316
29 -73 0 -707 -68 -747 -80 -39 -12 -18 -33 38 -40 42 -5 53 -9 40 -16 -30
-17 -16 -28 34 -28 78 0 59 -19 -22 -22 -72 -3 -73 -3 -73 -30 1 -20 -5 -28
-23 -33 -33 -8 -17 -25 24 -25 41 0 47 -25 9 -40 -24 -9 -37 -50 -15 -50 17 0
11 -21 -12 -39 -26 -22 -19 -47 17 -61 15 -6 69 -10 121 -10 56 0 94 -4 94
-10 0 -5 -8 -11 -17 -11 -10 -1 -25 -3 -33 -4 -8 -1 -25 -3 -36 -4 -29 -2 -52
-54 -34 -76 13 -15 42 -20 53 -8 7 6 126 15 192 15 17 -1 95 -6 175 -12 142
-11 254 -15 795 -24 260 -5 590 5 800 23 194 17 409 42 419 48 6 4 114 10 241
14 126 4 275 14 329 23 78 13 180 16 473 16 341 0 422 -6 348 -24 -14 -4 -34
-2 -45 4 -20 11 -178 14 -204 4 -9 -3 -16 -14 -16 -23 0 -14 21 -16 199 -16
168 0 202 3 217 16 16 13 41 15 149 13 72 -2 182 1 245 6 294 25 359 29 420
21 l65 -8 -55 -2 c-30 -1 -60 -5 -67 -9 -21 -14 4 -36 39 -35 43 2 406 21 623
34 94 5 262 12 375 15 113 3 214 9 225 14 40 18 183 28 297 21 114 -7 171 -20
92 -22 -160 -3 -346 -17 -356 -27 -9 -9 -7 -13 6 -18 26 -10 805 3 921 15 55
6 170 13 255 16 85 2 171 7 190 9 19 3 75 8 123 12 l88 7 -10 -26 c-9 -24 -8
-27 9 -27 11 0 20 -4 20 -8 0 -11 -76 -82 -125 -118 -22 -16 -49 -37 -59 -46
-11 -10 -26 -18 -34 -18 -8 0 3 15 24 34 21 19 36 37 33 41 -11 10 -90 -38
-448 -277 -199 -132 -354 -228 -367 -228 -17 0 -22 -4 -17 -16 4 -12 0 -14
-21 -8 -14 3 -26 2 -26 -3 0 -6 -10 -14 -22 -20 -13 -6 -68 -49 -123 -95 -106
-90 -237 -188 -373 -281 -64 -44 -92 -57 -119 -57 -51 0 -114 -33 -162 -85
-53 -58 -52 -72 4 -39 82 47 53 10 -99 -127 -87 -79 -114 -98 -130 -93 -19 6
-20 5 -6 -11 14 -17 13 -17 -10 -10 -23 7 -24 7 -10 -10 14 -17 13 -18 -4 -12
-14 6 -17 4 -12 -9 4 -12 2 -15 -9 -10 -9 3 -15 0 -15 -9 0 -8 -6 -14 -12 -12
-7 1 -12 -4 -10 -11 1 -8 -2 -11 -8 -7 -14 8 -121 -107 -115 -124 3 -9 0 -11
-10 -7 -10 3 -15 0 -15 -11 0 -9 -3 -14 -6 -10 -6 6 -206 -196 -282 -285 -20
-23 -64 -72 -98 -108 -33 -36 -80 -85 -103 -110 -56 -60 -62 -87 -27 -117 15
-13 36 -23 46 -23 10 0 22 -5 26 -11 5 -8 12 -5 23 10 14 18 20 20 46 10 27
-10 39 -7 132 40 55 28 110 51 120 51 11 0 44 24 74 53 30 29 94 75 142 102
49 28 139 85 200 129 62 43 123 84 137 90 14 6 39 25 55 42 31 33 118 94 132
94 9 -1 63 -46 63 -53 0 -3 -20 -7 -43 -9 -24 -3 -68 -17 -98 -32 l-54 -26 50
5 c79 7 143 21 157 33 8 6 24 9 37 5 14 -4 29 1 44 15 12 11 36 28 53 39 55
33 149 96 162 110 28 27 -15 13 -74 -25 -75 -48 -93 -55 -110 -41 -11 9 3 21
66 59 44 26 124 79 177 118 356 253 395 279 483 323 43 21 84 44 91 51 8 7 50
40 94 72 105 78 193 156 296 262 46 48 94 98 107 111 13 13 28 21 33 17 14 -8
86 37 137 85 41 40 62 51 62 32 0 -5 -26 -32 -57 -61 -166 -152 -235 -223
-209 -216 15 4 63 42 109 85 45 43 109 102 142 131 33 28 63 60 67 70 5 15 16
19 43 18 29 -1 44 6 78 39 23 22 53 46 67 53 14 7 69 41 122 76 54 35 101 64
106 64 4 0 23 13 42 30 37 31 65 38 73 18 3 -9 13 -5 30 12 52 50 67 63 85 74
10 6 34 21 53 33 19 12 56 34 82 50 26 15 58 36 69 46 12 10 33 20 47 24 14 3
33 12 42 20 9 8 26 15 38 16 12 1 39 19 61 42 32 32 40 49 44 87 2 27 -1 53
-8 61 -27 33 -191 145 -311 212 -27 15 -124 76 -215 135 -91 59 -200 129 -242
156 -125 80 -326 222 -423 299 -49 40 -112 87 -140 105 -27 19 -52 36 -55 40
-3 3 -75 58 -162 122 -86 65 -158 121 -160 125 -3 8 -235 205 -367 312 -36 29
-80 65 -97 80 -18 14 -85 67 -150 116 -65 50 -134 104 -153 121 -20 18 -92 72
-161 120 -127 90 -219 156 -378 273 -48 35 -114 82 -147 104 -33 22 -127 90
-209 151 -101 76 -155 110 -169 108 -18 -3 -19 -2 -8 11 11 14 6 20 -30 46
-46 34 -46 34 -107 35 -36 1 -48 -4 -74 -31z m179 -39 c-3 -3 -12 -4 -19 -1
-8 3 -5 6 6 6 11 1 17 -2 13 -5z m241 -205 c21 -19 27 -29 17 -29 -8 0 -15 5
-15 10 0 6 -6 10 -12 10 -14 1 -68 45 -68 55 0 9 43 -16 78 -46z m59 -45 c-3
-3 -12 -4 -19 -1 -8 3 -5 6 6 6 11 1 17 -2 13 -5z m114 -121 c25 -12 54 -34
63 -48 9 -14 36 -37 59 -51 53 -33 190 -155 182 -162 -3 -3 -15 4 -28 16 -13
12 -26 22 -30 22 -4 0 -20 12 -37 26 -16 15 -56 45 -89 68 -75 53 -179 139
-180 149 -1 5 2 7 7 5 4 -2 28 -13 53 -25z m383 -318 c16 -14 24 -25 18 -25
-6 0 -23 11 -38 25 -35 33 -18 33 20 0z m271 -113 c-3 -3 -11 0 -18 7 -9 10
-8 11 6 5 10 -3 15 -9 12 -12z m45 -27 c7 -8 9 -15 6 -15 -4 0 -14 7 -22 15
-9 8 -11 15 -6 15 5 0 15 -7 22 -15z m110 -95 c0 -5 -2 -10 -4 -10 -3 0 -8 5
-11 10 -3 6 -1 10 4 10 6 0 11 -4 11 -10z m10 -160 c8 -11 18 -20 23 -20 5 0
15 -7 23 -15 9 -8 11 -15 6 -15 -13 0 -89 69 -77 70 6 0 17 -9 25 -20z m286
-77 c75 -55 242 -191 294 -240 76 -70 211 -180 285 -232 39 -26 86 -65 105
-85 19 -21 76 -65 125 -99 79 -53 177 -122 386 -270 52 -37 53 -39 21 -33 -36
6 -36 0 1 -41 18 -21 19 -23 3 -29 -10 -4 -70 20 -159 64 -156 77 -313 191
-446 322 -40 40 -89 79 -109 87 -20 8 -51 26 -69 40 -19 14 -36 23 -40 20 -6
-6 29 -42 100 -105 38 -33 47 -52 24 -52 -6 0 -46 16 -87 36 -52 25 -97 57
-145 104 -38 37 -111 99 -161 136 -120 91 -204 165 -204 181 0 20 28 5 125
-67 111 -82 151 -110 159 -110 12 0 -18 29 -154 149 -125 110 -200 183 -200
195 0 3 13 3 30 0 36 -8 60 9 60 42 0 13 1 24 3 24 1 0 25 -17 53 -37z m252
-707 c76 -38 173 -107 244 -174 64 -59 64 -85 1 -38 -27 20 -111 78 -188 129
-127 84 -165 117 -136 117 7 0 42 -15 79 -34z m242 -278 c0 -4 7 -8 15 -8 8 0
15 -4 15 -10 0 -5 8 -10 18 -11 9 0 12 -3 6 -5 -12 -5 -147 73 -152 87 -2 5
-8 9 -14 9 -10 0 -38 25 -38 34 0 2 34 -16 75 -41 41 -25 75 -50 75 -55z m777
6 c-3 -3 -12 -4 -19 -1 -8 3 -5 6 6 6 11 1 17 -2 13 -5z m40 -20 c-3 -3 -12
-4 -19 -1 -8 3 -5 6 6 6 11 1 17 -2 13 -5z m-534 -44 c8 -11 29 -37 48 -58 51
-56 129 -154 176 -221 47 -67 44 -78 -22 -81 -59 -3 -65 -1 -65 14 0 11 -13
13 -60 9 -66 -6 -100 8 -79 33 15 19 0 36 -47 53 -30 11 -47 11 -95 1 -33 -7
-59 -16 -59 -21 0 -4 -7 -14 -15 -22 -13 -13 -23 -13 -72 -3 -32 7 -92 19
-133 26 -41 6 -97 16 -123 21 -26 5 -69 9 -95 10 -26 0 -56 4 -67 9 -12 5 138
8 367 6 303 -2 385 0 377 10 -12 14 -57 22 -199 33 -86 6 -114 13 -155 35
l-50 28 79 -7 c56 -5 76 -4 72 4 -4 6 -14 11 -22 11 -8 0 -14 7 -14 15 0 19
17 19 50 0 14 -8 42 -14 64 -15 38 0 38 1 33 30 -6 29 5 41 18 20 6 -10 85
-14 85 -4 0 10 -23 48 -41 67 -10 11 -16 24 -13 29 7 11 40 -7 57 -32z m567
20 c0 -5 7 -10 16 -10 8 0 22 -7 31 -15 27 -28 8 -25 -37 5 -27 18 -38 30 -27
30 9 0 17 -4 17 -10z m-763 -16 c-3 -3 -12 -4 -19 -1 -8 3 -5 6 6 6 11 1 17
-2 13 -5z m858 -44 c3 -5 2 -10 -4 -10 -5 0 -13 5 -16 10 -3 6 -2 10 4 10 5 0
13 -4 16 -10z m30 -20 c3 -5 1 -10 -4 -10 -6 0 -11 5 -11 10 0 6 2 10 4 10 3
0 8 -4 11 -10z m-1142 -67 c-34 -2 -93 -2 -130 0 -37 2 -9 3 62 3 72 0 102 -1
68 -3z m1244 1 c-3 -3 -12 -4 -19 -1 -8 3 -5 6 6 6 11 1 17 -2 13 -5z m-1572
-24 c-7 -12 -59 -12 -95 0 -19 6 -9 8 38 9 40 1 61 -3 57 -9z m1615 2 c0 -5
16 -14 35 -22 19 -8 35 -17 35 -22 0 -4 6 -8 13 -8 16 -1 52 -28 45 -35 -3 -3
-34 13 -69 35 -35 22 -73 44 -84 49 -19 9 -19 10 3 10 12 1 22 -3 22 -7z
m-1560 -28 c0 -10 -13 -14 -42 -14 l-43 0 29 19 c31 20 56 18 56 -5z m343 16
c29 -1 30 -2 12 -12 -12 -7 -74 -13 -150 -15 -102 -2 -125 -1 -105 8 26 12
175 29 198 23 8 -2 28 -4 45 -4z m-6678 -61 c-8 -12 -35 -12 -35 0 0 11 22 20
33 14 4 -2 5 -9 2 -14z m455 1 c0 -5 -8 -10 -17 -10 -15 0 -16 2 -3 10 19 12
20 12 20 0z m338 -7 c-10 -2 -26 -2 -35 0 -10 3 -2 5 17 5 19 0 27 -2 18 -5z
m345 -4 c-7 -7 -44 -7 -119 -1 l-109 9 120 2 c84 1 116 -2 108 -10z m6927 -19
c0 -5 -4 -10 -10 -10 -5 0 -10 5 -10 10 0 6 5 10 10 10 6 0 10 -4 10 -10z
m-5124 -22 c3 -5 4 -12 1 -14 -8 -8 -97 7 -97 16 0 19 85 17 96 -2z m5164 -4
c0 -2 -7 -4 -15 -4 -8 0 -15 4 -15 10 0 5 7 7 15 4 8 -4 15 -8 15 -10z m127
-72 c38 -24 54 -42 38 -42 -13 0 -83 40 -94 54 -8 9 -18 16 -23 16 -10 0 -38
25 -38 34 0 6 51 -21 117 -62z m-2267 -91 c43 -6 41 -7 -40 -15 -243 -22 -579
-48 -656 -50 -33 -2 -67 -6 -75 -11 -7 -5 -86 -12 -174 -16 -88 -4 -220 -11
-294 -15 -119 -6 -135 -5 -146 10 -11 14 -21 15 -86 6 -78 -11 -203 -4 -193
11 3 5 24 9 47 9 23 1 71 8 107 16 82 20 289 31 885 48 583 16 570 16 625 7z
m1283 2 c-7 -2 -21 -2 -30 0 -10 3 -4 5 12 5 17 0 24 -2 18 -5z m-1190 -10
c-7 -2 -19 -2 -25 0 -7 3 -2 5 12 5 14 0 19 -2 13 -5z m-1673 -13 c0 -6 -35
-10 -84 -10 -47 0 -88 5 -91 10 -4 6 27 10 84 10 54 0 91 -4 91 -10z m-2395
-39 l50 -6 -90 -13 c-49 -7 -110 -13 -135 -15 -32 -1 -45 -6 -45 -17 0 -8 7
-16 15 -17 8 -1 42 -5 75 -9 l60 -8 -95 -8 c-71 -5 -118 -3 -185 9 -63 11
-172 16 -360 19 -148 1 -349 6 -445 10 -166 6 -173 7 -131 20 32 9 157 15 440
19 218 3 412 10 431 14 42 11 344 12 415 2z m1483 -88 c-10 -2 -28 -2 -40 0
-13 2 -5 4 17 4 22 1 32 -1 23 -4z m3426 -231 c-21 -16 -66 -47 -99 -69 -142
-96 -166 -153 -50 -118 27 8 53 11 58 6 14 -14 -107 -116 -191 -159 -44 -23
-86 -42 -93 -42 -7 0 6 20 30 44 48 48 50 76 6 76 -18 0 -25 5 -25 19 0 19 55
64 151 121 23 14 53 35 68 48 14 12 38 28 54 35 15 6 27 15 27 19 0 5 6 8 13
8 6 0 23 9 37 20 14 11 31 20 39 20 8 0 -4 -13 -25 -28z m-347 -559 c-23 -26
-126 -87 -134 -79 -8 7 -11 5 61 55 63 43 103 57 73 24z m-589 -386 c-25 -20
-193 -128 -245 -158 -82 -47 -105 -60 -138 -79 -63 -35 -27 5 68 75 108 81
176 135 235 188 l42 38 31 -23 31 -23 -24 -18z m-1136 -654 c-81 -75 -118
-103 -138 -103 -8 0 12 18 72 65 21 17 47 38 58 47 34 28 41 20 8 -9z"/>
<path d="M6396 5481 c-3 -4 6 -6 19 -3 14 2 25 6 25 8 0 8 -39 4 -44 -5z"/>
<path d="M7040 6679 c0 -9 48 -67 106 -128 59 -61 116 -124 128 -139 48 -62
116 -115 201 -156 50 -25 102 -48 118 -51 48 -12 21 22 -52 64 -85 50 -115 74
-263 214 -68 63 -145 132 -173 153 -27 20 -53 42 -57 48 -5 7 -8 5 -8 -5z"/>
<path d="M1016 6252 c-3 -6 -1 -14 5 -17 15 -10 25 3 12 16 -7 7 -13 7 -17 1z"/>
<path d="M1096 6175 c-24 -63 -27 -75 -21 -84 3 -6 17 -11 31 -11 18 0 24 5
24 23 0 13 -4 27 -9 33 -5 5 -11 20 -13 34 -4 23 -5 24 -12 5z"/>
<path d="M1025 6100 c10 -11 22 -17 27 -14 12 8 -11 34 -30 34 -13 0 -12 -3 3
-20z"/>
<path d="M840 6055 c0 -18 5 -25 19 -25 17 0 18 3 8 25 -15 32 -27 32 -27 0z"/>
<path d="M942 6028 c-7 -7 -12 -17 -12 -22 0 -6 -12 -21 -26 -33 -23 -20 -25
-23 -9 -29 22 -9 51 22 60 64 7 35 5 38 -13 20z"/>
<path d="M990 6014 c0 -8 5 -12 10 -9 6 4 8 11 5 16 -9 14 -15 11 -15 -7z"/>
<path d="M1100 5985 c1 -26 2 -28 11 -12 8 14 8 22 0 30 -8 8 -11 3 -11 -18z"/>
<path d="M6422 5826 c35 -32 99 -40 217 -26 187 21 154 41 -79 47 l-165 4 27
-25z"/>
<path d="M3348 5823 c7 -3 16 -2 19 1 4 3 -2 6 -13 5 -11 0 -14 -3 -6 -6z"/>
<path d="M4562 5814 c4 -21 30 -29 56 -19 15 5 15 7 2 14 -8 5 -26 12 -38 16
-20 6 -23 4 -20 -11z"/>
<path d="M3502 5805 c-40 -17 -44 -40 -4 -30 31 7 58 30 45 38 -4 3 -23 -1
-41 -8z"/>
<path d="M4880 5780 c0 -5 5 -10 10 -10 6 0 10 5 10 10 0 6 -4 10 -10 10 -5 0
-10 -4 -10 -10z"/>
<path d="M4910 5780 c0 -6 34 -10 83 -10 56 0 77 3 67 10 -20 13 -150 13 -150
0z"/>
<path d="M3703 5760 c-37 -15 -26 -30 23 -30 38 0 45 3 42 18 -4 20 -33 25
-65 12z"/>
<path d="M3930 5726 c0 -9 5 -16 10 -16 6 0 10 4 10 9 0 6 -4 13 -10 16 -5 3
-10 -1 -10 -9z"/>
<path d="M3948 5363 c45 -2 119 -2 165 0 45 1 8 3 -83 3 -91 0 -128 -2 -82 -3z"/>
<path d="M6782 5353 c-23 -2 -40 -8 -37 -14 8 -12 342 -12 350 1 4 6 -8 10
-28 10 -19 0 -81 2 -138 4 -57 2 -123 2 -147 -1z"/>
<path d="M7120 5340 c0 -5 8 -10 18 -10 10 -1 5 -6 -14 -14 -17 -8 -77 -17
-134 -21 -57 -4 -119 -15 -139 -23 l-36 -16 50 -6 c36 -4 51 -10 53 -22 2 -11
-5 -19 -20 -22 -54 -11 -126 -13 -182 -5 -83 11 -106 -4 -36 -25 64 -19 143
-21 173 -4 12 7 72 16 132 19 280 16 743 50 770 57 16 5 30 13 32 19 4 11 -41
11 -474 -1 -81 -2 -143 0 -143 5 0 5 1 9 3 9 1 1 45 3 97 6 125 6 180 13 180
24 0 15 -30 19 -163 22 -71 2 -131 6 -134 11 -6 11 -33 9 -33 -3z"/>
<path d="M3190 5313 c-66 -8 -59 -24 9 -21 40 2 66 8 69 16 4 12 -8 13 -78 5z"/>
<path d="M4875 5308 c-49 -3 -151 -12 -225 -18 -74 -6 -259 -15 -410 -20 -251
-7 -672 -35 -925 -60 -55 -6 -235 -14 -400 -20 -165 -5 -327 -11 -360 -13 -33
-2 -48 -2 -32 0 15 2 27 8 27 14 0 5 15 9 34 9 45 0 55 17 19 32 -20 8 -151
13 -442 16 -428 4 -588 -3 -875 -38 -89 -10 -228 -20 -310 -22 -121 -2 -150
-6 -154 -18 -3 -8 -13 -21 -21 -27 -14 -12 -14 -15 3 -28 22 -16 56 -20 56 -6
0 10 57 21 65 13 7 -7 55 -6 150 2 44 4 115 9 157 11 75 4 78 3 91 -22 l14
-26 7 27 c6 24 29 35 40 18 5 -9 284 -6 1261 13 308 6 572 21 716 40 63 8 215
20 339 25 124 6 320 15 435 20 300 13 346 13 339 -4 -3 -9 -32 -15 -92 -19
-48 -4 -136 -13 -197 -22 -245 -34 -392 -50 -565 -61 -71 -4 -108 -2 -145 10
-30 9 -53 12 -59 6 -5 -5 2 -12 18 -16 14 -3 26 -10 26 -14 0 -16 -41 -21
-138 -19 -53 2 -142 -3 -197 -9 -432 -50 -561 -56 -1045 -53 -352 3 -440 1
-457 -10 -18 -11 -35 -11 -100 0 -55 9 -78 10 -81 2 -7 -21 -40 -11 -65 19
l-26 30 -3 -28 -3 -27 -268 -1 c-162 -1 -273 -6 -279 -12 -6 -6 0 -19 17 -38
l27 -29 511 1 c621 2 1152 9 1467 19 129 4 319 10 423 12 187 5 187 5 207 -18
11 -13 19 -27 20 -31 0 -5 -42 -8 -92 -9 -81 -1 -89 -2 -60 -12 24 -7 77 -7
185 2 84 6 160 12 170 12 9 0 17 5 17 10 0 6 27 8 69 5 51 -4 72 -2 80 8 12
14 92 21 356 31 72 3 165 10 208 16 69 10 80 10 97 -6 23 -21 109 -33 119 -16
10 15 429 34 541 25 47 -4 126 -6 175 -4 50 1 164 4 255 7 363 8 722 22 845
34 72 6 188 14 259 18 l129 6 16 42 c8 23 12 45 9 48 -16 17 -122 3 -147 -19
-26 -24 -47 -20 -93 17 l-40 32 -140 -2 c-90 -1 -145 -6 -154 -14 -11 -9 -24
-9 -59 1 -62 17 -64 28 -8 35 27 3 92 16 145 28 162 36 110 42 -349 42 -226 0
-415 3 -419 7 -4 5 1 16 10 27 11 12 14 21 7 25 -13 9 -603 3 -726 -6z m408
-39 c-15 -15 -119 -27 -298 -33 -150 -5 -157 -5 -110 8 46 14 233 31 365 35
38 1 51 -2 43 -10z m260 4 c-13 -2 -33 -2 -45 0 -13 2 -3 4 22 4 25 0 35 -2
23 -4z m-1895 -318 c30 -16 18 -23 -40 -23 -26 0 -52 -3 -57 -6 -14 -9 -61 15
-61 30 0 7 8 15 18 17 26 7 113 -4 140 -18z"/>
<path d="M987 5267 c-3 -7 -1 -20 3 -28 7 -11 10 -10 16 4 4 10 2 23 -3 28 -7
7 -12 6 -16 -4z"/>
<path d="M870 5070 c0 -5 5 -10 10 -10 6 0 10 5 10 10 0 6 -4 10 -10 10 -5 0
-10 -4 -10 -10z"/>
<path d="M1955 4910 c-22 -5 -7 -8 53 -9 49 -1 82 3 82 9 0 11 -90 11 -135 0z"/>
<path d="M875 4821 c-3 -6 -18 -11 -33 -11 -15 0 -34 -5 -42 -10 -12 -7 -8
-10 15 -10 53 -1 56 -14 9 -34 -45 -19 -55 -44 -16 -38 31 5 27 -9 -18 -66
-43 -54 -49 -81 -23 -107 13 -14 28 -16 66 -11 27 3 52 7 54 10 10 9 -9 26
-28 26 -10 0 -19 5 -19 10 0 6 15 10 34 10 19 0 38 4 41 10 3 5 28 12 55 16
36 5 50 11 53 25 7 25 33 24 47 -1 10 -18 21 -20 110 -20 98 0 130 12 70 25
-65 14 -22 20 168 23 192 2 197 3 200 23 5 28 -15 49 -24 26 -5 -14 -20 -17
-74 -17 -38 0 -72 5 -75 10 -4 6 -21 8 -42 4 -28 -5 -35 -4 -31 7 3 8 24 16
49 19 76 9 49 25 -51 30 -91 5 -93 6 -45 13 78 13 83 15 40 16 -137 4 -434 22
-457 26 -14 4 -29 1 -33 -4z"/>
<path d="M4448 4773 c7 -3 16 -2 19 1 4 3 -2 6 -13 5 -11 0 -14 -3 -6 -6z"/>
<path d="M2340 4730 c-52 -4 -204 -8 -337 -9 -233 -1 -293 -8 -293 -32 0 -8
96 -10 358 -6 350 5 474 14 537 42 27 12 22 13 -70 13 -55 -1 -143 -5 -195 -8z"/>
<path d="M1035 4569 c-11 -17 0 -21 40 -13 26 5 33 9 23 15 -18 12 -56 11 -63
-2z"/>
<path d="M8145 4479 c-5 -6 -30 -27 -54 -49 -24 -22 -40 -40 -35 -40 13 0 110
88 104 93 -3 3 -9 1 -15 -4z"/>
<path d="M8160 4400 c-13 -8 -12 -10 3 -10 9 0 17 5 17 10 0 12 -1 12 -20 0z"/>
<path d="M1036 4345 c4 -8 10 -15 15 -15 4 0 6 7 3 15 -4 8 -10 15 -15 15 -4
0 -6 -7 -3 -15z"/>
<path d="M7990 4345 c-7 -8 -8 -15 -2 -15 5 0 15 7 22 15 7 8 8 15 2 15 -5 0
-15 -7 -22 -15z"/>
<path d="M7920 4290 c0 -5 -5 -10 -10 -10 -6 0 -20 -9 -32 -20 -33 -30 -8 -23
36 10 25 19 33 30 23 30 -9 0 -17 -4 -17 -10z"/>
<path d="M7768 4182 c-42 -31 -72 -59 -66 -61 5 -2 13 1 17 6 3 5 34 28 69 52
34 23 62 46 62 51 0 14 4 16 -82 -48z"/>
<path d="M833 4200 c-15 -6 -21 -15 -17 -25 8 -19 20 -19 28 0 3 9 16 20 28
25 21 8 21 9 3 9 -11 0 -30 -4 -42 -9z"/>
<path d="M777 4154 c-8 -8 1 -24 14 -24 5 0 9 7 9 15 0 15 -12 20 -23 9z"/>
<path d="M7630 4080 c0 -5 7 -7 15 -4 8 4 15 8 15 10 0 2 -7 4 -15 4 -8 0 -15
-4 -15 -10z"/>
<path d="M7585 4054 c-11 -8 -27 -19 -35 -24 -8 -5 -12 -11 -8 -15 9 -10 78
33 78 49 0 10 -14 6 -35 -10z"/>
<path d="M7510 4000 c-13 -8 -12 -10 3 -10 9 0 17 5 17 10 0 12 -1 12 -20 0z"/>
<path d="M7448 3953 c7 -3 16 -2 19 1 4 3 -2 6 -13 5 -11 0 -14 -3 -6 -6z"/>
<path d="M7318 3873 c7 -3 16 -2 19 1 4 3 -2 6 -13 5 -11 0 -14 -3 -6 -6z"/>
<path d="M7230 3820 c-14 -11 -20 -20 -15 -20 6 0 21 9 35 20 14 11 21 20 15
20 -5 0 -21 -9 -35 -20z"/>
<path d="M7185 3790 c-3 -5 -1 -10 4 -10 6 0 11 5 11 10 0 6 -2 10 -4 10 -3 0
-8 -4 -11 -10z"/>
<path d="M7150 3770 c-13 -8 -12 -10 3 -10 9 0 17 5 17 10 0 12 -1 12 -20 0z"/>
</g>
</svg>
