<?xml version="1.0" standalone="no"?>
<!DOCTYPE svg PUBLIC "-//W3C//DTD SVG 20010904//EN"
 "http://www.w3.org/TR/2001/REC-SVG-20010904/DTD/svg10.dtd">
<svg version="1.0" xmlns="http://www.w3.org/2000/svg"
 width="1080.000000pt" height="1080.000000pt" viewBox="0 0 1080.000000 1080.000000"
 preserveAspectRatio="xMidYMid meet">

<g transform="translate(0.000000,1080.000000) scale(0.100000,-0.100000)"
fill="#000000" stroke="none">
<path d="M7341 9803 c-115 -60 -175 -180 -206 -415 -3 -25 -12 -48 -19 -51
-13 -5 -209 8 -266 18 -105 19 -210 52 -305 96 -111 52 -136 69 -363 243 -87
66 -123 78 -200 66 -78 -13 -152 -52 -224 -118 -97 -90 -136 -164 -179 -336
l-12 -48 -76 5 c-180 11 -267 74 -370 271 -98 186 -171 245 -302 246 -78 0
-119 -15 -177 -65 -114 -100 -185 -249 -219 -458 -11 -66 -22 -101 -31 -105
-21 -8 -372 17 -467 34 -182 31 -201 43 -450 286 -71 69 -141 135 -155 146
-127 99 -352 -9 -445 -213 -40 -87 -52 -136 -61 -247 -6 -77 -9 -87 -28 -92
-11 -3 -129 -6 -261 -6 -234 0 -452 -17 -506 -38 -31 -12 -85 -75 -92 -106
-28 -124 -42 -199 -77 -403 -22 -131 -45 -267 -50 -303 -17 -118 -30 -204 -39
-265 -5 -33 -26 -166 -46 -295 -20 -129 -41 -262 -46 -295 -13 -85 -30 -216
-58 -445 -6 -47 -15 -119 -20 -160 -16 -131 -40 -348 -66 -600 -24 -235 -34
-333 -55 -575 -6 -60 -15 -155 -20 -210 -5 -55 -14 -149 -19 -210 -26 -288
-34 -372 -61 -680 -38 -433 -56 -661 -70 -880 -6 -99 -15 -245 -21 -325 -18
-231 -15 -667 5 -775 51 -280 116 -418 272 -572 250 -248 575 -333 1549 -408
315 -24 442 -35 560 -51 61 -8 130 -17 155 -20 46 -5 142 -20 470 -74 184 -29
310 -48 670 -101 36 -5 101 -13 145 -19 44 -5 116 -14 160 -20 784 -106 1478
-150 2359 -150 599 0 738 7 991 51 271 47 469 123 640 245 61 43 201 174 245
229 142 177 205 290 244 442 19 71 21 264 6 411 -6 53 -15 140 -20 192 -5 52
-14 138 -20 190 -5 52 -14 142 -20 200 -6 58 -17 166 -26 240 -39 352 -62 723
-71 1145 -6 308 2 447 43 730 26 179 48 337 64 455 5 41 14 104 20 140 15 94
26 180 66 490 53 420 68 544 84 730 5 58 14 157 20 220 50 524 88 1170 76
1288 -12 117 -66 224 -191 382 -198 249 -502 413 -855 461 -111 15 -382 39
-450 39 -66 0 -247 22 -310 38 -64 16 -108 46 -312 218 -113 96 -244 185 -297
203 -63 21 -151 14 -210 -16z m288 -162 c33 -35 59 -107 45 -125 -5 -7 -40
-59 -78 -114 -38 -56 -73 -102 -77 -102 -18 0 14 245 47 358 6 21 35 13 63
-17z m-1472 -38 c13 -19 15 -41 10 -106 -3 -45 -12 -96 -19 -112 -10 -23 -13
-115 -13 -390 -1 -332 -5 -405 -23 -405 -14 0 -86 124 -123 213 -22 50 -53
119 -70 153 -28 58 -29 64 -18 115 6 30 22 86 36 124 13 39 31 94 39 124 14
50 64 291 64 305 0 4 10 10 22 15 31 11 75 -6 95 -36z m-2817 -146 c48 -50 53
-78 39 -249 -7 -84 -12 -295 -13 -470 -1 -174 -4 -319 -7 -323 -4 -3 -40 21
-81 53 -63 50 -81 72 -116 138 -22 44 -57 95 -76 113 -33 32 -46 65 -28 73 4
2 24 23 44 46 39 47 44 63 78 252 12 63 25 133 30 155 5 22 16 81 26 130 9 50
20 97 25 107 12 22 42 13 79 -25z m3605 -298 c192 -22 175 -16 175 -52 0 -18
-11 -176 -24 -353 -25 -327 -24 -370 8 -433 37 -70 135 -123 307 -165 268 -65
437 -5 575 206 79 120 83 136 99 387 18 289 26 324 88 361 39 24 87 25 297 5
251 -24 392 -45 435 -64 44 -19 113 -94 164 -177 77 -126 136 -354 171 -659
51 -450 81 -2324 45 -2780 -14 -168 -47 -486 -75 -705 -5 -41 -14 -113 -20
-160 -6 -47 -15 -123 -20 -170 -5 -47 -14 -125 -20 -175 -13 -114 -27 -253
-40 -380 -5 -55 -14 -145 -20 -200 -6 -55 -17 -165 -25 -245 -42 -396 -57
-519 -84 -695 -5 -33 -14 -91 -20 -130 -32 -217 -57 -270 -175 -382 -68 -65
-281 -223 -299 -223 -3 0 -48 -25 -100 -54 -52 -30 -118 -66 -148 -79 -125
-57 -148 -67 -219 -95 -81 -32 -306 -103 -382 -121 -153 -35 -208 -44 -388
-63 -83 -8 -254 -12 -510 -11 -366 2 -448 6 -855 44 -60 5 -155 14 -210 19
-55 5 -143 14 -195 20 -52 6 -147 15 -210 20 -63 6 -162 15 -220 20 -114 11
-213 19 -620 50 -146 11 -328 24 -405 30 -259 20 -396 35 -525 60 -25 5 -74
14 -110 20 -36 6 -85 16 -110 21 -210 43 -307 62 -450 89 -91 17 -185 36 -210
41 -25 6 -65 15 -90 20 -46 11 -57 13 -200 50 -315 80 -526 215 -592 377 -22
54 -23 68 -21 292 1 224 13 510 33 815 39 585 47 775 60 1290 13 521 27 928
45 1285 8 151 19 367 25 480 28 555 44 802 60 955 5 50 14 140 20 200 17 175
41 358 81 628 36 235 52 301 83 342 32 42 109 79 216 104 113 26 161 31 309
31 l158 0 7 -97 c7 -92 14 -141 36 -238 4 -22 14 -67 20 -100 22 -114 54 -193
108 -268 95 -132 424 -191 598 -107 125 61 214 240 214 435 0 44 -7 130 -15
190 -28 206 -28 217 -6 252 13 20 34 36 58 44 45 14 541 25 554 12 4 -4 -1
-42 -12 -83 -33 -123 -36 -225 -9 -322 54 -189 182 -292 377 -306 118 -8 196
21 238 88 32 51 45 124 45 263 1 133 21 336 39 379 6 16 25 37 43 48 31 19 48
20 248 18 l214 -3 13 -120 c44 -432 68 -543 133 -632 55 -75 172 -117 325
-116 122 0 212 22 274 66 97 70 113 142 112 514 0 211 3 280 14 305 18 45 74
95 110 101 43 7 293 -2 400 -14z m725 -332 c0 -167 -3 -306 -6 -310 -7 -6 -76
54 -128 111 -70 76 -103 228 -73 333 26 87 54 121 122 146 33 12 66 22 73 22
9 1 12 -66 12 -302z m1703 65 c160 -76 171 -97 156 -327 -7 -110 -7 -218 2
-377 6 -123 15 -360 19 -528 5 -168 11 -377 14 -465 4 -93 3 -152 -2 -140 -5
11 -15 124 -21 250 -14 246 -23 336 -70 650 -36 234 -46 290 -72 405 -43 183
-52 216 -80 309 -48 156 -71 271 -53 271 2 0 50 -22 107 -48z m-33 -6234 c0
-673 -10 -780 -84 -887 -38 -55 -123 -98 -256 -129 -25 -6 -83 -20 -130 -32
-218 -53 -460 -85 -460 -61 0 6 8 15 18 18 18 7 135 82 334 214 65 43 166 101
224 129 104 50 106 51 131 106 15 34 32 101 43 177 10 67 32 190 49 272 36
176 100 570 108 668 3 37 10 67 14 67 5 0 9 -244 9 -542z"/>
<path d="M2596 7670 c-75 -69 -92 -145 -126 -547 -14 -173 -12 -368 4 -430 25
-94 80 -156 160 -183 77 -25 168 34 181 117 8 45 32 155 46 201 17 60 29 107
38 147 5 22 23 103 42 180 40 169 46 317 16 372 -31 57 -88 105 -173 145 -106
49 -132 49 -188 -2z"/>
<path d="M4849 7658 c-147 -39 -162 -276 -21 -347 92 -47 319 -71 667 -71 116
0 303 -5 416 -11 225 -12 313 -3 407 42 129 63 121 248 -14 305 -117 50 -214
57 -749 59 -371 1 -467 4 -545 18 -106 19 -111 19 -161 5z"/>
<path d="M7105 7651 c-45 -11 -68 -26 -109 -71 -82 -91 -97 -192 -116 -785 -5
-170 -14 -378 -19 -460 -11 -164 -5 -214 30 -251 27 -29 92 -40 145 -25 185
53 252 61 485 61 302 0 367 16 411 102 20 39 29 134 48 533 13 284 27 421 51
520 25 99 26 173 4 217 -58 114 -138 136 -584 158 -228 11 -302 11 -346 1z
m370 -367 c44 -9 83 -19 87 -22 3 -4 0 -43 -8 -87 -12 -61 -14 -145 -12 -355
l3 -275 -60 -22 c-79 -29 -178 -30 -222 -3 -67 41 -99 155 -106 385 -7 204 3
286 40 339 48 69 95 76 278 40z"/>
<path d="M3427 7626 c-46 -17 -100 -57 -124 -93 -58 -86 -72 -168 -94 -553 -9
-156 -19 -234 -51 -390 -65 -316 -71 -359 -58 -410 14 -54 45 -106 71 -120 40
-22 116 -28 234 -19 79 6 232 6 447 -2 362 -12 407 -7 461 47 67 66 108 278
144 739 15 193 15 240 4 385 -15 188 -28 251 -65 315 -37 62 -91 91 -196 104
-128 16 -725 14 -773 -3z m586 -342 c16 -5 17 -31 16 -382 -1 -207 -4 -406 -8
-442 l-6 -65 -269 -3 c-190 -2 -273 1 -282 9 -18 15 -18 172 1 499 17 306 26
338 103 380 35 19 49 20 232 15 107 -4 203 -9 213 -11z"/>
<path d="M5336 6386 c-70 -26 -127 -98 -147 -186 -5 -19 -23 -114 -39 -210
-42 -240 -80 -455 -92 -515 -5 -27 -12 -102 -15 -166 -4 -104 -3 -120 16 -157
26 -50 72 -85 131 -100 27 -7 186 -13 405 -15 198 -3 468 -10 600 -18 227 -12
242 -12 278 6 22 10 43 30 49 44 6 14 15 150 19 301 5 151 16 340 25 420 8 80
20 181 24 224 15 133 -17 234 -89 282 -77 51 -89 52 -736 84 -115 6 -250 13
-300 16 -65 3 -101 0 -129 -10z m340 -355 c110 -11 240 -22 289 -26 50 -3 110
-9 133 -12 50 -6 48 12 18 -163 -9 -52 -21 -126 -27 -165 -21 -136 -37 -188
-69 -219 l-30 -30 -232 -8 c-263 -9 -254 -11 -285 71 -15 39 -18 79 -18 271 0
193 7 300 19 300 2 0 93 -9 202 -19z"/>
<path d="M8480 6039 c-37 -15 -60 -39 -85 -89 -49 -97 -54 -129 -85 -535 -6
-77 -15 -183 -20 -235 -11 -118 -26 -321 -40 -550 -31 -517 -57 -800 -91 -995
-46 -271 -50 -303 -39 -352 15 -63 46 -116 80 -136 60 -36 87 -17 168 119 59
99 62 118 36 242 -15 75 -15 102 5 187 48 211 85 400 127 653 39 244 44 322
55 872 9 501 12 564 31 646 19 86 19 92 3 123 -25 50 -90 72 -145 50z"/>
<path d="M2915 5619 c-47 -18 -103 -78 -124 -134 -38 -100 -72 -619 -51 -760
21 -139 77 -223 179 -268 38 -17 80 -22 241 -29 107 -5 314 -18 460 -29 324
-23 418 -24 468 -3 67 28 127 102 152 189 32 115 52 606 29 717 -28 137 -125
223 -299 266 -119 29 -240 41 -495 47 -121 3 -290 7 -375 10 -100 3 -166 1
-185 -6z m447 -349 c84 -5 198 -14 253 -20 55 -6 128 -14 163 -17 l64 -6 -7
-121 c-10 -181 -23 -278 -44 -306 l-18 -25 -254 -8 c-221 -6 -260 -5 -296 9
-46 17 -76 48 -100 104 -20 46 -29 246 -14 324 14 75 25 89 67 81 18 -3 101
-10 186 -15z"/>
<path d="M7067 5306 c-76 -27 -134 -87 -163 -168 -23 -64 -44 -182 -44 -247 0
-96 -30 -274 -99 -583 -43 -190 -41 -273 6 -323 36 -39 59 -45 185 -45 68 0
235 -5 372 -12 199 -9 270 -9 355 1 173 22 217 56 240 191 131 761 134 783
123 856 -34 223 -136 292 -457 309 -66 4 -172 13 -235 21 -141 17 -233 17
-283 0z m379 -421 c111 -36 209 -72 219 -79 18 -13 22 9 -71 -396 -28 -119 -4
-108 -231 -108 -114 0 -203 4 -210 9 -25 21 -37 146 -25 248 7 53 16 159 22
236 6 77 13 146 16 154 7 20 53 10 280 -64z"/>
<path d="M5038 4262 c-77 -19 -164 -116 -193 -216 -17 -57 -19 -199 -6 -325
22 -198 46 -459 61 -664 17 -235 18 -236 420 -257 213 -11 340 -25 440 -46
199 -44 308 -37 362 23 30 33 76 147 107 264 48 181 68 297 92 534 6 61 15
143 20 183 29 232 -14 351 -151 419 -81 40 -174 59 -360 72 -180 12 -755 22
-792 13z m242 -302 c226 -29 316 -39 405 -45 121 -8 161 -18 199 -48 l28 -23
-20 -85 c-21 -88 -30 -152 -58 -434 -9 -93 -20 -174 -24 -179 -5 -4 -57 -3
-117 4 -59 7 -182 15 -272 19 l-164 6 -12 42 c-12 41 -20 79 -50 258 -8 50
-26 144 -40 210 -31 144 -33 185 -15 248 13 48 14 49 44 42 17 -4 60 -10 96
-15z"/>
<path d="M2937 4247 c-47 -15 -102 -59 -122 -96 -22 -43 -34 -175 -46 -501 -5
-162 -14 -335 -19 -385 -23 -218 -24 -309 -5 -359 21 -55 79 -111 132 -125 21
-6 79 -11 128 -11 50 0 212 -7 360 -16 433 -24 695 -29 741 -14 110 35 154
152 154 409 0 283 -41 860 -66 934 -18 53 -58 91 -112 107 -20 6 -104 15 -186
21 -83 5 -218 16 -300 25 -208 21 -609 28 -659 11z m226 -341 c18 -2 86 -10
152 -16 96 -8 439 -68 504 -86 11 -4 12 -16 6 -57 -5 -28 -9 -178 -10 -332
l-3 -280 -258 -7 c-257 -6 -297 -10 -384 -41 -25 -9 -48 -13 -51 -9 -11 11
-31 346 -33 539 -1 147 -4 174 -19 190 -26 30 -20 63 22 115 11 15 15 15 27 3
8 -8 29 -16 47 -19z"/>
<path d="M7480 2595 c-113 -8 -309 -18 -436 -23 -245 -10 -255 -12 -312 -66
-47 -44 -62 -77 -62 -139 0 -93 40 -157 111 -177 19 -6 117 -10 219 -10 102 0
307 -5 457 -12 304 -13 356 -8 471 43 128 57 184 130 186 241 1 50 -3 61 -29
88 -51 54 -84 62 -250 66 -82 1 -242 -4 -355 -11z"/>
</g>
</svg>
