<?xml version="1.0" standalone="no"?>
<!DOCTYPE svg PUBLIC "-//W3C//DTD SVG 20010904//EN"
 "http://www.w3.org/TR/2001/REC-SVG-20010904/DTD/svg10.dtd">
<svg version="1.0" xmlns="http://www.w3.org/2000/svg"
 width="1080.000000pt" height="1080.000000pt" viewBox="0 0 1080.000000 1080.000000"
 preserveAspectRatio="xMidYMid meet">

<g transform="translate(0.000000,1080.000000) scale(0.100000,-0.100000)"
fill="#000000" stroke="none">
<path d="M3137 9499 c-79 -16 -166 -68 -203 -122 -47 -68 -53 -97 -69 -317
-35 -477 -13 -1228 55 -1935 5 -55 14 -152 20 -215 18 -197 31 -318 56 -525
117 -976 128 -1115 140 -1780 4 -248 1 -529 -11 -905 -42 -1348 -27 -2050 48
-2280 18 -54 72 -140 119 -191 114 -121 226 -159 466 -159 162 0 279 12 792
79 90 12 244 36 465 71 33 6 92 15 130 20 39 5 93 14 120 18 66 12 211 36 414
67 90 14 194 32 230 40 36 7 111 21 166 29 148 24 334 56 385 66 25 5 79 14
120 21 41 6 143 24 225 40 83 15 193 36 245 44 52 9 127 23 165 31 39 9 140
28 225 44 289 53 616 131 793 187 57 18 116 59 151 106 58 76 114 261 100 332
-3 20 -22 54 -40 76 -19 23 -34 51 -34 62 0 12 -7 54 -15 92 -9 39 -27 129
-40 200 -14 72 -39 189 -55 260 -17 72 -41 198 -55 280 -14 83 -34 197 -44
255 -11 58 -24 150 -31 205 -6 55 -15 132 -20 170 -39 291 -47 833 -20 1255
19 293 20 1410 2 1610 -34 369 -46 466 -79 640 -47 256 -65 302 -134 337 -53
27 -80 28 -142 7 -55 -19 -111 -76 -127 -131 -19 -64 -39 -405 -40 -658 0
-240 21 -909 40 -1275 5 -107 17 -334 25 -505 8 -170 19 -368 25 -440 5 -71
14 -191 20 -265 21 -277 42 -513 60 -660 6 -47 15 -128 21 -180 73 -668 122
-1037 160 -1207 13 -58 11 -99 -3 -110 -16 -11 -88 -28 -188 -43 -41 -7 -160
-27 -265 -45 -104 -18 -221 -38 -260 -45 -38 -6 -137 -22 -220 -36 -82 -14
-179 -30 -215 -35 -99 -14 -169 -25 -360 -58 -96 -17 -227 -37 -290 -46 -63
-8 -167 -24 -230 -35 -63 -12 -160 -28 -215 -35 -147 -21 -233 -34 -295 -45
-154 -26 -248 -41 -385 -60 -82 -11 -204 -29 -270 -40 -115 -18 -192 -28 -362
-50 -372 -46 -608 -70 -691 -70 -65 0 -92 17 -115 73 -46 110 -77 797 -78
1727 -1 1165 -24 1685 -108 2490 -18 164 -39 390 -51 525 -6 72 -15 180 -20
240 -21 241 -30 473 -40 975 -13 724 -17 1407 -7 1416 4 5 103 6 220 4 252 -6
495 -6 1112 0 443 4 526 1 920 -30 256 -21 362 -33 645 -76 135 -20 487 -86
610 -115 52 -12 115 -26 140 -31 161 -35 553 -137 562 -146 9 -9 -19 -82 -79
-211 -19 -42 -39 -86 -44 -98 -8 -22 -13 -23 -151 -23 -144 0 -397 -16 -713
-45 -93 -8 -293 -24 -443 -35 -150 -11 -337 -25 -415 -30 -203 -15 -428 -30
-607 -40 -284 -16 -495 -30 -517 -35 -12 -3 -24 -1 -28 5 -3 5 0 78 6 163 18
224 -3 361 -67 436 -47 55 -114 84 -178 78 -281 -28 -394 -36 -471 -37 -110 0
-141 -16 -174 -86 -30 -64 -38 -194 -20 -349 17 -150 17 -208 -3 -314 -23
-126 3 -199 87 -251 71 -44 126 -49 525 -50 426 0 787 19 1120 60 47 6 130 15
185 21 86 9 302 37 520 69 33 4 114 16 180 25 66 9 170 23 230 32 326 45 528
63 910 83 185 9 281 27 325 59 37 26 83 100 159 256 156 317 171 357 171 450
0 76 -33 149 -86 193 -75 62 -282 145 -449 181 -55 12 -119 26 -142 31 -128
29 -180 39 -313 59 -292 44 -440 51 -1497 71 -564 11 -946 32 -1303 70 -316
34 -472 48 -665 59 -290 17 -368 19 -418 10z m1060 -992 c3 -3 -1 -52 -7 -109
-7 -57 -16 -130 -19 -163 l-6 -60 -112 -3 -113 -3 -1 73 c0 40 -2 120 -5 177
l-5 104 131 -5 c72 -3 134 -8 137 -11z"/>
<path d="M5185 8694 c-130 -16 -255 -37 -305 -54 -14 -4 -51 -16 -83 -25 -68
-20 -97 -51 -97 -104 0 -45 25 -74 76 -91 41 -14 223 -9 324 9 30 5 105 15
165 21 61 6 205 25 320 40 116 16 257 34 315 40 135 13 230 25 415 49 83 12
159 21 170 21 15 0 16 3 7 12 -15 15 -86 24 -287 37 -88 6 -209 15 -270 21
-286 27 -630 37 -750 24z"/>
<path d="M4450 7469 c-78 -18 -184 -33 -280 -40 -128 -9 -164 -16 -207 -36
-124 -58 -193 -211 -195 -430 0 -94 2 -104 31 -159 91 -171 136 -184 650 -184
l304 0 41 43 c23 23 47 61 54 84 16 54 15 179 -3 281 -8 45 -17 126 -20 180
-4 53 -11 117 -17 142 -21 82 -118 152 -204 149 -16 -1 -85 -14 -154 -30z
m-25 -420 l0 -134 -179 -3 c-167 -2 -178 -1 -171 15 3 10 18 61 32 113 14 52
27 101 29 108 2 8 33 12 106 12 65 1 114 6 133 15 17 7 35 12 40 11 6 -2 10
-56 10 -137z"/>
<path d="M5084 7325 c-53 -31 -76 -68 -76 -116 1 -52 26 -87 69 -95 37 -7 153
-1 288 16 162 20 629 65 788 75 49 3 125 13 170 21 45 7 103 14 129 14 63 0
69 16 11 29 -27 6 -82 20 -123 31 -159 44 -249 50 -745 50 l-470 0 -41 -25z"/>
<path d="M6750 7150 c-173 -4 -358 -12 -410 -19 -52 -6 -135 -16 -185 -22 -95
-12 -758 -121 -835 -138 -124 -26 -287 -75 -304 -91 -15 -14 31 -30 136 -46
112 -17 406 -15 648 5 69 6 195 15 280 21 176 12 342 31 535 60 33 5 98 14
145 20 144 18 333 55 453 87 l58 16 -62 41 c-34 23 -74 49 -88 58 -14 10 -33
17 -41 16 -8 -1 -157 -5 -330 -8z"/>
<path d="M5660 6570 c-206 -10 -384 -23 -846 -60 -138 -11 -319 -24 -569 -41
-277 -18 -355 -33 -400 -75 -24 -22 -27 -31 -22 -65 6 -49 47 -104 84 -114 47
-13 1197 -17 1498 -6 249 10 473 27 805 62 141 14 256 43 297 75 26 20 33 32
33 60 0 62 -33 91 -145 126 -120 37 -429 53 -735 38z"/>
<path d="M4555 5924 c-16 -2 -77 -9 -135 -15 -273 -27 -405 -55 -457 -95 -39
-29 -70 -86 -79 -141 -6 -40 8 -239 27 -373 26 -183 101 -294 216 -321 34 -7
493 13 622 28 65 7 105 59 136 177 63 240 83 471 49 569 -18 53 -80 128 -127
153 -32 17 -181 27 -252 18z m53 -486 l-3 -123 -68 -8 c-38 -4 -101 -14 -140
-22 -76 -16 -177 -20 -177 -7 0 4 5 23 11 42 6 19 14 71 17 115 l7 80 65 6
c101 10 244 30 249 35 2 2 13 4 23 4 17 0 18 -9 16 -122z"/>
<path d="M5905 5840 c-202 -12 -509 -51 -615 -77 -82 -20 -160 -54 -183 -81
-18 -20 -18 -21 1 -31 40 -21 206 -30 672 -37 592 -8 1107 13 1076 43 -3 3
-43 18 -89 33 -46 15 -116 42 -155 59 -199 84 -399 110 -707 91z"/>
<path d="M6820 5485 c-74 -7 -178 -18 -230 -24 -193 -22 -273 -30 -790 -71
-74 -6 -171 -15 -215 -20 -44 -5 -137 -14 -207 -20 -244 -20 -328 -71 -328
-197 0 -51 18 -82 57 -102 26 -13 131 -14 221 -2 99 14 240 29 392 42 325 26
735 70 840 90 165 31 338 107 512 226 59 40 112 73 118 73 5 0 10 5 10 10 0
14 -212 11 -380 -5z"/>
<path d="M6035 4914 c-226 -16 -406 -42 -505 -74 -127 -41 -174 -49 -315 -54
-82 -3 -235 -11 -340 -16 -104 -6 -300 -14 -435 -19 -266 -9 -310 -17 -350
-69 -26 -32 -25 -61 3 -103 31 -47 95 -80 168 -86 72 -7 284 16 609 67 30 5
118 18 195 29 77 12 190 30 250 41 294 54 643 108 775 120 197 18 212 21 237
49 30 31 27 68 -7 93 -21 15 -47 20 -130 22 -58 2 -127 2 -155 0z"/>
<path d="M6325 4289 c-292 -29 -412 -38 -645 -48 -421 -20 -440 -24 -493 -101
-37 -53 -6 -169 56 -214 28 -20 40 -21 380 -20 386 1 731 21 945 54 107 17
184 29 262 41 97 14 207 47 242 71 54 37 46 104 -16 146 -129 88 -344 109
-731 71z"/>
<path d="M4710 4180 c-80 -4 -237 -8 -348 -9 -231 -1 -245 -5 -311 -76 -56
-61 -64 -100 -58 -290 4 -133 8 -170 27 -219 25 -66 74 -120 146 -162 l49 -29
375 0 c356 0 377 1 408 20 42 26 72 103 72 188 0 34 7 133 15 219 16 182 13
214 -29 276 -57 85 -98 95 -346 82z m65 -377 c3 -21 10 -55 16 -76 6 -22 9
-41 7 -42 -7 -8 -417 -15 -421 -8 -3 5 -6 38 -8 75 l-4 68 124 4 c68 3 126 8
129 11 3 3 38 5 78 5 l73 0 6 -37z"/>
<path d="M5265 3637 c-23 -7 -58 -29 -82 -54 -34 -34 -43 -50 -43 -77 0 -49
15 -77 55 -104 63 -41 165 -42 460 -3 44 5 134 17 200 26 428 55 780 130 780
167 0 19 -119 28 -405 29 -255 0 -829 15 -890 23 -19 2 -53 -1 -75 -7z"/>
<path d="M7295 3349 c-33 -12 -127 -29 -210 -39 -177 -23 -255 -33 -390 -54
-55 -8 -143 -20 -195 -25 -52 -5 -147 -17 -210 -25 -424 -54 -579 -61 -1323
-58 -770 3 -816 0 -932 -64 -39 -22 -40 -24 -40 -73 1 -41 6 -56 29 -80 46
-48 218 -96 439 -122 45 -6 413 -14 817 -19 404 -6 819 -13 921 -16 l186 -6
114 31 c174 49 366 129 659 276 145 72 170 85 268 143 29 18 64 35 77 38 33 8
32 30 -2 42 -16 5 -45 24 -67 41 -45 36 -60 37 -141 10z"/>
</g>
</svg>
