<?xml version="1.0" standalone="no"?>
<!DOCTYPE svg PUBLIC "-//W3C//DTD SVG 20010904//EN"
 "http://www.w3.org/TR/2001/REC-SVG-20010904/DTD/svg10.dtd">
<svg version="1.0" xmlns="http://www.w3.org/2000/svg"
 width="1080.000000pt" height="1080.000000pt" viewBox="0 0 1080.000000 1080.000000"
 preserveAspectRatio="xMidYMid meet">

<g transform="translate(0.000000,1080.000000) scale(0.100000,-0.100000)"
fill="#000000" stroke="none">
<path d="M4000 9050 c-77 -12 -192 -44 -307 -86 -396 -144 -602 -192 -776
-181 -84 5 -141 14 -312 50 -88 18 -336 14 -408 -6 -321 -90 -505 -406 -596
-1022 -21 -139 -32 -214 -52 -330 -44 -265 -61 -319 -169 -545 -134 -280 -180
-447 -180 -650 0 -138 34 -280 155 -645 34 -102 62 -224 81 -350 24 -163 15
-271 -42 -475 -4 -14 -40 -95 -81 -180 -102 -211 -129 -291 -162 -470 -7 -36
-14 -74 -17 -85 -35 -156 -45 -558 -19 -750 61 -457 159 -757 330 -1015 62
-93 240 -274 322 -327 115 -75 251 -120 452 -150 102 -16 197 -18 791 -18 691
0 788 4 934 41 114 29 218 71 280 113 l29 20 68 -63 c101 -94 214 -147 436
-206 215 -57 499 -83 679 -61 94 12 254 42 319 61 17 5 50 14 75 21 115 31
350 114 470 166 140 60 335 174 478 279 21 16 24 15 65 -22 206 -190 452 -271
1127 -373 392 -59 477 -67 592 -52 116 16 168 30 265 76 101 47 182 107 269
196 162 168 250 380 354 849 57 257 96 533 111 800 17 281 6 974 -20 1225 -28
279 -59 549 -72 620 -6 33 -13 134 -16 224 -7 229 12 317 127 580 121 277 182
482 240 811 25 145 34 250 34 425 0 279 -28 430 -110 581 -71 132 -164 204
-329 255 -85 26 -109 38 -170 84 -200 153 -511 200 -979 145 -330 -38 -478
-37 -685 6 -162 34 -308 109 -441 229 -118 105 -231 167 -365 197 -81 18 -344
17 -410 -1 -27 -7 -133 -37 -235 -66 -253 -72 -234 -68 -500 -107 -128 -19
-532 -15 -645 5 -146 27 -371 82 -453 111 -44 16 -133 38 -217 55 -74 14 -252
21 -315 11z m369 -275 c69 -18 178 -48 241 -65 329 -89 661 -120 971 -90 99 9
128 14 302 41 39 6 110 23 157 36 47 13 110 31 140 39 30 8 84 24 120 35 174
54 312 63 444 29 104 -26 156 -57 262 -152 143 -129 191 -161 327 -216 104
-43 329 -80 535 -88 143 -6 241 0 497 31 245 29 446 16 623 -41 127 -41 142
-64 163 -237 14 -123 -2 -244 -61 -447 -87 -298 -182 -605 -200 -645 -5 -11
-17 -47 -27 -80 l-18 -60 -585 -3 c-463 -2 -632 1 -810 13 -123 9 -232 21
-242 26 -47 25 -4 690 66 1022 8 38 16 71 18 73 2 1 127 5 278 7 278 5 717 22
933 36 94 6 123 12 145 28 56 42 71 116 32 158 l-23 25 -316 -1 c-174 0 -365
-4 -426 -10 -60 -5 -247 -12 -414 -15 -335 -6 -334 -6 -391 -70 -42 -48 -60
-92 -60 -148 0 -24 -9 -88 -20 -142 -21 -100 -40 -227 -61 -409 -7 -61 -10
-204 -8 -370 l4 -270 -169 2 c-105 2 -172 6 -176 13 -3 6 -15 126 -25 268 -13
194 -19 410 -21 877 l-4 620 -31 27 c-69 58 -139 44 -179 -37 l-25 -50 -3
-455 c-2 -334 2 -526 14 -725 9 -148 18 -324 21 -391 5 -113 4 -121 -14 -126
-10 -3 -219 -1 -463 4 -407 8 -465 7 -675 -12 -228 -20 -683 -40 -901 -40
l-114 0 0 433 c1 286 6 505 16 647 9 118 19 280 22 360 6 117 11 152 25 174
18 27 18 28 0 48 -24 27 -78 48 -121 48 -28 0 -43 -8 -72 -39 -21 -21 -40 -50
-43 -62 -3 -13 -13 -53 -22 -89 -9 -36 -21 -82 -26 -103 -6 -20 -24 -54 -42
-74 l-32 -36 0 -141 c0 -78 8 -222 18 -321 10 -103 20 -319 24 -506 l6 -326
-59 -6 c-32 -3 -475 -3 -984 -1 -879 5 -928 6 -988 24 -63 20 -64 20 -102 0
-46 -24 -82 -80 -101 -160 -8 -35 -13 -125 -13 -250 -1 -203 6 -247 69 -434
16 -47 97 -339 113 -406 6 -25 16 -66 22 -93 6 -26 10 -120 10 -210 0 -209
-13 -271 -144 -658 -14 -42 -33 -102 -41 -135 -9 -32 -22 -81 -30 -109 -34
-127 -79 -426 -95 -640 -13 -160 -4 -338 26 -540 28 -180 55 -244 128 -297 63
-46 97 -56 249 -78 229 -32 344 -40 682 -47 355 -6 631 6 810 37 315 55 350
77 438 275 143 321 239 778 262 1250 3 61 8 133 11 161 l6 51 186 7 c178 6
287 14 502 36 52 5 142 14 200 19 58 6 141 16 185 22 135 18 331 23 414 9 133
-21 322 -61 461 -97 74 -20 201 -53 283 -74 81 -21 152 -41 157 -44 6 -4 10
-173 10 -453 0 -463 -13 -686 -44 -805 -41 -149 4 -267 101 -267 73 0 112 41
113 118 0 29 4 61 10 71 35 66 65 618 55 1007 -4 161 -3 274 3 277 5 4 69 -4
143 -17 74 -13 184 -29 244 -35 61 -7 142 -17 180 -22 117 -16 809 -12 965 6
74 8 178 20 230 25 52 6 130 15 174 21 57 7 82 7 90 -1 17 -17 28 -377 23
-790 -5 -415 -9 -442 -71 -523 -69 -90 -170 -127 -411 -147 -192 -16 -410 3
-635 57 -228 55 -388 119 -435 175 -25 29 -27 38 -22 93 5 62 37 174 67 235
28 58 57 149 79 255 11 55 30 143 41 195 11 52 22 105 25 118 l5 22 504 0
c565 0 533 -4 560 73 16 48 10 80 -20 111 -21 21 -37 24 -127 31 -279 19 -466
21 -734 9 -309 -15 -325 -18 -361 -76 -30 -48 -44 -95 -82 -275 -33 -157 -74
-311 -101 -384 -81 -220 -92 -256 -97 -332 -6 -95 13 -151 72 -215 104 -113
320 -216 546 -261 30 -6 78 -15 105 -20 155 -31 215 -35 460 -36 177 0 284 4
335 14 349 63 487 208 520 550 14 143 17 596 6 918 -10 286 -9 293 44 293 38
0 74 31 90 80 12 36 11 45 -3 75 -17 36 -50 52 -88 42 -11 -3 -22 0 -24 6 -3
7 -6 122 -9 257 -3 168 -11 295 -26 405 -11 88 -25 194 -30 235 -12 94 -23
158 -51 290 -18 87 -23 147 -27 345 -5 308 6 399 78 600 63 178 82 243 140
470 32 127 75 291 94 365 50 189 68 306 65 432 -1 60 -1 109 2 110 9 5 129
-84 139 -102 6 -11 19 -48 29 -82 87 -295 70 -679 -51 -1138 -41 -157 -171
-509 -212 -575 -24 -39 -54 -131 -67 -205 -15 -88 -16 -399 -1 -498 6 -37 16
-114 22 -172 6 -58 15 -132 20 -165 15 -104 29 -271 46 -555 18 -302 15 -968
-5 -1130 -27 -214 -40 -297 -72 -475 -28 -155 -46 -208 -85 -259 -79 -103
-279 -233 -409 -265 -230 -57 -375 -60 -745 -20 -52 5 -120 14 -150 19 -30 5
-86 15 -125 21 -167 28 -425 102 -592 170 -13 5 -33 13 -45 18 -144 57 -236
81 -324 81 -60 0 -63 -1 -154 -69 -130 -97 -247 -150 -455 -207 -94 -25 -233
-55 -345 -73 -36 -6 -99 -16 -140 -23 -157 -27 -599 -13 -750 24 -126 30 -163
47 -290 138 -142 101 -193 120 -320 120 -72 0 -104 -6 -196 -36 -60 -20 -122
-40 -139 -44 -16 -5 -57 -16 -90 -25 -270 -74 -722 -102 -1145 -70 -665 50
-917 114 -1085 279 -119 116 -222 287 -260 431 -47 178 -50 205 -49 435 0 128
5 247 11 275 6 28 17 79 24 115 28 156 63 261 142 435 25 55 57 126 71 157 60
135 96 306 96 465 0 154 -67 458 -167 763 -73 222 -91 410 -54 585 27 127 44
172 121 330 68 140 113 246 143 340 27 86 74 342 101 550 14 110 33 232 41
270 9 39 18 84 21 100 20 103 110 301 177 392 51 68 89 91 199 119 79 21 233
14 393 -16 159 -30 344 -36 480 -16 148 22 240 46 430 112 299 103 370 126
430 140 88 20 213 10 364 -31z m4407 -2159 c1 0 -5 -48 -13 -106 -9 -70 -14
-214 -15 -435 -1 -331 11 -530 47 -800 8 -60 21 -171 29 -245 40 -365 43 -424
27 -434 -29 -18 -380 -58 -656 -76 -355 -22 -804 2 -1105 60 -52 10 -126 24
-165 30 -38 7 -75 14 -81 15 -6 2 -15 72 -23 182 -19 292 -41 524 -61 673 -12
87 -27 222 -40 355 -14 142 -27 248 -50 415 -24 171 -33 302 -23 316 6 7 33 8
88 2 44 -5 211 -9 370 -10 292 -2 305 -1 520 39 131 25 278 30 725 25 234 -3
425 -5 426 -6z m-2496 -29 l125 -12 2 -45 c1 -25 7 -88 13 -140 26 -244 42
-385 56 -500 8 -69 19 -165 24 -215 6 -49 15 -128 20 -175 11 -86 20 -183 42
-435 7 -77 13 -192 13 -255 l0 -115 -25 3 c-51 5 -331 76 -345 86 -11 9 -11
26 1 106 19 131 18 432 -2 540 -32 177 -35 197 -46 260 -13 82 -11 408 3 520
27 207 24 232 -32 286 l-30 29 -192 7 c-318 10 -962 9 -1132 -3 -174 -13 -200
-21 -240 -73 -53 -69 -65 -123 -65 -282 0 -161 8 -205 65 -355 53 -137 74
-228 90 -389 35 -334 46 -374 115 -414 39 -23 3 -23 630 -17 340 4 345 4 376
26 22 17 33 37 41 71 13 57 4 83 -40 110 -29 17 -57 19 -287 22 -140 2 -322
-1 -404 -7 -99 -7 -155 -7 -167 0 -16 8 -19 22 -19 82 0 71 -19 233 -39 334
-6 28 -29 105 -52 170 -84 242 -82 230 -83 360 -1 81 3 126 11 134 15 15 1227
19 1241 4 6 -6 4 -39 -5 -85 -9 -49 -15 -149 -15 -290 -1 -215 9 -310 55 -535
16 -78 15 -318 -1 -420 -22 -135 -17 -125 -63 -125 -38 0 -64 5 -184 32 -66
15 -217 12 -362 -7 -124 -17 -235 -29 -418 -46 -257 -23 -350 -29 -536 -35
l-196 -7 -7 26 c-3 14 -3 33 0 41 4 9 1 390 -6 847 -9 639 -9 833 0 839 6 4
246 10 533 13 300 3 552 10 592 16 39 6 99 15 135 20 97 13 667 11 810 -2z
m-4095 -29 c116 -4 560 -9 987 -11 428 -2 780 -6 783 -8 13 -14 31 -1717 18
-1736 -6 -8 -242 -12 -935 -14 -510 -1 -931 0 -934 4 -4 3 -1 26 5 49 50 181
69 367 52 519 -7 63 -16 132 -21 154 -34 149 -88 358 -126 488 -61 209 -74
274 -81 408 -7 135 -1 175 25 163 9 -4 112 -11 227 -16z m1764 -2024 c42 -5
43 -6 37 -37 -4 -18 -11 -99 -16 -182 -12 -185 -17 -242 -36 -370 -26 -178
-73 -414 -105 -520 -25 -83 -41 -131 -64 -185 -14 -33 -32 -81 -41 -107 -21
-63 -31 -73 -66 -73 -17 0 -76 -9 -132 -19 -182 -35 -362 -46 -756 -45 -288 0
-410 4 -525 18 -82 9 -193 22 -245 27 -52 6 -98 16 -102 22 -4 7 -10 37 -14
67 -3 30 -10 73 -15 96 -5 23 -14 105 -20 182 -14 159 0 458 27 612 31 174 43
230 63 300 10 34 24 85 40 145 5 17 13 41 19 55 l10 25 948 -2 c522 -2 969 -5
993 -9z m-2285 -2019 c173 -101 425 -155 971 -206 156 -15 644 -15 810 0 311
27 340 32 590 96 193 49 245 59 245 48 0 -8 -38 -91 -83 -181 -41 -83 -127
-138 -267 -170 -182 -43 -338 -52 -929 -52 -469 0 -687 8 -796 31 -103 21
-221 53 -260 69 -64 27 -138 93 -207 182 -87 112 -183 275 -132 224 8 -9 34
-27 58 -41z m5255 31 c-2 -2 -24 -19 -49 -38 l-46 -35 -17 23 c-24 33 -21 42
16 47 47 6 101 8 96 3z m431 -176 c47 -11 110 -25 140 -31 30 -6 73 -14 95
-19 48 -10 205 -36 295 -50 211 -32 581 -40 755 -15 109 15 218 41 307 73 31
11 59 18 61 15 13 -12 -67 -126 -138 -198 -197 -197 -299 -206 -1014 -89 -356
58 -525 101 -662 170 -76 38 -169 104 -169 120 0 5 35 16 78 23 42 7 82 14 87
16 26 9 87 3 165 -15z m-788 -25 c0 -5 -11 -17 -25 -25 -14 -8 -67 -40 -119
-72 -210 -127 -445 -222 -716 -289 -191 -47 -283 -59 -452 -59 -143 0 -194 6
-390 41 -136 24 -119 8 -177 164 -53 143 -70 201 -60 212 4 3 26 -4 50 -15 76
-36 198 -72 317 -94 98 -18 153 -22 370 -22 240 0 267 2 450 32 107 18 231 41
275 52 44 11 98 24 120 29 22 5 74 16 116 25 72 15 214 35 232 32 5 -1 9 -6 9
-11z"/>
<path d="M6170 8584 c-19 -9 -78 -20 -130 -24 -250 -23 -323 -30 -420 -40
-403 -43 -627 -55 -730 -41 -47 7 -104 14 -126 17 -77 11 -142 -52 -163 -158
-5 -24 -14 -68 -20 -98 -43 -210 -64 -506 -59 -865 3 -279 4 -292 26 -332 31
-60 74 -78 212 -93 161 -17 786 -19 920 -2 326 40 430 65 488 116 46 40 62 81
62 158 0 35 5 105 10 157 9 79 8 98 -5 117 -32 49 -142 51 -178 2 -12 -17 -22
-52 -28 -100 -19 -177 -19 -176 -53 -187 -103 -32 -401 -51 -850 -52 -296 0
-371 2 -378 13 -13 18 -1 519 17 704 32 333 42 392 66 385 86 -24 344 -24 549
-1 47 5 128 15 180 20 52 6 124 15 160 20 36 5 108 14 160 20 176 20 235 33
305 66 56 26 75 41 93 72 30 54 28 75 -13 111 -40 35 -47 36 -95 15z"/>
<path d="M3627 8384 c-9 -10 -249 -33 -657 -64 -74 -6 -272 -12 -440 -14 -175
-3 -316 -9 -332 -15 -34 -13 -96 -75 -110 -109 -47 -120 -108 -641 -108 -935
0 -98 3 -124 20 -157 21 -41 67 -82 112 -99 18 -7 273 -11 720 -12 636 -2 696
-1 733 15 73 31 87 53 111 166 16 76 29 125 56 200 29 79 29 163 1 191 -26 27
-106 36 -143 17 -24 -13 -56 -78 -80 -168 -24 -87 -29 -105 -41 -153 -8 -34
-17 -49 -33 -52 -11 -3 -291 -4 -621 -3 l-600 3 3 150 c2 156 16 340 33 460
20 139 41 260 46 269 3 5 62 6 137 2 128 -6 465 6 676 23 312 26 480 43 518
53 49 12 106 69 117 116 9 42 -18 90 -60 108 -38 15 -49 17 -58 8z"/>
<path d="M8752 8013 c-35 -14 -68 -95 -92 -228 -13 -70 -19 -98 -56 -260 -15
-66 -28 -146 -28 -177 -1 -52 2 -61 32 -90 27 -28 40 -33 78 -33 85 0 93 24
200 535 8 41 21 96 29 121 17 59 5 84 -54 116 -42 22 -80 28 -109 16z"/>
<path d="M3320 7913 c-92 -29 -127 -65 -205 -208 -21 -38 -49 -83 -62 -98 -46
-56 -40 -106 18 -150 33 -24 118 -26 153 -4 13 9 39 46 57 84 19 37 49 92 68
122 35 56 91 173 91 190 0 13 -59 57 -85 64 -11 3 -27 3 -35 0z"/>
<path d="M8388 7830 c-37 -11 -86 -47 -100 -73 -6 -12 -29 -71 -50 -132 -21
-60 -47 -122 -58 -136 -27 -38 -33 -70 -21 -116 14 -53 38 -72 98 -80 73 -8
98 19 167 185 31 74 56 140 56 147 0 14 8 35 36 102 18 40 18 46 -3 70 -36 40
-70 50 -125 33z"/>
<path d="M5710 7724 c-49 -44 -84 -129 -74 -181 4 -20 19 -50 35 -67 25 -28
33 -31 87 -31 72 0 102 21 102 69 0 17 13 58 30 91 36 73 37 86 8 112 -35 32
-63 43 -107 43 -33 0 -49 -7 -81 -36z"/>
<path d="M5345 4469 c-33 -4 -96 -12 -140 -18 -44 -6 -105 -15 -135 -21 -114
-22 -245 -40 -290 -40 -39 0 -51 -5 -76 -32 -79 -85 -85 -105 -159 -543 -39
-226 -66 -375 -95 -505 -10 -49 -43 -167 -79 -287 -17 -56 -31 -112 -31 -123
0 -25 46 -70 72 -70 34 0 109 42 134 76 23 29 73 157 94 239 5 17 20 73 33
125 34 127 72 323 97 500 11 80 25 165 30 190 5 25 14 82 21 126 l12 82 91 6
c138 11 216 26 271 54 l50 25 334 3 c360 4 361 4 397 59 9 13 18 42 21 63 4
31 1 43 -18 64 l-24 26 -275 5 c-151 2 -302 1 -335 -4z"/>
<path d="M6174 4165 c-45 -48 -60 -92 -174 -495 -6 -19 -40 -125 -75 -235 -36
-110 -68 -219 -72 -242 -5 -37 -2 -45 25 -72 33 -34 80 -41 127 -19 56 26 174
345 300 813 15 55 36 126 47 158 11 32 17 64 14 72 -8 22 -81 55 -122 55 -29
0 -44 -7 -70 -35z"/>
<path d="M5777 4009 c-34 -26 -49 -56 -122 -239 -59 -150 -66 -171 -90 -280
-26 -114 -17 -163 35 -193 46 -28 87 -22 126 17 19 19 34 42 34 52 0 10 4 31
10 48 84 260 131 392 173 486 13 30 22 61 20 68 -3 7 -22 24 -44 38 -48 30
-104 31 -142 3z"/>
<path d="M8562 3539 c-42 -41 -47 -62 -47 -201 0 -114 1 -118 26 -144 55 -55
180 -37 194 27 4 16 6 71 5 122 -1 50 2 109 5 129 8 45 -5 62 -66 83 -60 22
-81 19 -117 -16z"/>
<path d="M4800 2939 c-34 -12 -60 -57 -67 -118 -9 -79 6 -87 259 -151 185 -46
229 -54 340 -58 163 -6 454 30 521 65 38 19 71 93 64 140 -10 57 -20 63 -111
63 -80 -1 -105 -3 -341 -35 -151 -20 -188 -14 -535 79 -107 29 -96 28 -130 15z"/>
<path d="M8215 6329 c-137 -4 -391 -10 -564 -13 -313 -5 -313 -5 -351 -30 -80
-53 -105 -161 -141 -605 -14 -167 -6 -755 11 -812 14 -51 51 -102 84 -118 52
-25 252 -33 641 -27 426 6 455 10 492 65 30 45 31 109 2 140 l-21 23 -477 -8
c-437 -6 -477 -6 -490 10 -11 13 -13 83 -8 404 5 387 27 709 49 723 6 4 150
10 322 14 550 12 761 22 787 35 52 28 86 98 68 141 -16 40 -67 69 -115 67 -22
-1 -151 -5 -289 -9z"/>
<path d="M7623 5564 c-9 -14 -18 -49 -21 -78 -4 -45 -1 -56 23 -84 55 -65 161
-83 209 -36 52 52 58 157 12 188 -24 15 -125 36 -178 36 -19 0 -33 -8 -45 -26z"/>
<path d="M3115 6508 c-75 -8 -543 -71 -630 -85 -22 -3 -79 -6 -127 -7 -77 -1
-89 -4 -112 -26 -37 -34 -52 -90 -36 -130 23 -54 58 -65 205 -63 120 2 203 12
580 70 64 10 177 16 315 17 l215 1 -2 -325 c-2 -179 -8 -363 -13 -410 -19
-147 -44 -280 -64 -340 -11 -34 -14 -35 -81 -46 -39 -7 -169 -17 -290 -24
-274 -15 -526 -5 -620 25 -15 4 -32 -4 -59 -27 -33 -29 -39 -39 -39 -76 0
-103 41 -131 208 -143 227 -16 718 -5 877 21 172 27 224 110 272 435 26 176
36 349 36 643 0 306 -6 356 -51 428 -40 65 -75 74 -304 72 -110 0 -236 -5
-280 -10z"/>
<path d="M2740 4375 c-543 -39 -525 -35 -600 -128 -92 -113 -129 -263 -137
-554 -6 -219 -1 -247 53 -269 43 -18 58 -18 100 2 50 24 64 58 64 161 0 154
38 419 72 506 10 26 13 27 82 27 39 0 132 7 206 15 183 21 496 35 781 35 207
0 238 -2 243 -16 11 -29 6 -198 -9 -299 -17 -113 -45 -224 -77 -303 -12 -30
-22 -74 -22 -98 -1 -59 41 -104 106 -111 64 -7 93 21 117 112 10 39 23 79 28
90 19 36 44 118 59 194 21 107 32 548 15 590 -26 61 -17 60 -482 59 -235 0
-502 -6 -599 -13z"/>
</g>
</svg>
