<?xml version="1.0" standalone="no"?>
<!DOCTYPE svg PUBLIC "-//W3C//DTD SVG 20010904//EN"
 "http://www.w3.org/TR/2001/REC-SVG-20010904/DTD/svg10.dtd">
<svg version="1.0" xmlns="http://www.w3.org/2000/svg"
 width="1080.000000pt" height="1080.000000pt" viewBox="0 0 1080.000000 1080.000000"
 preserveAspectRatio="xMidYMid meet">

<g transform="translate(0.000000,1080.000000) scale(0.100000,-0.100000)"
fill="#000000" stroke="none">
<path d="M4755 10515 c-151 -33 -269 -97 -371 -201 -87 -87 -124 -159 -124
-236 0 -64 17 -92 65 -108 43 -14 44 -24 5 -40 -39 -16 -116 -101 -161 -176
-71 -120 -100 -222 -101 -354 -1 -88 2 -101 32 -164 78 -163 272 -290 490
-320 70 -10 73 -15 40 -68 -29 -47 -107 -256 -135 -364 -48 -186 -59 -438 -24
-564 11 -41 25 -80 31 -87 14 -18 2 -43 -20 -43 -29 0 -48 27 -83 120 -21 54
-18 412 4 512 27 124 97 310 139 370 23 33 23 44 -2 70 -24 26 -37 17 -22 -17
6 -13 7 -27 3 -30 -13 -7 -86 -162 -109 -230 -56 -164 -81 -333 -82 -542 0
-130 21 -206 71 -247 16 -14 29 -29 29 -34 0 -5 -24 -21 -52 -36 -75 -37 -273
-187 -335 -254 -29 -31 -53 -65 -53 -77 1 -60 43 -145 158 -319 29 -43 52 -83
52 -88 0 -5 11 -26 25 -46 14 -20 25 -40 25 -43 0 -4 -25 -33 -55 -66 -91 -95
-125 -178 -125 -304 0 -85 10 -122 52 -191 24 -38 38 -49 76 -62 72 -23 254
-56 309 -56 l49 0 13 -72 c7 -40 18 -82 23 -93 8 -18 0 -36 -45 -106 -59 -91
-125 -222 -183 -364 -20 -49 -45 -108 -57 -130 -45 -89 -143 -379 -190 -565
-49 -188 -73 -306 -142 -675 -20 -104 -49 -262 -66 -350 -16 -88 -39 -209 -50
-270 -21 -112 -30 -156 -48 -235 -20 -85 -106 -515 -117 -585 -4 -22 -11 -46
-16 -52 -15 -18 -3 -40 24 -46 13 -3 50 -16 83 -30 33 -13 81 -32 107 -41 35
-13 49 -24 56 -45 9 -25 25 -35 114 -69 56 -22 139 -50 183 -62 44 -12 86 -24
93 -26 7 -2 12 -21 12 -46 0 -24 7 -99 15 -168 37 -306 66 -701 54 -716 -5 -7
-20 -15 -33 -18 -67 -17 -320 -144 -441 -222 -73 -47 -201 -159 -236 -207 -71
-97 -101 -201 -67 -235 27 -27 179 0 427 77 69 22 173 54 231 71 144 43 151
45 275 85 61 19 148 42 194 51 106 20 131 29 131 49 0 22 -27 72 -61 116 l-28
35 34 40 c19 21 37 47 40 56 7 19 -36 88 -75 123 -12 11 -40 41 -62 67 l-39
47 25 103 c14 57 32 148 41 203 8 55 20 125 26 155 5 30 16 95 22 145 l13 89
129 -4 c268 -10 586 -3 695 14 58 10 121 20 141 23 l37 5 21 -93 c11 -52 27
-134 36 -184 8 -49 22 -121 30 -160 9 -38 20 -92 25 -120 20 -104 27 -132 33
-142 4 -6 -13 -27 -36 -46 -24 -19 -62 -59 -84 -89 -40 -52 -123 -200 -123
-219 0 -5 22 -42 49 -82 27 -40 59 -92 71 -117 33 -66 188 -287 234 -336 34
-34 52 -44 101 -54 33 -7 109 -29 170 -50 60 -20 130 -43 155 -50 25 -7 57
-17 72 -22 42 -15 143 -15 162 1 52 43 -14 153 -258 426 -118 133 -212 230
-222 230 -5 0 -9 -36 -9 -79 l0 -79 -34 -9 c-59 -16 -112 21 -192 131 -70 98
-109 164 -109 185 0 7 11 34 24 62 14 27 30 63 37 79 l11 30 13 -30 c7 -16 18
-41 23 -55 l11 -25 0 30 c2 103 -34 372 -69 520 -5 22 -19 85 -30 140 -19 89
-34 160 -46 205 -4 17 13 22 221 59 61 10 117 21 125 23 36 8 36 -470 -1 -956
-10 -130 -5 -204 11 -175 13 23 48 345 61 566 11 193 8 514 -6 560 -9 27 19
42 135 72 47 12 117 33 155 46 69 23 104 20 77 -7 -23 -23 -14 -41 16 -33 15
4 56 11 92 14 l65 6 3 57 c3 52 5 58 28 64 25 6 108 1 191 -12 34 -5 44 -3 49
9 3 9 -2 24 -11 33 -16 16 -16 18 7 35 12 10 28 19 34 19 11 0 33 39 59 103 8
23 23 41 35 44 11 3 20 10 21 17 5 115 -5 258 -22 315 -35 113 -79 245 -89
266 -5 11 -27 61 -49 110 -21 50 -66 146 -99 215 -33 69 -75 159 -92 200 -40
91 -193 399 -280 565 -35 66 -100 192 -145 280 -106 206 -166 320 -227 424
-44 75 -48 87 -37 107 8 17 9 27 1 36 -25 31 -192 360 -192 379 0 21 67 69
164 119 36 18 63 69 71 135 9 67 -11 93 -80 103 -41 6 -50 11 -50 27 0 22 5
25 270 152 146 70 270 138 428 236 126 77 227 188 227 248 0 48 -40 139 -88
197 -60 74 -77 88 -139 118 -77 37 -70 74 39 224 62 84 69 98 64 129 -7 42
-26 63 -95 105 -121 72 -189 104 -298 136 -48 15 -109 3 -175 -33 l-38 -21
-42 30 c-24 17 -68 42 -98 56 -121 56 -96 76 64 52 61 -9 149 -17 195 -18 l83
-1 48 52 c134 145 145 393 30 648 -13 28 -32 75 -44 106 -55 145 -187 337
-284 412 -18 14 -22 24 -17 40 16 52 17 195 1 264 -11 50 -15 115 -14 224 1
134 -1 161 -19 206 -44 110 -183 234 -310 275 l-72 23 -12 53 c-17 81 -36 119
-87 174 -114 123 -356 208 -588 208 -59 0 -102 7 -169 28 -116 37 -176 44
-250 27z m185 -44 c65 -19 182 -63 275 -105 28 -12 82 -36 120 -51 119 -49
257 -205 241 -271 -7 -27 -1 -30 20 -10 59 59 -92 256 -261 341 -72 36 -77 40
-51 43 47 6 205 -37 285 -76 124 -61 185 -128 240 -265 6 -15 11 -29 11 -31 0
-1 -33 -8 -72 -15 -40 -7 -100 -19 -132 -27 -32 -7 -62 -11 -67 -9 -4 3 -18 1
-32 -4 -23 -9 -25 -7 -31 22 -9 48 -136 165 -233 215 -43 22 -112 48 -153 57
-135 31 -144 34 -210 75 -90 55 -154 53 -253 -8 -64 -40 -124 -151 -158 -292
-7 -30 -18 -58 -24 -62 -5 -4 -32 -5 -60 -2 -95 11 -119 78 -66 187 36 75 175
200 271 244 28 13 134 49 165 56 46 11 114 6 175 -12z m-69 -140 c53 -38 79
-48 189 -71 71 -15 102 -26 176 -62 71 -35 232 -177 220 -196 -4 -6 -22 -19
-41 -27 -18 -9 -51 -34 -72 -56 l-39 -39 -34 73 c-25 51 -56 93 -105 143 -85
86 -143 121 -232 140 -157 33 -240 9 -337 -97 l-59 -64 6 40 c11 70 74 182
118 212 80 53 140 54 210 4z m80 -142 c94 -30 191 -105 250 -194 26 -38 46
-72 43 -74 -2 -2 -20 11 -40 28 -80 71 -181 96 -389 96 -82 0 -170 -3 -193 -8
-54 -9 -53 -3 14 73 77 89 97 100 179 100 43 0 95 -8 136 -21z m-6 -183 c174
-22 238 -52 327 -159 50 -61 52 -65 42 -116 -7 -33 -24 -40 -44 -16 -21 25
-111 72 -183 95 -83 27 -248 32 -312 11 -120 -41 -171 -70 -228 -131 -56 -60
-83 -109 -116 -206 -37 -108 -24 -196 58 -377 11 -26 21 -50 21 -53 0 -3 -18
5 -39 17 -29 16 -52 44 -90 108 -29 47 -57 103 -63 123 -13 43 -38 51 -38 13
0 -51 106 -227 157 -262 16 -11 47 -25 71 -32 51 -14 113 -65 91 -73 -23 -9
-168 44 -239 87 -95 57 -183 150 -210 221 -26 69 -32 228 -11 304 45 158 151
302 268 362 168 87 318 111 538 84z m919 -21 c142 -34 262 -127 322 -251 32
-66 35 -80 32 -146 -3 -64 -5 -70 -14 -48 -39 85 -132 194 -214 249 -87 59
-162 80 -289 81 -116 0 -277 -27 -305 -52 -28 -23 -63 3 -49 38 6 17 150 92
203 106 157 41 220 46 314 23z m-12 -169 c26 -8 57 -20 70 -27 165 -85 309
-348 325 -590 6 -91 4 -100 -20 -143 -14 -25 -28 -59 -32 -76 -8 -35 -21 -38
-51 -9 -14 13 -41 22 -78 26 l-56 6 0 66 c0 138 -43 215 -210 378 -153 148
-170 158 -291 158 -82 0 -100 3 -118 19 -12 11 -20 27 -19 35 1 9 0 21 -3 26
-4 6 -4 30 0 54 5 39 10 46 36 53 129 37 362 49 447 24z m-797 -40 c76 -20
206 -77 212 -92 3 -7 -17 -39 -45 -71 -52 -61 -67 -89 -53 -98 11 -6 131 124
131 142 0 7 7 13 15 13 8 0 15 -7 15 -16 0 -9 16 -32 35 -51 l36 -36 77 6
c134 10 201 -36 287 -195 26 -49 53 -112 61 -140 26 -97 15 -288 -24 -440 -15
-58 4 -45 36 25 25 54 38 68 95 105 38 24 77 42 94 42 46 0 98 -18 121 -43 22
-24 22 -24 6 -98 -17 -74 -47 -119 -80 -119 -8 0 -14 -4 -14 -10 0 -5 -17 -28
-37 -51 -36 -40 -39 -41 -88 -36 -27 3 -58 7 -68 9 -15 2 -30 -17 -65 -85 -26
-48 -61 -107 -78 -131 -39 -53 -197 -194 -278 -247 -128 -84 -288 -123 -345
-82 -13 9 -44 27 -70 40 -82 44 -277 228 -313 296 -25 49 -31 124 -18 239 6
56 14 131 17 166 6 59 14 75 29 51 10 -16 96 -69 112 -69 9 0 -8 24 -37 54
-28 30 -51 62 -51 70 0 9 15 22 33 29 17 8 46 26 63 40 17 14 49 33 72 42 35
14 45 15 58 4 19 -16 44 -74 44 -105 0 -12 5 -26 10 -29 13 -8 13 -211 0 -236
-6 -10 -20 -19 -31 -19 -35 0 -79 -29 -79 -52 0 -12 18 -37 43 -59 41 -38 67
-49 67 -29 0 6 -4 10 -9 10 -15 0 -81 71 -75 81 8 13 88 11 101 -2 8 -8 13 19
18 97 11 155 2 222 -46 359 -59 171 -60 172 -125 191 -92 26 -124 -7 -109
-111 8 -49 25 -71 25 -32 0 14 7 30 16 38 13 11 23 9 60 -11 26 -13 44 -29 42
-38 -3 -14 -68 -42 -100 -42 -9 0 -18 -6 -21 -12 -3 -9 -15 -3 -36 17 -30 28
-32 33 -25 80 3 27 10 55 14 60 4 6 9 17 11 27 5 19 76 106 134 162 48 46 95
76 155 100 67 26 75 36 48 55 -33 23 -128 17 -213 -12 -143 -51 -174 -64 -213
-90 -38 -25 -89 -88 -107 -132 -16 -41 -33 -151 -28 -183 5 -27 3 -31 -11 -26
-9 3 -16 13 -16 21 0 8 -19 60 -42 116 -45 110 -48 144 -23 240 38 146 138
254 273 298 70 22 234 25 307 5z m-35 -281 c-14 -8 -34 -18 -45 -23 -40 -19
-153 -133 -193 -194 -22 -35 -46 -85 -53 -113 -16 -70 -30 -96 -48 -93 -37 8
-4 155 55 249 58 93 102 132 184 160 41 15 86 27 100 28 l25 1 -25 -15z m-339
-191 c-22 -44 -44 -98 -51 -121 -13 -53 -30 -56 -30 -5 0 44 17 94 48 145 22
35 61 71 69 63 2 -2 -14 -39 -36 -82z m1250 -74 c18 -36 23 -61 23 -130 1 -85
1 -86 -38 -133 -21 -26 -41 -46 -43 -43 -2 2 1 53 8 112 10 101 9 163 -7 254
l-7 35 20 -25 c11 -14 31 -45 44 -70z m-1227 -226 c8 -21 -4 -64 -18 -64 -27
1 -33 15 -19 48 14 35 27 41 37 16z m74 -22 c2 -7 -3 -12 -12 -12 -9 0 -16 7
-16 16 0 17 22 14 28 -4z m1504 -42 c30 -41 105 -271 118 -363 9 -66 9 -110 0
-201 -13 -120 -4 -193 12 -106 35 188 32 321 -8 454 -14 45 -29 97 -34 116
l-9 35 25 -30 c13 -16 50 -82 81 -145 l58 -114 -1 -116 c-1 -119 -24 -239 -61
-318 -22 -48 -141 -167 -220 -220 -34 -23 -65 -42 -68 -42 -4 0 -20 -10 -37
-21 -16 -12 -41 -21 -54 -21 -13 0 -27 -4 -30 -9 -8 -14 -34 -10 -51 7 -14 13
-14 19 -4 36 74 119 125 253 142 376 13 94 7 158 -27 284 -29 104 -27 128 9
128 32 0 59 34 81 104 6 17 9 18 21 5 19 -20 43 -147 56 -297 14 -152 3 -203
-63 -311 -22 -36 -60 -99 -85 -139 -49 -81 -73 -132 -73 -159 0 -15 2 -15 14
-3 7 8 25 35 39 60 13 25 50 87 82 139 80 133 104 182 121 243 37 141 -12 462
-86 549 -26 32 -26 34 -12 71 17 44 35 46 64 8z m-1612 -203 c-6 -18 -14 -75
-17 -128 -5 -78 -3 -102 11 -129 15 -32 15 -35 -2 -54 -31 -34 -47 -89 -62
-207 -9 -76 -3 -164 20 -302 13 -76 5 -97 -35 -97 -30 0 -38 12 -66 95 -22 63
-24 86 -23 230 0 136 5 178 27 277 33 143 50 196 90 273 50 96 61 112 65 92 2
-10 -1 -32 -8 -50z m1409 -213 c31 -90 32 -232 2 -346 -19 -72 -113 -275 -135
-290 -6 -4 -25 0 -44 8 -19 8 -61 14 -93 14 -64 0 -67 4 -45 53 42 94 76 201
76 239 0 24 -12 70 -26 103 -39 90 -39 97 -5 149 16 27 33 61 36 77 9 39 18
43 75 29 43 -10 53 -9 79 6 17 10 31 22 31 27 0 5 6 7 13 5 6 -2 23 -35 36
-74z m542 -169 c16 -38 23 -77 26 -160 8 -173 -21 -282 -92 -344 -40 -35 -53
-36 -217 -22 -138 13 -144 19 -65 70 71 46 160 134 199 196 51 83 87 203 88
296 0 92 7 87 61 -36z m-1902 -180 c24 -168 32 -278 23 -292 -9 -14 -60 -25
-66 -15 -15 25 -38 179 -40 262 -1 94 10 150 42 220 l16 35 3 -35 c2 -19 12
-98 22 -175z m1059 127 c32 -69 30 -154 -8 -262 -16 -47 -30 -95 -30 -107 0
-12 -5 -23 -12 -25 -29 -10 8 -26 76 -31 86 -8 108 -16 193 -74 35 -23 102
-60 150 -83 116 -54 138 -67 138 -79 0 -6 -21 -24 -46 -40 -51 -32 -138 -131
-169 -191 -22 -44 -60 -178 -60 -215 0 -34 -22 -115 -32 -115 -4 0 -8 8 -8 18
-1 40 -150 522 -162 522 -22 0 -2 -91 83 -365 36 -119 43 -154 43 -230 1 -49
-3 -99 -7 -110 -8 -19 -9 -19 -22 5 -8 14 -14 50 -15 80 -1 137 -82 449 -160
615 -25 53 -29 74 -33 185 -6 158 -17 206 -52 234 l-28 23 7 99 7 99 47 46
c26 26 54 47 62 48 9 0 25 -20 38 -47z m-869 -155 l24 -16 -21 -43 c-11 -24
-32 -72 -45 -108 -27 -72 -40 -82 -58 -48 -21 37 -73 343 -62 361 3 5 35 -23
72 -61 36 -38 77 -76 90 -85z m669 -47 c-11 -124 -26 -187 -54 -231 -12 -20
-84 -94 -159 -165 -166 -157 -220 -229 -220 -295 0 -32 6 -54 18 -67 33 -36
106 -64 172 -65 53 -2 67 3 124 37 35 21 81 54 101 72 21 19 40 34 44 34 3 0
6 -40 6 -89 0 -64 -4 -92 -14 -100 -11 -9 -56 -8 -193 5 -168 16 -382 31 -466
33 -23 1 -40 7 -43 16 -10 25 67 287 109 373 22 45 43 82 47 82 3 0 12 -24 20
-52 15 -57 16 -194 1 -246 -8 -25 -7 -32 5 -32 7 0 16 12 20 28 3 15 19 65 35
112 15 47 37 126 48 175 11 50 33 132 48 183 l28 94 50 16 c59 21 128 66 209
139 33 29 63 50 66 46 4 -5 3 -51 -2 -103z m-555 -25 c20 -8 50 -15 67 -15 16
0 30 -4 30 -10 0 -5 -9 -10 -21 -10 -24 0 -109 -41 -146 -70 -14 -11 -29 -17
-34 -15 -8 6 54 135 65 135 2 0 20 -7 39 -15z m97 -79 c0 -7 -18 -25 -40 -40
-41 -27 -139 -143 -195 -231 -66 -105 -97 -170 -177 -377 -14 -36 -49 -37
-176 -2 -10 3 -4 21 21 67 19 34 46 82 59 107 32 58 77 132 116 194 33 51 42
78 19 54 -27 -27 -119 -152 -127 -172 -5 -12 -45 -75 -89 -141 -45 -66 -81
-128 -81 -137 0 -21 28 -129 35 -136 3 -3 5 25 5 62 l0 68 28 -6 c15 -3 56
-10 92 -17 36 -6 68 -16 72 -21 3 -6 19 -12 35 -13 15 -1 87 -8 158 -14 361
-34 577 -51 641 -51 51 0 73 -4 77 -13 5 -13 -3 -88 -23 -222 -5 -38 -14 -106
-20 -150 -23 -201 -66 -455 -79 -468 -8 -8 -68 -11 -208 -9 -183 2 -291 14
-395 42 -21 5 -53 14 -70 19 -42 11 -128 45 -178 71 -60 31 -64 55 -80 442 -6
168 -12 233 -23 248 -7 11 -17 17 -20 13 -4 -3 -7 -60 -7 -125 0 -69 -4 -118
-10 -118 -35 0 -122 69 -246 196 -140 142 -173 189 -188 263 -6 31 -2 38 39
76 63 59 287 218 365 259 65 34 219 92 337 126 81 24 120 43 228 112 97 62
105 65 105 44z m498 -94 c2 -13 8 -19 17 -16 22 9 29 -17 31 -121 1 -94 0
-101 -26 -135 -15 -19 -33 -51 -40 -70 -40 -104 -62 -140 -103 -168 -121 -83
-197 -97 -262 -48 -84 65 -64 140 71 258 174 151 284 269 284 305 0 30 24 26
28 -5z m1011 -258 c52 -20 103 -42 115 -48 75 -42 137 -79 142 -87 6 -11 -47
-79 -104 -135 -67 -64 -226 -179 -294 -212 -73 -35 -106 -40 -114 -17 -4 8
-10 15 -14 15 -12 0 -120 -109 -120 -120 0 -6 -10 -10 -21 -10 -30 0 -76 52
-128 145 l-44 78 17 52 c23 74 84 163 148 218 78 66 244 157 288 157 19 0 77
-16 129 -36z m126 -457 c10 -60 20 -75 70 -98 112 -53 232 -250 194 -321 -23
-44 -81 -108 -98 -107 -9 0 -39 31 -68 68 -28 37 -75 84 -105 104 -56 39 -151
77 -192 77 -40 0 -38 15 7 57 90 83 131 133 121 143 -13 13 -106 -54 -174
-124 -46 -48 -67 -56 -77 -30 -7 20 23 52 127 132 47 36 104 85 127 109 23 25
47 42 52 39 5 -3 12 -25 16 -49z m-671 -96 c31 -60 39 -67 116 -92 34 -11 91
-33 126 -50 36 -16 71 -29 78 -29 44 0 63 -33 26 -45 -42 -13 -159 -183 -246
-357 -16 -32 -35 -58 -41 -58 -7 0 -19 16 -27 35 -31 74 -80 99 -143 74 -116
-48 -125 -58 -168 -176 -14 -37 -25 -77 -25 -88 0 -23 -53 -113 -77 -132 -9
-7 -19 -10 -24 -8 -8 6 59 274 92 362 11 32 30 92 41 133 11 41 24 80 29 86 5
6 25 11 45 12 47 2 64 17 64 57 0 18 11 66 26 107 23 68 42 132 58 201 8 35
20 28 50 -32z m-376 -25 c97 -38 119 -58 132 -120 6 -29 20 -69 31 -90 l19
-37 -37 -16 c-21 -8 -50 -16 -65 -17 -15 -1 -30 -5 -34 -9 -8 -8 -158 -10
-165 -2 -7 7 27 291 37 307 7 12 14 10 82 -16z m908 -233 c73 -24 85 -31 104
-64 24 -44 70 -167 70 -189 0 -43 -459 -277 -628 -320 -41 -11 -53 -19 -60
-39 -19 -62 22 -118 91 -123 41 -3 42 -4 45 -45 2 -22 -4 -58 -12 -78 l-16
-37 -77 7 c-98 9 -112 16 -148 73 -16 26 -59 79 -95 117 -40 42 -71 86 -79
110 -12 38 -11 46 20 125 21 56 44 97 68 121 33 34 90 59 133 59 27 0 88 -101
88 -147 0 -27 21 -30 42 -5 8 9 36 58 63 107 112 211 168 297 214 327 55 35
74 35 177 1z m-2341 -2 c3 -10 41 -53 85 -95 l79 -76 -34 -63 c-19 -35 -35
-67 -35 -70 0 -17 31 -5 39 16 5 12 20 32 33 45 30 27 35 23 72 -58 30 -65 32
-110 7 -165 l-18 -40 -12 45 c-18 66 -35 86 -86 106 -36 13 -49 14 -58 5 -14
-14 6 -31 39 -31 34 0 53 -32 60 -98 5 -48 4 -63 -7 -67 -27 -10 -248 31 -269
50 -60 55 -80 240 -37 346 25 59 104 168 124 168 6 1 14 -7 18 -18z m1534
-664 c6 -12 28 -33 48 -47 36 -25 113 -118 113 -137 0 -6 16 -25 35 -42 27
-23 45 -31 74 -31 21 0 41 -3 44 -7 7 -6 -105 -83 -121 -83 -4 0 -18 -9 -32
-20 -34 -27 -49 -25 -61 8 -22 59 -53 111 -88 149 -89 97 -85 90 -73 120 5 15
15 47 21 71 13 48 22 52 40 19z m-142 -269 c-3 -8 -6 -5 -6 6 -1 11 2 17 5 13
3 -3 4 -12 1 -19z m-981 -27 c5 -5 20 -11 34 -13 16 -2 27 -12 31 -28 5 -18 7
-20 8 -6 1 21 5 20 156 -10 112 -22 435 -26 535 -6 155 31 176 36 203 49 33
16 52 6 69 -37 86 -219 188 -560 236 -790 16 -72 43 -208 49 -240 3 -14 13
-68 23 -120 29 -146 48 -269 70 -450 23 -190 35 -279 57 -405 29 -167 29 -173
-4 -186 -15 -6 -84 -22 -153 -35 -69 -13 -173 -35 -232 -49 -230 -54 -278 -53
-593 15 -105 22 -169 30 -255 31 -63 1 -164 4 -225 8 l-110 6 -6 295 c-21 968
-22 1045 -10 1243 25 422 53 687 78 730 6 10 27 9 39 -2z m1324 -155 c0 -23
119 -252 145 -279 35 -36 23 -49 -40 -45 l-48 3 -22 80 c-12 44 -39 122 -60
174 -31 75 -35 95 -24 102 15 9 49 -16 49 -35z m249 -541 c47 -94 105 -198
127 -232 30 -45 39 -65 30 -72 -17 -13 -131 -43 -151 -39 -13 2 -36 57 -91
222 -93 277 -92 274 -62 286 51 20 58 12 147 -165z m-1968 38 c-6 -43 -13
-107 -17 -143 -7 -86 -15 -99 -47 -77 l-24 16 28 87 c16 47 29 94 29 103 0 10
7 26 15 37 8 10 15 30 15 43 0 13 3 22 6 19 3 -3 1 -41 -5 -85z m-42 -262 c15
-9 14 -25 -9 -206 -6 -44 -13 -117 -17 -163 -3 -45 -10 -85 -15 -88 -13 -8
-107 18 -119 32 -7 9 -6 32 5 76 44 185 68 287 77 321 8 31 14 37 37 37 15 0
33 -4 41 -9z m2234 -193 c19 -40 67 -140 106 -221 39 -82 80 -161 91 -177 11
-15 20 -30 20 -33 0 -17 -204 -51 -228 -38 -25 13 -202 434 -202 479 0 16 12
22 63 32 35 6 70 16 78 21 27 17 36 9 72 -63z m-209 -140 c31 -84 75 -190 97
-236 21 -46 39 -87 39 -93 0 -5 -20 -9 -45 -9 -54 0 -50 -6 -117 188 -27 81
-63 176 -79 211 -38 84 -37 91 9 91 l38 0 58 -152z m-2072 -177 c3 -3 0 -76
-8 -161 -11 -120 -12 -164 -3 -197 12 -44 13 -39 -36 -248 -13 -55 -31 -145
-41 -200 -9 -55 -20 -118 -25 -140 -4 -22 -12 -67 -19 -100 -19 -101 -30 -166
-40 -249 -6 -44 -15 -85 -20 -92 -8 -9 -24 -5 -68 17 -31 16 -62 29 -68 29 -6
0 -19 9 -29 20 -16 18 -17 26 -5 92 18 104 25 143 43 228 9 41 25 134 37 205
42 263 141 790 155 832 3 8 20 6 62 -9 32 -11 61 -23 65 -27z m2533 -191 c8
-14 34 -68 59 -120 24 -52 56 -112 70 -133 14 -21 26 -43 26 -50 0 -15 -147
-47 -214 -47 l-47 0 -38 83 c-79 170 -89 193 -95 224 -9 37 -4 40 109 52 42 5
79 12 83 15 12 12 33 1 47 -24z m-245 -151 c30 -74 63 -147 73 -162 22 -33 11
-40 -54 -35 l-44 3 -57 115 c-59 119 -89 199 -81 213 3 4 28 7 56 5 l52 -3 55
-136z m-2142 -179 c8 0 23 -6 31 -14 14 -13 15 -38 11 -179 -3 -91 -8 -169
-12 -173 -10 -9 -199 76 -205 93 -3 8 1 39 10 71 8 31 20 84 27 117 7 33 17
74 22 92 l9 32 45 -20 c25 -10 53 -19 62 -19z m2572 -42 c0 -6 38 -90 84 -187
46 -97 97 -214 114 -261 52 -144 84 -249 80 -267 -2 -12 -31 -25 -93 -45 -50
-15 -93 -28 -97 -28 -6 0 -168 324 -168 336 0 2 -15 37 -34 77 -114 242 -156
339 -151 347 3 6 21 10 40 10 30 0 62 5 175 29 38 8 50 6 50 -11z m-2410 -12
c23 -13 24 -17 22 -107 -1 -52 -5 -117 -8 -145 -4 -38 -2 -54 7 -60 8 -5 55
-9 104 -9 l90 0 3 -42 c2 -24 0 -43 -4 -43 -4 0 -68 15 -142 32 -83 21 -137
39 -141 48 -4 8 -3 88 2 178 11 176 12 178 67 148z m1827 -27 c31 -62 107
-257 128 -326 8 -27 -7 -34 -117 -59 -81 -19 -77 -22 -109 73 -22 68 -19 103
11 103 36 0 40 30 17 134 -17 79 -18 99 -8 106 21 13 65 -4 78 -31z m83 -2 c7
-18 25 -63 40 -102 15 -38 35 -95 44 -125 9 -30 21 -65 26 -77 26 -61 51 -129
120 -323 67 -189 67 -186 40 -200 -12 -7 -25 -8 -29 -3 -5 4 -20 58 -36 118
-15 61 -40 148 -55 195 -15 47 -44 135 -63 195 -20 61 -58 165 -85 232 -28 67
-48 124 -45 127 11 11 32 -7 43 -37z m188 11 c6 -7 34 -67 62 -133 29 -66 67
-153 86 -193 19 -41 34 -76 34 -78 0 -2 18 -43 40 -90 22 -47 40 -88 40 -89 0
-2 18 -43 40 -90 39 -84 48 -115 33 -115 -5 0 -39 -9 -78 -20 -38 -11 -75 -20
-82 -20 -12 0 -117 257 -198 485 -25 72 -64 175 -86 230 -21 55 -39 106 -39
113 0 8 20 12 69 12 43 0 72 -5 79 -12z m-2413 -267 c3 -5 43 -24 90 -42 47
-17 89 -37 94 -43 5 -7 6 -106 1 -251 -5 -132 -9 -255 -9 -273 -1 -33 -1 -33
-38 -26 -61 11 -247 75 -256 88 -4 6 -5 22 -1 36 6 27 68 395 78 473 7 44 25
62 41 38z m1993 -28 c27 -70 36 -114 23 -122 -21 -13 -173 -33 -182 -24 -5 5
-14 35 -20 67 -12 69 -7 75 61 76 25 0 56 7 70 15 34 19 36 19 48 -12z m-1214
-9 l46 -7 0 -62 c0 -34 -3 -64 -6 -68 -3 -3 -18 -2 -32 3 -15 4 -61 14 -102
21 -41 7 -81 17 -87 22 -14 10 -18 79 -6 90 8 9 126 9 187 1z m211 -32 c33 -7
71 -13 85 -14 24 -3 25 -6 25 -63 l0 -60 -45 2 c-25 2 -73 8 -107 14 l-61 11
-4 60 c-3 63 5 82 31 69 9 -4 43 -13 76 -19z m770 11 c4 -10 13 -40 20 -68 16
-59 11 -65 -53 -65 -40 0 -44 3 -58 36 -28 68 -29 93 -3 103 40 16 86 13 94
-6z m-153 -44 c9 -18 19 -49 23 -66 l7 -33 -44 0 c-24 0 -52 -3 -64 -6 -30 -8
-54 20 -54 65 0 39 2 40 70 69 35 15 43 11 62 -29z m-1316 -8 c16 -5 74 -19
128 -32 54 -13 105 -29 112 -37 10 -10 14 -44 14 -120 0 -59 5 -174 10 -256 5
-82 7 -152 5 -155 -9 -8 -86 -1 -165 16 -41 8 -92 19 -114 23 -49 10 -58 24
-51 79 3 24 5 144 5 267 0 243 -3 233 56 215z m989 -5 c28 0 68 3 90 8 l41 8
23 -52 c20 -43 21 -54 10 -62 -15 -10 -262 -3 -279 7 -6 4 -10 29 -10 57 l0
50 38 -8 c20 -5 60 -8 87 -8z m1026 -86 c18 -60 67 -220 94 -313 10 -35 14
-62 8 -68 -16 -16 -224 -52 -235 -41 -6 6 -14 30 -18 54 -4 24 -15 79 -24 123
-26 128 -36 188 -39 224 -2 34 -2 34 73 56 110 34 120 31 141 -35z m-1586 -5
c50 -9 97 -18 106 -21 13 -4 17 -29 23 -147 4 -78 11 -194 16 -257 4 -63 5
-118 2 -121 -9 -8 -198 10 -227 21 -22 8 -24 29 -51 443 l-6 97 23 0 c13 0 65
-7 114 -15z m1329 -12 c2 -10 7 -38 11 -63 4 -25 20 -114 36 -199 21 -110 27
-156 19 -161 -7 -4 -37 -13 -68 -20 -31 -7 -70 -16 -85 -21 -41 -12 -54 -3
-60 44 -17 132 -48 337 -57 366 -5 19 -7 37 -4 40 5 5 133 25 186 30 9 0 19
-7 22 -16z m-1036 -24 c106 -14 97 -1 107 -149 4 -52 13 -156 21 -230 7 -74
14 -138 14 -142 0 -5 -49 -8 -109 -8 -96 0 -110 2 -115 18 -9 32 -48 503 -42
517 3 8 11 13 18 11 7 -2 55 -10 106 -17z m791 -33 c6 -25 11 -57 11 -71 0
-14 11 -96 26 -182 14 -86 23 -162 20 -169 -3 -8 -20 -14 -40 -14 -33 0 -35 2
-50 54 -25 84 -85 398 -79 413 3 8 22 13 53 13 l48 0 11 -44z m-343 -2 c6 -8
14 -35 17 -62 3 -26 17 -94 31 -152 26 -109 50 -249 44 -255 -9 -9 -333 -34
-341 -26 -5 5 -15 76 -23 157 -7 82 -18 191 -23 242 -5 51 -7 100 -4 107 7 20
282 10 299 -11z m184 5 c0 -38 41 -271 64 -362 22 -86 22 -89 4 -98 -26 -14
-89 -7 -98 11 -5 8 -22 74 -38 145 -17 72 -40 169 -51 217 -12 47 -21 91 -21
97 0 7 27 11 70 11 65 0 70 -2 70 -21z m1378 -274 c5 -94 1 -101 -60 -108 -29
-4 -62 -8 -73 -9 -20 -3 -46 39 -61 96 -7 29 -4 30 101 64 87 28 89 27 93 -43z
m-3345 16 c23 -10 63 -28 88 -39 l46 -20 -14 -73 c-8 -41 -17 -92 -21 -114 -5
-24 -14 -41 -23 -43 -9 -2 -50 13 -92 32 -73 33 -77 36 -77 68 0 36 27 184 36
199 7 12 9 12 57 -10z m3123 -79 c31 -54 30 -70 -2 -82 -14 -6 -50 -21 -80
-35 -75 -34 -111 -33 -118 3 -8 37 -11 101 -6 104 14 9 157 55 169 54 7 0 24
-20 37 -44z m-2823 -31 c50 -16 115 -35 142 -43 l50 -14 3 -114 c4 -156 2
-160 -48 -149 -39 9 -97 29 -155 54 -16 7 -48 20 -70 29 -56 24 -75 43 -70 75
29 184 30 191 45 191 5 0 52 -13 103 -29z m2574 -65 c13 -65 9 -86 -16 -86
-11 0 -23 21 -38 67 -24 71 -20 86 22 81 16 -2 22 -15 32 -62z m-111 4 c7 -19
15 -54 19 -76 l6 -42 -68 -21 c-37 -12 -86 -26 -108 -33 -22 -6 -46 -16 -52
-21 -15 -11 -17 -7 -38 97 -18 90 -17 92 55 102 25 3 68 12 95 19 68 18 78 15
91 -25z m554 -13 c0 -18 -57 -107 -69 -107 -12 0 -25 90 -14 100 20 19 83 24
83 7z m-2650 -27 c30 -6 93 -19 140 -28 l85 -17 3 -133 3 -132 -34 0 c-34 0
-193 32 -269 53 l-43 13 -3 123 c-3 134 4 156 41 141 12 -4 47 -13 77 -20z
m1799 -17 c6 -21 12 -64 13 -96 l3 -58 -85 -29 c-47 -17 -89 -30 -95 -30 -5 0
-19 47 -31 105 l-20 106 20 4 c178 42 183 42 195 -2z m719 -25 c6 -24 8 -46 4
-49 -7 -7 -92 -37 -170 -60 -50 -15 -62 -6 -62 48 0 37 3 40 59 49 38 6 43 4
48 -15 7 -28 28 -21 28 9 0 15 11 30 30 42 43 26 51 23 63 -24z m-971 -63 c6
-39 15 -84 18 -102 7 -37 -14 -63 -50 -63 -21 0 -25 8 -45 95 -24 104 -22 121
12 135 43 17 51 8 65 -65z m-2264 26 c23 -11 62 -26 87 -35 44 -14 45 -15 43
-56 -1 -23 -4 -44 -6 -47 -9 -8 -197 88 -197 100 0 24 13 57 21 57 5 0 28 -9
52 -19z m1151 4 c56 -8 103 -20 107 -27 5 -7 9 -66 9 -130 l0 -118 -36 0 c-19
0 -77 5 -129 12 l-93 11 -6 31 c-4 25 -9 197 -7 229 1 10 42 8 155 -8z m970
-17 c34 -211 35 -206 -32 -215 -37 -5 -42 -3 -46 18 -4 13 -13 53 -22 89 -26
104 -24 123 11 131 69 15 84 11 89 -23z m-171 -5 c3 -10 11 -49 17 -88 7 -38
16 -85 21 -103 9 -39 -1 -45 -108 -62 -37 -6 -69 -13 -73 -15 -12 -7 -190 -9
-197 -1 -11 11 -31 250 -21 261 5 5 75 12 156 15 81 4 159 7 174 8 18 1 28 -4
31 -15z m-422 -11 c6 -6 29 -202 29 -244 0 -16 -12 -18 -104 -18 -74 0 -107 4
-115 13 -10 13 -30 165 -31 236 l0 33 108 -7 c59 -4 110 -10 113 -13z m1431
-30 c10 -38 -3 -62 -32 -62 -13 0 -19 10 -23 38 -8 66 39 87 55 24z m-112 -21
c5 -11 10 -31 10 -44 0 -22 -7 -27 -52 -37 -29 -7 -84 -23 -122 -36 -39 -13
-71 -22 -72 -21 -8 9 -12 65 -6 75 7 11 187 77 219 81 7 0 17 -8 23 -18z
m-2614 -20 c42 -20 259 -91 280 -91 16 0 20 -21 15 -77 -2 -30 -8 -43 -18 -43
-36 0 -288 94 -315 118 -23 19 -25 112 -3 112 1 0 19 -9 41 -19z m2322 -88 c7
-24 8 -41 2 -47 -9 -9 -116 -42 -173 -53 -28 -5 -28 -5 -25 38 l3 44 75 27
c99 35 104 35 118 -9z m412 -17 c-5 -5 -17 -5 -27 -2 -17 7 -17 8 1 22 16 11
21 11 27 2 5 -7 4 -17 -1 -22z m-2296 -30 c34 -8 86 -19 116 -25 168 -32 158
-28 166 -78 4 -30 3 -48 -5 -52 -13 -8 -192 21 -291 47 -65 17 -65 17 -68 56
-3 40 2 66 15 66 3 0 34 -6 67 -14z m1636 -35 c0 -25 -20 -41 -51 -41 -47 0
-43 42 6 68 23 12 45 -1 45 -27z m-142 -32 c3 -26 1 -27 -47 -30 -43 -3 -51
-1 -51 13 0 21 47 49 75 45 13 -1 21 -11 23 -28z m-973 -28 l90 -6 0 -40 c0
-46 17 -43 -167 -30 l-108 7 0 45 0 45 48 -7 c26 -4 88 -11 137 -14z m829 11
c10 -16 -11 -30 -64 -42 -148 -33 -326 -67 -332 -63 -13 7 -9 63 5 68 6 3 79
11 160 19 82 8 151 17 154 20 9 9 71 7 77 -2z m-476 -38 c8 -2 12 -16 10 -36
l-3 -33 -100 4 c-55 1 -103 5 -107 8 -10 5 -10 57 -2 66 7 7 177 -1 202 -9z
m-828 -53 c41 -7 97 -17 123 -22 26 -5 63 -9 82 -9 19 0 37 -4 40 -10 3 -5 1
-36 -5 -67 -5 -32 -28 -168 -51 -303 -22 -135 -44 -265 -50 -290 -23 -109 -23
-108 4 -139 14 -17 31 -47 37 -66 15 -45 6 -57 -99 -127 -119 -81 -271 -144
-521 -217 -41 -12 -92 -28 -112 -36 -21 -7 -40 -10 -42 -6 -8 13 39 75 90 119
48 41 66 43 45 3 -6 -11 -11 -25 -11 -31 0 -29 35 3 107 100 83 111 142 159
229 182 l41 11 6 63 c7 69 -7 444 -23 604 -5 58 -13 135 -16 172 -8 83 -3 101
28 90 13 -5 57 -14 98 -21z m1800 -1381 l90 0 54 -82 c76 -119 80 -143 20
-114 -16 8 -49 23 -74 34 -42 19 -196 132 -212 156 -14 20 -8 27 11 16 11 -5
61 -10 111 -10z"/>
<path d="M5425 9715 c-22 -8 -41 -15 -42 -15 -2 0 -3 -5 -3 -11 0 -7 11 -9 33
-4 88 18 128 17 185 -6 31 -12 62 -25 67 -29 6 -4 46 -26 90 -50 85 -44 119
-68 176 -121 45 -42 109 -139 135 -201 20 -50 34 -62 34 -29 0 61 -77 187
-165 269 -60 57 -153 109 -337 191 -54 24 -116 26 -173 6z"/>
<path d="M5445 9219 c-16 -6 -66 -14 -110 -18 l-80 -6 -3 -47 -3 -46 48 -11
c46 -10 52 -8 128 30 44 22 106 45 138 51 54 12 60 11 112 -15 30 -15 55 -23
55 -17 0 10 -51 50 -87 69 -31 16 -162 23 -198 10z"/>
<path d="M5389 9043 c-6 -16 -15 -36 -20 -45 -11 -23 -12 -61 0 -54 4 3 14 26
21 51 7 25 18 45 24 45 6 -1 29 -12 51 -25 49 -30 82 -45 100 -45 20 0 33 -30
26 -59 -10 -36 -26 -36 -49 1 -18 30 -87 98 -98 98 -13 0 -44 -98 -44 -139 0
-69 27 -101 85 -101 39 0 47 4 84 49 23 27 48 67 55 88 9 23 19 37 27 34 8 -2
34 -6 59 -8 42 -5 47 -3 58 21 12 28 16 66 7 66 -3 0 -16 -7 -29 -15 -30 -20
-83 -9 -103 21 -17 26 -42 31 -61 12 -8 -8 -18 -9 -34 -1 -41 19 -94 33 -121
33 -21 0 -30 -7 -38 -27z"/>
<path d="M4905 8970 c-25 -28 -25 -112 2 -148 54 -73 145 -8 121 87 -18 70
-84 104 -123 61z"/>
<path d="M5342 8910 c0 -14 2 -19 5 -12 2 6 2 18 0 25 -3 6 -5 1 -5 -13z"/>
<path d="M5948 8903 c-36 -42 -50 -93 -24 -93 8 0 17 15 20 34 7 35 25 50 51
40 10 -4 15 0 15 15 0 27 -40 29 -62 4z"/>
<path d="M5910 8700 c0 -5 5 -10 10 -10 6 0 10 5 10 10 0 6 -4 10 -10 10 -5 0
-10 -4 -10 -10z"/>
<path d="M5008 8444 c-34 -18 -37 -39 -5 -30 77 23 139 29 171 18 49 -18 65
-15 36 8 -32 25 -160 28 -202 4z"/>
<path d="M5060 8371 c-42 -12 -30 -35 25 -47 73 -17 105 -17 112 3 15 39 -64
64 -137 44z"/>
<path d="M5936 8458 c4 -24 8 -98 9 -166 0 -67 3 -122 7 -122 11 0 28 67 35
136 5 57 -1 92 -29 167 -17 43 -32 33 -22 -15z"/>
<path d="M4658 7144 c-20 -81 -22 -114 -8 -114 6 0 10 21 10 46 0 25 5 54 11
65 5 11 9 32 7 47 -2 19 -8 6 -20 -44z"/>
<path d="M4736 7102 c-3 -5 0 -14 7 -19 16 -13 311 -41 510 -49 86 -4 160 -10
162 -15 3 -4 1 -27 -4 -51 -11 -48 -25 -120 -41 -218 -6 -36 -12 -110 -13
-165 -2 -88 0 -100 16 -103 15 -3 17 5 18 60 0 35 5 101 10 148 10 89 29 293
32 345 l2 30 -170 6 c-171 7 -390 23 -476 35 -28 4 -49 2 -53 -4z"/>
<path d="M4633 6885 c0 -27 2 -38 4 -22 2 15 2 37 0 50 -2 12 -4 0 -4 -28z"/>
<path d="M4775 6811 c-8 -14 53 -55 100 -69 91 -27 415 -45 415 -23 0 13 -34
20 -125 27 -44 3 -93 9 -110 14 -16 4 -57 13 -90 20 -33 7 -82 19 -109 26 -58
16 -73 17 -81 5z"/>
<path d="M4790 6702 c0 -18 117 -32 288 -33 101 0 186 1 188 4 3 3 -61 8 -143
11 -81 3 -176 11 -209 16 -73 12 -124 13 -124 2z"/>
<path d="M4641 6624 c-1 -27 5 -57 12 -65 11 -15 132 -47 262 -70 87 -15 405
-24 405 -12 0 16 -26 23 -88 23 -53 0 -89 4 -297 31 -105 14 -247 48 -262 63
-6 6 -16 27 -21 46 l-10 35 -1 -51z"/>
<path d="M4864 6626 c14 -11 39 -16 85 -15 63 1 64 2 26 10 -22 5 -60 12 -85
15 -42 5 -44 4 -26 -10z"/>
<path d="M6495 7310 c-60 -60 -106 -110 -102 -110 24 0 237 192 237 214 0 22
-39 -9 -135 -104z"/>
<path d="M5625 5760 c3 -25 30 -128 59 -230 51 -175 63 -222 86 -322 5 -24 16
-72 26 -108 17 -68 25 -108 42 -200 18 -96 104 -523 113 -560 4 -19 12 -54 17
-78 12 -57 22 -64 22 -17 0 44 -17 145 -56 340 -9 44 -19 91 -21 105 -40 213
-88 437 -123 573 -57 219 -117 417 -150 492 -5 11 -11 27 -14 35 -4 8 -4 -5
-1 -30z"/>
<path d="M4731 5740 c0 -20 -5 -40 -10 -45 -9 -10 -35 -239 -47 -409 -5 -81
-4 -98 7 -94 15 5 37 190 38 327 1 41 6 102 12 136 6 34 9 75 6 91 -4 26 -4
26 -6 -6z"/>
<path d="M5044 5447 c-16 -19 -45 -54 -64 -77 -19 -24 -55 -65 -80 -91 -66
-68 -85 -91 -136 -169 -50 -75 -74 -88 -74 -41 0 31 19 58 104 149 73 77 136
164 135 187 0 17 -4 15 -27 -14 -117 -147 -180 -215 -210 -229 l-35 -17 6
-175 c4 -96 12 -193 19 -215 l13 -40 3 50 c2 27 8 55 13 62 7 8 7 18 1 30 -10
16 -1 49 17 63 13 10 71 88 71 95 0 4 -20 -14 -43 -39 -24 -25 -47 -46 -50
-46 -13 0 -7 22 14 52 12 16 18 32 15 35 -3 4 -6 2 -6 -4 0 -6 -9 -13 -20 -16
-11 -3 -20 -4 -20 -2 0 2 21 26 48 52 26 26 53 58 60 71 43 78 50 87 122 161
99 102 167 187 157 197 -2 3 -17 -11 -33 -29z"/>
<path d="M5118 5397 c-32 -39 -85 -101 -118 -135 -34 -35 -60 -66 -57 -68 2
-2 33 26 68 64 36 37 75 73 87 81 11 8 34 32 49 53 15 20 31 38 36 38 12 0 8
-55 -5 -68 -6 -6 -9 -15 -5 -18 7 -8 49 36 45 45 -2 3 -10 23 -18 44 -8 20
-16 37 -20 37 -3 0 -31 -33 -62 -73z"/>
<path d="M5283 5430 c-27 -46 -31 -76 -6 -40 10 14 25 34 35 44 21 23 23 36 6
36 -7 0 -23 -18 -35 -40z"/>
<path d="M5314 5343 c-76 -89 -86 -102 -174 -203 -45 -52 -96 -115 -113 -140
-17 -25 -34 -46 -39 -48 -4 -2 -8 -10 -8 -18 0 -8 -4 -14 -10 -14 -5 0 -10 -6
-10 -14 0 -8 -4 -16 -9 -18 -13 -5 -143 -209 -137 -216 3 -3 8 -3 9 -1 15 18
87 129 87 134 0 10 91 129 102 133 4 2 8 9 8 15 0 7 13 26 28 42 15 17 34 40
42 51 8 12 50 59 92 105 90 99 198 230 198 241 0 20 -21 4 -66 -49z"/>
<path d="M5235 5350 c-3 -5 -1 -10 4 -10 6 0 11 5 11 10 0 6 -2 10 -4 10 -3 0
-8 -4 -11 -10z"/>
<path d="M4971 5024 c-7 -8 -11 -17 -9 -20 3 -2 13 5 23 16 10 11 14 20 9 20
-5 -1 -15 -8 -23 -16z"/>
<path d="M4879 4921 c-76 -75 -109 -121 -109 -148 0 -14 7 -10 28 16 15 19 42
51 60 71 17 21 32 41 32 45 0 4 8 15 18 24 30 28 55 61 46 60 -5 -1 -39 -31
-75 -68z"/>
<path d="M5060 4713 c0 -160 20 -416 33 -429 14 -14 17 48 7 178 -14 197 -13
354 2 378 11 16 9 22 -7 34 -11 9 -23 16 -27 16 -5 0 -8 -80 -8 -177z"/>
<path d="M5245 4774 c-22 -2 -56 -7 -75 -11 -34 -7 -33 -7 20 -14 83 -11 418
-10 425 0 3 5 1 12 -4 16 -12 7 -311 15 -366 9z"/>
<path d="M5734 4716 c-13 -53 7 -196 47 -336 6 -19 13 -45 16 -58 9 -36 23
-36 23 1 0 86 -52 392 -70 411 -5 5 -12 -3 -16 -18z"/>
<path d="M4684 4686 c-9 -36 11 -345 46 -731 6 -62 7 -16 4 150 -7 397 -15
568 -30 589 -12 18 -13 17 -20 -8z"/>
<path d="M5215 4611 c-4 -7 12 -11 47 -11 60 0 211 -22 276 -39 29 -8 63 -31
107 -73 36 -33 65 -57 65 -53 0 22 -45 152 -57 165 -11 12 -53 16 -222 18
-141 2 -211 0 -216 -7z"/>
<path d="M5125 4312 c22 -21 152 -32 373 -32 130 0 233 4 237 9 7 13 -82 19
-370 26 -159 4 -246 3 -240 -3z"/>
<path d="M5136 4212 c30 -27 630 -46 622 -19 -3 6 -29 15 -59 19 -81 9 -574 9
-563 0z"/>
<path d="M6043 3855 c0 -27 2 -38 4 -22 2 15 2 37 0 50 -2 12 -4 0 -4 -28z"/>
<path d="M4752 3734 c3 -19 21 -25 133 -44 33 -5 83 -15 110 -20 91 -18 308
-40 395 -40 85 0 285 20 393 40 106 19 172 30 180 30 4 0 7 7 7 16 0 13 -7 15
-32 10 -145 -27 -457 -46 -633 -40 -136 6 -528 48 -547 60 -6 4 -8 -2 -6 -12z"/>
<path d="M2581 9474 c0 -11 3 -14 6 -6 3 7 2 16 -1 19 -3 4 -6 -2 -5 -13z"/>
<path d="M1801 8305 c0 -12 3 -25 8 -30 5 -6 11 -19 14 -30 4 -15 5 -13 6 8 0
15 -3 27 -8 27 -5 0 -12 10 -14 23 -4 20 -4 20 -6 2z"/>
<path d="M3938 7243 c6 -2 18 -2 25 0 6 3 1 5 -13 5 -14 0 -19 -2 -12 -5z"/>
<path d="M3898 7223 c6 -2 18 -2 25 0 6 3 1 5 -13 5 -14 0 -19 -2 -12 -5z"/>
<path d="M2018 5893 c7 -3 16 -2 19 1 4 3 -2 6 -13 5 -11 0 -14 -3 -6 -6z"/>
</g>
</svg>
