<?xml version="1.0" standalone="no"?>
<!DOCTYPE svg PUBLIC "-//W3C//DTD SVG 20010904//EN"
 "http://www.w3.org/TR/2001/REC-SVG-20010904/DTD/svg10.dtd">
<svg version="1.0" xmlns="http://www.w3.org/2000/svg"
 width="756" height="756.000000pt" viewBox="0 0 756.000000 756.000000"
 preserveAspectRatio="xMidYMid meet">

<g transform="translate(0.000000,756.000000) scale(0.100000,-0.100000)"
fill="#000000" stroke="none">
<path d="M2892 6743 c-13 -3 -22 -9 -20 -15 2 -5 6 -9 8 -8 34 7 50 14 50 21
0 5 -3 8 -7 8 -5 -1 -18 -4 -31 -6z"/>
<path d="M2725 6720 c-3 -5 1 -10 10 -10 9 0 13 5 10 10 -3 6 -8 10 -10 10 -2
0 -7 -4 -10 -10z"/>
<path d="M2618 6713 c7 -3 16 -2 19 1 4 3 -2 6 -13 5 -11 0 -14 -3 -6 -6z"/>
<path d="M3080 6710 c0 -5 5 -10 10 -10 6 0 10 5 10 10 0 6 -4 10 -10 10 -5 0
-10 -4 -10 -10z"/>
<path d="M3260 6705 c0 -8 6 -15 14 -15 22 0 28 17 10 24 -22 9 -24 8 -24 -9z"/>
<path d="M2570 6700 c0 -5 7 -10 15 -10 8 0 15 5 15 10 0 6 -7 10 -15 10 -8 0
-15 -4 -15 -10z"/>
<path d="M2163 6683 c-15 -5 -17 -23 -4 -23 5 0 11 7 15 15 3 8 4 15 3 14 -1
0 -8 -3 -14 -6z"/>
<path d="M2195 6670 c-3 -5 -1 -10 4 -10 6 0 11 5 11 10 0 6 -2 10 -4 10 -3 0
-8 -4 -11 -10z"/>
<path d="M2516 6661 c-3 -4 -19 -11 -36 -15 -18 -3 -29 -10 -25 -16 10 -16 45
-12 52 6 3 8 12 13 19 10 8 -3 14 1 14 9 0 16 -16 20 -24 6z"/>
<path d="M2636 6661 c-24 -5 -26 -8 -15 -17 8 -7 30 -15 49 -18 30 -6 33 -5
19 6 -9 7 -14 19 -12 26 5 13 3 13 -41 3z"/>
<path d="M3030 6662 c0 -4 11 -16 25 -26 14 -10 25 -25 25 -33 0 -9 6 -13 15
-10 8 4 17 2 20 -4 9 -14 25 -1 25 21 0 18 -32 36 -56 32 -7 -1 -14 4 -18 13
-5 15 -36 21 -36 7z"/>
<path d="M3260 6651 c0 -23 14 -41 31 -41 20 0 24 8 11 26 -10 14 -42 26 -42
15z"/>
<path d="M3433 6646 c-34 -16 -30 -40 5 -33 38 8 60 -6 43 -27 -7 -8 -10 -20
-6 -26 3 -5 1 -10 -4 -10 -6 0 -11 5 -11 10 0 6 -7 10 -15 10 -8 0 -15 -2 -15
-5 0 -11 33 -55 41 -55 12 0 37 52 32 67 -2 6 5 14 17 18 23 7 23 25 -1 35 -8
4 -24 12 -36 18 -13 7 -24 11 -25 11 -2 -1 -13 -6 -25 -13z"/>
<path d="M2734 6634 c3 -9 6 -18 6 -20 0 -11 29 -2 33 10 7 18 -1 26 -26 26
-13 0 -17 -5 -13 -16z"/>
<path d="M2790 6640 c0 -5 9 -10 20 -10 11 0 20 5 20 10 0 6 -9 10 -20 10 -11
0 -20 -4 -20 -10z"/>
<path d="M2850 6645 c0 -3 17 -16 38 -29 20 -13 50 -36 66 -50 16 -14 33 -23
37 -20 5 3 9 0 9 -5 0 -6 5 -11 10 -11 6 0 10 9 10 20 0 11 -7 20 -15 20 -9 0
-18 7 -21 15 -4 8 -15 15 -25 15 -10 0 -19 4 -19 10 0 5 7 6 17 3 11 -4 14 -3
9 5 -11 18 -116 43 -116 27z"/>
<path d="M2970 6639 c0 -5 5 -9 10 -9 6 0 10 -7 10 -15 0 -8 5 -15 10 -15 19
0 10 38 -10 43 -11 3 -20 1 -20 -4z"/>
<path d="M3165 6629 c-4 -6 2 -13 14 -16 11 -3 23 -14 26 -24 8 -24 25 -15 25
12 0 12 -10 23 -26 29 -31 12 -31 12 -39 -1z"/>
<path d="M2075 6611 c-3 -12 -11 -21 -16 -21 -5 0 -9 -4 -9 -10 0 -6 8 -6 23
0 12 5 34 11 50 14 31 7 37 26 8 26 -11 0 -26 3 -34 6 -10 3 -18 -2 -22 -15z"/>
<path d="M3320 6621 c0 -11 26 -22 34 -14 12 12 5 23 -14 23 -11 0 -20 -4 -20
-9z"/>
<path d="M2606 6611 c-8 -12 14 -19 37 -13 15 4 16 7 5 13 -17 11 -35 11 -42
0z"/>
<path d="M2552 6580 c0 -14 2 -19 5 -12 2 6 2 18 0 25 -3 6 -5 1 -5 -13z"/>
<path d="M2410 6580 c0 -5 -7 -10 -15 -10 -8 0 -15 -9 -15 -20 0 -15 9 -22 31
-27 17 -3 40 -18 52 -34 11 -16 29 -31 38 -34 11 -4 16 -12 12 -22 -5 -12 -1
-14 17 -8 15 5 20 4 16 -4 -10 -16 -46 -14 -52 3 -3 8 -12 13 -20 10 -47 -14
-46 -13 -17 -37 15 -13 45 -31 65 -40 20 -10 38 -22 40 -28 2 -7 15 -12 28
-13 18 -1 25 -7 23 -19 0 -10 9 -23 21 -28 28 -13 51 -48 39 -60 -6 -6 -20 1
-37 16 -15 14 -38 28 -53 31 -14 4 -28 14 -30 23 -2 10 -14 23 -25 30 -19 12
-20 11 -15 -9 7 -28 -1 -50 -19 -50 -8 0 -14 -4 -14 -9 0 -5 -17 -8 -37 -6
-21 2 -43 -1 -49 -6 -7 -6 -22 -6 -39 1 -15 6 -31 7 -37 4 -7 -4 -8 -2 -4 4
11 18 -2 14 -23 -7 -16 -16 -28 -19 -57 -14 -32 5 -36 4 -31 -10 4 -11 1 -17
-8 -17 -8 0 -15 -4 -15 -8 0 -4 -18 -7 -40 -5 -40 2 -64 -12 -37 -23 8 -3 13
-16 11 -32 -2 -15 -1 -19 2 -9 6 19 20 22 29 7 5 -8 11 -7 21 1 11 9 14 7 14
-10 0 -12 5 -19 10 -16 6 3 10 19 10 36 0 32 16 40 23 12 4 -17 5 -17 6 0 1
15 3 16 14 5 7 -7 17 -22 22 -33 7 -17 9 -17 12 -4 3 14 8 15 28 5 14 -6 25
-14 25 -18 0 -5 5 -8 10 -8 6 0 10 7 10 16 0 9 6 14 13 11 6 -2 11 -9 10 -15
-1 -5 5 -16 14 -24 15 -11 16 -11 10 5 -7 20 -7 20 59 -25 23 -15 44 -28 47
-28 2 0 2 12 -1 28 l-5 27 29 -25 c16 -14 30 -28 32 -32 5 -11 76 3 88 18 8
10 17 7 45 -19 33 -31 69 -43 79 -26 3 4 24 2 45 -6 52 -18 75 -18 75 0 0 9 9
15 21 15 21 0 49 -21 49 -37 0 -17 59 -14 69 4 10 16 13 15 36 -12 14 -16 25
-24 25 -16 0 10 4 11 13 3 6 -5 31 -9 54 -7 35 3 43 0 48 -16 5 -16 12 -19 35
-14 19 4 31 2 37 -8 10 -18 53 -32 53 -18 0 6 7 11 16 11 13 0 15 6 9 27 -5
23 -4 25 9 14 9 -8 16 -10 16 -7 0 4 14 -2 30 -14 18 -13 39 -20 51 -17 10 3
26 -1 34 -10 13 -13 16 -13 21 1 5 12 16 5 51 -32 41 -42 45 -44 39 -20 -3 15
-2 30 4 33 5 3 10 1 10 -5 0 -6 4 -9 8 -6 13 8 39 -28 47 -63 6 -26 11 -31 37
-31 22 0 29 4 25 15 -4 8 -2 17 3 20 6 4 10 14 10 25 0 10 7 20 15 24 10 4 15
-1 15 -14 0 -11 5 -20 10 -20 6 0 8 -11 4 -26 -6 -24 -5 -25 14 -13 17 11 24
9 52 -15 23 -19 36 -24 43 -17 14 14 54 14 62 1 9 -15 46 -12 59 6 13 17 45 9
47 -12 3 -27 4 -31 21 -47 9 -10 20 -26 23 -37 3 -11 13 -20 22 -20 9 0 13 -6
10 -15 -8 -18 2 -24 43 -27 22 -2 35 -9 38 -20 3 -11 13 -17 27 -16 30 3 73
-20 78 -41 3 -11 5 -9 6 6 0 12 5 24 10 27 10 7 8 -74 -2 -91 -5 -7 2 -13 19
-15 15 -2 32 -12 38 -23 6 -11 16 -23 23 -28 7 -4 10 -14 7 -21 -3 -9 3 -17
15 -21 22 -7 26 -16 14 -29 -12 -12 -10 -57 1 -53 6 2 16 -7 23 -21 16 -31 16
-32 -1 -32 -18 0 -60 56 -52 69 3 5 -8 14 -24 21 -17 7 -30 17 -30 22 0 6 -6
8 -14 5 -8 -3 -20 1 -26 9 -7 8 -17 14 -23 14 -8 0 -8 -3 0 -11 6 -6 9 -18 5
-27 -4 -11 -1 -14 11 -9 9 3 16 3 15 -1 -3 -9 39 -89 51 -96 5 -3 12 -22 15
-41 4 -19 11 -35 16 -35 17 0 11 -29 -10 -50 -11 -11 -15 -20 -10 -20 6 0 10
-10 10 -22 0 -13 7 -36 15 -52 15 -29 12 -46 -8 -46 -7 0 -6 4 3 10 12 8 10
10 -9 10 -16 0 -21 -4 -18 -14 3 -8 9 -31 13 -52 5 -29 4 -35 -6 -29 -10 6
-12 4 -7 -9 4 -10 7 -20 7 -22 0 -2 7 -4 16 -4 11 0 15 6 11 20 -8 32 10 32
23 0 10 -24 10 -33 0 -45 -9 -10 -9 -15 -1 -15 6 0 11 -11 11 -25 0 -15 11
-35 26 -48 14 -12 33 -35 41 -50 12 -25 16 -27 30 -15 15 11 16 11 10 -5 -4
-11 6 -56 23 -107 17 -49 30 -100 30 -114 0 -14 4 -26 10 -26 5 0 7 6 4 13 -2
7 4 21 15 31 24 22 29 14 33 -54 2 -25 9 -50 16 -55 7 -6 19 -28 27 -50 8 -22
14 -33 15 -24 0 9 9 28 20 42 12 15 17 32 13 43 -5 12 -3 15 6 9 8 -4 17 -2
22 6 12 20 11 122 -2 156 -6 15 -11 56 -12 89 -1 36 -5 57 -10 50 -5 -6 -6 0
-2 14 4 14 9 54 11 90 2 36 8 92 14 124 8 43 9 71 1 102 -6 24 -11 59 -11 78
0 19 -6 41 -12 48 -7 7 -15 33 -16 58 -4 55 -33 121 -42 96 -5 -14 -8 -15 -26
-1 -26 18 -38 55 -18 55 18 0 18 36 1 47 -8 4 -16 17 -20 28 -22 76 -57 142
-43 80 10 -41 17 -114 10 -95 -4 8 -14 24 -24 35 -23 27 -30 60 -20 96 11 38
3 59 -21 59 -11 0 -22 7 -26 16 -4 11 -13 14 -29 10 -19 -5 -25 -2 -30 18 -3
14 -2 31 2 38 21 34 15 103 -15 163 -16 33 -30 52 -30 43 -1 -29 -15 -21 -33
20 l-18 37 6 -37 c3 -28 1 -38 -8 -38 -8 0 -18 -15 -23 -32 -6 -18 -17 -34
-27 -36 -21 -4 -33 31 -37 111 0 16 -6 27 -13 26 -29 -3 -38 2 -38 22 0 13 5
19 13 16 10 -4 12 4 10 27 -4 29 -3 30 11 12 16 -19 16 -19 16 2 0 12 -6 22
-14 22 -8 0 -16 7 -20 15 -7 19 28 38 57 29 22 -6 22 -6 2 13 -11 10 -28 22
-39 26 -10 4 -16 13 -13 20 3 8 -19 34 -53 63 -32 27 -60 57 -63 66 -3 10 -13
21 -24 25 -10 3 -29 14 -43 24 -14 9 -29 17 -35 17 -12 1 -22 18 -30 55 -3 15
-10 27 -15 27 -15 0 -12 -33 6 -58 9 -13 14 -34 11 -47 -2 -16 3 -31 14 -41
11 -10 19 -23 19 -29 0 -7 14 -28 30 -45 20 -22 28 -36 21 -43 -11 -11 12 -52
34 -61 16 -6 8 24 -9 36 -7 5 -7 8 2 8 7 0 28 -33 47 -72 20 -40 40 -77 45
-82 5 -5 7 -21 4 -35 -3 -15 1 -34 10 -46 14 -17 17 -18 26 -5 8 13 10 13 10
-2 0 -13 -8 -18 -25 -18 -18 0 -25 5 -25 20 0 11 -4 20 -10 20 -5 0 -10 7 -10
16 0 12 -7 15 -25 12 -29 -6 -36 18 -7 25 14 4 13 5 -4 6 -11 0 -25 6 -32 13
-9 9 -12 7 -12 -10 l0 -23 -30 23 c-34 25 -39 43 -10 35 23 -6 24 -3 10 24 -6
10 -19 19 -30 19 -10 0 -21 9 -25 19 -3 10 -15 21 -25 24 -12 3 -20 14 -20 26
0 12 -4 21 -10 21 -5 0 -10 6 -10 13 0 7 -13 27 -30 45 -16 18 -30 37 -30 41
0 13 -40 61 -51 61 -5 0 5 -22 21 -49 17 -26 30 -53 30 -60 0 -6 4 -11 10 -11
23 0 41 -47 34 -90 -5 -28 -10 -37 -15 -28 -5 7 -9 9 -9 5 0 -4 -17 10 -38 33
-34 35 -44 40 -85 40 -61 0 -77 -8 -77 -36 0 -28 -24 -32 -39 -6 -10 16 -10
16 -11 0 0 -31 1 -33 16 -32 16 2 19 -12 4 -21 -5 -3 -18 2 -29 11 -16 14 -17
20 -8 36 10 15 9 22 -4 31 -9 7 -14 18 -12 25 6 15 -33 17 -42 2 -4 -6 -7 -24
-7 -40 -1 -27 -2 -28 -14 -12 -12 16 -13 16 -19 0 -4 -10 -5 -25 -1 -33 3 -8
1 -15 -3 -15 -5 0 -11 7 -14 14 -3 8 -20 22 -36 31 -30 15 -31 15 -31 -5 0
-11 -4 -20 -10 -20 -5 0 -10 6 -10 14 0 8 -9 18 -20 21 -11 4 -18 10 -15 15 3
4 -3 6 -14 3 -26 -7 -37 15 -12 25 11 4 20 10 20 15 1 4 1 10 2 15 0 4 4 -2 9
-13 7 -17 9 -18 9 -2 1 24 -44 41 -70 26 -15 -7 -18 -16 -13 -32 6 -21 6 -21
-13 -4 -11 9 -23 17 -27 17 -18 0 -66 46 -66 62 0 11 -4 17 -9 14 -5 -3 -14 1
-21 9 -20 24 -28 18 -27 -19 1 -25 5 -32 15 -28 10 3 13 0 10 -9 -2 -8 -14
-15 -26 -17 -12 -2 -22 -9 -22 -16 0 -6 -9 -12 -20 -13 -11 -1 -20 4 -20 10 0
7 -16 22 -35 35 -19 12 -35 18 -35 12 0 -5 -4 -10 -10 -10 -5 0 -10 13 -10 29
0 17 -4 32 -9 36 -6 3 -6 17 1 36 6 16 8 33 4 36 -3 4 -6 1 -6 -5 0 -7 -4 -12
-10 -12 -5 0 -10 11 -10 24 0 34 -17 42 -23 11 -3 -17 1 -29 12 -35 13 -7 13
-11 4 -21 -10 -10 -17 -9 -33 6 -19 18 -20 18 -20 -3 0 -16 -5 -19 -22 -15
l-23 5 22 -16 c13 -9 28 -16 35 -14 14 3 58 -31 58 -44 0 -5 -7 -8 -15 -8 -8
0 -15 7 -15 15 0 8 -7 15 -16 15 -8 0 -12 -5 -9 -11 4 -6 -2 -17 -14 -25 -12
-8 -21 -22 -21 -30 0 -24 -20 -16 -38 16 -9 16 -20 30 -24 30 -5 0 -8 7 -8 16
0 9 -6 14 -14 11 -7 -3 -25 6 -40 19 -28 27 -33 25 -14 -6 18 -28 -1 -39 -22
-12 -21 25 -40 29 -40 7 0 -20 -6 -19 -44 10 -18 14 -38 25 -44 25 -7 0 -13 6
-13 13 -1 6 -2 17 -4 22 -1 6 -3 18 -3 28 -1 9 -9 17 -17 17 -8 0 -15 5 -15
10 0 6 7 10 15 10 16 0 55 30 55 41 0 9 -59 39 -77 39 -7 0 -13 6 -13 14 0 8
-9 17 -19 21 -11 3 -31 21 -46 40 -14 19 -33 35 -41 35 -7 0 -14 5 -14 10 0 6
-11 10 -25 10 -14 0 -25 -4 -25 -10z m580 -416 c0 -2 -7 -4 -15 -4 -8 0 -15 4
-15 10 0 5 7 7 15 4 8 -4 15 -8 15 -10z m1210 -4 c0 -11 4 -20 9 -20 13 0 41
-29 41 -43 0 -8 -4 -7 -12 1 -7 7 -18 12 -26 12 -28 0 -54 45 -35 63 12 13 23
7 23 -13z m-790 0 c0 -5 -4 -10 -10 -10 -5 0 -10 5 -10 10 0 6 5 10 10 10 6 0
10 -4 10 -10z m860 -90 c0 -5 -4 -10 -10 -10 -5 0 -10 5 -10 10 0 6 5 10 10
10 6 0 10 -4 10 -10z m-720 -31 c0 -14 -17 -10 -23 5 -4 10 -1 13 9 9 7 -3 14
-9 14 -14z m475 2 c7 -12 -12 -24 -25 -16 -11 7 -4 25 10 25 5 0 11 -4 15 -9z
m163 -383 c-3 -7 -11 -13 -18 -13 -7 0 -15 6 -17 13 -3 7 4 12 17 12 13 0 20
-5 18 -12z m315 -459 c-7 -7 -8 -22 -1 -46 11 -39 8 -46 -10 -34 -18 11 -18
71 -1 82 19 12 25 11 12 -2z m37 -31 c0 -18 -2 -20 -9 -8 -6 8 -7 18 -5 22 9
14 14 9 14 -14z m-56 -91 l17 -28 -25 16 c-15 10 -23 22 -19 31 3 8 6 14 7 12
1 -2 10 -16 20 -31z m166 -43 c0 -8 -4 -12 -10 -9 -5 3 -10 10 -10 16 0 5 5 9
10 9 6 0 10 -7 10 -16z m-207 -125 c-9 -9 -12 -7 -10 9 1 14 5 18 11 12 7 -7
6 -14 -1 -21z m324 -81 c-3 -7 -5 -2 -5 12 0 14 2 19 5 13 2 -7 2 -19 0 -25z
m-127 -318 c0 -5 -2 -10 -4 -10 -3 0 -8 5 -11 10 -3 6 -1 10 4 10 6 0 11 -4
11 -10z"/>
<path d="M3530 6570 c-13 -8 -13 -10 1 -10 9 0 24 -9 34 -20 10 -11 35 -25 56
-30 40 -11 62 -28 79 -61 6 -10 16 -19 22 -19 6 0 16 -7 23 -16 12 -17 55 -12
55 7 0 6 -4 8 -9 4 -10 -6 -24 11 -27 33 -2 8 -6 17 -10 20 -4 4 -4 -1 -1 -10
10 -29 -9 -21 -40 17 -16 19 -45 41 -65 49 -20 9 -40 21 -43 27 -4 5 -13 8
-21 5 -7 -3 -16 -1 -19 4 -8 12 -16 12 -35 0z"/>
<path d="M2006 6545 c-4 -14 -11 -23 -16 -20 -6 3 -10 -1 -10 -9 0 -8 5 -18
10 -21 6 -3 10 -1 10 4 0 6 6 11 14 11 14 0 29 37 20 52 -10 15 -22 8 -28 -17z"/>
<path d="M3682 6553 c2 -10 14 -19 26 -21 21 -3 22 -2 10 17 -16 25 -41 28
-36 4z"/>
<path d="M3120 6550 c0 -5 5 -10 10 -10 6 0 10 5 10 10 0 6 -4 10 -10 10 -5 0
-10 -4 -10 -10z"/>
<path d="M3762 6528 c2 -6 10 -14 16 -16 7 -2 10 2 6 12 -7 18 -28 22 -22 4z"/>
<path d="M1855 6514 c-20 -15 -20 -16 4 -12 14 2 26 9 29 16 5 16 -9 15 -33
-4z"/>
<path d="M1920 6505 c-1 -5 -3 -19 -4 -30 -1 -17 -7 -19 -38 -17 -31 3 -37 0
-40 -19 -3 -26 -28 -39 -28 -15 0 9 -7 16 -15 16 -17 0 -20 -16 -4 -25 6 -4 8
-13 5 -20 -3 -8 10 -22 31 -35 25 -15 34 -17 30 -6 -3 7 3 23 14 34 10 12 19
26 19 32 0 6 10 4 24 -5 23 -16 24 -15 19 4 -3 12 -1 21 5 21 12 0 10 14 -6
50 -6 14 -11 21 -12 15z"/>
<path d="M1955 6500 c-3 -5 -1 -10 4 -10 6 0 11 5 11 10 0 6 -2 10 -4 10 -3 0
-8 -4 -11 -10z"/>
<path d="M2840 6500 c0 -5 5 -10 10 -10 6 0 10 5 10 10 0 6 -4 10 -10 10 -5 0
-10 -4 -10 -10z"/>
<path d="M3810 6488 c0 -18 18 -34 28 -24 3 4 -2 14 -11 23 -16 16 -17 16 -17
1z"/>
<path d="M3895 6480 c-4 -6 -1 -18 6 -26 7 -9 15 -34 18 -55 5 -31 13 -45 40
-61 32 -20 33 -20 29 -2 -2 11 -12 19 -23 19 -15 0 -19 6 -17 22 3 20 -33 113
-43 113 -2 0 -7 -5 -10 -10z"/>
<path d="M2870 6466 c0 -8 5 -18 10 -21 6 -3 10 1 10 9 0 8 -4 18 -10 21 -5 3
-10 -1 -10 -9z"/>
<path d="M2400 6460 c0 -5 5 -10 11 -10 5 0 7 5 4 10 -3 6 -8 10 -11 10 -2 0
-4 -4 -4 -10z"/>
<path d="M2720 6455 c0 -8 7 -15 15 -15 8 0 15 -5 15 -11 0 -6 -7 -9 -15 -5
-11 4 -15 -2 -15 -26 0 -24 3 -28 13 -20 10 8 17 7 28 -6 9 -10 14 -23 11 -30
-5 -15 5 -15 22 0 10 10 10 17 -2 41 -8 17 -20 26 -28 23 -10 -4 -11 0 -4 18
5 15 5 27 -3 35 -16 16 -37 14 -37 -4z"/>
<path d="M3870 6454 c0 -8 5 -12 10 -9 6 4 8 11 5 16 -9 14 -15 11 -15 -7z"/>
<path d="M1970 6450 c0 -5 5 -10 10 -10 6 0 10 5 10 10 0 6 -4 10 -10 10 -5 0
-10 -4 -10 -10z"/>
<path d="M2837 6431 c-6 -25 10 -38 26 -22 8 8 7 15 -5 27 -14 14 -16 14 -21
-5z"/>
<path d="M2924 6413 c-6 -23 -29 -31 -36 -14 -1 5 -12 3 -23 -6 -20 -15 -20
-15 1 -9 16 5 25 -1 40 -29 10 -19 24 -35 31 -35 15 0 17 16 3 25 -6 4 -5 13
2 25 9 14 9 24 0 42 l-11 23 -7 -22z"/>
<path d="M2220 6415 c0 -3 8 -13 19 -24 10 -10 23 -25 27 -34 5 -8 19 -18 31
-21 19 -6 22 -4 16 10 -5 13 -3 15 8 9 12 -8 12 -6 0 8 -8 10 -21 15 -30 12
-10 -3 -24 5 -35 20 -17 22 -36 33 -36 20z"/>
<path d="M3084 6394 c3 -9 6 -20 6 -25 0 -4 7 -6 15 -3 11 5 12 11 4 25 -12
23 -34 26 -25 3z"/>
<path d="M1910 6379 c0 -5 5 -7 10 -4 6 3 10 8 10 11 0 2 -4 4 -10 4 -5 0 -10
-5 -10 -11z"/>
<path d="M2390 6378 c0 -3 10 -10 23 -14 12 -3 30 -13 40 -22 21 -18 47 -24
47 -11 0 5 -4 9 -9 9 -5 0 -12 9 -16 19 -4 13 -17 20 -45 23 -22 2 -40 0 -40
-4z"/>
<path d="M3124 6356 c-9 -20 -8 -27 8 -40 11 -10 27 -14 39 -11 10 4 19 2 19
-4 0 -6 9 -15 21 -21 17 -10 24 -8 41 12 23 27 44 25 77 -8 24 -25 41 -31 41
-15 0 4 -20 30 -44 56 -44 47 -66 52 -66 14 0 -20 -15 -26 -25 -9 -3 6 -16 10
-29 10 -13 0 -31 9 -41 20 -23 26 -28 25 -41 -4z"/>
<path d="M3706 6364 c-9 -23 -7 -34 4 -34 6 0 10 8 10 18 0 9 13 -5 29 -33 16
-27 44 -59 62 -69 l34 -20 -37 46 c-21 26 -38 49 -38 52 0 7 -46 56 -53 56 -2
0 -8 -7 -11 -16z"/>
<path d="M3790 6372 c0 -7 14 -26 30 -44 17 -17 30 -27 30 -21 0 5 -13 25 -30
43 -16 18 -30 28 -30 22z"/>
<path d="M3360 6337 c0 -12 52 -67 64 -67 3 0 1 10 -6 23 -29 50 -58 73 -58
44z"/>
<path d="M3586 6325 c4 -8 11 -15 16 -15 6 0 5 6 -2 15 -7 8 -14 15 -16 15 -2
0 -1 -7 2 -15z"/>
<path d="M1737 6315 c-8 -20 7 -27 36 -16 41 16 42 31 4 31 -21 0 -37 -6 -40
-15z"/>
<path d="M1704 6309 c-3 -6 -1 -16 5 -22 8 -8 11 -5 11 11 0 24 -5 28 -16 11z"/>
<path d="M2370 6310 c0 -5 5 -10 10 -10 6 0 10 5 10 10 0 6 -4 10 -10 10 -5 0
-10 -4 -10 -10z"/>
<path d="M1814 6285 c-14 -14 -28 -25 -32 -25 -12 0 -34 -41 -26 -48 4 -4 9
-1 11 6 7 19 23 14 23 -8 0 -16 7 -20 31 -20 36 0 35 21 -2 31 -15 4 -18 7 -7
8 12 1 15 6 11 18 -4 11 -3 14 5 9 15 -9 42 16 42 38 0 24 -28 19 -56 -9z"/>
<path d="M2771 6294 c0 -11 3 -14 6 -6 3 7 2 16 -1 19 -3 4 -6 -2 -5 -13z"/>
<path d="M2135 6279 c4 -6 13 -8 20 -5 7 2 15 -4 18 -15 3 -10 12 -19 21 -19
19 0 20 9 2 33 -14 18 -72 25 -61 6z"/>
<path d="M3175 6280 c3 -5 8 -10 11 -10 2 0 4 5 4 10 0 6 -5 10 -11 10 -5 0
-7 -4 -4 -10z"/>
<path d="M1915 6220 c3 -5 8 -10 11 -10 2 0 4 5 4 10 0 6 -5 10 -11 10 -5 0
-7 -4 -4 -10z"/>
<path d="M1946 6215 c-3 -8 -1 -15 4 -15 6 0 10 7 10 15 0 8 -2 15 -4 15 -2 0
-6 -7 -10 -15z"/>
<path d="M2922 6210 c0 -14 2 -19 5 -12 2 6 2 18 0 25 -3 6 -5 1 -5 -13z"/>
<path d="M3552 6194 c4 -21 22 -23 26 -1 2 10 -3 17 -13 17 -10 0 -15 -6 -13
-16z"/>
<path d="M1910 6143 c-19 -8 -43 -20 -54 -25 -13 -7 -16 -6 -11 3 5 7 3 10 -6
7 -19 -6 -31 -58 -13 -58 8 0 14 6 14 14 0 7 11 16 25 18 29 6 32 -7 8 -34
-15 -17 -15 -18 6 -18 14 0 25 9 31 26 6 14 14 23 19 19 5 -3 13 0 16 6 5 6
21 8 41 4 38 -7 41 -4 18 19 -14 15 -13 17 8 25 19 8 16 10 -22 10 -25 0 -61
-7 -80 -16z"/>
<path d="M3461 6131 c-1 -27 2 -32 11 -23 8 8 8 17 0 34 -10 22 -11 21 -11
-11z"/>
<path d="M1768 6143 c7 -3 16 -2 19 1 4 3 -2 6 -13 5 -11 0 -14 -3 -6 -6z"/>
<path d="M2042 6130 c-7 -11 -9 -20 -4 -20 10 0 32 22 32 32 0 15 -15 8 -28
-12z"/>
<path d="M3530 6116 c0 -9 5 -16 10 -16 6 0 10 4 10 9 0 6 -4 13 -10 16 -5 3
-10 -1 -10 -9z"/>
<path d="M1821 6043 c-6 -10 -11 -12 -11 -5 0 6 -9 12 -21 12 -11 0 -18 -4
-14 -9 3 -5 1 -12 -5 -16 -5 -3 -10 -15 -10 -26 0 -11 -7 -19 -17 -20 -10 -1
-22 -2 -28 -4 -5 -1 -14 -3 -19 -3 -5 -1 -2 -10 5 -19 10 -11 10 -14 2 -9 -8
4 -13 1 -13 -9 0 -8 -7 -18 -15 -21 -8 -4 -15 -11 -15 -16 0 -6 6 -8 13 -5 6
2 19 -3 27 -11 13 -14 12 -15 -1 -10 -12 5 -19 -3 -27 -30 -6 -20 -10 -37 -8
-39 7 -8 59 59 61 79 1 13 3 29 4 36 0 6 7 12 14 12 25 0 40 19 41 52 1 26 6
34 23 36 26 4 48 27 34 36 -5 4 -14 -2 -20 -11z"/>
<path d="M1440 5919 c0 -5 5 -7 10 -4 6 3 10 8 10 11 0 2 -4 4 -10 4 -5 0 -10
-5 -10 -11z"/>
<path d="M1688 5786 c-12 -9 -18 -27 -18 -54 0 -31 -6 -45 -25 -60 -14 -11
-25 -24 -25 -30 0 -5 -11 -13 -25 -16 -14 -4 -25 -13 -25 -21 0 -20 29 -19 36
0 4 8 11 15 16 15 6 0 17 8 25 18 12 15 13 14 7 -13 l-7 -30 21 23 c16 18 20
35 18 70 -2 35 3 53 18 70 23 26 11 48 -16 28z"/>
<path d="M1510 5588 c0 -16 3 -17 20 -8 11 6 20 15 20 20 0 5 -9 8 -20 7 -12
-1 -20 -8 -20 -19z"/>
<path d="M4190 5564 c0 -8 5 -12 10 -9 6 3 10 10 10 16 0 5 -4 9 -10 9 -5 0
-10 -7 -10 -16z"/>
<path d="M1473 5454 c-7 -7 -13 -19 -13 -26 0 -7 7 -2 16 10 18 26 16 37 -3
16z"/>
<path d="M4350 5414 c0 -8 32 -33 42 -34 4 0 6 9 5 20 -1 14 -8 20 -24 20 -13
0 -23 -3 -23 -6z"/>
<path d="M1447 5403 c-3 -5 -1 -17 4 -28 4 -11 8 -15 9 -10 1 6 3 18 5 28 3
17 -10 24 -18 10z"/>
<path d="M1510 5386 c0 -9 5 -16 10 -16 6 0 10 4 10 9 0 6 -4 13 -10 16 -5 3
-10 -1 -10 -9z"/>
<path d="M1642 5193 c-7 -3 -24 -16 -38 -28 l-25 -23 23 5 c13 3 33 16 46 29
22 23 21 28 -6 17z"/>
<path d="M1514 5086 c-22 -17 -11 -35 13 -20 19 12 29 34 16 34 -5 0 -18 -6
-29 -14z"/>
<path d="M1411 5049 c-13 -17 -21 -32 -19 -34 9 -9 47 8 41 18 -4 6 2 8 15 5
27 -7 27 -3 4 22 -18 20 -19 19 -41 -11z"/>
<path d="M1484 5012 c-19 -12 -46 -81 -40 -99 6 -15 8 -15 17 -3 6 10 7 4 2
-19 -5 -26 -3 -32 7 -26 19 12 2 -57 -18 -74 -15 -12 -14 -12 7 -6 23 7 23 6
17 -41 -4 -27 -9 -69 -13 -94 -5 -41 -7 -42 -15 -20 -5 14 -7 39 -3 55 l5 30
-16 -23 c-10 -14 -14 -32 -10 -48 5 -20 3 -24 -14 -24 -14 0 -26 -11 -36 -35
-19 -46 -18 -52 5 -31 18 17 20 16 26 -4 4 -12 1 -27 -5 -35 -10 -12 -10 -15
0 -15 16 0 39 30 40 52 0 9 6 21 13 25 17 10 37 80 30 101 -5 11 -2 14 9 10
12 -5 14 13 14 132 -1 76 -4 133 -7 128 -4 -6 -10 -1 -14 11 -4 13 -1 28 6 37
13 16 9 27 -7 16z"/>
<path d="M1333 4924 c-7 -7 -13 -23 -13 -35 0 -21 1 -22 20 -4 20 18 26 40 13
48 -5 3 -14 -1 -20 -9z"/>
<path d="M4386 4931 c-4 -7 -5 -15 -2 -18 9 -9 19 4 14 18 -4 11 -6 11 -12 0z"/>
<path d="M1162 4863 c-18 -2 -30 -8 -27 -13 3 -4 14 -6 25 -3 11 3 27 -1 36
-8 21 -17 54 -37 76 -45 18 -7 33 -38 24 -52 -3 -5 1 -18 10 -28 13 -17 14
-15 8 31 -4 28 -11 55 -15 61 -5 6 -7 18 -4 26 4 9 -1 18 -9 21 -11 5 -16 0
-16 -13 0 -11 -5 -20 -12 -20 -6 0 -8 3 -5 7 6 5 -49 46 -56 41 -1 0 -17 -3
-35 -5z"/>
<path d="M1435 4850 c-3 -5 -1 -10 4 -10 6 0 11 5 11 10 0 6 -2 10 -4 10 -3 0
-8 -4 -11 -10z"/>
<path d="M1039 4743 c-6 -16 -18 -36 -27 -47 -25 -27 -24 -264 2 -321 36 -81
43 -116 67 -330 7 -68 20 -120 38 -163 27 -61 102 -156 149 -188 23 -15 23
-15 11 8 -7 13 -27 39 -46 58 -18 19 -33 42 -33 51 0 10 -12 28 -27 41 -41 36
-55 65 -69 143 -14 81 -10 99 20 90 11 -4 29 -8 40 -9 10 -1 34 -20 53 -42 37
-42 38 -41 8 29 -19 45 -28 51 -72 50 -7 -1 -13 3 -13 9 0 5 -5 6 -10 3 -13
-8 -20 11 -24 61 -2 23 -7 38 -14 36 -7 -1 -12 8 -12 21 0 13 -4 27 -8 33 -5
5 -14 29 -21 54 -7 25 -19 55 -27 68 -33 51 -10 282 33 349 10 15 11 23 4 23
-6 0 -16 -12 -22 -27z"/>
<path d="M2348 4705 c-25 -13 -48 -21 -52 -18 -3 4 -20 -9 -36 -27 -32 -36
-41 -63 -12 -38 9 8 24 18 32 22 8 3 29 15 45 25 17 11 37 20 46 20 15 1 35
29 26 37 -2 2 -24 -7 -49 -21z"/>
<path d="M2571 4721 c-8 -5 -10 -14 -6 -22 6 -11 5 -12 -6 -1 -7 6 -22 12 -33
12 -20 0 -20 -1 2 -16 12 -8 20 -19 17 -24 -10 -16 28 -20 45 -5 19 17 50 10
50 -11 0 -20 39 -39 53 -25 8 8 6 11 -8 11 -17 0 -18 2 -5 10 10 6 11 10 3 10
-7 0 -13 4 -13 10 0 5 10 9 22 7 17 -1 24 4 26 20 3 18 -1 21 -20 19 -13 -1
-30 -6 -37 -10 -7 -5 -17 -4 -23 2 -6 6 -17 8 -24 5 -8 -3 -14 0 -14 6 0 13
-10 14 -29 2z"/>
<path d="M1090 4697 c0 -13 24 -52 47 -76 8 -7 12 -21 9 -30 -2 -9 -7 -59 -11
-111 -3 -52 -11 -107 -16 -122 -8 -19 -8 -32 0 -45 9 -16 10 -15 10 7 -1 14 4
50 11 80 6 30 12 75 12 100 0 25 2 39 5 33 7 -20 26 -15 21 5 -3 10 1 27 9 38
14 19 15 19 28 0 14 -19 45 -16 45 4 0 22 -57 90 -93 109 -44 24 -77 27 -77 8z
m105 -66 c3 -5 1 -12 -4 -15 -13 -8 -42 4 -35 15 7 12 31 12 39 0z"/>
<path d="M2735 4698 c-13 -40 -10 -53 17 -56 14 -2 32 -10 40 -19 11 -14 10
-15 -12 -8 -38 12 -52 11 -57 -3 -3 -7 1 -10 11 -6 8 3 29 -1 47 -10 18 -9 42
-13 55 -10 17 4 26 1 30 -10 7 -20 44 -21 44 -2 0 7 7 19 15 26 10 9 15 9 15
1 0 -6 -5 -11 -11 -11 -6 0 -7 -5 -2 -12 4 -7 6 -22 4 -32 -2 -15 2 -18 18
-13 13 3 21 0 21 -8 0 -17 29 -40 38 -30 4 4 1 10 -5 12 -18 6 -16 40 2 47 10
3 15 -1 15 -11 0 -9 3 -13 7 -9 17 16 6 42 -22 57 -16 9 -52 28 -79 43 -27 15
-51 24 -54 22 -3 -3 -20 3 -38 14 -18 12 -36 19 -41 18 -4 -1 -18 3 -31 10
-18 10 -23 10 -27 0z m232 -130 c-3 -8 -6 -5 -6 6 -1 11 2 17 5 13 3 -3 4 -12
1 -19z"/>
<path d="M1055 4690 c3 -5 8 -10 11 -10 2 0 4 5 4 10 0 6 -5 10 -11 10 -5 0
-7 -4 -4 -10z"/>
<path d="M4418 4673 c5 -21 7 -23 10 -9 2 10 0 22 -6 28 -6 6 -7 0 -4 -19z"/>
<path d="M4450 4587 c0 -7 4 -17 9 -22 5 -6 13 -27 16 -47 6 -31 4 -38 -9 -38
-9 0 -16 -8 -16 -20 0 -11 7 -20 15 -20 8 0 15 8 15 18 0 33 13 33 42 2 29
-32 35 -33 19 -2 -5 9 -17 36 -26 59 -10 23 -24 44 -31 47 -8 3 -14 12 -14 21
0 8 -4 15 -10 15 -5 0 -10 -6 -10 -13z"/>
<path d="M4520 4585 c0 -9 40 -85 44 -85 8 0 -6 65 -16 78 -11 12 -28 17 -28
7z"/>
<path d="M1265 4498 c-7 -28 -1 -48 16 -48 12 0 12 40 0 59 -8 12 -11 9 -16
-11z"/>
<path d="M4262 4509 c2 -6 8 -10 13 -10 5 0 11 4 13 10 2 6 -4 11 -13 11 -9 0
-15 -5 -13 -11z"/>
<path d="M1355 4487 c-4 -10 -5 -21 -1 -24 10 -10 18 4 13 24 -4 17 -4 17 -12
0z"/>
<path d="M4280 4455 c6 -15 10 -28 10 -31 0 -9 -26 -3 -53 11 -34 17 -217 30
-217 15 0 -6 -26 -10 -62 -10 -71 0 -99 -3 -113 -12 -6 -3 -27 -9 -47 -13 -39
-8 -74 -37 -63 -54 3 -6 1 -11 -5 -11 -6 0 -18 -7 -27 -15 -8 -8 -19 -13 -23
-10 -13 8 -91 -45 -84 -56 3 -5 -3 -9 -12 -9 -20 0 -74 -48 -74 -65 0 -6 -5
-16 -11 -22 -7 -7 -13 -25 -14 -42 -2 -27 0 -29 16 -20 11 5 19 13 19 17 0 8
96 109 130 136 75 60 303 127 332 98 6 -6 21 -7 38 -2 16 5 56 6 89 3 50 -5
59 -8 50 -19 -9 -11 -8 -18 1 -28 6 -8 14 -34 16 -58 3 -24 7 -49 9 -57 4 -10
-2 -12 -20 -8 -15 2 -32 -1 -39 -8 -10 -10 -24 -8 -71 11 -32 13 -70 24 -84
24 l-26 -1 28 -20 c19 -15 27 -30 27 -51 0 -30 24 -37 26 -7 3 49 8 50 58 10
21 -16 42 -32 49 -34 19 -7 -64 -74 -112 -92 -59 -20 -83 -20 -53 1 17 12 19
18 10 28 -9 10 -15 9 -30 -6 -10 -10 -27 -18 -38 -18 -11 0 -20 -4 -20 -10 0
-5 5 -10 12 -10 6 0 9 -3 5 -6 -8 -8 -107 16 -107 26 0 4 -11 11 -25 14 -23 6
-83 41 -113 67 -10 8 -10 14 -1 26 10 11 4 10 -24 -4 -49 -24 -46 -32 23 -61
14 -6 60 -27 103 -46 66 -31 88 -36 155 -37 42 0 93 4 112 10 45 14 43 15 36
-13 -7 -28 10 -44 27 -27 6 6 14 11 18 11 7 0 19 -53 25 -115 3 -22 5 -46 6
-54 2 -17 28 16 28 36 0 7 8 13 18 13 10 0 28 9 40 20 23 22 68 28 56 8 -5 -8
-2 -9 10 -5 10 4 20 7 22 7 2 0 4 5 4 10 0 6 -7 10 -16 10 -8 0 -12 5 -9 10 4
6 15 8 26 5 15 -5 19 -1 19 15 0 16 -5 20 -15 16 -8 -3 -15 -1 -15 4 0 6 7 10
16 10 8 0 13 4 10 9 -9 14 -55 1 -49 -15 3 -8 0 -14 -6 -14 -6 0 -11 7 -11 15
0 21 -20 19 -20 -2 -1 -31 -30 16 -30 48 0 18 -6 28 -20 32 -11 3 -20 10 -20
16 0 6 9 11 20 11 23 0 26 26 9 75 -11 28 -9 35 10 54 11 11 21 26 21 32 0 6
7 4 15 -5 8 -8 15 -19 15 -24 0 -5 -7 -15 -15 -22 -22 -18 -19 -27 13 -38 l27
-10 -34 -14 c-35 -16 -35 -18 18 -46 14 -7 27 -9 30 -4 7 10 41 10 58 -1 17
-11 24 7 16 44 -6 32 -7 32 -13 10 -3 -16 -13 -25 -28 -26 -18 -1 -22 3 -22
30 0 32 20 61 33 48 4 -3 7 5 8 18 l0 24 10 -23 c16 -40 29 -14 29 58 0 51 3
68 13 65 20 -9 46 -62 40 -85 -5 -18 -2 -21 13 -18 10 2 18 11 18 21 -1 9 2
14 7 11 5 -3 12 2 16 12 4 11 -2 23 -18 36 -13 11 -18 17 -11 13 17 -9 28 23
13 38 -10 9 -16 8 -27 -7 -14 -19 -14 -19 -14 3 0 29 -18 63 -30 56 -6 -3 -18
-1 -27 4 -10 6 -12 11 -5 11 6 0 12 10 12 23 0 18 -2 19 -10 7 -5 -8 -10 -10
-11 -5 -1 6 -2 16 -3 22 0 7 -5 14 -11 15 -19 3 -17 -33 4 -82 23 -54 25 -60
13 -60 -14 0 -77 104 -74 122 2 9 -6 22 -17 28 -19 10 -20 9 -11 -15z m-350
-35 c0 -5 -7 -10 -16 -10 -8 0 -12 5 -9 10 3 6 10 10 16 10 5 0 9 -4 9 -10z
m234 1 c4 -5 -3 -7 -14 -4 -23 6 -26 13 -6 13 8 0 17 -4 20 -9z m121 -118 c14
-15 25 -32 26 -38 0 -5 2 -34 2 -62 2 -44 -1 -53 -15 -53 -13 0 -18 8 -19 28
-1 59 -10 95 -30 123 -17 24 -18 29 -5 29 8 0 27 -12 41 -27z"/>
<path d="M4480 4411 c-15 -28 1 -49 19 -27 9 10 10 20 3 32 -9 16 -11 15 -22
-5z"/>
<path d="M2601 4396 c-28 -10 -31 -14 -17 -19 10 -4 14 -12 10 -19 -5 -8 -2
-9 10 -5 10 4 22 7 27 7 6 0 7 9 4 21 -5 14 -3 19 3 15 6 -3 13 -2 17 4 8 13
-11 12 -54 -4z"/>
<path d="M2704 4403 c4 -7 -2 -17 -13 -23 -32 -17 -43 -45 -30 -74 12 -25 59
-44 79 -31 19 11 10 35 -15 41 -24 6 -36 34 -15 34 12 0 8 45 -5 57 -4 4 -5 3
-1 -4z"/>
<path d="M2798 4370 c16 -27 17 -28 20 -9 2 12 -2 26 -10 30 -24 16 -27 9 -10
-21z"/>
<path d="M2830 4387 c0 -3 15 -14 33 -24 18 -11 49 -34 69 -52 33 -29 36 -34
27 -63 -11 -39 -7 -42 25 -32 l26 9 -32 49 c-35 53 -89 100 -125 111 -13 3
-23 4 -23 2z"/>
<path d="M2525 4360 c-17 -19 -17 -19 9 -7 14 7 26 15 26 20 0 13 -17 7 -35
-13z"/>
<path d="M4640 4356 c0 -7 5 -38 11 -67 5 -30 12 -74 14 -99 8 -85 17 -120 31
-128 8 -5 19 -21 24 -38 10 -29 10 -28 5 5 -3 19 -12 42 -21 52 -11 12 -16 44
-18 115 -2 55 -9 112 -15 127 -6 16 -11 33 -11 38 0 5 -4 9 -10 9 -5 0 -10 -6
-10 -14z"/>
<path d="M2597 4333 c-4 -3 -7 -11 -7 -17 0 -6 5 -5 12 2 6 6 9 14 7 17 -3 3
-9 2 -12 -2z"/>
<path d="M1098 4281 c-3 -18 -1 -34 3 -37 12 -7 21 34 11 52 -8 14 -10 11 -14
-15z"/>
<path d="M2425 4290 c-10 -11 -14 -20 -8 -20 5 0 18 9 28 20 10 11 14 20 8 20
-5 0 -18 -9 -28 -20z"/>
<path d="M4601 4294 c0 -11 3 -14 6 -6 3 7 2 16 -1 19 -3 4 -6 -2 -5 -13z"/>
<path d="M2597 4271 c3 -12 10 -21 15 -21 13 0 6 32 -9 37 -7 3 -9 -3 -6 -16z"/>
<path d="M3870 4280 c-11 -7 -4 -10 28 -10 23 0 58 -6 77 -14 22 -10 37 -11
41 -5 7 12 8 11 -29 27 -33 14 -96 15 -117 2z"/>
<path d="M3745 4238 c-33 -17 -55 -33 -48 -35 7 -2 25 5 40 16 15 11 47 25 71
31 46 12 55 20 20 20 -13 -1 -50 -15 -83 -32z"/>
<path d="M2500 4250 c0 -5 9 -14 20 -20 11 -6 20 -9 20 -8 0 2 -9 11 -20 21
-11 9 -20 13 -20 7z"/>
<path d="M4030 4240 c0 -5 5 -10 10 -10 6 0 10 5 10 10 0 6 -4 10 -10 10 -5 0
-10 -4 -10 -10z"/>
<path d="M2643 4215 c27 -24 68 -32 101 -19 20 8 21 24 1 24 -8 0 -15 -5 -15
-11 0 -11 -28 -5 -74 17 -42 20 -45 17 -13 -11z"/>
<path d="M3812 4229 c-29 -11 -41 -33 -13 -24 25 8 28 -10 7 -41 -13 -18 -13
-27 0 -72 9 -29 20 -52 26 -52 12 0 0 62 -14 71 -13 8 8 49 25 49 8 0 7 4 -3
10 -12 7 -12 12 4 29 11 12 25 21 33 21 7 0 13 5 13 10 0 11 -47 10 -78 -1z"/>
<path d="M3625 4170 c-3 -5 -2 -10 4 -10 5 0 13 5 16 10 3 6 2 10 -4 10 -5 0
-13 -4 -16 -10z"/>
<path d="M3705 4170 c-3 -6 1 -7 9 -4 18 7 21 14 7 14 -6 0 -13 -4 -16 -10z"/>
<path d="M3867 4174 c-13 -14 -7 -62 9 -68 31 -12 59 -5 77 20 24 32 16 59
-12 44 -25 -13 -58 -13 -63 1 -2 5 -7 7 -11 3z"/>
<path d="M4618 4130 c-14 -54 -18 -116 -10 -144 8 -28 9 -27 20 25 13 57 3
172 -10 119z"/>
<path d="M4505 4050 c3 -5 8 -10 11 -10 2 0 4 5 4 10 0 6 -5 10 -11 10 -5 0
-7 -4 -4 -10z"/>
<path d="M3865 4030 c3 -5 8 -10 11 -10 2 0 4 5 4 10 0 6 -5 10 -11 10 -5 0
-7 -4 -4 -10z"/>
<path d="M4280 4010 c0 -11 2 -20 4 -20 2 0 6 9 9 20 3 11 1 20 -4 20 -5 0 -9
-9 -9 -20z"/>
<path d="M4481 3985 c0 -12 -6 -26 -13 -33 -6 -6 -9 -15 -5 -19 13 -13 29 14
24 43 -2 18 -5 21 -6 9z"/>
<path d="M3456 3975 c-3 -8 -1 -15 4 -15 6 0 10 7 10 15 0 8 -2 15 -4 15 -2 0
-6 -7 -10 -15z"/>
<path d="M4705 3948 c-31 -76 -59 -192 -47 -196 7 -2 12 -18 12 -34 0 -56 9
-24 14 48 2 38 11 85 19 104 17 41 31 110 22 110 -3 0 -12 -15 -20 -32z"/>
<path d="M4025 3920 c-3 -6 1 -7 9 -4 18 7 21 14 7 14 -6 0 -13 -4 -16 -10z"/>
<path d="M4590 3894 c-13 -34 -13 -51 0 -38 12 12 24 64 15 64 -3 0 -10 -12
-15 -26z"/>
<path d="M4248 3853 c7 -3 16 -2 19 1 4 3 -2 6 -13 5 -11 0 -14 -3 -6 -6z"/>
<path d="M4435 3780 c-3 -5 -2 -10 4 -10 5 0 13 5 16 10 3 6 2 10 -4 10 -5 0
-13 -4 -16 -10z"/>
<path d="M4075 3759 c-4 -11 -4 -23 -1 -26 10 -10 35 18 29 33 -8 20 -21 17
-28 -7z"/>
<path d="M4557 3760 c-4 -14 -7 -41 -7 -60 0 -22 -10 -51 -27 -75 -19 -28 -28
-54 -29 -87 -1 -25 -14 -81 -28 -123 -16 -47 -27 -108 -30 -160 -5 -90 -23
-137 -57 -156 -16 -8 -25 -7 -40 7 -17 15 -19 15 -19 1 0 -9 8 -20 18 -26 14
-8 15 -12 5 -22 -7 -7 -13 -22 -13 -32 0 -11 -7 -25 -15 -31 -8 -6 -20 -35
-28 -64 -7 -29 -21 -60 -30 -69 -16 -16 -17 -16 -17 5 0 15 -6 22 -19 22 -22
0 -41 -62 -41 -133 0 -24 -9 -62 -20 -85 -19 -39 -19 -44 -5 -59 21 -20 30
-10 14 16 -19 29 -4 37 22 12 25 -23 44 -27 55 -9 5 8 11 6 20 -6 12 -16 13
-16 24 4 7 12 17 41 24 64 l13 41 7 -42 c11 -60 -8 -106 -65 -163 -27 -27 -49
-54 -50 -62 0 -7 -4 -4 -9 7 -8 18 -9 18 -9 2 -1 -27 -21 -10 -21 19 0 13 -6
24 -12 24 -9 0 -8 3 2 10 11 7 9 11 -12 19 -15 6 -28 20 -31 33 -2 13 -5 4 -6
-20 -1 -48 -15 -80 -43 -100 -10 -7 -18 -22 -18 -33 0 -10 -4 -19 -10 -19 -5
0 -10 -7 -10 -15 0 -12 4 -13 19 -5 32 17 46 12 27 -9 -10 -11 -13 -21 -7 -25
5 -4 12 -2 16 4 3 5 12 10 18 10 21 -1 -37 -40 -60 -40 -12 0 -23 -3 -25 -7
-5 -13 -68 -43 -68 -33 0 5 14 18 30 30 30 21 39 40 20 40 -5 0 -10 -7 -10
-15 0 -8 -5 -15 -10 -15 -12 0 -116 -106 -168 -172 -20 -26 -43 -47 -49 -48
-16 0 -17 16 -2 26 6 3 20 27 31 52 17 37 18 46 7 53 -12 7 -11 11 1 19 8 5
19 11 23 13 5 1 11 23 14 47 3 25 11 50 18 55 6 6 18 28 25 50 7 22 28 61 46
87 18 27 38 65 45 85 6 21 22 59 35 85 14 27 24 66 24 90 0 27 8 52 20 68 11
14 20 30 20 37 0 6 4 13 9 15 4 2 11 21 15 43 l7 40 -25 -27 c-14 -16 -32 -28
-41 -28 -9 0 -15 -9 -15 -22 0 -13 -9 -34 -20 -48 -11 -14 -20 -34 -21 -45 0
-11 -11 -38 -24 -60 -13 -22 -28 -49 -33 -60 -6 -11 -22 -31 -36 -44 -14 -14
-26 -31 -26 -38 0 -8 -7 -24 -15 -37 -9 -13 -18 -48 -22 -77 -4 -34 -14 -62
-27 -76 -70 -74 -85 -106 -93 -190 -5 -55 -11 -72 -35 -96 -15 -17 -28 -34
-28 -40 0 -5 -7 -7 -15 -3 -9 3 -15 0 -15 -8 0 -8 -13 -19 -30 -26 -16 -7 -30
-16 -30 -21 0 -5 -7 -9 -15 -9 -8 0 -15 -4 -15 -10 0 -5 -9 -10 -19 -10 -11 0
-23 -5 -26 -10 -4 -6 -11 -8 -16 -4 -5 3 1 14 13 24 13 11 17 19 10 20 -21 0
-82 -28 -82 -39 0 -5 -26 -22 -57 -36 -32 -15 -66 -31 -75 -36 -10 -5 -24 -9
-32 -9 -7 0 -19 -6 -25 -14 -9 -11 -20 -12 -52 -3 -33 8 -43 7 -50 -4 -7 -11
-12 -12 -28 -2 -17 11 -22 10 -29 -4 -20 -34 -197 -43 -268 -13 -45 20 -77 19
-41 -1 36 -21 5 -27 -44 -9 -28 11 -54 18 -58 17 -13 -3 -83 37 -113 64 -17
16 -38 28 -47 27 -9 -2 -16 4 -16 14 0 10 -6 23 -13 30 -9 9 -12 9 -12 -5 0
-11 -5 -14 -16 -10 -8 3 -13 12 -10 19 8 20 -29 37 -53 24 -18 -9 -19 -8 -11
20 9 33 -7 90 -26 90 -6 0 -14 -9 -17 -21 -3 -12 -3 -18 0 -15 7 7 33 -19 33
-33 0 -14 -17 -14 -25 -1 -10 16 -45 -8 -45 -30 0 -13 5 -18 15 -14 11 5 13 2
9 -10 -4 -10 -1 -16 9 -16 8 0 34 -18 58 -40 24 -22 49 -40 54 -40 6 0 15 -8
21 -17 6 -10 28 -24 49 -32 20 -7 53 -24 72 -37 20 -13 43 -24 51 -24 9 0 23
-6 31 -13 38 -32 214 -62 356 -61 70 1 107 6 168 27 42 15 87 27 100 27 30 0
123 38 175 72 46 30 98 58 107 58 11 0 4 -20 -7 -20 -7 0 -31 -21 -52 -45 -33
-38 -45 -45 -77 -45 -32 0 -36 -3 -32 -19 5 -21 -13 -34 -62 -45 -28 -6 -27
-5 8 15 47 25 43 37 -5 16 -18 -8 -42 -17 -53 -20 -11 -3 -47 -16 -80 -27 -33
-12 -71 -24 -85 -27 -51 -9 -157 -11 -210 -3 -30 4 -86 11 -124 14 -101 8 -71
-12 45 -30 51 -8 96 -18 99 -21 3 -3 -33 -2 -80 2 -93 8 -183 34 -247 71 -23
13 -49 24 -57 24 -9 0 -16 5 -16 10 0 13 10 12 40 -5 30 -17 64 -20 54 -4 -3
6 -30 22 -59 35 -29 12 -55 26 -56 31 -8 17 -92 54 -99 43 -8 -13 -58 11 -87
42 -36 38 -53 50 -66 45 -17 -6 -37 10 -67 55 -14 21 -29 38 -33 38 -5 0 -6 4
-3 9 3 5 -6 9 -20 9 -15 0 -29 3 -33 8 -3 5 -28 20 -55 34 -95 48 -106 56
-137 93 -19 23 -39 37 -54 37 -12 0 -28 6 -34 14 -7 8 -31 24 -53 36 -22 11
-47 27 -55 35 -8 8 -21 15 -29 15 -8 0 -13 3 -12 8 2 11 -13 43 -34 74 -14 20
-30 29 -64 34 -33 5 -44 10 -40 21 3 8 2 12 -3 8 -17 -10 -79 39 -85 68 -10
48 -26 30 -21 -23 6 -55 0 -64 -15 -25 -5 14 -18 25 -27 25 -23 0 -48 -38 -44
-69 2 -15 -1 -21 -8 -17 -15 10 -14 49 2 65 10 10 9 11 -5 6 -13 -5 -18 -2
-18 9 0 9 4 16 8 16 17 0 64 48 54 54 -6 3 -19 -5 -30 -19 -11 -14 -24 -25
-29 -25 -9 0 -67 -57 -130 -126 -15 -17 -48 -59 -72 -94 -37 -52 -42 -66 -33
-81 8 -13 8 -26 1 -49 -11 -30 -6 -206 6 -218 3 -3 5 39 5 94 0 110 8 176 21
169 4 -3 11 -1 14 5 5 8 11 7 22 -1 12 -10 16 -10 24 2 7 11 9 11 9 -4 0 -18
8 -18 59 1 8 3 12 1 8 -5 -10 -15 16 -64 31 -58 7 2 28 -11 47 -29 19 -18 44
-36 57 -39 13 -3 34 -9 47 -13 20 -6 23 -4 17 15 -3 11 -9 30 -12 41 -4 14 -1
20 10 20 9 0 16 7 16 15 0 8 5 15 10 15 6 0 10 -9 10 -19 0 -19 17 -38 26 -28
6 6 -34 236 -45 255 -9 17 -2 62 10 62 5 0 9 -15 9 -34 0 -31 19 -53 43 -48
12 3 8 -16 -4 -20 -7 -2 7 -10 30 -18 22 -7 41 -17 41 -22 0 -4 9 -8 19 -8 12
0 22 -9 26 -22 18 -61 61 -137 78 -137 9 -1 17 -6 17 -12 0 -12 38 -49 50 -49
5 0 11 -11 14 -25 4 -14 17 -30 30 -35 13 -5 33 -18 44 -30 16 -17 24 -20 39
-12 22 12 49 0 38 -18 -5 -9 -2 -10 12 -6 19 6 80 -30 69 -41 -10 -10 54 -54
66 -47 7 4 2 -5 -11 -19 -14 -15 -23 -29 -20 -31 2 -2 30 -13 63 -25 32 -12
74 -35 94 -51 19 -15 40 -26 47 -24 6 3 17 -1 23 -8 10 -13 12 -19 12 -37 0
-5 9 -11 20 -14 13 -3 20 0 20 9 0 21 16 17 47 -14 15 -15 40 -33 56 -39 15
-7 27 -19 27 -26 0 -12 51 -57 65 -57 14 0 55 -46 51 -57 -7 -16 14 -29 23
-14 10 16 41 3 35 -14 -3 -7 4 -18 15 -25 11 -6 20 -14 18 -18 -1 -4 10 -23
26 -43 15 -20 27 -41 27 -46 0 -6 7 -16 15 -23 8 -7 13 -16 10 -20 -2 -4 5
-24 17 -46 11 -21 22 -61 23 -88 2 -32 9 -54 19 -62 9 -6 16 -18 16 -27 0 -9
5 -19 10 -22 6 -3 10 2 10 13 0 11 8 30 19 43 10 13 25 45 34 70 9 25 26 62
39 82 l23 36 90 -4 c104 -5 215 9 298 37 55 19 60 19 77 3 10 -9 22 -30 25
-46 8 -34 25 -37 50 -9 10 11 24 20 31 20 7 0 15 8 18 18 4 11 17 25 30 32 37
19 70 68 57 84 -8 10 -4 16 17 26 15 7 31 13 35 11 5 -1 6 3 3 8 -3 5 12 24
34 41 22 17 40 29 40 26 0 -3 12 6 27 20 15 14 33 22 40 20 7 -3 17 3 23 13 5
10 31 31 57 46 27 15 58 37 71 49 13 11 25 20 28 19 11 -7 34 -2 34 8 0 6 24
33 52 60 l53 50 8 -26 c6 -18 14 -24 24 -20 15 5 43 -11 43 -25 0 -4 -12 -7
-26 -7 -14 0 -29 -4 -33 -9 -13 -14 -44 -115 -52 -169 -24 -156 -27 -163 -83
-198 -28 -18 -71 -43 -96 -56 -25 -12 -73 -39 -107 -61 -35 -21 -72 -42 -85
-46 -12 -3 -41 -17 -64 -29 -24 -13 -67 -29 -96 -36 -29 -7 -62 -21 -74 -31
-11 -10 -29 -18 -40 -18 -10 0 -32 -7 -47 -15 -91 -47 -277 -76 -517 -80 -196
-3 -278 4 -400 37 -111 29 -114 30 -125 38 -5 4 -46 19 -90 34 -44 15 -102 38
-130 51 -27 13 -95 45 -150 70 -55 26 -106 54 -112 63 -7 9 -22 17 -33 19 -10
1 -48 20 -82 42 -49 30 -62 43 -61 60 2 14 -3 21 -15 21 -13 0 -28 35 -69 163
-29 89 -59 189 -67 222 -8 33 -20 78 -25 100 -6 22 -13 57 -16 78 -3 20 -11
37 -17 37 -6 0 -8 -9 -3 -22 4 -13 11 -48 15 -78 4 -30 12 -68 18 -85 6 -16
13 -51 17 -77 3 -26 10 -50 15 -53 4 -3 11 -24 15 -47 4 -24 14 -61 22 -83 8
-22 23 -69 34 -104 l19 -64 -38 -33 c-26 -24 -44 -32 -60 -29 -15 4 -25 0 -29
-10 -3 -9 -12 -14 -19 -11 -9 3 -14 -2 -14 -14 0 -15 -7 -20 -26 -20 -16 0
-24 -5 -22 -12 3 -7 -4 -21 -14 -32 -19 -21 -85 -24 -133 -6 -15 6 -37 10 -51
10 -13 0 -24 5 -24 11 0 8 13 9 43 4 120 -20 167 -16 167 13 0 13 -2 14 -9 4
-6 -10 -10 -9 -14 7 -7 29 -63 29 -94 -1 l-23 -22 -22 24 c-19 21 -22 21 -33
6 -20 -26 -30 -19 -31 22 -1 43 -28 92 -50 92 -8 0 -17 -13 -20 -30 -8 -35
-23 -40 -26 -7 -3 37 -5 51 -11 67 -3 8 -8 41 -11 72 -5 46 -3 56 8 52 14 -5
15 16 4 46 -3 8 -11 65 -17 125 -6 61 -15 124 -20 140 l-8 30 -11 -27 c-8 -19
-8 -45 -2 -80 5 -29 12 -105 14 -168 3 -63 8 -140 11 -170 8 -69 40 -199 54
-213 16 -16 256 -68 268 -58 3 3 3 0 -1 -6 -4 -7 -14 -13 -22 -13 -8 0 -14 -4
-14 -10 0 -14 21 -12 71 5 24 9 53 14 64 11 11 -3 28 3 40 13 11 11 29 21 40
23 15 2 19 -2 18 -19 -2 -17 1 -21 15 -17 14 5 14 3 -2 -10 -11 -9 -28 -16
-38 -16 -26 0 -22 -18 5 -22 28 -5 73 16 81 37 9 23 -11 55 -30 48 -12 -4 -14
0 -9 20 5 18 2 28 -11 35 -10 6 -14 14 -9 22 6 9 9 9 16 -1 6 -10 9 -8 9 7 0
25 24 49 39 40 6 -4 13 -21 16 -39 3 -18 7 -39 9 -47 1 -8 6 -36 11 -62 4 -27
11 -48 15 -48 15 0 18 -39 3 -44 -18 -7 -12 -31 8 -31 23 0 68 -109 105 -258
9 -37 23 -74 30 -82 8 -8 17 -29 21 -47 3 -18 11 -40 18 -48 13 -15 65 -109
65 -117 0 -2 -9 1 -20 7 -14 7 -20 7 -20 0 0 -5 -4 -10 -10 -10 -5 0 -7 7 -4
15 8 19 2 19 -44 -1 l-37 -16 25 -11 c14 -7 31 -17 38 -24 8 -7 17 -11 22 -8
4 3 10 -2 14 -10 3 -9 -6 -25 -22 -40 -21 -20 -24 -27 -14 -37 10 -10 14 -10
21 1 5 7 17 11 27 9 15 -3 19 -12 19 -41 0 -26 4 -37 15 -38 8 0 4 -5 -10 -11
-21 -9 -22 -12 -7 -15 15 -4 17 -11 11 -49 -6 -39 -4 -44 13 -44 10 0 25 6 31
12 8 8 15 9 20 3 4 -6 22 -11 40 -12 26 -2 32 2 32 17 0 11 5 20 10 20 18 0
11 -32 -11 -51 l-21 -18 26 -12 c19 -9 25 -18 21 -30 -4 -10 0 -29 6 -41 7
-13 12 -33 10 -45 -2 -15 3 -23 13 -23 9 0 16 5 16 11 0 5 4 7 10 4 6 -4 5
-13 -2 -25 -7 -11 -9 -23 -5 -27 5 -4 12 -1 16 6 6 9 11 10 15 2 4 -7 39 -11
86 -11 68 0 81 3 93 21 9 13 17 16 22 10 3 -6 15 -11 26 -11 15 0 19 7 19 35
0 32 -2 34 -30 32 -21 -1 -30 -7 -30 -20 0 -11 -5 -15 -11 -11 -6 3 -9 15 -6
25 5 19 -15 44 -26 32 -4 -3 -7 -2 -7 4 0 6 -12 14 -26 17 -26 7 -99 78 -92
91 1 4 -10 13 -27 20 -21 9 -38 29 -56 66 -87 176 -123 246 -135 260 -8 8 -14
19 -14 22 0 4 -17 44 -39 89 -48 104 -184 469 -177 476 3 3 23 -7 43 -22 132
-92 339 -216 361 -216 18 0 91 -41 99 -55 5 -8 17 -16 28 -18 11 -1 25 -6 32
-10 6 -4 18 -4 26 -1 8 3 18 1 22 -5 3 -6 15 -11 26 -11 26 0 15 -18 -18 -31
-35 -13 -24 -32 26 -44 39 -9 41 -11 25 -27 -17 -16 -16 -17 12 -15 24 2 29
-2 29 -21 0 -13 13 -33 30 -47 23 -19 26 -24 13 -25 -11 0 -18 -8 -18 -20 0
-17 -4 -19 -27 -14 -39 9 -43 13 -37 28 3 8 1 17 -4 20 -17 10 -42 -5 -42 -25
0 -12 -5 -16 -15 -13 -8 4 -21 1 -29 -5 -15 -13 -27 -5 -20 14 4 9 -11 16 -46
24 -109 23 -108 6 3 -52 12 -7 37 -22 54 -35 18 -13 34 -18 38 -13 3 6 12 8
19 5 7 -3 19 2 26 11 13 16 50 21 50 6 0 -12 39 -21 46 -10 7 12 44 -8 44 -24
0 -7 -4 -6 -10 3 -8 12 -10 11 -10 -7 0 -18 6 -23 24 -23 19 0 25 6 28 30 6
37 -21 65 -51 55 -12 -4 -21 -2 -21 4 0 6 5 11 11 11 7 0 18 8 25 17 11 15 13
15 14 3 0 -17 59 -53 79 -48 8 2 16 -3 18 -9 3 -9 -5 -13 -22 -13 -21 0 -26
-4 -21 -16 3 -9 6 -18 6 -20 0 -8 46 -4 56 5 5 5 20 11 34 13 14 2 24 8 23 13
-1 6 18 10 42 11 59 1 75 9 75 39 0 14 5 25 11 25 7 0 9 -9 6 -22 -6 -23 -6
-23 14 1 17 21 22 23 30 10 8 -11 12 -11 16 -1 2 6 22 12 44 12 38 0 38 0 32
32 -6 28 -4 30 13 23 10 -5 36 -9 57 -10 20 0 37 -3 37 -7 0 -5 5 -8 10 -8 6
0 10 13 10 29 0 21 -6 30 -22 35 l-23 6 23 15 c12 9 22 23 22 31 0 8 5 14 10
14 6 0 10 -16 10 -35 0 -19 5 -35 10 -35 6 0 10 7 10 16 0 8 5 12 10 9 6 -3
10 -1 10 4 0 6 -5 11 -11 11 -5 0 -7 5 -4 10 10 16 35 -8 35 -31 0 -24 51 -27
70 -4 15 18 51 20 48 2 -4 -19 106 -21 144 -3 17 9 37 16 45 16 7 0 13 7 13
15 0 15 54 30 87 23 10 -2 23 2 28 10 6 7 27 17 47 21 29 7 35 6 31 -5 -3 -8
-16 -14 -28 -14 -13 0 -26 -4 -29 -9 -5 -8 35 -31 55 -31 14 0 39 26 39 39 0
16 32 13 58 -5 20 -14 22 -14 22 0 0 9 9 16 20 16 16 0 20 -7 20 -37 0 -21 -5
-54 -10 -73 -5 -19 -21 -82 -36 -140 -14 -58 -30 -114 -35 -125 -17 -43 -21
-98 -7 -106 10 -7 11 -12 1 -28 -7 -11 -15 -38 -19 -60 -9 -53 -31 -62 -26
-10 2 22 0 39 -5 39 -10 0 -33 -58 -33 -84 0 -9 -8 -34 -19 -54 -55 -110 -53
-102 -26 -102 14 0 25 5 25 11 0 5 5 7 10 4 6 -3 10 -1 10 4 0 6 -5 11 -12 11
-6 0 -2 9 10 20 28 26 30 26 28 -12 -1 -23 3 -33 14 -33 8 0 16 9 16 20 1 11
2 26 3 33 1 9 8 11 21 7 11 -4 20 -2 20 4 0 6 -7 11 -15 11 -8 0 -15 4 -15 9
0 5 18 7 39 5 26 -3 44 0 54 11 20 19 25 19 30 -2 3 -14 6 -12 15 10 7 16 12
39 12 52 0 31 15 40 41 22 11 -8 29 -13 40 -10 14 4 19 0 19 -16 0 -32 45 -32
68 0 16 24 29 24 35 2 4 -16 5 -16 6 1 1 15 4 16 15 7 11 -9 16 -9 21 0 4 6 1
15 -6 20 -11 7 -11 9 3 9 27 0 68 62 68 103 0 20 5 39 11 43 24 15 47 85 38
117 -5 17 -8 31 -6 32 1 0 22 6 47 12 34 9 47 9 53 0 5 -8 13 -5 28 12 14 17
17 27 9 35 -5 5 -10 13 -10 17 0 10 41 5 63 -7 15 -9 16 -15 6 -42 -6 -18 -15
-32 -19 -32 -5 0 -14 -17 -20 -37 -7 -21 -18 -47 -25 -59 -7 -11 -20 -40 -28
-65 -9 -26 -21 -44 -30 -44 -17 0 -63 -53 -53 -62 3 -3 8 1 12 10 3 9 12 13
19 10 10 -3 11 -10 5 -21 -22 -43 -40 -92 -40 -109 0 -10 -4 -23 -9 -28 -5 -6
-16 -27 -25 -47 l-15 -38 40 0 c32 0 41 4 48 22 27 68 106 100 138 56 9 -12
25 -15 55 -13 24 1 45 3 48 5 3 1 19 1 36 0 20 -1 33 4 37 14 4 9 15 16 25 16
15 0 21 10 26 40 7 47 26 54 26 10 0 -16 5 -30 10 -30 6 0 10 9 10 20 0 28 20
25 21 -2 0 -13 3 -18 5 -11 3 7 12 9 20 6 7 -3 11 -9 9 -14 -3 -5 7 -11 22
-15 15 -4 40 -13 55 -20 15 -8 37 -15 49 -17 12 -2 28 -12 35 -22 12 -17 15
-17 27 -4 17 21 90 43 116 34 15 -4 21 -2 21 9 0 16 -22 16 -74 1 -20 -5 -31
-4 -37 6 -12 19 -11 32 1 24 12 -8 0 28 -13 36 -5 4 -25 3 -46 -2 -57 -13 -76
-11 -104 14 -30 26 -34 42 -12 51 11 4 15 -1 15 -19 0 -28 21 -33 39 -11 7 8
27 17 46 20 40 8 51 21 35 41 -8 9 -8 15 0 20 6 4 8 15 5 25 -3 10 3 33 14 50
35 58 7 195 -40 195 -19 0 -33 25 -21 37 6 6 12 6 16 -1 4 -6 15 -11 24 -11
14 0 13 2 -3 13 -23 17 -12 37 21 37 15 0 24 6 24 15 0 8 6 15 14 15 17 0 27
49 14 73 -5 10 -15 16 -22 14 -13 -5 -56 70 -56 97 0 22 39 64 62 68 32 5 33
24 1 37 -20 8 -28 19 -30 38 0 15 -6 29 -11 31 -5 1 -7 12 -4 24 3 13 -1 24
-12 30 -25 14 -21 61 7 73 13 6 22 19 23 33 1 13 11 32 23 43 21 19 23 25 25
63 1 19 6 22 61 47 40 18 39 17 26 33 -9 11 -9 24 -1 56 8 31 8 45 -1 56 -6 8
-9 24 -5 36 6 24 -9 119 -25 153 -5 11 -11 34 -12 50 -2 26 1 30 23 27 19 -1
21 0 10 7 -12 9 -12 11 3 17 11 4 17 17 17 35 0 26 -7 32 -75 64 -41 19 -77
35 -81 35 -14 0 -147 72 -192 104 -26 18 -48 39 -50 47 -5 20 -22 39 -36 39
-15 0 -106 86 -106 99 0 5 -17 20 -37 32 -21 13 -47 31 -57 41 -11 10 -23 18
-27 18 -5 0 -18 10 -31 23 -25 23 -120 100 -163 130 -51 36 -52 58 -6 129 22
34 41 74 42 88 0 14 3 34 5 45 3 11 7 52 9 90 4 72 35 225 46 225 10 0 67 57
78 79 6 10 20 57 31 103 12 45 25 99 31 118 6 19 11 42 12 50 1 8 13 33 27 55
20 32 25 53 25 107 0 37 3 68 8 68 4 0 7 8 7 18 0 11 9 27 20 37 11 10 20 24
20 32 0 19 -32 -13 -50 -52 -15 -30 -15 -30 -18 35 -2 35 -8 67 -14 71 -5 4
-13 22 -17 40 -7 33 -7 33 -14 9z m25 -205 c17 -89 9 -124 -41 -180 -17 -20
-31 -43 -32 -53 0 -9 -1 -34 -1 -54 0 -26 -5 -38 -14 -38 -10 0 -14 -14 -14
-47 -1 -27 -8 -59 -16 -73 -14 -24 -15 -21 -9 40 4 35 9 69 13 74 3 6 7 17 8
26 9 84 38 261 47 281 6 16 16 25 24 22 9 -4 13 5 13 26 0 17 -4 31 -10 31 -5
0 -10 5 -10 10 0 6 6 10 14 10 8 0 18 -26 28 -75z m-212 -545 c0 -5 -5 -10
-11 -10 -5 0 -7 5 -4 10 3 6 8 10 11 10 2 0 4 -4 4 -10z m-5 -29 c3 -5 1 -12
-5 -16 -5 -3 -10 1 -10 9 0 18 6 21 15 7z m-24 -214 c-13 -13 -15 33 -3 84 6
32 7 30 10 -20 2 -30 -2 -59 -7 -64z m-3061 -267 c-6 -11 -15 -20 -20 -20 -6
0 -10 -6 -10 -14 0 -8 -7 -16 -14 -19 -23 -9 -7 24 23 50 32 28 34 28 21 3z
m127 -45 c1 -17 0 -23 -4 -15 -3 8 -13 23 -22 34 -15 17 -15 18 4 15 14 -3 21
-13 22 -34z m2767 -39 c-8 -32 -40 -35 -49 -5 -4 11 -5 21 -3 22 1 1 12 7 23
13 26 15 38 3 29 -30z m-2874 8 c0 -8 -4 -14 -10 -14 -5 0 -10 9 -10 21 0 11
5 17 10 14 6 -3 10 -13 10 -21z m2978 -20 c-4 -3 -12 5 -18 18 -12 22 -12 22
6 6 10 -10 15 -20 12 -24z m-3068 8 c0 -5 -11 -19 -25 -32 -28 -26 -33 -16 -9
18 15 22 34 30 34 14z m214 -7 c3 -8 1 -15 -4 -15 -6 0 -10 7 -10 15 0 8 2 15
4 15 2 0 6 -7 10 -15z m-99 -94 c6 -1 1 -8 -9 -16 -17 -13 -18 -15 -3 -15 18
0 20 -13 8 -44 -5 -13 -10 -16 -15 -8 -3 6 -13 9 -21 5 -10 -3 -15 1 -13 13 3
42 -2 54 -24 54 -14 0 -18 3 -11 8 10 6 61 8 88 3z m-210 -11 c3 -5 3 -15 -1
-21 -6 -11 -23 6 -24 24 0 10 18 9 25 -3z m332 -52 c-3 -7 -5 -2 -5 12 0 14 2
19 5 13 2 -7 2 -19 0 -25z m-17 -19 c0 -6 -4 -7 -10 -4 -5 3 -10 11 -10 16 0
6 5 7 10 4 6 -3 10 -11 10 -16z m325 -9 c3 -6 -1 -7 -9 -4 -18 7 -21 14 -7 14
6 0 13 -4 16 -10z m50 -10 c3 -5 1 -10 -4 -10 -6 0 -11 5 -11 10 0 6 2 10 4
10 3 0 8 -4 11 -10z m-435 -37 c0 -13 -3 -13 -15 -3 -8 7 -12 16 -9 21 8 13
24 1 24 -18z m480 -21 c0 -15 -2 -15 -10 -2 -13 20 -13 33 0 25 6 -3 10 -14
10 -23z m40 -32 c0 -5 -2 -10 -4 -10 -3 0 -8 5 -11 10 -3 6 -1 10 4 10 6 0 11
-4 11 -10z m1828 -40 c-23 -31 -28 -35 -28 -22 0 9 38 52 46 52 2 0 -5 -13
-18 -30z m-1863 -10 c3 -5 1 -10 -4 -10 -6 0 -11 5 -11 10 0 6 2 10 4 10 3 0
8 -4 11 -10z m1785 -59 c0 -4 -14 -26 -32 -47 -17 -22 -28 -31 -24 -20 5 16
47 74 54 75 1 1 2 -3 2 -8z m1160 -50 c0 -4 20 -18 45 -30 26 -13 42 -27 39
-33 -4 -6 -2 -8 3 -5 6 4 23 0 39 -7 l27 -15 -26 -6 c-14 -4 -31 -4 -36 0 -6
3 -11 -1 -11 -9 0 -13 -4 -14 -23 -5 -16 7 -31 7 -51 -1 -26 -9 -28 -14 -24
-54 1 -25 1 -43 -1 -41 -10 11 -40 -46 -46 -88 -4 -26 -12 -50 -18 -54 -6 -4
-8 6 -4 28 4 19 14 84 22 144 9 61 21 120 27 132 6 12 8 28 5 36 -3 8 -3 17 0
20 6 7 33 -3 33 -12z m-651 -91 c-22 -14 -34 2 -13 17 13 10 20 10 23 2 2 -6
-3 -15 -10 -19z m427 9 c-14 -9 -16 -13 -5 -20 17 -10 5 -23 -16 -15 -13 5
-13 9 -3 26 7 11 20 20 28 20 11 -1 10 -3 -4 -11z m477 -58 c6 -6 17 -11 23
-11 7 0 16 -5 20 -11 5 -8 -1 -10 -18 -6 -17 5 -28 2 -31 -7 -4 -11 -14 -11
-51 -2 -53 14 -70 26 -35 26 13 0 31 5 39 11 12 8 10 9 -7 4 -13 -4 -23 -2
-23 4 0 5 -3 16 -6 25 -5 14 0 13 36 -3 23 -10 47 -24 53 -30z m-93 8 c0 -14
-17 -10 -23 5 -4 10 -1 13 9 9 7 -3 14 -9 14 -14z m-321 -6 c10 -17 10 -17 11
-1 0 11 5 15 15 12 18 -7 21 -99 5 -154 -6 -19 -15 -66 -21 -105 -10 -66 -51
-255 -85 -390 -8 -33 -21 -90 -27 -127 -7 -36 -15 -70 -19 -74 -5 -4 -8 -15
-8 -25 0 -12 -10 -21 -27 -25 -47 -10 -158 -58 -166 -71 -4 -7 -16 -13 -27
-13 -13 0 -28 20 -53 73 -19 39 -38 86 -41 102 -4 17 -23 63 -42 103 -19 41
-34 75 -34 77 0 1 -8 20 -17 41 -20 45 -24 123 -6 141 6 7 14 39 18 70 9 91
36 187 47 171 7 -9 8 -4 4 15 -5 20 -3 27 9 27 8 0 15 -7 15 -15 0 -16 4 -17
85 -19 44 -1 53 2 87 35 39 38 46 57 27 76 -9 9 -3 16 22 27 19 9 49 24 68 35
21 12 44 18 60 15 14 -3 37 -1 51 5 35 14 38 13 49 -6z m239 -5 c-3 -7 -15
-15 -28 -16 -21 -3 -22 -2 -11 12 16 19 44 21 39 4z m-2618 -18 c0 -5 -5 -10
-11 -10 -5 0 -7 5 -4 10 3 6 8 10 11 10 2 0 4 -4 4 -10z m40 -35 c7 -8 9 -15
6 -15 -4 0 -14 7 -22 15 -9 8 -11 15 -6 15 5 0 15 -7 22 -15z m2850 -5 c0 -5
-9 -10 -21 -10 -11 0 -17 5 -14 10 3 6 13 10 21 10 8 0 14 -4 14 -10z m-2586
-159 c4 -5 -3 -7 -14 -4 -23 6 -26 13 -6 13 8 0 17 -4 20 -9z m2148 -68 c-2
-27 -9 -56 -13 -65 -5 -9 -9 -35 -9 -57 0 -23 -4 -41 -9 -41 -18 0 -22 54 -7
104 8 28 17 63 21 79 9 45 23 30 17 -20z m-2909 -221 c26 -18 52 -32 57 -32 5
0 14 -9 20 -20 6 -11 17 -20 25 -20 8 0 15 -3 15 -7 0 -5 16 -9 35 -10 19 -2
44 -12 55 -23 11 -11 32 -23 47 -26 16 -4 43 -16 61 -26 18 -10 38 -18 45 -18
7 0 30 -9 52 -19 99 -47 155 -71 168 -71 8 0 20 -7 27 -15 7 -8 20 -15 29 -15
9 0 61 -11 115 -25 136 -34 445 -45 581 -20 50 9 117 21 149 26 154 26 366 86
422 120 17 11 37 19 44 19 6 0 24 8 38 18 15 11 51 27 80 37 28 11 52 23 52
27 0 4 6 8 13 8 8 0 24 11 37 25 18 19 21 28 12 37 -8 8 0 19 31 44 44 35 69
45 47 19 -7 -8 -10 -28 -8 -45 3 -21 0 -30 -9 -30 -8 0 -13 -6 -12 -12 5 -41
-4 -50 -93 -94 -51 -25 -140 -70 -198 -100 -58 -29 -112 -54 -121 -54 -9 0
-22 -7 -29 -15 -7 -8 -18 -15 -25 -15 -7 0 -39 -13 -71 -29 -79 -39 -272 -99
-297 -93 -5 2 -38 -5 -73 -14 -36 -9 -72 -13 -80 -10 -11 4 -15 2 -11 -7 4
-10 -32 -12 -182 -11 -102 1 -208 5 -235 7 -121 14 -286 63 -446 135 -136 61
-188 91 -325 186 l-90 62 -22 75 c-30 96 -30 108 0 82 12 -11 44 -34 70 -51z
m2877 -51 c0 -56 -4 -103 -10 -106 -5 -3 -10 -19 -10 -35 0 -27 -15 -40 -45
-40 -18 0 -10 61 21 166 13 45 24 89 24 98 0 9 5 16 10 16 6 0 10 -40 10 -99z
m-3517 68 l22 -21 -25 4 c-14 2 -26 11 -28 21 -5 23 4 22 31 -4z m1832 1 c18
-8 17 -9 -7 -9 -16 -1 -28 4 -28 9 0 12 8 12 35 0z m1975 -38 c0 -15 -2 -15
-10 -2 -13 20 -13 33 0 25 6 -3 10 -14 10 -23z m-884 -129 c16 -21 19 -67 4
-58 -5 3 -10 2 -10 -4 0 -5 -3 -16 -6 -24 -3 -9 3 -16 15 -20 12 -3 21 -13 21
-22 0 -9 -4 -13 -10 -10 -5 3 -10 -3 -10 -14 0 -14 5 -19 15 -15 10 4 15 0 15
-10 0 -9 6 -16 13 -15 42 5 88 -48 73 -86 -3 -8 -1 -15 5 -15 5 0 16 -15 24
-32 21 -52 -13 -92 -45 -53 -7 8 -16 15 -21 15 -15 0 -10 -42 6 -54 13 -9 10
-14 -22 -31 -21 -11 -41 -24 -44 -29 -9 -12 -29 2 -29 20 0 8 5 23 12 34 14
22 2 41 -13 20 -8 -11 -12 -12 -15 -3 -4 8 -13 9 -35 1 -21 -7 -27 -14 -20
-21 12 -12 -33 -52 -49 -42 -15 10 -12 22 8 27 18 5 28 48 11 48 -5 0 -9 -4
-9 -10 0 -5 -4 -10 -10 -10 -15 0 -12 17 7 35 12 13 25 15 52 10 20 -3 53 -9
74 -11 l37 -5 0 52 c0 44 -2 50 -17 45 -11 -5 -24 2 -39 21 l-23 28 -7 -32
c-3 -17 -13 -34 -21 -37 -8 -3 -12 -10 -9 -15 3 -5 -3 -11 -14 -14 -21 -5 -29
16 -10 28 6 3 10 17 10 29 0 13 10 30 23 39 19 13 20 18 10 36 -16 27 -16 31
1 31 8 0 18 5 22 12 5 7 2 9 -9 5 -23 -9 -34 13 -26 53 3 19 7 31 8 25 3 -24
21 24 21 58 0 40 14 48 36 20z m-79 -50 c-3 -10 -11 -47 -18 -83 -7 -36 -15
-67 -18 -70 -4 -3 -11 -18 -16 -34 -7 -19 -22 -33 -47 -43 -34 -14 -39 -13
-55 2 -16 17 -15 17 15 10 21 -4 32 -3 32 4 0 6 -4 11 -10 11 -19 0 -10 32 10
37 21 6 35 36 24 54 -5 8 -3 9 6 4 8 -5 11 -3 8 6 -8 26 -54 21 -101 -10 -25
-17 -52 -31 -60 -31 -9 0 -14 -10 -14 -24 0 -14 -12 -36 -26 -50 -28 -28 -77
-45 -77 -27 0 6 -4 11 -10 11 -5 0 -7 -6 -4 -14 3 -7 -2 -16 -10 -19 -9 -4
-16 -13 -16 -21 0 -9 -7 -12 -20 -9 -21 6 -28 -12 -7 -20 16 -6 7 -14 -26 -22
-21 -6 -27 -4 -27 9 0 21 -12 20 -41 -2 -13 -10 -37 -19 -53 -21 -17 -1 -41
-7 -55 -13 -31 -11 -151 -17 -151 -7 0 9 77 23 107 20 11 -1 24 3 28 8 3 6 17
8 31 5 22 -6 24 -3 24 26 0 17 4 29 9 26 5 -3 20 5 34 18 14 13 58 36 97 52
39 15 77 35 83 43 7 9 18 17 25 18 17 4 15 -24 -3 -31 -8 -3 -12 -12 -9 -20 6
-15 29 -11 51 8 8 8 8 15 -3 27 -13 15 -13 19 1 33 9 9 27 16 40 16 13 0 26 4
30 9 3 5 18 12 34 16 15 3 39 16 52 28 38 36 113 87 127 87 8 0 11 -7 9 -17z
m770 -65 c-3 -8 -6 -5 -6 6 -1 11 2 17 5 13 3 -3 4 -12 1 -19z m-160 -40 c-3
-8 -6 -5 -6 6 -1 11 2 17 5 13 3 -3 4 -12 1 -19z m184 -38 c26 0 33 -18 11
-31 -11 -7 -17 -20 -15 -30 4 -12 -3 -19 -26 -24 -37 -8 -47 -3 -55 31 -5 18
0 36 15 61 23 36 23 36 37 15 8 -12 23 -22 33 -22z m-196 -130 c3 -5 1 -10 -4
-10 -6 0 -11 5 -11 10 0 6 2 10 4 10 3 0 8 -4 11 -10z m-885 -14 c0 -3 -4 -8
-10 -11 -5 -3 -10 -1 -10 4 0 6 5 11 10 11 6 0 10 -2 10 -4z m-315 -26 c-3 -5
-16 -10 -28 -9 -20 1 -20 2 3 9 14 4 26 8 28 9 2 1 0 -3 -3 -9z m890 -10 c3
-5 1 -10 -4 -10 -6 0 -11 5 -11 10 0 6 2 10 4 10 3 0 8 -4 11 -10z m-1490 -34
c17 -1 30 -5 30 -11 0 -5 -15 -9 -32 -7 -19 2 -33 -1 -33 -7 0 -6 9 -11 21
-11 11 0 28 -8 37 -17 16 -16 16 -16 -3 -9 -38 16 -105 4 -105 -19 0 -8 -4
-15 -10 -15 -5 0 -10 9 -10 19 0 11 -4 23 -10 26 -5 3 -10 15 -10 26 0 10 -7
19 -15 19 -8 0 -15 -7 -15 -15 0 -21 -36 -39 -43 -21 -6 16 16 40 26 29 4 -3
7 2 7 11 0 17 6 18 68 10 37 -4 81 -8 97 -8z m98 -13 c-7 -2 -19 -2 -25 0 -7
3 -2 5 12 5 14 0 19 -2 13 -5z m1421 -18 c-7 -16 -44 -21 -44 -6 0 8 16 16 42
20 4 0 5 -6 2 -14z m-1791 -39 c6 -15 -1 -26 -15 -26 -4 0 -8 9 -8 20 0 23 15
27 23 6z m1473 -3 c-10 -11 -37 -12 -30 -2 3 5 12 9 21 9 9 0 13 -3 9 -7z
m539 -58 c-15 -30 -31 -55 -36 -55 -13 0 -11 6 9 43 50 91 72 101 27 12z
m-1738 49 c-3 -3 -12 -4 -19 -1 -8 3 -5 6 6 6 11 1 17 -2 13 -5z m1296 -74
c18 0 19 -2 7 -10 -26 -17 -60 -12 -60 9 0 22 23 34 28 14 2 -7 13 -13 25 -13z
m177 20 c0 -5 -4 -10 -10 -10 -5 0 -10 5 -10 10 0 6 5 10 10 10 6 0 10 -4 10
-10z m-330 -10 c0 -5 -4 -10 -10 -10 -5 0 -10 5 -10 10 0 6 5 10 10 10 6 0 10
-4 10 -10z m233 -2 c-11 -18 -14 -37 -15 -81 0 -28 -3 -35 -12 -27 -21 17 2
120 26 120 5 0 6 -6 1 -12z m-1336 -34 c-3 -3 -12 -4 -19 -1 -8 3 -5 6 6 6 11
1 17 -2 13 -5z m1283 -14 c0 -5 -5 -10 -11 -10 -5 0 -7 5 -4 10 3 6 8 10 11
10 2 0 4 -4 4 -10z m844 -55 c-4 -8 -8 -15 -10 -15 -2 0 -4 7 -4 15 0 8 4 15
10 15 5 0 7 -7 4 -15z m-884 -15 c0 -5 -7 -7 -15 -4 -8 4 -12 10 -9 15 6 11
24 2 24 -11z m-70 -29 c0 -5 -7 -14 -15 -21 -12 -10 -15 -10 -15 2 0 8 3 18 7
21 9 10 23 9 23 -2z m-1980 -62 c0 -5 -4 -9 -10 -9 -5 0 -10 7 -10 16 0 8 5
12 10 9 6 -3 10 -10 10 -16z m1836 -13 c8 -8 14 -22 14 -32 0 -13 -3 -14 -15
-4 -8 6 -19 9 -25 5 -6 -4 -10 4 -10 19 0 29 14 33 36 12z m-1816 -22 c0 -8
-5 -12 -10 -9 -6 4 -8 11 -5 16 9 14 15 11 15 -7z m1942 4 c2 -7 1 -31 -3 -53
-6 -39 -11 -39 -13 0 -1 11 -11 24 -23 30 -25 11 -32 31 -8 22 8 -4 17 -2 20
3 9 14 22 12 27 -2z m-1932 -42 c0 -3 -4 -8 -10 -11 -5 -3 -10 -1 -10 4 0 6 5
11 10 11 6 0 10 -2 10 -4z m2890 -31 c0 -11 -11 -15 -40 -15 -29 0 -40 4 -40
15 0 11 11 15 40 15 29 0 40 -4 40 -15z m-991 -42 c0 -25 -1 -26 -9 -8 -12 27
-12 35 0 35 6 0 10 -12 9 -27z m-104 -23 c3 -5 1 -10 -4 -10 -6 0 -11 5 -11
10 0 6 2 10 4 10 3 0 8 -4 11 -10z m925 -6 c0 -8 -4 -12 -10 -9 -5 3 -10 10
-10 16 0 5 5 9 10 9 6 0 10 -7 10 -16z m-900 -68 c0 -3 -4 -8 -10 -11 -5 -3
-10 -1 -10 4 0 6 5 11 10 11 6 0 10 -2 10 -4z"/>
<path d="M4140 2420 c0 -5 5 -10 10 -10 6 0 10 5 10 10 0 6 -4 10 -10 10 -5 0
-10 -4 -10 -10z"/>
<path d="M4500 1800 c0 -13 11 -13 30 0 12 8 11 10 -7 10 -13 0 -23 -4 -23
-10z"/>
<path d="M4515 1560 c3 -5 13 -10 21 -10 8 0 12 5 9 10 -3 6 -13 10 -21 10 -8
0 -12 -4 -9 -10z"/>
<path d="M4580 1535 c0 -8 5 -15 10 -15 6 0 10 7 10 15 0 8 -4 15 -10 15 -5 0
-10 -7 -10 -15z"/>
<path d="M4170 1165 c-12 -14 -11 -20 2 -43 21 -34 43 -43 36 -14 -4 14 0 22
13 25 27 7 23 27 -5 27 -13 0 -26 5 -28 11 -2 7 -9 5 -18 -6z"/>
<path d="M4382 1148 c5 -15 37 -18 41 -3 1 6 -9 12 -22 13 -16 3 -22 -1 -19
-10z"/>
<path d="M4488 1102 c-2 -18 -1 -35 4 -38 16 -10 19 3 10 37 l-9 34 -5 -33z"/>
<path d="M4522 1100 c0 -14 2 -19 5 -12 2 6 2 18 0 25 -3 6 -5 1 -5 -13z"/>
<path d="M4130 935 c0 -8 5 -15 10 -15 6 0 10 7 10 15 0 8 -4 15 -10 15 -5 0
-10 -7 -10 -15z"/>
<path d="M4157 890 c-18 -18 -18 -18 0 -28 14 -9 16 -13 6 -23 -7 -7 -13 -16
-13 -19 0 -10 39 -9 45 1 4 5 0 9 -9 9 -12 0 -12 5 -3 30 14 38 -1 55 -26 30z"/>
<path d="M2715 710 c-3 -5 1 -10 9 -10 9 0 16 5 16 10 0 6 -4 10 -9 10 -6 0
-13 -4 -16 -10z"/>
<path d="M4400 3716 c0 -9 7 -12 20 -9 11 3 20 9 20 14 0 5 -9 9 -20 9 -11 0
-20 -6 -20 -14z"/>
<path d="M3428 3650 c-7 -24 -3 -38 8 -28 3 4 4 17 2 30 l-3 23 -7 -25z"/>
<path d="M3003 3475 c-3 -9 -3 -18 -1 -21 3 -3 8 4 11 16 6 23 -1 27 -10 5z"/>
<path d="M3424 3449 c-6 -8 -10 -31 -9 -51 1 -21 -1 -38 -5 -38 -4 0 -10 -13
-13 -30 -4 -18 -13 -30 -22 -30 -8 0 -15 -6 -15 -12 0 -7 -9 -24 -20 -38 -26
-33 -25 -45 5 -58 28 -13 65 -3 93 24 20 21 27 91 10 112 -11 13 -10 14 10 8
27 -9 28 -2 2 27 -11 12 -18 27 -16 33 3 7 1 24 -2 39 -6 22 -10 24 -18 14z"/>
<path d="M4133 3375 c-1 -32 -28 -80 -71 -124 -11 -11 -11 -17 1 -34 27 -42
46 -45 73 -12 13 17 24 26 24 22 0 -5 11 4 23 20 28 33 40 73 24 73 -26 1 -50
31 -50 60 0 42 -23 38 -24 -5z m43 -102 c-10 -10 -19 5 -10 18 6 11 8 11 12 0
2 -7 1 -15 -2 -18z"/>
<path d="M4197 3403 c-4 -3 -7 -15 -7 -25 0 -13 7 -18 25 -18 19 0 25 5 25 22
0 12 -3 18 -7 15 -3 -4 -11 -2 -18 3 -7 5 -15 7 -18 3z"/>
<path d="M3132 3375 c0 -16 2 -22 5 -12 2 9 2 23 0 30 -3 6 -5 -1 -5 -18z"/>
<path d="M4305 3370 c-3 -5 -3 -15 1 -21 6 -11 23 6 24 24 0 10 -18 9 -25 -3z"/>
<path d="M3072 3348 c-27 -27 -6 -85 33 -88 35 -4 46 0 39 12 -5 8 0 9 14 6
17 -5 22 -2 22 12 0 23 -26 46 -32 28 -4 -10 -8 -10 -20 2 -8 8 -15 20 -16 25
-2 15 -26 17 -40 3z"/>
<path d="M4370 3296 c0 -15 -12 -34 -30 -49 -36 -31 -37 -35 -8 -39 13 -2 33
8 51 24 27 26 28 30 15 58 -16 36 -28 39 -28 6z"/>
<path d="M3239 3261 c-1 -3 -2 -13 -3 -21 0 -8 -11 -17 -24 -20 l-23 -5 21
-18 c12 -10 35 -20 53 -24 l32 -6 -19 21 c-17 20 -18 22 -2 22 28 0 17 53 -11
55 -13 1 -24 -1 -24 -4z"/>
<path d="M3320 3159 c0 -5 14 -9 32 -9 36 0 31 12 -7 16 -14 1 -25 -2 -25 -7z"/>
<path d="M1466 2693 c-6 -14 -5 -15 5 -6 7 7 10 15 7 18 -3 3 -9 -2 -12 -12z"/>
<path d="M2516 2669 c-14 -11 -26 -25 -26 -30 0 -15 22 -10 43 8 15 14 35 18
96 16 l76 -2 -50 14 c-71 20 -108 18 -139 -6z"/>
<path d="M3595 2660 c3 -5 8 -10 11 -10 2 0 4 5 4 10 0 6 -5 10 -11 10 -5 0
-7 -4 -4 -10z"/>
<path d="M3605 2629 c-25 -16 -27 -19 -9 -19 24 0 61 25 48 32 -5 3 -22 -3
-39 -13z"/>
<path d="M2735 2620 c3 -5 8 -10 11 -10 2 0 4 5 4 10 0 6 -5 10 -11 10 -5 0
-7 -4 -4 -10z"/>
<path d="M3495 2603 c-16 -9 -42 -16 -57 -15 -15 0 -28 -4 -28 -9 0 -5 -19 -9
-42 -10 l-43 -1 39 -9 c28 -7 42 -6 47 2 3 6 15 8 26 5 12 -4 25 -1 33 9 7 8
19 15 27 15 8 0 21 7 29 15 20 19 7 19 -31 -2z"/>
<path d="M1516 2577 c3 -10 9 -15 12 -12 3 3 0 11 -7 18 -10 9 -11 8 -5 -6z"/>
<path d="M1544 2544 c3 -9 6 -18 6 -20 0 -2 5 -4 10 -4 6 0 10 9 10 20 0 12
-7 20 -16 20 -11 0 -14 -5 -10 -16z"/>
<path d="M3255 2520 c-3 -5 -1 -10 4 -10 6 0 11 5 11 10 0 6 -2 10 -4 10 -3 0
-8 -4 -11 -10z"/>
<path d="M2921 2494 c5 -6 22 -14 37 -17 15 -3 47 -10 72 -17 31 -8 46 -8 48
-1 2 7 37 11 87 11 84 0 141 12 131 29 -3 4 -29 2 -57 -5 -38 -10 -57 -11 -71
-3 -15 8 -27 8 -44 -1 -18 -10 -42 -10 -118 2 -71 10 -93 11 -85 2z"/>
<path d="M1650 2460 c45 -38 58 -38 22 0 -16 17 -35 30 -43 30 -7 0 2 -13 21
-30z"/>
<path d="M1490 2305 c0 -8 5 -15 10 -15 6 0 10 7 10 15 0 8 -4 15 -10 15 -5 0
-10 -7 -10 -15z"/>
<path d="M1528 2313 c7 -3 16 -2 19 1 4 3 -2 6 -13 5 -11 0 -14 -3 -6 -6z"/>
<path d="M2310 2195 c0 -5 5 -17 10 -25 5 -8 10 -10 10 -5 0 6 -5 17 -10 25
-5 8 -10 11 -10 5z"/>
<path d="M2270 2160 c0 -5 7 -10 16 -10 8 0 12 5 9 10 -3 6 -10 10 -16 10 -5
0 -9 -4 -9 -10z"/>
<path d="M2083 2132 c12 -12 25 -18 35 -14 13 5 14 6 1 10 -7 3 -23 9 -34 15
-20 10 -20 9 -2 -11z"/>
<path d="M2255 2100 c-3 -5 -1 -10 4 -10 6 0 11 5 11 10 0 6 -2 10 -4 10 -3 0
-8 -4 -11 -10z"/>
<path d="M2215 2060 c3 -5 8 -10 11 -10 2 0 4 5 4 10 0 6 -5 10 -11 10 -5 0
-7 -4 -4 -10z"/>
<path d="M2260 2012 c0 -12 68 -82 80 -82 4 0 15 -3 24 -6 9 -3 16 -1 16 5 0
6 -6 11 -12 11 -7 0 -26 14 -43 31 -34 35 -65 54 -65 41z"/>
<path d="M2580 1971 c0 -5 7 -12 16 -15 14 -5 15 -4 4 9 -14 17 -20 19 -20 6z"/>
<path d="M1950 1957 c0 -8 11 -17 25 -20 20 -3 25 -1 23 12 -4 21 -48 28 -48
8z"/>
<path d="M2665 1920 c3 -5 8 -10 11 -10 2 0 4 5 4 10 0 6 -5 10 -11 10 -5 0
-7 -4 -4 -10z"/>
<path d="M2385 1910 c-3 -5 -1 -10 4 -10 6 0 11 5 11 10 0 6 -2 10 -4 10 -3 0
-8 -4 -11 -10z"/>
<path d="M2710 1899 c0 -5 5 -7 10 -4 6 3 10 8 10 11 0 2 -4 4 -10 4 -5 0 -10
-5 -10 -11z"/>
<path d="M1680 1840 c0 -10 33 -97 55 -145 8 -16 21 -55 29 -85 38 -143 46
-168 66 -215 36 -81 34 -36 -4 81 -19 60 -40 138 -46 174 -7 36 -19 79 -28 96
-9 17 -26 47 -36 67 -19 35 -36 48 -36 27z"/>
<path d="M2635 1750 c3 -5 14 -10 23 -10 15 0 15 2 2 10 -20 13 -33 13 -25 0z"/>
<path d="M1415 1360 c-3 -5 -1 -10 4 -10 6 0 11 5 11 10 0 6 -2 10 -4 10 -3 0
-8 -4 -11 -10z"/>
<path d="M2161 1324 c0 -11 3 -14 6 -6 3 7 2 16 -1 19 -3 4 -6 -2 -5 -13z"/>
<path d="M969 1227 c-7 -12 -12 -34 -11 -49 1 -46 52 -242 66 -253 14 -11 30
-46 27 -59 -1 -4 4 -13 12 -20 7 -6 22 -31 32 -56 10 -25 26 -56 35 -70 9 -14
27 -52 40 -85 22 -59 85 -188 143 -295 53 -97 57 -105 57 -115 0 -6 8 -18 18
-27 9 -8 31 -39 47 -68 17 -29 45 -70 64 -91 l33 -39 86 0 85 0 -37 25 c-20
14 -44 22 -53 19 -16 -5 -16 -4 -3 6 11 9 12 13 3 17 -7 2 -13 15 -13 28 0 36
-10 55 -30 55 -11 0 -22 4 -25 10 -3 5 -15 10 -26 10 -10 0 -19 5 -19 10 0 6
5 10 10 10 6 0 10 6 10 14 0 8 10 16 23 18 33 4 34 41 2 62 -24 16 -51 14 -40
-3 2 -5 -4 -19 -15 -31 -11 -13 -20 -28 -20 -34 0 -6 -9 0 -20 14 -11 14 -18
31 -15 38 3 7 1 10 -5 7 -5 -3 -17 7 -27 22 -10 15 -32 47 -49 70 -18 23 -51
75 -73 115 -23 40 -46 80 -51 88 -5 8 -20 40 -33 70 -13 30 -34 76 -46 102
-11 26 -21 52 -21 57 0 5 -6 14 -14 20 -7 6 -19 32 -26 57 -7 25 -21 51 -32
57 -10 7 -18 18 -18 26 0 8 -7 22 -15 31 -20 23 -36 170 -18 170 21 0 15 17
-8 23 -13 4 -20 12 -17 24 4 22 40 29 59 11 8 -7 39 -14 69 -16 30 -1 91 -4
135 -7 76 -4 78 -3 45 10 -19 7 -64 14 -100 14 -36 1 -81 5 -100 10 -83 21
-109 21 -121 -2z"/>
<path d="M1670 1193 c0 -13 5 -23 10 -23 13 0 13 11 0 30 -8 12 -10 11 -10 -7z"/>
<path d="M1540 1140 c0 -5 5 -10 10 -10 6 0 10 5 10 10 0 6 -4 10 -10 10 -5 0
-10 -4 -10 -10z"/>
<path d="M1195 1120 c-3 -5 -1 -10 4 -10 6 0 11 5 11 10 0 6 -2 10 -4 10 -3 0
-8 -4 -11 -10z"/>
<path d="M1860 1021 c0 -5 7 -11 15 -15 9 -3 15 0 15 9 0 8 -7 15 -15 15 -8 0
-15 -4 -15 -9z"/>
<path d="M1140 1001 c0 -21 30 -34 55 -23 37 17 30 32 -15 32 -22 0 -40 -4
-40 -9z"/>
<path d="M1455 931 c-7 -12 12 -24 25 -16 11 7 4 25 -10 25 -5 0 -11 -4 -15
-9z"/>
<path d="M1423 895 c4 -9 3 -23 -3 -30 -14 -17 9 -114 33 -138 10 -10 16 -25
13 -32 -2 -7 2 -16 11 -19 8 -4 13 -13 9 -21 -3 -8 -1 -17 5 -21 6 -3 8 -12 5
-20 -3 -8 1 -17 10 -21 10 -4 14 -13 10 -27 -3 -12 2 -28 12 -40 12 -14 14
-20 5 -23 -19 -7 -16 -23 5 -23 16 -1 16 -1 0 -14 -16 -12 -16 -14 6 -25 13
-7 23 -18 22 -25 -2 -24 69 -155 91 -167 13 -7 23 -19 23 -28 0 -47 70 -111
97 -89 8 7 12 1 15 -19 2 -15 10 -29 18 -31 25 -4 18 94 -9 119 -24 22 -28 41
-7 33 27 -11 27 16 -1 28 -56 25 -63 39 -50 88 11 45 11 45 18 15 5 -23 7 -25
8 -7 0 12 6 22 12 22 6 0 8 -7 5 -16 -3 -9 -1 -14 5 -12 6 2 10 7 10 11 -1 4
-1 16 -1 26 0 12 -9 21 -25 25 -18 5 -25 13 -25 31 0 14 6 25 13 25 6 0 4 5
-5 11 -10 5 -18 18 -18 27 0 46 -22 93 -48 103 -24 9 -25 11 -9 20 9 6 26 7
37 4 11 -4 20 -2 20 4 0 13 -55 24 -80 16 -20 -6 -28 9 -10 20 12 8 13 45 1
45 -5 0 -12 -7 -15 -16 -5 -13 -9 -14 -21 -4 -18 15 -19 3 -6 -33 11 -28 6
-38 -15 -30 -11 4 -12 9 -3 19 9 11 8 14 -5 14 -9 0 -16 5 -16 10 0 6 4 10 9
10 5 0 1 16 -7 35 -10 21 -22 33 -29 30 -8 -3 -19 11 -29 35 -9 22 -20 40 -24
40 -4 0 -10 14 -13 30 -7 33 -23 40 -30 13 -4 -14 -5 -13 -6 4 0 12 -6 25 -13
29 -8 5 -9 2 -5 -11z m97 -156 c0 -6 -4 -7 -10 -4 -5 3 -10 11 -10 16 0 6 5 7
10 4 6 -3 10 -11 10 -16z m170 -179 c0 -11 -4 -20 -9 -20 -11 0 -22 26 -14 34
12 12 23 5 23 -14z m70 -364 c0 -2 -7 -6 -15 -10 -8 -3 -15 -1 -15 4 0 6 7 10
15 10 8 0 15 -2 15 -4z"/>
<path d="M1390 880 c0 -5 5 -10 10 -10 6 0 10 5 10 10 0 6 -4 10 -10 10 -5 0
-10 -4 -10 -10z"/>
<path d="M1225 858 c-11 -31 18 -88 44 -88 14 0 18 7 17 25 0 14 -7 25 -15 25
-7 0 -11 6 -8 14 6 14 -10 36 -25 36 -5 0 -11 -6 -13 -12z"/>
<path d="M1930 850 c0 -5 5 -10 10 -10 6 0 10 5 10 10 0 6 -4 10 -10 10 -5 0
-10 -4 -10 -10z"/>
<path d="M2052 820 c0 -14 2 -19 5 -12 2 6 2 18 0 25 -3 6 -5 1 -5 -13z"/>
<path d="M2136 775 c4 -8 8 -15 10 -15 2 0 4 7 4 15 0 8 -4 15 -10 15 -5 0 -7
-7 -4 -15z"/>
<path d="M2335 780 c3 -5 10 -10 16 -10 5 0 9 5 9 10 0 6 -7 10 -16 10 -8 0
-12 -4 -9 -10z"/>
<path d="M1998 753 c7 -3 16 -2 19 1 4 3 -2 6 -13 5 -11 0 -14 -3 -6 -6z"/>
<path d="M3809 743 c-1 -5 -2 -17 -3 -28 -1 -11 -7 -19 -13 -17 -7 1 -13 -7
-13 -18 0 -13 7 -20 20 -20 11 0 20 5 20 10 0 6 7 10 16 10 12 0 15 6 10 23
-3 12 -6 28 -6 35 0 13 -29 17 -31 5z"/>
<path d="M1270 727 c0 -9 12 -11 43 -8 37 4 39 5 17 12 -39 11 -60 10 -60 -4z"/>
<path d="M3770 719 c0 -5 5 -7 10 -4 6 3 10 8 10 11 0 2 -4 4 -10 4 -5 0 -10
-5 -10 -11z"/>
<path d="M2065 699 c-4 -5 -4 -26 -1 -45 6 -31 10 -34 40 -34 33 0 62 20 49
33 -3 4 -15 7 -25 7 -10 0 -18 7 -18 15 0 19 -36 39 -45 24z"/>
<path d="M1300 671 c0 -6 5 -13 10 -16 6 -3 10 1 10 9 0 9 -4 16 -10 16 -5 0
-10 -4 -10 -9z"/>
<path d="M2440 670 c0 -5 7 -10 15 -10 8 0 15 5 15 10 0 6 -7 10 -15 10 -8 0
-15 -4 -15 -10z"/>
<path d="M3181 668 c-1 -10 6 -18 14 -18 8 0 15 5 15 11 0 5 -4 8 -9 5 -5 -4
-12 0 -14 6 -3 8 -6 6 -6 -4z"/>
<path d="M2205 661 c-6 -11 9 -23 19 -14 9 9 7 23 -3 23 -6 0 -12 -4 -16 -9z"/>
<path d="M3420 640 c-13 -8 -12 -10 3 -10 10 0 17 -8 17 -20 0 -14 -10 -22
-32 -28 -34 -9 -40 -25 -22 -67 7 -18 6 -18 -9 -6 -14 11 -17 11 -17 0 0 -23
-39 -42 -56 -28 -8 7 -36 13 -62 13 -37 1 -51 -4 -64 -20 -15 -18 -25 -21 -61
-17 -52 6 -71 -16 -34 -42 34 -24 84 -19 103 10 18 28 64 35 64 10 0 -8 -4
-15 -10 -15 -5 0 -10 -4 -10 -10 0 -5 7 -10 16 -10 9 0 14 -7 12 -17 -3 -14
-12 -17 -35 -15 -24 2 -33 -2 -38 -17 -3 -12 -15 -21 -25 -21 -10 0 -22 -5
-26 -11 -5 -8 -9 -8 -14 1 -6 10 -19 10 -61 -1 -30 -7 -58 -13 -64 -14 -5 0
-11 -7 -11 -15 -1 -8 -2 -21 -3 -27 0 -7 -9 -13 -19 -13 -10 0 -29 -11 -42
-25 -20 -21 -22 -28 -12 -50 14 -31 -4 -43 -37 -26 -29 16 -38 14 -46 -12 -7
-20 -8 -19 -12 11 -4 26 -9 32 -29 32 -13 0 -24 -4 -24 -10 0 -5 9 -10 20 -10
14 0 20 -7 20 -23 0 -20 -10 -26 -67 -44 -41 -13 -72 -18 -79 -12 -11 9 -109
-3 -121 -15 -3 -3 8 -6 25 -6 17 0 34 -5 38 -11 3 -6 17 -8 30 -5 13 4 24 2
24 -3 0 -5 9 -11 21 -14 12 -3 18 -10 14 -16 -4 -8 75 -11 267 -10 150 1 267
3 261 6 -18 7 -16 23 2 23 8 0 15 -7 15 -15 0 -11 12 -15 48 -15 41 0 51 4 62
24 7 15 9 32 5 43 -8 16 -9 16 -12 -4 -5 -29 -23 -30 -23 -2 0 30 28 48 72 49
20 0 39 6 41 13 4 8 8 9 14 1 10 -14 48 -1 48 17 0 7 11 16 24 19 25 6 42 30
22 30 -20 0 -11 28 11 33 30 8 59 -9 51 -31 -6 -16 -6 -16 10 0 16 15 38 60
42 83 3 20 18 50 36 70 27 30 79 137 79 163 0 12 -6 22 -14 22 -7 0 -21 -10
-30 -22 -15 -22 -15 -21 -9 22 3 25 11 52 19 60 11 13 7 35 -12 58 -5 7 -49
-24 -72 -50 -13 -15 -39 -30 -58 -34 -21 -4 -41 -16 -51 -30 -8 -13 -22 -24
-30 -24 -10 0 -12 -6 -8 -20 5 -16 2 -20 -14 -20 -14 0 -21 6 -21 20 0 11 -4
20 -10 20 -5 0 -10 6 -10 14 0 8 -8 17 -17 21 -17 7 -16 8 2 15 11 5 30 6 43
3 12 -3 29 0 37 7 13 11 12 15 -8 36 -12 13 -29 24 -39 24 -9 0 -18 4 -20 10
-2 6 -8 6 -18 0z m-420 -410 c0 -5 -4 -10 -10 -10 -5 0 -10 5 -10 10 0 6 5 10
10 10 6 0 10 -4 10 -10z m-25 -59 c3 -5 1 -12 -5 -16 -5 -3 -10 1 -10 9 0 18
6 21 15 7z"/>
<path d="M1790 620 c0 -5 5 -10 11 -10 5 0 7 5 4 10 -3 6 -8 10 -11 10 -2 0
-4 -4 -4 -10z"/>
<path d="M2480 619 c0 -5 5 -7 10 -4 6 3 10 8 10 11 0 2 -4 4 -10 4 -5 0 -10
-5 -10 -11z"/>
<path d="M3040 610 c0 -5 5 -10 10 -10 6 0 10 5 10 10 0 6 -4 10 -10 10 -5 0
-10 -4 -10 -10z"/>
<path d="M1865 600 c-3 -5 1 -10 10 -10 9 0 13 5 10 10 -3 6 -8 10 -10 10 -2
0 -7 -4 -10 -10z"/>
<path d="M1322 591 c2 -7 7 -12 11 -12 12 1 9 15 -3 20 -7 2 -11 -2 -8 -8z"/>
<path d="M2130 590 c0 -5 5 -10 10 -10 6 0 10 5 10 10 0 6 -4 10 -10 10 -5 0
-10 -4 -10 -10z"/>
<path d="M2170 581 c0 -12 5 -21 10 -21 6 0 10 6 10 14 0 8 -4 18 -10 21 -5 3
-10 -3 -10 -14z"/>
<path d="M2151 500 c0 -8 4 -22 9 -30 12 -18 12 -2 0 25 -6 13 -9 15 -9 5z"/>
<path d="M1374 470 c-1 -25 3 -30 21 -30 33 0 35 9 10 36 -28 30 -30 30 -31
-6z"/>
<path d="M2735 489 c-4 -6 -5 -13 -2 -16 7 -7 27 6 27 18 0 12 -17 12 -25 -2z"/>
<path d="M2896 482 c-3 -6 -1 -14 5 -17 15 -10 25 3 12 16 -7 7 -13 7 -17 1z"/>
<path d="M3003 482 c-24 -2 -43 -7 -43 -13 0 -12 87 -12 95 0 8 14 -4 17 -52
13z"/>
<path d="M4430 480 c0 -5 4 -10 9 -10 6 0 13 5 16 10 3 6 -1 10 -9 10 -9 0
-16 -4 -16 -10z"/>
<path d="M2430 450 c20 -13 33 -13 25 0 -3 6 -14 10 -23 10 -15 0 -15 -2 -2
-10z"/>
<path d="M2480 450 c0 -5 9 -10 21 -10 11 0 17 5 14 10 -3 6 -13 10 -21 10 -8
0 -14 -4 -14 -10z"/>
<path d="M2585 440 c-3 -5 1 -10 9 -10 9 0 16 5 16 10 0 6 -4 10 -9 10 -6 0
-13 -4 -16 -10z"/>
<path d="M2640 440 c0 -5 5 -10 10 -10 6 0 10 5 10 10 0 6 -4 10 -10 10 -5 0
-10 -4 -10 -10z"/>
<path d="M1440 379 c0 -12 -7 -27 -17 -34 -9 -7 -14 -19 -10 -29 9 -23 27 -20
27 4 0 11 5 20 11 20 7 0 8 -11 4 -30 -5 -24 -3 -30 10 -30 18 0 18 -2 2 94
-5 28 -27 32 -27 5z"/>
<path d="M1200 313 c0 -12 6 -24 13 -27 6 -3 2 -3 -10 0 -13 3 -23 1 -23 -5 0
-25 14 -41 37 -41 23 0 25 3 19 32 -4 18 -13 39 -21 48 -13 13 -15 12 -15 -7z"/>
<path d="M1870 290 c-8 -5 -26 -7 -40 -4 -14 3 -20 2 -15 -3 6 -4 16 -19 22
-33 l12 -25 0 24 c1 18 5 22 21 18 23 -6 32 3 22 20 -5 8 -13 9 -22 3z"/>
<path d="M3776 281 c-4 -7 -5 -15 -2 -18 9 -9 19 4 14 18 -4 11 -6 11 -12 0z"/>
<path d="M1913 205 c-16 -18 -16 -23 -1 -39 10 -11 15 -9 24 8 10 21 8 46 -5
46 -3 -1 -12 -7 -18 -15z"/>
<path d="M3673 183 c-20 -7 -15 -29 7 -30 11 -1 20 4 20 12 0 17 -11 24 -27
18z"/>
<path d="M1971 154 c0 -11 3 -14 6 -6 3 7 2 16 -1 19 -3 4 -6 -2 -5 -13z"/>
<path d="M1912 131 c-11 -6 -10 -10 4 -15 20 -8 32 0 18 14 -5 5 -15 5 -22 1z"/>
<path d="M1946 75 c-3 -10 3 -17 19 -21 13 -3 26 -13 28 -22 4 -13 5 -11 6 4
0 11 -7 28 -17 37 -23 21 -28 21 -36 2z"/>
<path d="M3478 68 c-12 -18 -23 -21 -66 -19 l-52 2 24 -26 c25 -27 80 -35 90
-12 5 9 7 9 12 0 7 -15 40 -17 49 -3 6 10 -19 65 -34 74 -5 3 -15 -4 -23 -16z"/>
<path d="M3540 70 c-19 -11 2 -17 35 -10 l30 6 -27 5 c-15 3 -32 3 -38 -1z"/>
<path d="M4160 62 c0 -6 -7 -9 -15 -6 -8 4 -15 2 -15 -4 0 -14 39 -22 46 -10
3 5 1 15 -5 21 -8 8 -11 8 -11 -1z"/>
<path d="M5112 46 c-22 -12 -22 -13 -4 -29 21 -19 52 -23 52 -7 0 6 -7 13 -16
17 -11 4 -12 8 -4 13 21 13 -5 19 -28 6z"/>
<path d="M3815 40 c4 -6 11 -8 16 -5 14 9 11 15 -7 15 -8 0 -12 -5 -9 -10z"/>
</g>
</svg>
