<?xml version="1.0" standalone="no"?>
<!DOCTYPE svg PUBLIC "-//W3C//DTD SVG 20010904//EN"
 "http://www.w3.org/TR/2001/REC-SVG-20010904/DTD/svg10.dtd">
<svg version="1.0" xmlns="http://www.w3.org/2000/svg"
 width="1080.000000pt" height="1080.000000pt" viewBox="0 0 1080.000000 1080.000000"
 preserveAspectRatio="xMidYMid meet">

<g transform="translate(0.000000,1080.000000) scale(0.100000,-0.100000)"
fill="#000000" stroke="none">
<path d="M4257 9466 c-45 -67 -120 -359 -197 -766 -6 -30 -15 -73 -20 -95 -13
-61 -28 -142 -41 -220 -6 -38 -21 -124 -34 -190 -25 -123 -47 -269 -64 -410
-5 -44 -16 -136 -25 -205 -32 -257 -36 -289 -46 -450 -6 -91 -15 -219 -20
-285 -34 -419 -65 -1178 -80 -1947 -4 -240 -11 -441 -14 -446 -3 -6 -21 -2
-43 9 -47 24 -54 24 -85 -1 -29 -22 -48 -68 -108 -255 -22 -71 -79 -245 -124
-385 -84 -256 -171 -529 -228 -715 -16 -55 -34 -111 -38 -125 -5 -14 -14 -50
-21 -80 -6 -30 -15 -66 -19 -80 -5 -14 -11 -42 -15 -63 -9 -54 -83 -318 -95
-339 -6 -10 -10 -25 -10 -35 0 -23 -57 -212 -74 -245 -8 -15 -12 -35 -9 -46 5
-20 -140 -465 -227 -696 -60 -159 -59 -169 13 -174 78 -5 167 59 211 152 45
95 92 199 116 256 34 81 79 185 96 225 7 17 17 43 23 58 13 32 16 33 76 7 61
-26 78 -15 74 49 -4 82 -2 87 41 101 69 23 193 -15 295 -90 28 -20 78 -52 112
-70 98 -52 182 -121 329 -268 129 -128 138 -135 144 -112 4 14 2 33 -4 42 -7
11 -6 21 2 31 14 16 6 27 -20 27 -20 0 -24 20 -8 36 7 7 6 20 -4 40 -7 16 -16
41 -20 56 l-6 27 61 -35 c33 -18 73 -34 88 -34 15 0 58 13 96 29 l70 30 13 53
c7 31 12 116 12 203 0 83 5 232 12 333 l11 183 46 22 c65 31 121 108 121 165
0 36 4 44 25 52 35 13 40 33 54 215 19 246 40 438 50 448 13 13 46 -8 75 -46
49 -64 100 -209 166 -472 33 -132 47 -177 92 -298 6 -15 8 -30 5 -33 -2 -3
-26 4 -53 14 -27 11 -62 22 -79 26 -29 6 -31 3 -60 -56 -36 -73 -113 -203
-140 -237 -11 -13 -67 -72 -125 -131 -171 -172 -165 -165 -168 -246 -2 -39 -7
-95 -11 -125 -13 -78 10 -137 63 -163 34 -17 45 -18 83 -8 24 7 65 27 91 44
67 46 83 56 117 72 40 20 65 41 65 55 0 6 9 16 19 23 19 12 19 12 0 36 -10 14
-19 33 -19 43 0 20 -17 54 -37 77 -14 14 -14 15 -19 52 -1 14 -6 37 -10 53 -4
16 -2 33 6 42 16 19 69 45 74 37 15 -25 58 -200 63 -259 5 -61 3 -73 -9 -73
-28 0 -68 -50 -68 -86 0 -26 7 -38 33 -56 27 -19 31 -28 29 -55 -2 -18 -7 -33
-13 -33 -5 0 -9 -7 -9 -17 0 -31 -115 -224 -172 -289 -19 -21 -23 -21 -546
-23 -856 -2 -1377 -23 -1330 -52 18 -12 235 -11 438 1 428 25 1400 45 1400 28
0 -19 -62 -122 -155 -258 -112 -163 -155 -239 -155 -274 0 -25 1 -26 68 -26
65 0 221 19 332 39 30 6 113 18 184 28 112 14 129 19 136 37 4 12 20 62 36
111 15 50 33 97 41 107 8 9 33 18 56 21 23 2 96 11 162 20 66 9 165 21 220 28
121 15 549 19 735 7 74 -5 243 -11 375 -13 132 -2 341 -9 465 -15 256 -13 462
-11 467 6 5 15 -139 114 -227 156 -57 27 -93 37 -153 42 -51 4 -87 12 -105 25
-170 117 -655 431 -667 431 -8 0 -15 -8 -15 -17 0 -12 90 -77 276 -198 152
-99 288 -191 302 -204 l27 -23 -30 6 c-16 3 -70 11 -120 16 -49 6 -148 17
-218 25 -71 8 -142 15 -159 15 -23 0 -47 16 -108 73 -45 41 -105 86 -140 103
-33 16 -60 32 -60 35 0 4 11 14 25 23 32 21 65 74 65 103 0 14 15 34 40 54 39
32 71 77 118 171 l24 48 -59 54 c-32 30 -66 67 -75 83 -16 28 -16 31 3 59 43
62 59 106 84 221 14 65 30 137 35 161 6 23 15 62 20 87 18 81 32 139 41 170 9
30 129 520 154 630 8 33 25 107 39 165 22 96 97 443 128 598 10 50 18 68 40
84 55 38 78 107 87 258 6 94 6 95 31 93 48 -5 80 40 80 112 0 30 7 57 19 74
26 35 36 128 22 188 -11 43 -9 61 13 148 14 55 31 147 37 204 l11 103 -31 32
c-17 18 -31 37 -31 43 0 6 -22 35 -48 65 -27 29 -67 80 -89 113 -50 74 -113
174 -113 180 0 2 -21 38 -46 80 -46 75 -46 77 -51 183 -3 59 -10 113 -15 119
-6 7 -26 15 -47 19 -55 10 -165 47 -192 66 l-24 17 28 0 c68 2 6 52 -139 114
-56 23 -69 56 -60 150 3 39 9 116 12 170 8 106 9 108 89 147 17 8 90 74 163
145 106 105 132 137 132 159 0 15 -4 25 -10 21 -5 -3 -10 -12 -10 -19 0 -19
-177 -184 -242 -227 -94 -60 -197 -93 -292 -92 -102 0 -227 31 -326 80 -96 48
-231 138 -295 196 -27 25 -63 51 -80 58 -16 6 -39 15 -50 20 -11 4 -42 15 -70
24 -74 24 -177 74 -204 98 -13 12 -37 42 -52 66 -32 50 -36 86 -18 187 14 81
42 114 97 114 49 0 62 -15 71 -82 15 -111 55 -135 45 -28 -6 56 -4 70 7 70 35
0 88 -128 116 -276 17 -94 33 -123 33 -61 0 53 -31 220 -43 238 -7 9 -25 33
-41 53 -28 36 -28 37 -10 57 17 19 19 45 24 262 5 236 6 243 32 299 35 76 111
176 163 216 72 55 143 75 288 80 137 5 186 -3 269 -44 56 -27 72 -15 26 19
-18 13 -63 46 -100 73 -37 26 -65 50 -63 52 2 3 24 -4 47 -15 51 -24 90 -37
178 -59 36 -8 81 -20 100 -26 19 -5 82 -20 140 -33 103 -23 198 -53 238 -74
36 -19 66 -203 77 -476 10 -251 16 -358 24 -405 l7 -45 7 34 c4 18 7 44 7 58
0 14 4 21 10 18 6 -3 10 -17 10 -31 0 -35 17 -30 28 9 40 134 38 133 78 123
38 -10 54 -60 54 -166 0 -61 -5 -100 -15 -120 -21 -40 -128 -125 -197 -158
-81 -37 -73 -59 11 -30 112 39 247 136 289 208 23 39 27 56 27 125 0 44 -6
107 -13 140 -58 259 -56 256 -147 299 l-53 25 5 288 c5 240 4 290 -8 299 -8 6
-63 30 -124 53 -60 24 -126 49 -145 58 -19 8 -48 21 -65 28 -16 7 -51 22 -76
33 -101 46 -310 121 -419 152 -25 7 -56 16 -70 20 -14 4 -52 14 -85 21 -33 6
-94 21 -135 31 -41 10 -114 21 -162 25 -74 5 -88 4 -88 -9 0 -16 22 -29 82
-49 57 -19 30 -33 -37 -19 -55 11 -58 11 -83 -13 -24 -22 -39 -26 -135 -32
-81 -5 -110 -11 -114 -22 -3 -8 -1 -19 6 -26 21 -21 11 -26 -51 -29 -71 -3
-84 -19 -36 -44 43 -22 151 -102 161 -120 6 -11 -3 -14 -51 -14 -32 0 -84 5
-115 11 -44 9 -60 9 -72 -1 -17 -14 -20 -75 -6 -147 19 -99 31 -171 46 -283
23 -164 61 -344 90 -424 14 -38 25 -73 25 -77 0 -5 -13 -6 -29 -3 -36 8 -93
-10 -116 -36 -21 -24 -35 -17 -35 16 0 19 -5 25 -17 22 -22 -4 -41 -67 -42
-138 0 -73 31 -232 52 -264 23 -35 161 -100 285 -136 135 -38 181 -61 215
-109 30 -44 142 -132 199 -158 41 -18 41 -15 53 -248 l6 -111 -48 -34 c-26
-19 -64 -49 -84 -67 -30 -28 -46 -33 -118 -42 -68 -9 -91 -8 -139 6 -31 9 -81
18 -111 21 -67 5 -81 -9 -81 -82 0 -48 -4 -56 -74 -143 -40 -51 -95 -118 -122
-149 -27 -31 -66 -79 -86 -108 -41 -56 -80 -108 -134 -175 -19 -24 -39 -52
-45 -63 -20 -37 -27 -6 -33 144 -3 84 -10 279 -16 433 -16 418 -48 921 -65
1000 -3 18 -17 130 -45 365 -40 333 -49 390 -99 665 -17 88 -35 189 -41 225
-31 182 -114 534 -147 625 -13 39 -29 86 -35 105 -20 69 -62 90 -91 46z m1432
-452 c2 -2 -22 -4 -55 -4 -41 0 -54 3 -44 10 13 8 88 3 99 -6z m69 -21 c-10
-2 -26 -2 -35 0 -10 3 -2 5 17 5 19 0 27 -2 18 -5z m-149 -19 c2 -2 -21 -4
-53 -4 -37 0 -55 4 -51 10 6 10 92 4 104 -6z m-1175 -63 c9 -28 16 -61 16 -75
0 -14 5 -28 10 -31 6 -3 10 -17 10 -31 0 -32 -16 -23 -23 13 -9 43 -25 115
-33 146 -11 45 3 30 20 -22z m944 42 c-10 -2 -26 -2 -35 0 -10 3 -2 5 17 5 19
0 27 -2 18 -5z m290 0 c-10 -2 -28 -2 -40 0 -13 2 -5 4 17 4 22 1 32 -1 23 -4z
m77 -23 c3 -5 15 -10 26 -10 10 0 19 -5 19 -11 0 -12 -10 -10 -75 15 l-40 15
32 1 c17 0 35 -4 38 -10z m90 -40 c8 -13 -5 -13 -25 0 -13 8 -13 10 2 10 9 0
20 -4 23 -10z m-1648 -82 c-3 -7 -5 -2 -5 12 0 14 2 19 5 13 2 -7 2 -19 0 -25z
m2540 -24 c-3 -3 -12 -4 -19 -1 -8 3 -5 6 6 6 11 1 17 -2 13 -5z m-2361 -19
c38 -15 64 -38 64 -54 0 -5 13 -23 30 -39 34 -35 42 -78 84 -512 14 -140 29
-276 32 -302 8 -54 2 -58 -48 -30 -135 74 -361 82 -490 17 -17 -8 -33 -13 -35
-11 -2 2 1 25 7 52 6 27 13 90 15 139 2 50 16 146 30 215 14 69 39 197 54 284
l28 160 44 38 c65 56 122 70 185 43z m2442 -13 c15 -11 42 -25 60 -33 30 -13
43 -29 23 -29 -9 0 -140 67 -150 76 -15 14 46 1 67 -14z m-1440 -132 c27 -8
27 -8 -5 -9 -17 -1 -34 3 -37 8 -6 9 -50 20 -96 24 -19 2 -26 8 -28 30 l-3 28
71 -37 c39 -20 84 -40 98 -44z m129 -32 c28 -12 28 -12 4 -16 -13 -2 -33 1
-45 7 -12 5 -30 12 -41 14 -11 3 -3 5 17 6 20 0 49 -4 65 -11z m-267 -65 c0
-81 -5 -79 -14 5 -5 41 -3 62 4 62 6 0 10 -27 10 -67z m19 -170 c-1 -66 -2
-67 -9 -23 -7 41 -4 90 6 90 2 0 3 -30 3 -67z m18 -160 c-2 -16 -4 -5 -4 22 0
28 2 40 4 28 2 -13 2 -35 0 -50z m20 -105 c-2 -13 -4 -3 -4 22 0 25 2 35 4 23
2 -13 2 -33 0 -45z m1732 -4 c39 -19 43 -28 70 -139 12 -49 26 -104 31 -121 6
-17 10 -57 9 -90 -1 -45 -3 -53 -9 -34 -4 14 -8 39 -9 55 -1 18 -13 45 -30 65
-26 32 -34 35 -80 35 -35 0 -55 -5 -61 -15 -14 -23 -21 -6 -11 26 5 16 12 71
15 122 3 52 8 98 12 103 8 13 27 11 63 -7z m-2560 -259 c48 -16 94 -37 111
-53 25 -24 29 -36 35 -110 l6 -83 -28 14 c-50 26 -176 65 -248 77 -97 15 -229
-1 -307 -39 l-58 -27 1 30 c2 81 16 138 42 163 66 66 282 80 446 28z m-40
-203 c78 -19 78 -36 0 -21 -121 23 -319 6 -401 -36 -55 -27 -69 -12 -17 19 99
59 269 74 418 38z m-47 -42 c109 -22 230 -62 260 -88 10 -8 17 -29 17 -50 0
-21 5 -118 10 -217 19 -304 25 -555 15 -555 -6 0 -14 4 -20 9 -23 22 -220 71
-286 71 -37 0 -35 10 8 40 47 34 109 124 128 190 21 70 21 207 0 282 -20 68
-76 138 -137 170 -59 30 -196 31 -252 1 -109 -57 -162 -176 -152 -338 9 -139
60 -269 123 -310 13 -8 24 -19 24 -23 0 -5 -39 -17 -87 -27 -96 -19 -126 -23
-132 -15 -7 10 22 406 50 683 7 59 16 107 21 107 6 0 22 8 36 18 24 16 97 42
157 55 39 9 165 7 217 -3z m161 3 c-7 -2 -21 -2 -30 0 -10 3 -4 5 12 5 17 0
24 -2 18 -5z m-335 -170 c-10 -2 -26 -2 -35 0 -10 3 -2 5 17 5 19 0 27 -2 18
-5z m120 0 c-10 -2 -26 -2 -35 0 -10 3 -2 5 17 5 19 0 27 -2 18 -5z m56 -57
c29 -17 56 -44 73 -73 25 -44 27 -56 27 -155 0 -71 -4 -112 -12 -120 -7 -7
-12 -22 -12 -35 0 -13 -5 -23 -11 -23 -8 0 -9 8 -3 23 4 12 8 56 9 97 0 141
-58 248 -152 279 -78 26 -182 -20 -218 -96 -32 -66 -46 -157 -34 -216 18 -93
71 -179 127 -205 39 -18 59 -62 27 -62 -45 0 -137 127 -174 241 -14 45 -14
171 0 224 11 39 65 106 104 128 65 35 182 32 249 -7z m-76 -50 c74 -38 112
-126 112 -256 0 -81 -2 -88 -31 -123 -37 -45 -85 -67 -146 -67 -55 0 -87 20
-121 79 -24 42 -27 55 -27 146 0 88 3 105 25 145 44 79 122 110 188 76z m132
-375 c0 -20 -82 -111 -113 -126 -19 -9 -40 -27 -47 -40 -17 -32 -27 -24 -32
25 -4 43 3 50 50 50 40 0 122 61 122 90 0 5 5 10 10 10 6 0 10 -4 10 -9z
m1925 -148 c-4 -49 -11 -106 -16 -128 -5 -22 -9 -63 -9 -92 0 -28 -4 -55 -10
-58 -14 -9 -109 22 -151 49 -34 23 -50 44 -127 174 -35 59 -41 88 -16 78 68
-26 160 -13 254 35 83 42 83 43 75 -58z m-392 -47 c11 -20 28 -67 37 -104 28
-105 44 -135 89 -166 23 -16 47 -38 52 -48 13 -25 8 -23 -35 12 -21 16 -70 39
-109 51 -40 12 -78 27 -85 33 -16 16 -19 201 -4 239 15 36 30 31 55 -17z
m-1566 -35 c120 -12 228 -40 262 -69 21 -16 22 -30 31 -277 12 -324 13 -655 2
-655 -19 0 -132 -113 -132 -132 0 -20 31 -69 112 -178 43 -57 48 -69 43 -100
-3 -19 -1 -242 5 -494 7 -306 7 -463 0 -470 -6 -6 -29 -1 -67 16 -68 31 -85
35 -223 54 -125 16 -298 18 -389 4 -89 -15 -167 -38 -182 -56 -26 -32 -39 -16
-39 49 0 154 31 1451 41 1712 18 506 21 542 44 559 11 9 27 16 35 16 8 0 35 7
59 16 25 8 87 16 142 18 54 1 101 5 105 9 3 3 14 2 23 -3 9 -4 66 -13 128 -19z
m1998 -178 c17 -16 40 -33 50 -38 16 -10 14 -15 -21 -67 -22 -32 -42 -57 -46
-58 -13 0 -28 65 -28 126 0 35 3 64 6 64 4 0 21 -12 39 -27z m-156 -43 l65
-16 17 -66 c9 -35 27 -89 42 -119 14 -30 28 -65 31 -79 91 -352 89 -345 135
-668 5 -37 14 -100 20 -140 14 -90 14 -451 1 -512 -6 -25 -12 -55 -15 -67 -3
-13 -13 -23 -22 -23 -25 0 -82 22 -86 34 -2 6 0 45 5 86 6 41 7 140 4 220 -5
139 -12 194 -56 485 -10 72 -26 180 -35 240 -34 244 -39 272 -57 330 -34 105
-117 261 -162 304 -44 42 -38 57 11 28 21 -12 66 -29 102 -37z m291 -40 c0 -5
8 -10 18 -11 10 0 12 -3 5 -6 -7 -2 -23 3 -35 11 -18 13 -19 16 -5 16 9 0 17
-4 17 -10z m-323 -157 c37 -68 73 -182 73 -227 0 -27 -5 -21 -41 49 -23 44
-54 98 -69 120 -15 22 -42 68 -59 103 l-32 63 49 -25 c39 -20 54 -36 79 -83z
m283 -38 c10 -33 30 -91 43 -130 14 -38 35 -108 47 -155 12 -47 28 -105 36
-130 19 -65 77 -336 104 -490 35 -205 52 -526 31 -583 -6 -15 -12 -27 -13 -27
-2 1 -41 11 -88 24 -72 19 -85 26 -82 42 1 10 10 66 18 124 14 91 15 131 5
295 -7 105 -16 213 -20 240 -5 28 -14 91 -21 140 -11 89 -17 127 -40 255 -28
158 -68 308 -103 391 -14 35 -14 37 11 69 24 31 26 32 39 14 8 -10 22 -46 33
-79z m-989 -510 c17 -55 42 -122 55 -150 56 -124 174 -448 174 -477 0 -3 -16
-8 -35 -10 -35 -4 -35 -4 -33 31 3 29 -1 37 -22 47 -14 6 -45 21 -68 33 -47
22 -97 28 -107 11 -3 -5 -13 -10 -22 -10 -13 0 -15 9 -10 59 5 49 3 63 -12 82
l-18 23 -49 -21 c-31 -14 -54 -18 -64 -13 -9 5 -40 37 -70 72 -30 34 -65 73
-77 85 l-23 22 37 43 c85 97 142 157 217 233 70 70 80 77 87 60 4 -11 22 -65
40 -120z m-119 -481 c-15 -52 -15 -57 1 -66 19 -10 23 -38 6 -38 -7 0 -55 -43
-108 -95 -54 -52 -101 -95 -107 -95 -5 0 -22 12 -39 26 -16 14 -43 37 -60 50
l-30 24 95 93 c92 90 194 157 240 157 16 0 16 -4 2 -56z m-517 -101 c27 -43
35 -65 31 -86 -3 -15 2 -45 10 -67 13 -33 21 -40 44 -40 15 0 33 7 40 15 20
24 36 18 106 -35 36 -27 75 -55 87 -61 12 -7 37 -25 54 -40 44 -38 103 -55
132 -39 13 6 24 10 25 8 39 -55 159 -235 178 -268 24 -41 74 -98 110 -126 13
-10 9 -29 -27 -140 -24 -71 -66 -203 -95 -294 -29 -91 -72 -223 -95 -295 -23
-71 -48 -150 -55 -175 -7 -25 -21 -70 -30 -100 -35 -109 -60 -196 -66 -227 -4
-18 -12 -33 -19 -33 -13 0 -17 15 -56 195 -22 100 -22 102 -113 480 -35 149
-79 331 -96 405 -17 74 -36 148 -42 163 -15 39 -61 61 -113 54 l-42 -6 -7 167
c-16 428 -19 602 -8 602 6 0 27 -26 47 -57z m724 8 c28 -15 27 -45 -2 -58 -13
-6 -61 -58 -107 -115 -103 -128 -128 -150 -155 -136 -38 19 -115 73 -115 81 0
11 146 156 191 190 84 64 124 72 188 38z m1410 -37 c56 -32 108 -80 127 -116
19 -37 19 -108 -1 -108 -8 0 -15 8 -15 18 0 26 -37 82 -55 82 -16 0 -44 -50
-65 -117 -9 -30 -19 -43 -32 -43 -10 0 -18 3 -18 8 0 7 -50 35 -81 45 -15 5
-15 10 5 51 11 25 24 45 28 46 4 0 20 -19 35 -42 25 -39 28 -41 31 -20 2 13
-4 41 -12 63 -22 54 -20 159 2 159 3 0 26 -12 51 -26z m-1202 -74 c23 -6 57
-10 76 -10 80 0 93 -7 112 -68 11 -38 31 -70 56 -96 22 -21 39 -43 39 -48 0
-12 -118 -3 -172 13 -55 15 -88 12 -88 -10 0 -11 29 -63 65 -116 36 -53 65
-102 65 -108 0 -16 -81 -94 -139 -136 -43 -30 -45 -31 -70 -15 -65 41 -90 65
-84 80 7 20 56 44 88 44 35 0 29 13 -27 58 -102 80 -234 191 -249 208 -16 18
-14 24 37 108 30 49 58 94 64 101 11 13 160 10 227 -5z m1275 -117 c34 -86 43
-234 14 -232 -9 0 -52 49 -100 114 -6 8 -2 20 12 35 12 13 27 39 33 59 20 61
24 64 41 24z m-144 -130 c74 -42 78 -54 62 -211 -12 -133 -36 -222 -60 -222
-5 0 -10 15 -10 33 -1 74 -45 207 -88 265 -20 28 -22 38 -13 55 9 18 15 53 20
110 1 12 39 -1 89 -30z m-947 -75 c32 -18 59 -36 59 -40 0 -7 -48 -58 -55 -58
-2 0 -10 12 -18 28 -7 15 -24 44 -36 65 -13 20 -20 37 -16 37 3 0 33 -15 66
-32z m-2304 -410 c-45 -45 -44 -44 -161 -413 -13 -44 -39 -120 -57 -170 -103
-293 -214 -635 -240 -735 -65 -256 -73 -475 -23 -586 14 -29 13 -34 -26 -101
-23 -39 -70 -153 -104 -254 -79 -229 -79 -230 -163 -409 -146 -311 -190 -380
-243 -380 -37 0 -38 10 -4 97 77 202 149 408 184 528 17 61 40 135 50 165 41
121 92 294 135 465 26 99 51 194 55 210 5 17 16 57 24 90 9 33 30 105 47 160
62 201 101 331 110 360 5 17 25 77 45 135 20 58 44 133 54 167 10 35 55 172
99 305 44 134 96 295 116 359 20 64 41 121 48 128 9 9 21 2 55 -33 l42 -45
-43 -43z m1237 82 c14 -5 29 -18 35 -28 5 -10 26 -95 45 -188 52 -252 73 -344
100 -446 14 -51 32 -129 41 -173 16 -81 18 -92 54 -245 11 -47 25 -110 32
-140 13 -59 26 -91 43 -102 7 -5 3 -28 -12 -71 -12 -36 -22 -72 -22 -81 0 -24
-29 -19 -35 7 -2 12 -14 69 -26 127 -11 58 -34 155 -51 215 -68 250 -184 741
-213 900 -11 62 -25 105 -45 138 -36 58 -37 75 -7 87 29 12 31 12 61 0z m-384
-55 c36 -9 76 -19 90 -22 14 -3 34 -12 45 -19 26 -19 4 -18 -61 1 -131 39
-361 51 -619 32 -44 -3 -71 -4 -60 -1 11 3 29 9 40 14 35 16 75 18 290 15 152
-3 228 -8 275 -20z m-80 -40 c58 -8 116 -17 130 -21 53 -13 119 -48 122 -63 6
-25 -10 -442 -22 -571 -16 -181 -31 -419 -38 -615 l-7 -180 -95 -5 c-80 -4
-95 -8 -98 -23 -4 -19 4 -23 72 -32 l48 -7 -5 -41 c-7 -49 -46 -89 -104 -108
-64 -19 -229 -22 -318 -6 -175 33 -180 37 -188 113 l-6 52 49 6 c27 4 53 12
57 19 4 7 8 273 8 592 l0 580 50 3 c63 5 268 -8 282 -16 11 -7 0 -1067 -11
-1159 -4 -33 -2 -43 9 -43 7 0 16 8 19 18 16 50 26 266 32 692 7 445 8 470 25
470 36 0 41 -88 30 -575 -7 -313 -7 -411 2 -417 7 -4 33 -8 58 -8 l46 0 8 158
c4 86 11 285 15 442 5 157 10 296 12 309 3 21 -4 26 -47 41 l-50 17 0 69 c0
90 -14 110 -85 126 -62 14 -433 18 -447 5 -4 -5 -8 -42 -8 -82 l0 -73 -50 -5
c-27 -2 -60 -8 -72 -12 -21 -7 -22 -6 -25 142 -4 154 0 176 29 188 74 32 405
44 573 20z m-717 -57 c8 -45 26 -379 31 -570 l4 -158 -38 0 c-55 0 -118 -71
-179 -203 -63 -134 -91 -196 -91 -202 0 -2 -11 -28 -24 -57 -66 -145 -122
-305 -177 -503 -6 -22 -13 -46 -15 -53 -2 -8 -10 -12 -17 -10 -17 6 -21 160
-7 263 21 158 88 414 155 595 41 110 194 569 226 679 37 126 93 251 113 251 8
0 16 -14 19 -32z m1116 -31 c11 -30 27 -87 36 -128 16 -74 77 -353 95 -439 5
-25 43 -180 85 -345 41 -165 78 -326 82 -358 4 -37 15 -72 30 -94 l24 -35 -22
-86 c-12 -48 -26 -96 -32 -106 -9 -18 -10 -18 -20 -1 -23 43 -66 188 -82 280
-19 116 -67 265 -132 418 -39 93 -54 115 -99 156 l-54 47 11 145 c5 79 14 203
19 274 19 277 23 325 31 325 4 0 17 -24 28 -53z m-390 -138 c25 -9 31 -16 31
-41 0 -28 -2 -30 -27 -24 -130 31 -322 41 -390 20 -20 -6 -23 -3 -23 24 0 26
5 31 28 36 46 8 348 -4 381 -15z m1837 -131 c-14 -188 -47 -391 -107 -648 -12
-53 -24 -104 -40 -180 -6 -30 -15 -66 -19 -80 -5 -14 -14 -50 -20 -80 -7 -30
-27 -109 -46 -175 -19 -66 -39 -136 -44 -155 -5 -19 -22 -75 -36 -125 -14 -49
-28 -101 -31 -115 -6 -26 -21 -50 -32 -50 -3 0 -22 15 -42 33 -56 49 -79 67
-85 67 -3 0 -11 6 -19 13 -34 32 -61 51 -99 68 -51 23 -63 24 -69 2 -3 -10 -5
3 -6 28 -1 44 16 109 46 179 43 99 77 170 103 220 15 30 50 96 76 145 25 50
73 151 104 225 69 163 114 263 139 310 43 81 84 156 92 165 4 6 31 58 60 115
50 102 66 130 76 130 3 0 2 -42 -1 -92z m-2292 -223 c-5 -134 6 -604 19 -835
2 -33 0 -35 -28 -34 -16 1 -56 7 -87 13 l-58 12 0 45 0 45 34 -6 c33 -7 74 7
88 28 3 6 4 213 1 460 -5 376 -4 450 8 457 25 16 29 -13 23 -185z m-94 170
c10 -11 11 -48 6 -148 -3 -72 -2 -265 3 -427 4 -162 6 -299 4 -303 -10 -18
-41 27 -47 67 -13 84 -25 800 -14 814 14 16 33 15 48 -3z m665 -421 c-7 -388
-11 -437 -35 -442 -13 -2 -15 53 -12 410 2 227 5 419 8 427 3 11 9 10 25 -5
21 -19 21 -21 14 -390z m-821 -26 c10 -17 17 -97 26 -303 6 -154 13 -287 16
-295 2 -8 20 -25 39 -38 30 -19 35 -28 35 -61 0 -84 45 -137 139 -166 l61 -18
0 -186 c0 -102 -4 -192 -9 -200 -8 -12 -18 -9 -61 17 -28 18 -53 32 -55 32 -2
0 -34 14 -71 31 -63 29 -72 31 -158 27 -117 -6 -233 -45 -335 -111 -42 -28
-91 -56 -110 -64 -31 -13 -36 -13 -47 2 -7 9 -15 39 -19 66 -6 41 -9 48 -21
38 -11 -9 -14 -6 -14 17 0 29 26 81 60 119 9 11 41 94 69 185 72 225 119 352
213 575 99 234 120 275 159 320 36 40 63 45 83 13z m646 -1002 c0 -122 -7
-131 -94 -130 -37 1 -80 7 -96 14 l-30 12 0 104 0 103 98 3 c53 2 103 -1 110
-6 8 -6 12 -38 12 -100z m1187 -8 c-2 -13 -4 -3 -4 22 0 25 2 35 4 23 2 -13 2
-33 0 -45z m-7 -53 c0 -14 6 -25 13 -25 6 0 26 -13 43 -29 17 -16 50 -35 74
-42 26 -8 45 -20 48 -31 5 -22 42 -24 42 -3 0 9 10 19 23 24 13 5 29 16 36 25
22 26 41 19 41 -14 0 -17 -4 -38 -9 -48 -5 -9 -19 -39 -32 -67 -12 -27 -33
-64 -46 -82 -26 -36 -24 -68 9 -115 10 -15 33 -58 50 -95 29 -61 32 -77 30
-152 -3 -91 -5 -102 -81 -321 l-50 -145 -272 -7 c-150 -4 -275 -5 -278 -3 -5
6 57 197 105 321 30 80 40 95 80 123 58 43 159 136 185 172 18 26 19 30 4 53
-23 35 -11 69 51 136 49 52 70 100 44 100 -5 0 -10 5 -10 11 0 7 -29 39 -65
72 -67 61 -71 72 -59 136 8 37 24 41 24 6z m-1433 -407 c-1 -73 -3 -16 -3 127
0 143 2 203 3 133 2 -70 2 -187 0 -260z m158 306 l90 -1 3 -38 c7 -84 -26
-115 -120 -115 -83 0 -98 16 -98 102 0 63 2 69 18 62 9 -5 58 -9 107 -10z m87
-239 c-2 -33 -9 -66 -14 -72 -7 -9 -39 -13 -94 -13 -97 0 -104 6 -104 89 l0
51 73 -6 c48 -4 81 -3 93 4 39 23 49 11 46 -53z m-2 -140 c0 -56 -24 -92 -69
-106 -46 -14 -77 -8 -115 22 -23 18 -27 28 -24 63 l3 41 65 -3 c36 -2 76 1 90
7 43 17 50 13 50 -24z"/>
<path d="M3508 2482 c-89 -48 -158 -97 -158 -113 0 -18 24 -8 74 30 28 21 78
56 111 76 71 45 70 44 64 49 -2 3 -44 -16 -91 -42z"/>
<path d="M5740 8344 c-52 -19 -98 -51 -152 -108 -37 -40 -84 -123 -74 -133 2
-3 32 17 65 44 34 27 99 65 149 87 78 33 97 37 148 33 33 -2 69 -8 82 -12 26
-9 29 6 6 30 -15 15 -15 17 1 29 15 11 15 13 1 25 -25 21 -173 24 -226 5z"/>
<path d="M6425 8315 c-16 -8 -39 -14 -50 -15 -17 0 -20 -7 -20 -45 0 -50 4
-54 30 -25 42 46 225 4 324 -75 45 -36 71 -44 71 -22 0 35 -98 140 -162 173
-54 28 -143 32 -193 9z"/>
<path d="M6428 8070 c-28 -28 -30 -35 -25 -77 6 -52 25 -73 69 -73 40 0 68 35
68 85 0 43 -12 61 -58 84 -20 11 -26 8 -54 -19z"/>
<path d="M5770 8060 c-54 -54 -28 -150 40 -150 53 0 87 70 58 123 -25 49 -65
60 -98 27z"/>
<path d="M6068 7754 c-11 -10 -10 -54 0 -54 5 0 17 -6 27 -14 16 -11 17 -17 7
-29 -17 -20 0 -30 38 -22 31 7 135 93 125 104 -4 3 -30 6 -58 7 -29 1 -70 4
-92 8 -22 5 -43 4 -47 0z"/>
<path d="M6677 7586 c-20 -18 -49 -36 -64 -40 -16 -3 -62 -15 -103 -27 -157
-43 -180 -48 -264 -61 -130 -18 -381 11 -460 54 -13 7 -48 26 -77 42 -30 16
-55 32 -57 37 -8 20 -40 8 -46 -16 -9 -36 -1 -45 40 -45 37 0 40 -7 22 -56 -9
-26 -9 -36 1 -48 20 -24 28 -20 41 19 6 19 15 37 20 40 4 2 25 -4 46 -15 22
-11 55 -22 75 -25 31 -5 37 -10 47 -43 18 -60 79 -105 175 -132 59 -16 192 -8
262 15 64 22 182 102 219 149 40 51 115 101 151 101 28 0 30 2 27 35 -5 51
-14 54 -55 16z m-207 -136 c0 -13 -61 -43 -139 -69 -112 -37 -274 -25 -345 25
-19 13 -12 14 74 8 105 -7 288 9 347 31 46 17 63 18 63 5z m-185 -140 c4 -6
-30 -10 -95 -10 -65 0 -99 4 -95 10 3 6 46 10 95 10 49 0 92 -4 95 -10z"/>
<path d="M6162 7173 c4 -20 91 -50 96 -33 2 6 13 20 25 31 21 19 21 19 -52 19
-63 0 -72 -2 -69 -17z"/>
<path d="M7120 2600 c8 -5 29 -10 46 -10 17 0 46 -10 65 -22 19 -13 61 -36 93
-53 83 -42 161 -122 170 -173 7 -44 0 -95 -17 -129 -8 -18 -7 -29 4 -50 l14
-27 4 40 c3 31 5 35 11 19 6 -14 9 0 10 45 2 52 4 59 10 35 6 -24 8 -18 9 31
1 73 -17 121 -62 167 -41 42 -121 97 -141 97 -8 0 -18 5 -21 10 -3 6 -17 10
-30 10 -13 0 -27 5 -30 10 -3 6 -39 10 -78 10 -50 0 -67 -3 -57 -10z m384
-195 c3 -8 1 -15 -4 -15 -6 0 -10 7 -10 15 0 8 2 15 4 15 2 0 6 -7 10 -15z
m26 -62 c0 -28 -3 -34 -10 -23 -13 20 -13 60 0 60 6 0 10 -17 10 -37z"/>
<path d="M7450 2154 c0 -8 5 -12 10 -9 6 3 10 10 10 16 0 5 -4 9 -10 9 -5 0
-10 -7 -10 -16z"/>
<path d="M2595 2078 c-40 -29 -75 -70 -75 -86 0 -8 14 1 32 18 17 18 49 44 70
57 21 14 38 27 38 29 0 12 -39 0 -65 -18z"/>
<path d="M6982 2084 c10 -10 166 -65 203 -71 17 -3 35 -9 40 -13 6 -3 37 -12
70 -19 33 -7 68 -17 77 -22 10 -5 25 -9 33 -9 8 0 15 -4 15 -8 0 -12 170 -109
305 -174 91 -44 127 -63 181 -93 l49 -28 -34 30 c-35 32 -30 47 11 40 13 -2
17 -2 11 0 -7 3 -13 8 -13 12 0 4 -16 16 -35 27 -19 10 -35 21 -35 24 0 3 -15
11 -32 19 -18 7 -52 22 -75 32 -24 10 -45 19 -48 19 -2 0 -35 14 -72 31 -124
57 -154 69 -179 69 -14 0 -23 4 -20 9 7 11 -22 23 -35 15 -5 -3 -9 -1 -9 4 0
4 -45 19 -100 31 -55 13 -105 30 -111 37 -6 8 -20 14 -31 14 -11 0 -27 4 -36
9 -22 11 -139 25 -130 15z"/>
<path d="M8388 1483 c6 -2 18 -2 25 0 6 3 1 5 -13 5 -14 0 -19 -2 -12 -5z"/>
<path d="M8430 1469 c0 -5 11 -9 24 -9 14 0 28 -4 31 -10 3 -5 16 -10 29 -10
12 0 26 -4 32 -8 5 -5 29 -14 54 -21 25 -8 56 -17 70 -21 14 -5 86 -24 160
-44 236 -62 401 -61 189 0 -63 19 -139 41 -169 50 -30 9 -64 20 -75 24 -11 5
-36 11 -55 14 -67 10 -105 17 -140 26 -53 14 -150 20 -150 9z"/>
<path d="M2123 1345 c-29 -13 -53 -29 -53 -35 0 -15 9 -12 80 25 75 39 53 48
-27 10z"/>
<path d="M8325 1334 c-16 -2 -50 -7 -74 -10 -32 -4 -40 -8 -30 -15 17 -11 456
-11 483 0 19 7 19 8 0 16 -20 9 -328 16 -379 9z"/>
<path d="M2154 1245 c15 -12 49 -13 180 -8 89 3 165 9 171 14 5 5 -72 9 -180
9 -167 -1 -188 -2 -171 -15z"/>
</g>
</svg>
