<?xml version="1.0" standalone="no"?>
<!DOCTYPE svg PUBLIC "-//W3C//DTD SVG 20010904//EN"
 "http://www.w3.org/TR/2001/REC-SVG-20010904/DTD/svg10.dtd">
<svg version="1.0" xmlns="http://www.w3.org/2000/svg"
 width="1080.000000pt" height="1080.000000pt" viewBox="0 0 1080.000000 1080.000000"
 preserveAspectRatio="xMidYMid meet">

<g transform="translate(0.000000,1080.000000) scale(0.100000,-0.100000)"
fill="#000000" stroke="none">
<path d="M5798 10060 c-82 -61 -89 -86 -24 -77 24 4 84 0 133 -8 48 -7 131
-19 183 -25 186 -22 701 -119 790 -150 14 -4 63 -18 110 -30 135 -35 258 -99
317 -163 50 -55 86 -115 77 -129 -3 -4 -24 -8 -47 -8 -23 -1 -53 -7 -67 -15
-24 -14 -21 -14 40 -15 36 0 94 -5 130 -10 36 -6 89 -13 118 -17 29 -3 55 -9
57 -14 8 -12 -13 -59 -40 -91 -14 -16 -23 -34 -19 -39 10 -17 40 -9 62 16 26
29 60 32 129 10 98 -32 170 -75 234 -140 34 -35 66 -62 70 -59 7 4 -28 112
-51 154 -7 13 -30 42 -51 65 -30 33 -36 45 -27 53 14 10 150 75 181 86 10 3
17 12 15 19 -6 17 -152 22 -203 6 -22 -7 -55 -21 -72 -31 -39 -21 -42 -10 -8
30 57 68 73 164 33 202 -28 26 -31 26 -83 -10 -24 -16 -46 -30 -50 -30 -4 0
-25 -13 -49 -29 l-42 -29 -18 70 c-19 74 -54 120 -112 147 -16 7 -37 17 -46
22 -23 11 -24 -12 -4 -44 16 -25 46 -137 46 -173 0 -13 -4 -24 -10 -24 -5 0
-10 7 -10 15 0 34 -59 142 -93 172 -108 95 -241 151 -497 211 -197 46 -551
102 -644 102 -23 0 -67 4 -97 9 -30 5 -108 12 -174 16 l-120 6 -67 -51z"/>
<path d="M5445 9954 c-11 -2 -78 -16 -150 -30 -199 -39 -270 -59 -273 -75 -3
-18 53 -40 218 -84 69 -18 170 -49 225 -68 55 -19 120 -40 145 -47 269 -76
405 -147 528 -278 77 -82 74 -81 107 -27 9 15 12 14 33 -5 31 -29 28 -36 -15
-44 -21 -3 -52 -9 -70 -12 -29 -6 -37 0 -106 69 -42 42 -102 93 -134 115 -56
38 -220 110 -312 138 -68 20 -177 29 -186 15 -7 -13 59 -78 171 -168 105 -84
264 -225 264 -234 0 -4 -17 -11 -37 -14 -21 -3 -57 -12 -80 -19 -23 -8 -44
-12 -46 -9 -3 2 -3 20 0 39 18 108 -169 282 -337 314 -30 6 -98 15 -150 20
-73 7 -109 16 -155 38 -164 81 -245 81 -448 0 -102 -40 -179 -98 -261 -194
-67 -78 -74 -108 -20 -79 35 18 91 19 202 3 85 -11 102 -23 55 -34 -16 -4 -46
-19 -68 -34 -65 -45 -190 -181 -219 -239 -30 -59 -43 -147 -26 -171 9 -13 15
-9 38 20 15 19 46 55 70 80 43 44 44 45 37 15 -4 -16 -10 -96 -12 -176 -4
-133 -3 -150 17 -191 27 -59 59 -87 102 -95 38 -6 35 -8 107 71 18 20 36 35
39 32 3 -3 0 -11 -6 -18 -16 -21 -52 -88 -52 -98 0 -19 15 -9 44 30 45 60 55
58 39 -8 -16 -70 -52 -286 -48 -290 2 -2 29 1 61 7 108 20 243 14 330 -15 44
-14 83 -30 89 -35 5 -5 17 -9 27 -9 10 0 18 -4 18 -10 0 -16 -19 -12 -120 21
-75 24 -119 32 -208 36 -78 4 -117 2 -125 -6 -6 -6 -21 -11 -33 -11 -32 0 -54
-10 -54 -25 0 -8 13 -38 29 -67 46 -83 89 -201 106 -286 14 -72 21 -109 45
-249 8 -49 34 -176 57 -286 5 -27 4 -28 -23 -20 -16 4 -54 8 -85 7 -122 -1
-223 -92 -268 -242 -19 -62 -17 -61 -102 -46 -49 8 -86 -13 -140 -78 -24 -29
-64 -75 -89 -101 -25 -26 -61 -76 -81 -110 -19 -34 -51 -82 -70 -107 -53 -69
-89 -162 -115 -291 -25 -124 -41 -319 -31 -361 7 -26 63 -71 170 -134 56 -33
78 -53 116 -109 48 -72 68 -84 63 -37 -7 64 -7 67 7 64 8 -2 52 -6 97 -9 116
-8 139 3 160 75 l16 55 14 -31 c7 -18 21 -35 30 -39 20 -7 35 11 104 128 76
130 127 166 58 41 -92 -165 -155 -237 -219 -247 -61 -9 -79 -15 -79 -25 0 -9
66 -26 87 -22 21 4 25 -19 6 -40 -24 -28 -124 -75 -190 -89 l-53 -12 -71 49
c-39 27 -108 74 -152 104 -92 63 -115 90 -131 155 -7 25 -16 45 -22 43 -11 -4
-5 -109 8 -125 5 -7 8 -20 6 -29 -2 -11 -17 13 -37 57 -19 41 -36 68 -39 60
-5 -14 12 -79 31 -118 6 -13 8 -25 5 -28 -13 -14 -69 113 -88 197 -7 36 -6 54
5 81 8 20 19 38 25 42 5 3 10 11 10 16 0 5 -16 -5 -35 -23 -63 -56 -76 -155
-36 -261 17 -45 81 -140 116 -173 l33 -30 -65 -100 c-36 -54 -86 -143 -112
-197 l-46 -98 -85 6 c-47 3 -112 10 -145 15 -231 34 -780 40 -809 10 -15 -16
-72 -152 -100 -238 -23 -74 -23 -157 0 -183 23 -26 39 -34 123 -66 63 -25 77
-26 295 -29 126 -2 230 -5 232 -7 2 -2 8 -27 14 -57 6 -29 17 -67 25 -83 8
-17 15 -33 15 -37 0 -4 -179 -10 -397 -13 -392 -5 -438 -9 -636 -47 -212 -41
-388 -146 -444 -265 -45 -97 -23 -261 55 -409 60 -114 174 -224 249 -240 42
-10 51 -24 20 -31 -67 -17 -230 60 -331 154 -71 67 -95 111 -103 183 l-6 62
-15 -50 c-66 -227 308 -470 616 -400 68 15 184 55 224 77 10 5 22 9 28 9 5 0
33 11 62 24 85 39 386 156 468 182 66 21 93 32 161 65 25 12 29 2 29 -68 0
-68 -8 -77 -34 -38 -16 24 -46 35 -46 17 0 -13 31 -46 62 -66 l27 -18 -5 -266
c-9 -456 -13 -596 -19 -637 -6 -37 -1 -48 65 -150 97 -148 131 -188 179 -210
50 -22 62 -14 33 23 -12 15 -38 61 -59 102 -20 41 -45 87 -56 102 l-18 28 27
0 c17 0 39 -11 56 -27 27 -26 29 -26 41 -8 10 12 16 14 21 7 4 -7 18 -12 30
-12 22 0 24 -5 30 -82 16 -198 23 -477 16 -653 -3 -104 -7 -179 -8 -165 -4 52
-72 141 -72 93 0 -28 66 -282 90 -345 12 -32 19 -62 15 -68 -3 -5 -22 -17 -41
-26 -19 -9 -57 -36 -83 -60 -46 -41 -53 -44 -105 -44 -64 0 -122 -24 -173 -73
-47 -44 -62 -101 -94 -343 l-12 -91 -271 -6 c-170 -3 -310 -11 -376 -21 -58
-8 -120 -17 -139 -18 -19 -2 -36 -9 -39 -15 -3 -10 20 -13 92 -13 57 0 111 -6
133 -14 21 -8 87 -19 148 -26 234 -25 434 -29 885 -18 252 5 691 7 985 4 292
-4 1027 -5 1635 -4 1981 5 1975 5 2064 -15 81 -18 181 -23 172 -9 -3 5 -31 14
-63 21 -32 7 -68 17 -81 22 -13 5 -34 9 -47 9 -13 0 -27 5 -31 12 -8 13 153 8
616 -17 298 -16 578 -20 566 -8 -8 8 -97 16 -301 28 -60 3 -126 8 -145 11 -30
5 -32 7 -15 16 25 15 204 25 650 37 565 16 579 17 599 28 15 8 5 11 -50 17
-272 25 -2469 56 -2661 38 -191 -19 -240 -22 -246 -16 -7 7 89 183 116 212 17
19 31 22 89 22 76 0 84 15 14 25 -67 10 -71 16 -41 61 14 21 27 40 29 41 1 2
41 -35 88 -81 l86 -84 -108 -4 c-104 -4 -148 -17 -134 -39 3 -5 69 -9 147 -9
109 0 160 -5 217 -20 79 -21 180 -27 180 -11 0 5 -15 20 -32 33 -83 58 -338
306 -338 327 0 15 93 179 189 335 24 38 51 83 61 100 17 29 127 219 248 426
31 52 106 194 167 315 l112 220 106 2 c110 1 178 17 247 56 19 11 71 38 114
59 77 38 83 39 226 47 113 7 155 13 178 26 30 18 30 19 37 132 7 105 1 254
-11 296 -10 32 -150 87 -223 87 -45 0 -50 14 -40 125 9 108 21 289 44 712 8
149 17 277 20 285 3 7 18 19 33 26 15 7 39 29 54 49 16 20 54 63 85 97 l58 61
123 6 c71 3 128 11 134 17 9 9 8 21 -5 47 -25 53 -21 80 21 143 117 174 217
362 208 394 -11 45 -95 174 -155 240 -34 37 -106 104 -159 150 -135 115 -126
106 -114 131 6 12 18 74 26 137 21 151 36 230 46 230 12 0 20 -27 20 -68 0
-76 17 -68 46 24 l29 89 11 -50 11 -50 17 60 c9 33 21 71 25 85 4 14 24 34 44
45 30 18 33 22 20 31 -15 9 -15 36 0 325 30 567 39 773 35 859 -3 80 -4 84
-28 91 -24 7 -24 7 -2 8 14 1 22 7 22 19 0 25 -118 84 -181 90 -45 4 -135 -4
-319 -28 -90 -12 -360 -43 -560 -65 -80 -8 -185 -20 -235 -25 -49 -6 -130 -15
-180 -21 -49 -5 -108 -12 -130 -15 l-39 -5 24 26 c13 14 52 47 86 73 110 83
129 142 128 402 0 142 -4 199 -17 245 -40 142 -101 221 -183 236 -27 5 -53 14
-58 19 -6 6 -10 97 -11 234 0 123 -3 222 -6 220 -9 -5 -19 22 -19 50 0 46 -32
129 -63 162 -21 23 -52 42 -91 55 -68 22 -90 14 -66 -24 52 -82 83 -161 98
-247 35 -193 36 -204 13 -273 -12 -36 -29 -71 -37 -77 -17 -15 -19 -61 -2 -78
9 -9 9 -12 0 -12 -7 0 -23 -9 -35 -20 -24 -23 -34 -12 -18 19 15 27 14 424 0
493 -25 115 -87 178 -133 133 -18 -19 -46 -20 -46 -2 0 31 -143 203 -160 192
-4 -3 -4 -22 1 -42 5 -21 8 -69 7 -108 l-1 -70 -11 55 c-6 30 -19 71 -29 91
-32 64 -230 226 -352 287 -119 60 -136 66 -395 137 -74 21 -145 42 -157 48
-27 12 -20 27 13 27 14 0 24 6 24 14 0 14 -42 26 -92 26 -16 0 -94 16 -172 35
-268 66 -400 87 -556 91 -80 1 -154 1 -165 -2z m156 -94 c174 -17 263 -32 469
-81 150 -36 229 -57 252 -70 10 -5 25 -9 35 -9 9 0 30 -4 47 -10 99 -31 156
-49 196 -60 125 -35 233 -89 311 -159 26 -22 49 -49 52 -60 5 -19 -28 -81 -44
-81 -4 0 -17 20 -28 45 -40 91 -155 174 -326 236 -33 12 -72 24 -88 26 -15 3
-30 9 -33 14 -3 5 -15 9 -28 9 -12 0 -27 5 -33 11 -6 6 -23 9 -39 7 l-29 -3
35 -16 c19 -9 51 -23 70 -32 188 -81 259 -127 355 -228 82 -88 95 -116 71
-151 -20 -28 -20 -51 -1 -89 18 -34 35 -30 35 10 0 17 15 45 43 78 23 27 57
71 74 96 36 52 54 57 111 30 l35 -17 -37 -10 c-44 -13 -136 -99 -162 -154 -21
-42 -24 -132 -7 -202 64 -261 130 -494 163 -575 42 -105 73 -193 90 -260 12
-44 32 -123 46 -175 14 -52 30 -113 36 -135 18 -68 21 -72 28 -35 7 35 7 35
17 10 l11 -25 5 25 c3 14 10 122 16 240 8 180 14 231 36 315 32 118 60 205 86
259 11 22 19 45 19 50 0 6 9 22 20 36 15 20 20 21 20 8 0 -15 -5 -32 -31 -93
-31 -75 -99 -300 -104 -347 -4 -31 -1 -114 6 -185 l12 -128 19 65 c10 36 18
80 18 98 0 20 4 31 10 27 6 -3 10 -27 10 -51 0 -52 20 -57 31 -8 4 16 13 53
19 82 16 71 42 122 82 161 38 37 149 103 203 121 47 15 141 8 162 -12 32 -33
62 -429 46 -613 l-8 -90 -75 -44 c-41 -24 -103 -62 -137 -83 -82 -53 -235
-118 -275 -118 -18 0 -41 9 -54 21 -25 24 -44 18 -44 -13 0 -11 -13 -71 -29
-132 -17 -62 -33 -135 -37 -163 -8 -63 -27 -93 -84 -135 -43 -31 -171 -111
-236 -148 -17 -10 -64 -38 -105 -63 -118 -71 -274 -145 -399 -188 -116 -40
-230 -83 -262 -100 -10 -5 -22 -9 -28 -9 -5 0 -38 -13 -72 -29 -151 -68 -184
-76 -318 -75 -124 0 -186 11 -272 47 -59 25 -97 53 -238 177 -14 12 -47 33
-75 47 -70 36 -85 51 -85 90 0 36 11 40 50 20 285 -149 374 -186 540 -223 174
-39 378 11 895 217 11 4 27 10 35 13 34 13 -123 -7 -230 -30 -112 -23 -247
-64 -395 -118 -127 -47 -168 -51 -291 -26 -146 29 -363 102 -521 177 -33 15
-53 54 -53 105 0 51 -53 150 -105 196 -26 23 -51 42 -55 42 -10 0 -26 45 -38
105 -39 197 -52 274 -52 312 0 29 3 33 25 33 14 0 25 -4 25 -8 0 -9 134 -32
182 -32 15 0 29 -4 33 -9 8 -15 -54 -41 -97 -41 -21 0 -38 -5 -38 -11 0 -6 22
-9 58 -8 57 3 57 3 60 -27 4 -38 96 -123 186 -172 88 -48 119 -74 155 -130 49
-77 97 -89 212 -51 143 47 238 119 289 220 27 53 25 70 -13 107 -38 37 -57 32
-27 -6 11 -13 20 -33 20 -44 0 -25 -70 -128 -110 -161 -31 -26 -149 -69 -225
-82 -22 -4 -48 -9 -57 -12 -12 -3 -40 18 -88 68 -63 66 -80 99 -44 85 23 -9
133 15 156 34 22 17 19 18 -97 16 -114 -1 -123 0 -170 27 -57 31 -115 82 -115
100 0 7 7 22 15 34 26 37 76 142 91 192 8 25 17 89 20 142 6 91 5 99 -17 135
-13 22 -33 59 -45 84 -49 104 -168 175 -350 210 -51 10 -73 9 -130 -3 -37 -9
-71 -14 -74 -12 -7 5 -3 34 24 180 9 50 25 145 36 213 11 67 24 131 30 141 12
23 81 41 157 41 53 0 165 19 308 51 45 11 203 69 280 104 17 8 62 24 100 36
39 12 97 30 130 40 61 20 348 92 433 109 26 5 78 16 116 25 38 8 137 18 220
21 159 7 199 15 190 36 -6 14 -120 114 -197 172 -95 72 -218 123 -522 214
-122 37 -170 47 -305 67 -118 17 -170 26 -315 54 -55 11 -118 22 -140 26 -59
9 -76 15 -70 26 8 12 207 12 336 -1z m289 -174 c224 -37 329 -82 413 -178 129
-147 147 -169 147 -173 0 -3 -14 -5 -31 -5 -26 0 -46 14 -113 81 -139 139
-237 195 -421 239 -27 6 -66 18 -85 25 -19 8 -44 16 -55 18 -52 11 70 5 145
-7z m-805 -147 c39 -12 86 -23 105 -25 214 -24 320 -75 397 -191 72 -107 80
-152 37 -202 -14 -17 -30 -31 -36 -31 -5 0 -29 -13 -52 -30 -43 -29 -59 -31
-49 -4 3 8 -2 25 -11 39 -9 13 -16 31 -16 39 0 56 -116 182 -210 227 -112 54
-131 44 -60 -30 22 -22 40 -43 40 -46 0 -3 -24 11 -54 31 -62 41 -125 54 -144
31 -11 -12 0 -26 64 -83 71 -65 145 -154 127 -154 -5 0 -38 29 -74 64 -47 45
-82 69 -123 85 -63 23 -130 28 -124 9 5 -13 10 -17 100 -58 61 -29 122 -70
103 -70 -5 0 -58 9 -118 21 -89 17 -117 19 -147 10 -74 -22 -164 -115 -212
-220 -34 -74 -48 -146 -55 -282 -6 -127 -13 -153 -36 -130 -20 20 20 338 54
436 37 104 107 241 148 286 37 42 39 43 58 27 26 -24 33 -23 33 6 0 15 7 26
20 29 35 9 25 51 -22 91 -23 20 -49 36 -57 37 -9 0 -34 9 -56 19 l-40 19 39 0
c52 1 120 -33 153 -76 14 -18 38 -40 52 -48 23 -12 30 -11 61 8 39 24 92 69
87 73 -2 2 -30 -9 -62 -25 l-59 -29 -59 56 c-32 32 -70 61 -85 66 -52 17 -44
31 21 37 131 12 191 9 262 -12z m643 2 c9 -5 39 -19 66 -32 88 -42 275 -236
245 -254 -12 -8 -8 -11 -51 42 -57 72 -193 188 -260 221 -42 21 -56 32 -40 32
12 0 30 -4 40 -9z m-990 -152 c49 -17 49 -38 -1 -28 -23 4 -56 5 -74 2 -38 -6
-90 5 -77 17 21 20 106 25 152 9z m2466 -223 l31 -38 -3 -176 c-1 -98 4 -271
13 -386 8 -115 15 -245 15 -290 0 -92 15 -236 31 -313 7 -28 8 -60 4 -70 -7
-14 -10 -10 -15 22 -4 22 -26 110 -48 195 -60 235 -88 413 -143 897 -14 121
-1 151 33 78 19 -41 23 -70 26 -165 1 -63 5 -125 8 -138 4 -20 6 -21 19 -8 12
12 15 47 15 170 0 132 -3 164 -20 208 -11 29 -20 55 -20 56 0 12 29 -10 54
-42z m565 15 c46 -49 67 -147 53 -251 l-8 -65 -8 75 c-13 126 -32 192 -72 248
-24 33 2 28 35 -7z m-2650 -121 c18 -5 90 -14 160 -20 165 -14 178 -17 160
-34 -34 -32 -75 -35 -185 -15 -121 21 -331 26 -385 8 -19 -7 -49 -23 -66 -36
-37 -27 -41 -24 -17 12 46 71 224 117 333 85z m-221 -127 c-10 -2 -28 -2 -40
0 -13 2 -5 4 17 4 22 1 32 -1 23 -4z m85 0 c-7 -2 -19 -2 -25 0 -7 3 -2 5 12
5 14 0 19 -2 13 -5z m2615 -521 c-13 -9 -25 -18 -28 -21 -12 -14 -40 -33 -40
-27 0 14 71 77 81 71 6 -5 2 -13 -13 -23z m-2683 -262 c78 -20 115 -33 115
-42 0 -4 -6 -8 -12 -8 -31 0 -108 -94 -108 -132 0 -9 -6 -18 -12 -21 -17 -5
-94 194 -80 207 8 9 53 7 97 -4z m123 -191 c-15 -43 -3 -150 21 -196 11 -21
31 -50 45 -65 14 -15 26 -30 26 -33 0 -7 -76 -6 -123 1 -46 8 -54 21 -72 125
l-14 81 29 43 c33 48 78 87 91 80 4 -3 3 -19 -3 -36z m102 -84 c0 -7 -6 -18
-14 -24 -19 -16 -30 2 -22 35 6 21 9 24 21 14 8 -7 15 -18 15 -25z m4261 -426
c-5 -35 -13 -206 -16 -379 -4 -173 -12 -409 -18 -525 l-12 -210 -38 -3 c-38
-3 -38 -3 -32 30 3 18 10 188 16 378 5 190 12 413 15 495 7 180 -13 178 -45
-5 -22 -124 -51 -587 -51 -806 0 -55 -3 -103 -6 -107 -3 -3 -14 -1 -24 5 -14
9 -22 9 -33 0 -7 -6 -83 -18 -168 -27 -220 -21 -321 -33 -348 -41 -12 -4 -26
-3 -30 2 -13 20 -159 133 -226 176 -105 69 -250 128 -310 128 -30 0 -131 -28
-240 -66 -61 -22 -248 -115 -370 -184 -53 -30 -228 -151 -237 -165 -5 -7 -8
-7 -8 1 0 15 38 49 170 153 112 89 240 164 330 194 46 15 119 42 155 57 82 33
163 49 256 50 116 0 158 -14 268 -87 35 -24 67 -43 72 -43 18 0 8 23 -18 44
-157 126 -228 156 -366 156 -51 0 -113 -7 -139 -14 -47 -15 -58 -13 -58 11 0
21 -40 103 -80 163 -21 30 -56 92 -79 138 -47 94 -99 150 -171 184 -56 25 -64
41 -64 123 l-1 50 50 8 c28 4 95 16 150 27 125 23 159 27 430 45 121 8 324 26
450 39 127 14 289 29 360 35 161 14 332 31 405 40 30 4 59 4 63 1 4 -4 4 -36
-2 -71z m-4463 -301 c69 -24 142 -90 142 -128 0 -20 -3 -19 -45 10 -55 38
-123 60 -190 60 -27 1 -72 5 -100 9 -27 5 -55 6 -62 4 -7 -3 -26 -27 -44 -54
-33 -52 -53 -59 -29 -11 25 48 62 93 94 113 45 27 152 26 234 -3z m2650 -162
c45 -49 98 -129 124 -186 9 -19 27 -60 41 -91 43 -96 44 -96 -53 -145 -110
-57 -142 -59 -80 -7 58 48 25 85 -41 46 -41 -25 -44 -12 -9 43 23 36 30 56 26
77 -5 26 -79 146 -153 251 -49 69 -55 84 -43 106 10 19 12 19 78 -14 39 -19
86 -54 110 -80z m-2641 20 c27 -15 71 -44 98 -64 43 -33 50 -43 53 -77 l3 -40
-53 56 c-76 80 -171 138 -248 153 -14 3 3 3 37 1 43 -2 76 -11 110 -29z m-119
-38 c112 -53 220 -178 238 -273 10 -54 -10 -42 -44 28 -37 73 -140 185 -197
212 -22 10 -62 24 -89 30 -64 14 -73 35 -16 35 26 0 66 -12 108 -32z m-241 0
c-3 -8 -6 -5 -6 6 -1 11 2 17 5 13 3 -3 4 -12 1 -19z m2804 -66 c53 -83 61
-100 49 -107 -5 -3 -10 0 -10 9 0 8 -4 16 -9 18 -12 4 -84 138 -74 138 4 0 24
-26 44 -58z m-2816 -32 c192 -16 212 -22 290 -85 52 -42 115 -161 122 -232 5
-45 3 -53 -11 -53 -9 0 -16 7 -16 15 0 20 -66 93 -99 109 -14 7 -97 30 -184
51 -120 29 -160 36 -169 27 -9 -9 -7 -12 10 -12 12 0 30 -4 40 -9 9 -5 62 -26
117 -46 55 -21 101 -39 103 -41 2 -1 -6 -23 -18 -49 -21 -46 -22 -47 -37 -26
-20 29 -81 56 -178 80 -86 21 -253 32 -256 17 0 -5 17 -20 39 -32 39 -22 72
-30 226 -54 84 -13 117 -35 145 -95 26 -56 26 -65 0 -65 -37 0 -14 -29 35 -44
17 -6 18 -7 0 -34 -31 -49 -79 -102 -91 -102 -6 0 -15 14 -18 32 -10 43 -90
120 -140 135 -95 28 -288 42 -300 23 -3 -5 -18 -10 -32 -10 -21 0 -23 -2 -13
-15 18 -22 73 -35 195 -46 160 -14 214 -45 230 -132 5 -25 1 -48 -15 -83 -21
-48 -22 -48 -32 -24 -19 47 -25 54 -59 74 -29 17 -52 20 -166 20 -134 0 -183
-11 -183 -40 0 -22 18 -26 149 -34 128 -8 172 -20 201 -55 12 -15 11 -23 -8
-58 -12 -23 -22 -48 -22 -54 0 -18 -14 -16 -56 9 -45 26 -101 27 -201 3 -53
-13 -70 -21 -66 -31 7 -18 28 -22 133 -27 70 -3 94 -8 137 -31 56 -31 65 -42
56 -75 -6 -25 -41 -28 -105 -7 -24 7 -68 21 -100 30 -71 22 -138 64 -172 108
-31 41 -34 96 -11 203 8 39 19 111 25 161 5 50 12 97 15 105 3 8 23 21 44 30
44 19 51 34 76 171 9 52 21 85 36 100 12 13 51 67 86 122 63 96 66 98 96 92
17 -4 85 -11 152 -16z m2505 -128 c-10 -98 -1 -85 -198 -277 -157 -152 -248
-252 -239 -262 9 -9 103 74 267 234 80 78 146 140 148 138 19 -18 -380 -419
-479 -482 -69 -43 -118 -57 -155 -42 -33 12 -44 26 -44 56 0 30 156 346 183
371 12 11 59 39 104 62 74 39 164 102 269 187 112 93 139 112 145 105 4 -4 3
-44 -1 -90z m262 46 c20 -29 59 -79 87 -111 28 -32 51 -62 51 -67 0 -5 -21 0
-47 11 -67 29 -87 21 -38 -16 83 -61 83 -57 3 -111 -39 -26 -80 -60 -91 -76
-14 -19 -24 -25 -32 -18 -16 13 -25 2 -25 -32 0 -33 -45 -94 -192 -260 -54
-61 -98 -113 -98 -117 0 -5 -29 -41 -65 -82 -61 -69 -120 -169 -127 -214 -2
-16 -18 -24 -68 -37 -98 -25 -94 -27 -86 45 9 79 32 168 57 221 23 50 103 151
215 272 159 173 215 249 294 397 41 77 53 111 58 159 l5 61 18 -34 c10 -19 18
-55 19 -81 0 -51 12 -61 31 -27 11 21 8 87 -6 142 -4 15 -5 27 -3 27 3 0 21
-24 40 -52z m-2117 -83 c35 -18 93 -62 141 -107 45 -43 86 -78 92 -78 6 0 31
-12 54 -27 l43 -28 -2 -140 c-3 -158 -7 -185 -28 -185 -18 0 -19 -12 -4 -27 7
-7 2 -12 -17 -17 -32 -8 -571 -407 -751 -556 -7 -6 -13 -20 -13 -30 0 -25
-161 -190 -209 -214 -25 -13 -36 -15 -45 -6 -8 8 -7 14 7 21 32 18 72 57 65
64 -3 3 -15 1 -27 -6 -38 -24 -35 1 5 33 116 98 194 183 194 215 0 24 -14 14
-101 -71 -88 -85 -199 -152 -237 -143 -15 3 -15 5 3 11 11 4 28 12 37 17 10 5
25 9 33 9 8 0 15 5 15 10 0 6 6 10 13 10 18 0 118 108 167 181 24 35 57 78 75
94 47 44 89 102 125 174 42 82 52 178 25 246 l-17 46 76 89 c112 132 170 240
195 367 9 44 18 80 21 79 3 -1 32 -15 65 -31z m-365 -159 c60 -57 83 -89 74
-102 -5 -6 -26 -34 -47 -62 -22 -29 -42 -52 -46 -52 -13 0 -71 140 -71 170 0
43 17 80 37 80 10 0 34 -15 53 -34z m3306 -95 c78 -36 286 -183 378 -269 23
-21 113 -96 200 -167 88 -72 191 -157 230 -190 39 -34 116 -95 171 -137 110
-84 270 -229 286 -260 8 -15 5 -28 -14 -61 -115 -202 -137 -240 -137 -244 0
-2 -11 -16 -24 -30 -27 -29 -20 -29 -142 8 -17 5 -36 9 -43 9 -7 0 -30 14 -51
30 -52 41 -141 80 -285 125 -66 20 -158 50 -206 66 -140 48 -517 107 -612 95
-110 -13 -439 -23 -479 -15 -27 7 -45 6 -53 -1 -9 -8 -14 -6 -19 6 -16 41 -4
105 39 210 24 60 45 115 45 123 0 18 76 9 97 -12 12 -12 12 -19 0 -53 -20 -52
-40 -180 -32 -194 13 -21 26 5 41 81 20 99 43 158 67 170 34 19 42 -4 18 -55
-11 -25 -21 -63 -20 -83 l0 -38 20 55 c42 117 57 132 150 146 l44 6 -61 -63
c-63 -66 -117 -150 -112 -176 2 -7 23 16 47 52 24 35 75 94 112 130 75 73 69
71 214 55 280 -31 400 -95 537 -282 53 -72 75 -86 63 -40 -21 88 -166 255
-265 305 -30 15 -61 27 -67 27 -7 0 -13 5 -13 10 0 44 232 -54 418 -178 61
-40 86 -52 91 -43 11 17 66 2 143 -38 32 -17 60 -27 62 -22 6 9 -154 168 -202
200 -66 46 -207 110 -321 147 -199 64 -201 66 -91 60 170 -9 379 -66 496 -137
135 -80 329 -256 389 -351 32 -51 45 -59 45 -30 0 52 -142 213 -315 357 -33
28 -62 53 -65 56 -50 56 -295 149 -445 168 -139 19 -151 22 -132 33 38 21 12
65 -50 86 -41 13 -66 7 -128 -34 -27 -18 -50 -32 -52 -31 -1 1 7 34 17 72 31
112 27 126 -37 163 -13 6 -33 12 -45 12 -18 0 -14 -5 19 -22 23 -12 44 -27 47
-33 2 -7 -10 -41 -28 -76 -55 -108 -50 -104 -124 -106 -90 -3 -193 -22 -214
-40 -11 -10 -18 -11 -23 -4 -3 6 -15 11 -26 11 -17 0 -19 -8 -19 -85 0 -83 -9
-104 -29 -67 -14 26 -35 166 -28 185 3 8 40 39 81 67 42 28 76 55 76 60 0 14
-121 -52 -155 -86 -33 -32 -48 -75 -60 -180 l-7 -51 -44 1 c-48 1 -52 8 -35
62 16 50 21 94 11 94 -5 0 -24 -28 -41 -62 -17 -35 -37 -66 -43 -70 -6 -4 -47
-8 -91 -8 -79 0 -79 0 -50 16 38 19 77 50 157 120 35 30 127 98 206 152 79 53
138 98 132 100 -31 11 -300 -151 -426 -255 -52 -43 -122 -94 -161 -117 -30
-17 -9 14 43 64 30 30 82 90 115 132 62 81 88 102 234 189 86 52 118 68 245
127 158 72 259 88 336 53z m-2398 -57 c23 -4 42 -9 42 -13 -1 -13 -149 -165
-155 -159 -4 3 -3 48 1 98 l7 92 31 -6 c17 -3 50 -9 74 -12z m567 -113 c3 -6
-4 -15 -15 -21 -39 -21 -107 -128 -211 -335 -317 -631 -381 -747 -442 -803
-85 -79 -182 -180 -225 -235 -43 -55 -61 -66 -107 -65 -11 0 -54 -5 -95 -12
-113 -17 -244 -25 -237 -13 4 6 23 13 44 16 172 27 244 36 283 37 41 0 47 4
69 38 23 34 91 153 171 297 62 110 160 314 198 411 11 27 33 78 50 114 16 36
51 115 77 175 64 150 73 168 127 267 26 48 48 95 48 106 0 10 2 21 5 23 9 10
254 9 260 0z m-25 -166 c0 -57 3 -69 28 -96 26 -29 32 -31 95 -31 36 0 82 6
101 13 20 7 38 10 42 6 4 -3 -2 -26 -13 -49 -33 -69 -56 -177 -59 -266 -2 -77
-4 -86 -31 -114 -24 -25 -28 -38 -29 -86 0 -31 -7 -70 -14 -87 -7 -16 -15 -73
-17 -125 -10 -206 56 -275 381 -404 55 -22 80 -37 82 -50 4 -25 47 -106 56
-106 5 0 8 -7 8 -16 0 -11 -11 -5 -37 20 -21 20 -39 32 -41 27 -3 -9 86 -149
112 -177 32 -35 64 -79 205 -289 84 -126 189 -275 231 -330 77 -99 150 -222
150 -252 0 -13 -3 -13 -15 -3 -8 7 -15 17 -15 22 0 13 -93 148 -126 183 -42
45 -104 89 -104 75 0 -6 9 -25 20 -40 33 -46 106 -200 128 -270 32 -100 41
-193 43 -460 l2 -245 -149 -3 c-82 -2 -261 4 -398 14 -198 13 -314 15 -565 10
-305 -7 -393 -10 -846 -35 -481 -27 -544 -31 -630 -45 -49 -8 -91 -13 -93 -12
-8 8 -10 186 -2 216 5 19 20 76 33 125 l23 90 50 13 c34 10 176 16 474 22 234
5 439 12 455 15 97 16 386 45 545 54 233 13 771 24 803 16 22 -6 25 -15 45
-143 12 -75 23 -150 25 -167 2 -18 6 -2 11 40 10 76 -3 160 -31 220 -24 50
-14 64 44 58 79 -9 80 -11 75 -100 -4 -73 11 -213 25 -236 14 -23 25 47 30
193 l6 155 -33 35 c-34 36 -53 74 -43 84 4 3 17 6 30 6 18 0 23 4 19 18 -2 9
-7 33 -11 52 -10 53 -44 148 -78 215 -69 139 -211 368 -262 425 -13 14 -50 66
-84 117 -119 181 -228 304 -351 397 -84 62 -132 86 -263 130 -95 32 -119 36
-210 36 -105 0 -292 -29 -356 -56 -19 -8 -36 -12 -39 -10 -2 3 48 110 112 239
64 129 116 237 116 241 0 3 9 25 19 49 11 23 49 123 86 222 37 99 73 194 80
210 8 17 19 43 25 59 8 22 13 26 24 17 7 -6 16 -24 19 -39 6 -28 97 -186 122
-211 28 -28 26 -3 -6 65 -25 56 -34 95 -47 204 -15 130 -12 210 8 210 6 0 10
-29 10 -65z m2911 -51 c-5 -38 -17 -106 -25 -150 -8 -45 -12 -91 -9 -102 5
-21 -15 -41 -26 -26 -3 5 -22 21 -41 36 -19 15 -48 39 -65 53 -16 15 -42 34
-57 43 -34 20 -36 32 -4 32 18 0 26 7 31 27 9 37 25 12 25 -41 0 -61 24 -30
60 80 18 52 36 92 41 88 5 -3 9 -47 10 -97 l0 -92 15 50 c9 28 19 68 23 90 20
104 37 110 22 9z m-3330 44 c-6 -17 -28 -30 -85 -49 -143 -49 -158 -69 -50
-69 35 0 64 -4 64 -9 0 -5 -33 -37 -72 -72 -40 -35 -89 -81 -108 -102 -19 -21
-56 -62 -81 -90 -26 -29 -58 -76 -73 -105 -29 -58 -35 -58 -88 -8 -45 43 -55
30 -32 -41 2 -7 -2 -13 -9 -13 -7 0 -18 -13 -25 -30 -15 -34 -65 -67 -113 -76
-19 -4 -40 -13 -46 -22 -11 -14 -16 -12 -38 14 l-25 29 0 -30 c0 -32 50 -148
69 -159 6 -4 9 -12 6 -17 -10 -16 -103 81 -127 132 -13 27 -26 49 -30 49 -22
0 10 -170 43 -232 5 -10 9 -27 9 -37 0 -11 4 -22 9 -25 5 -3 11 -20 14 -38 5
-31 12 -61 35 -149 l9 -36 -58 -15 c-33 -9 -59 -15 -59 -13 0 1 11 33 25 69
28 76 31 119 11 167 -23 55 -48 71 -113 74 -80 3 -134 24 -131 50 5 35 -17 22
-107 -63 -48 -46 -90 -81 -93 -78 -3 3 15 32 39 63 60 77 130 191 121 197 -4
2 -43 -29 -87 -70 -44 -41 -88 -79 -98 -85 -35 -20 -6 44 48 106 29 33 64 84
79 113 14 28 28 52 30 52 6 0 72 -106 105 -170 39 -74 60 -102 72 -94 12 7 11
51 -1 59 -5 3 -10 17 -10 30 0 13 -20 58 -45 99 -25 42 -45 81 -45 86 0 5 19
19 43 31 79 41 347 231 417 297 35 32 248 175 290 194 96 44 171 73 230 89 88
23 91 23 81 -3z m1299 -106 c-105 -93 -185 -176 -221 -228 -31 -45 -49 -56
-49 -28 0 47 141 203 255 282 91 62 99 49 15 -26z m-2586 -9 c-9 -36 -34 -96
-38 -92 -2 2 -6 18 -9 36 -5 23 -1 38 14 57 27 34 41 33 33 -1z m-119 -65 c-4
-29 -11 -57 -16 -63 -14 -15 -30 15 -24 44 6 24 34 71 42 71 3 0 2 -24 -2 -52z
m2830 -197 c3 -5 1 -12 -4 -15 -5 -3 -18 -41 -29 -83 -41 -165 -52 -256 -32
-293 8 -15 2 -23 -38 -47 -73 -43 -99 -53 -171 -59 -74 -7 -129 10 -271 81
-173 86 -246 139 -250 180 -5 46 0 55 28 55 29 0 66 9 257 60 66 18 151 39
190 47 38 8 78 19 89 25 16 9 18 8 12 -8 -4 -11 -17 -55 -28 -99 -32 -123 -11
-280 39 -299 23 -9 28 1 15 29 -19 41 -14 172 8 254 23 82 63 166 82 174 23 9
97 7 103 -2z m-3375 -67 c0 -8 -5 -12 -10 -9 -6 4 -8 11 -5 16 9 14 15 11 15
-7z m10 -96 c0 -4 -4 -9 -9 -12 -10 -7 -35 27 -46 64 -7 22 -4 21 24 -10 17
-19 31 -38 31 -42z m157 -52 l48 -44 -61 5 c-54 5 -64 3 -83 -16 -38 -38 -1
-70 139 -118 76 -26 60 -28 -94 -13 -54 5 -103 7 -108 4 -13 -8 11 -34 31 -34
9 0 32 -8 50 -18 l34 -18 1 -102 1 -101 -25 24 c-14 13 -36 46 -50 72 -13 26
-33 59 -43 73 l-20 25 8 -40 c11 -65 61 -200 100 -273 42 -78 84 -124 134
-149 28 -13 32 -18 18 -21 -24 -5 -73 15 -114 45 -74 54 -253 296 -253 341 0
9 10 33 22 52 12 19 46 85 76 145 50 102 117 205 133 205 4 0 29 -20 56 -44z
m2481 -169 c48 -32 205 -108 267 -128 22 -7 44 -17 50 -21 13 -12 -66 -10
-125 3 -35 7 -55 8 -62 1 -14 -14 30 -41 111 -69 l66 -22 -50 0 c-67 0 -241
42 -273 66 -34 25 -50 74 -51 151 -1 70 -5 68 67 19z m912 -89 c47 -6 91 -17
99 -24 12 -11 0 -12 -75 -8 -86 5 -201 21 -217 31 -4 2 -5 9 -1 14 6 11 25 9
194 -13z m1958 -85 c-18 -37 -44 -88 -58 -113 -14 -24 -35 -67 -47 -95 -19
-42 -22 -46 -23 -23 0 39 -16 43 -36 8 -21 -35 -23 -36 -66 -12 -18 10 -46 22
-63 26 -16 4 -48 11 -70 16 -22 6 -62 14 -90 19 -202 39 -274 51 -297 51 -16
0 -28 5 -28 10 0 6 -28 10 -62 11 l-63 1 82 15 c75 14 152 11 126 -5 -6 -4 10
-7 35 -8 26 0 79 -6 117 -12 224 -40 337 -50 371 -32 13 8 63 66 111 129 95
126 118 131 61 14z m-2937 -24 c42 -54 199 -109 311 -109 51 0 89 -13 76 -25
-3 -3 -37 -9 -75 -12 -77 -6 -160 14 -259 63 -54 26 -95 81 -93 125 0 16 3 19
6 9 3 -8 18 -31 34 -51z m632 -52 c10 -69 43 -162 58 -162 17 0 15 42 -7 138
-9 37 -14 70 -11 73 2 3 33 0 68 -5 35 -6 106 -13 157 -17 79 -6 92 -9 92 -25
0 -10 -4 -21 -10 -24 -5 -3 -10 -21 -9 -38 0 -29 2 -28 20 21 12 29 26 51 32
49 13 -4 11 -56 -4 -94 -4 -12 -6 -30 -3 -38 4 -11 12 -4 25 22 10 21 19 44
19 52 0 9 3 11 9 6 5 -6 11 -41 13 -80 l3 -70 45 -11 c42 -10 36 -11 -85 -17
-71 -3 -155 -11 -185 -17 -222 -45 -212 -45 -222 5 -5 22 -18 76 -28 120 -32
130 -39 174 -26 178 20 8 43 -23 49 -66z m1437 11 c-25 -5 -74 -11 -110 -13
-60 -4 -61 -3 -21 5 24 5 46 12 49 15 3 3 33 4 66 4 l61 -2 -45 -9z m-970 -12
c0 -11 -19 -15 -25 -6 -3 5 1 10 9 10 9 0 16 -2 16 -4z m-4664 -140 c8 -123 9
-124 23 -16 16 120 14 115 55 118 l38 3 -7 -120 c-8 -122 1 -156 23 -88 l10
32 1 -37 c1 -35 3 -38 31 -38 17 0 30 -5 30 -11 0 -7 -21 -10 -57 -8 -32 2
-64 0 -71 -4 -7 -5 -76 -6 -155 -2 -93 4 -165 2 -210 -6 -37 -7 -70 -9 -74 -6
-6 7 22 158 37 192 5 11 11 27 14 35 3 8 2 -27 -1 -79 -5 -78 -4 -93 8 -89 8
2 18 22 22 44 10 46 36 139 48 172 8 22 13 23 118 21 l109 -1 8 -112z m3304
-100 c157 -34 269 -88 345 -166 l38 -39 -44 -53 c-93 -113 -164 -188 -205
-217 -23 -17 -86 -69 -139 -116 -132 -115 -143 -112 -30 9 64 68 233 311 224
321 -3 2 -62 -53 -132 -122 -96 -93 -131 -123 -140 -114 -18 18 -119 12 -229
-14 -145 -35 -281 -52 -525 -66 -152 -9 -213 -16 -213 -25 0 -18 -73 -24 -83
-7 -12 19 -27 6 -27 -23 0 -13 -4 -24 -10 -24 -5 0 -10 4 -10 9 0 10 -42 27
-87 35 -35 6 -63 -12 -64 -42 0 -12 -3 -11 -9 5 -11 28 -22 30 -208 43 -178
12 -342 13 -537 3 -115 -5 -141 -9 -156 -24 -18 -18 -19 -18 -25 9 -12 56 -16
58 -34 17 -10 -22 -19 -56 -20 -75 -3 -54 -14 -85 -33 -88 -17 -4 -18 4 -21
170 -1 48 -16 50 -39 7 -15 -28 -17 -49 -13 -116 3 -46 1 -83 -3 -83 -13 0
-28 22 -34 50 -3 14 -17 58 -31 98 -35 101 -34 134 9 193 19 27 35 51 35 54 0
11 -127 4 -138 -7 -22 -22 -13 -25 40 -17 29 5 54 7 56 4 2 -2 -10 -19 -27
-37 -28 -30 -31 -39 -31 -100 0 -66 3 -78 42 -166 30 -69 28 -86 -9 -90 -36
-4 -130 37 -157 67 -10 11 -24 37 -31 58 -16 46 -41 51 -39 8 2 -33 81 -205
95 -205 18 0 9 -29 -11 -35 -16 -5 -18 -10 -10 -25 18 -34 12 -41 -24 -26 -32
13 -112 17 -335 17 -29 -1 -83 -8 -119 -17 l-66 -17 -29 34 c-16 19 -45 66
-64 104 -34 70 -34 71 -28 169 3 55 11 108 17 119 7 15 7 18 -3 15 -38 -13
-84 -168 -77 -256 6 -66 24 -105 69 -157 31 -35 32 -59 1 -48 -41 16 -95 103
-118 193 -11 45 -15 92 -12 157 2 51 1 93 -2 93 -15 0 -54 -99 -58 -148 -3
-33 -9 -51 -16 -49 -18 6 -45 89 -45 143 -1 63 -11 74 -28 33 -37 -88 -3 -216
96 -363 28 -41 51 -80 51 -86 0 -27 -159 174 -217 274 -8 12 -13 57 -13 108 0
80 -9 113 -25 88 -3 -6 -10 -47 -14 -93 -5 -55 -10 -75 -15 -62 -29 74 -52 88
-43 26 9 -69 98 -229 194 -348 22 -28 30 -44 22 -49 -7 -4 -20 4 -31 17 -51
64 -169 252 -199 317 -19 39 -38 70 -44 68 -29 -10 25 -209 93 -340 57 -111
57 -110 3 -139 -25 -14 -83 -38 -129 -53 -45 -15 -104 -42 -130 -60 -44 -32
-45 -34 -20 -34 66 0 326 80 548 170 58 23 146 52 195 65 50 13 111 30 138 38
28 9 49 11 53 6 12 -20 -5 -37 -43 -43 -56 -11 -417 -123 -468 -146 -11 -5
-54 -20 -95 -34 -163 -54 -287 -98 -337 -122 -67 -30 -97 -32 -88 -5 4 14 -4
31 -28 58 -75 85 -131 179 -161 273 -25 81 -46 197 -46 261 0 51 3 60 33 89
17 17 49 40 69 51 107 55 345 108 498 111 36 1 70 5 75 9 12 9 188 18 480 25
121 3 249 9 285 14 35 5 66 7 68 5 3 -3 -7 -32 -23 -66 -30 -68 -36 -146 -16
-216 15 -56 99 -167 129 -171 29 -4 28 7 -9 86 -44 93 -47 148 -14 247 37 111
106 252 148 300 l35 40 38 -19 c72 -36 300 -34 544 4 74 11 216 27 535 60 90
9 180 20 330 40 44 6 143 17 220 25 77 8 205 31 285 50 173 43 370 91 425 104
60 14 152 13 225 -3z m1545 -102 c105 -8 199 -19 210 -24 11 -5 31 -11 45 -14
14 -3 -15 -3 -65 0 -49 3 -180 10 -290 15 -263 11 -356 20 -330 30 34 13 230
10 430 -7z m-3317 -88 c15 -16 -24 -21 -182 -24 -145 -4 -178 -2 -204 12 -18
9 -32 18 -32 19 0 5 413 -2 418 -7z m3417 -3 c-18 -44 -27 -85 -42 -178 -12
-82 -15 -191 -14 -599 1 -275 4 -502 6 -505 17 -16 21 60 26 482 3 269 11 498
17 532 6 33 16 101 23 150 13 98 22 125 44 125 17 0 18 -18 5 -77 -31 -133
-41 -272 -52 -731 -9 -412 -9 -485 3 -497 8 -8 57 -18 124 -25 61 -6 130 -15
155 -20 25 -5 83 -14 130 -21 148 -20 269 -46 625 -132 l130 -32 3 -133 3
-133 -128 6 c-70 2 -252 10 -403 15 -151 6 -291 13 -310 16 -19 2 -69 7 -110
10 -41 2 -112 9 -158 15 -45 5 -87 7 -92 4 -5 -3 -57 -1 -115 6 l-105 12 6 71
c3 39 10 112 15 161 6 54 9 359 8 758 l-3 668 47 24 c25 14 49 25 52 25 3 0 6
-19 6 -42 1 -24 4 -56 8 -73 6 -24 9 -15 15 45 8 80 15 90 60 90 23 0 27 -3
21 -17z m800 -3 c45 -5 17 -8 -110 -8 -98 -1 -210 5 -265 13 -95 14 -94 14
110 9 113 -4 232 -10 265 -14z m183 -7 c-21 -2 -55 -2 -75 0 -21 2 -4 4 37 4
41 0 58 -2 38 -4z m-5391 -34 c-4 -15 -2 -17 13 -9 11 6 22 15 25 20 7 12 85
14 85 3 0 -5 -26 -26 -57 -48 -32 -22 -70 -52 -86 -67 -34 -33 -37 -34 -37 -8
0 24 -4 25 -30 3 -11 -10 -24 -16 -28 -14 -12 7 -81 125 -76 132 2 3 47 6 100
6 88 0 95 -1 91 -18z m3203 -43 c0 -26 -64 -149 -110 -211 -59 -79 -159 -163
-270 -228 -25 -15 -58 -38 -74 -53 -26 -23 -27 -27 -14 -41 13 -12 22 -13 59
-2 52 15 68 24 180 106 100 73 145 132 214 281 26 56 51 102 54 102 10 0 41
-56 41 -73 0 -9 -24 -59 -52 -112 -71 -131 -190 -259 -280 -301 -70 -32 -49
-31 -413 -18 -168 6 -199 3 -445 -32 -63 -10 -140 -19 -170 -22 -64 -5 -330
17 -345 29 -6 4 -38 9 -70 11 -33 2 64 3 215 3 165 0 313 5 370 13 144 19 320
32 477 34 l143 3 11 27 c6 15 8 32 4 37 -10 17 75 111 266 298 46 44 102 110
124 146 l40 65 23 -21 c12 -11 22 -30 22 -41z m1880 -107 c-6 -52 -14 -123
-20 -159 -5 -36 -14 -112 -19 -170 -5 -58 -17 -159 -25 -225 -17 -137 -38
-498 -30 -519 9 -22 -8 -26 -94 -19 l-81 6 26 49 c32 60 87 327 133 643 20
136 70 391 93 472 18 68 27 27 17 -78z m-118 26 c-11 -39 -25 -95 -32 -125
-31 -135 -88 -321 -130 -425 -13 -33 -27 -77 -42 -128 -12 -45 -17 -51 -66
-73 -29 -13 -58 -24 -65 -23 -7 0 -6 3 3 6 21 8 90 79 90 92 0 7 -13 6 -36 -4
-20 -8 -62 -15 -93 -14 l-56 0 61 18 c33 9 71 24 83 33 23 16 61 66 61 79 0 4
-48 5 -107 3 l-108 -4 94 20 c88 19 141 46 141 72 0 4 -24 8 -52 9 -80 1 -108
17 -32 18 43 1 68 6 83 19 29 23 17 35 -59 60 -58 20 -60 21 -22 17 23 -3 60
-8 81 -11 34 -5 40 -3 46 17 6 18 1 29 -25 52 -36 32 -35 43 4 26 14 -7 28
-10 31 -7 3 3 14 40 26 84 11 43 32 106 45 139 14 33 30 74 35 92 9 30 35 47
51 33 5 -3 0 -37 -10 -75z m314 -247 c-26 -391 -35 -518 -45 -608 -5 -47 -15
-136 -22 -197 -7 -68 -16 -113 -23 -113 -6 0 -50 7 -97 16 l-86 17 12 26 c7
14 15 76 18 136 4 61 15 169 26 240 11 72 29 204 41 295 22 175 33 244 49 325
33 164 41 180 41 79 0 -66 -9 -149 -44 -414 -22 -159 -30 -339 -18 -370 10
-25 10 -24 15 10 3 19 11 76 17 125 7 50 18 128 26 175 9 47 24 136 34 198 11
62 22 116 25 121 3 5 7 49 10 97 3 49 11 100 18 113 l12 25 3 -26 c2 -15 -4
-136 -12 -270z m-461 175 c-8 -68 -22 -92 -17 -30 4 54 11 87 18 87 4 0 3 -26
-1 -57z m-1474 -42 c16 -28 16 -29 -56 -137 -45 -69 -98 -134 -144 -176 -114
-105 -192 -141 -333 -153 l-73 -6 103 36 c209 71 335 186 428 391 18 41 39 74
46 74 7 0 20 -13 29 -29z m71 -158 c11 -27 40 -89 64 -140 32 -67 44 -104 44
-137 0 -45 -15 -62 -26 -31 -4 10 -20 15 -44 15 -29 0 -39 -4 -43 -20 -3 -11
-11 -20 -17 -20 -8 0 -10 9 -6 24 7 28 -13 48 -66 67 -21 7 -38 17 -38 21 0
17 -20 6 -106 -58 -94 -70 -162 -109 -172 -100 -6 7 -9 5 48 43 104 70 189
164 295 326 21 31 40 57 42 57 2 0 13 -21 25 -47z m1135 -39 c-3 -3 -12 -4
-19 -1 -8 3 -5 6 6 6 11 1 17 -2 13 -5z m76 -21 c-7 -2 -21 -2 -30 0 -10 3 -4
5 12 5 17 0 24 -2 18 -5z m-3686 -170 c80 -17 81 -17 66 -39 -9 -14 -10 -24
-4 -28 6 -4 20 -21 32 -38 l22 -31 -26 5 c-27 5 -37 -5 -17 -17 6 -3 10 -15
10 -25 0 -12 22 -34 60 -60 57 -39 140 -133 140 -159 0 -7 -15 2 -32 19 -47
45 -130 100 -228 152 -98 52 -143 67 -134 43 4 -8 10 -15 16 -15 17 0 152 -92
218 -149 87 -75 85 -73 99 -98 10 -19 9 -22 -4 -17 -9 4 -17 -1 -21 -12 -3
-11 -10 -27 -15 -37 -7 -14 -6 -25 6 -43 23 -35 6 -30 -85 26 -97 60 -125 65
-86 18 54 -68 94 -135 121 -203 l27 -69 8 -501 c7 -475 16 -605 40 -605 13 0
30 113 30 199 0 47 4 91 8 98 5 8 49 13 137 14 l130 2 33 -64 c18 -35 49 -93
69 -129 41 -73 129 -235 193 -355 24 -44 53 -96 65 -115 12 -19 46 -80 75
-135 30 -55 83 -149 118 -210 36 -60 74 -126 85 -145 10 -19 49 -84 85 -145
36 -60 76 -130 90 -155 14 -25 51 -91 84 -148 32 -57 58 -107 58 -111 0 -4
-172 -11 -382 -15 -211 -3 -459 -10 -553 -16 -228 -12 -1036 -13 -1055 0 -11
7 -6 10 20 10 19 0 152 5 295 11 143 6 276 9 295 7 19 -1 97 -3 173 -2 162 1
181 9 153 63 -9 17 -34 43 -55 57 -39 26 -39 26 -35 82 3 31 9 84 14 117 11
69 9 79 -75 325 -55 162 -100 268 -120 282 -6 5 -6 8 1 8 20 0 71 -66 104
-134 30 -64 58 -89 47 -43 -3 12 -11 51 -17 87 -27 157 -53 269 -75 320 -60
135 -73 233 -86 644 -16 525 -25 725 -32 733 -18 17 -27 -24 -38 -172 -7 -103
-9 -282 -6 -500 6 -336 6 -341 37 -475 39 -166 37 -154 26 -159 -6 -2 -31 32
-57 75 l-47 78 -7 169 -8 169 -26 -5 c-199 -35 -292 -53 -370 -72 -98 -24
-111 -24 -111 1 0 21 30 30 181 54 195 31 319 60 319 77 0 7 -3 13 -7 14 -85
7 -275 -9 -353 -30 -45 -13 -101 -27 -120 -32 -11 -3 -15 5 -15 36 0 37 2 40
25 37 39 -4 156 17 248 45 64 19 82 29 80 42 -5 25 -114 19 -241 -14 -59 -15
-110 -26 -112 -23 -8 7 -26 220 -21 234 2 6 25 15 50 18 53 8 244 69 296 94
l35 17 -42 3 c-69 5 -272 -56 -315 -94 -20 -19 -26 -10 -34 59 l-7 55 44 12
c120 33 287 101 294 118 4 11 -4 12 -37 7 -88 -14 -224 -55 -271 -81 -32 -18
-33 -17 -41 71 -4 33 -9 74 -12 91 l-6 31 84 28 c45 15 88 31 93 35 14 9 114
47 150 56 l30 7 -40 7 c-66 12 -202 -13 -278 -51 -43 -23 -53 -20 -60 18 -3
16 -12 55 -21 88 -22 88 -21 108 11 123 15 6 31 12 36 12 5 0 20 9 34 20 l26
20 -25 0 c-14 0 -45 -6 -71 -14 -52 -15 -67 -8 -67 33 0 38 -11 72 -21 65 -12
-7 -12 -147 0 -159 5 -6 17 -53 26 -105 8 -52 24 -138 35 -190 11 -52 25 -120
31 -150 6 -30 14 -73 19 -95 13 -61 29 -198 36 -310 3 -55 9 -136 12 -180 2
-44 6 -96 7 -115 1 -19 6 -48 10 -64 4 -16 3 -126 -4 -244 -8 -142 -9 -218 -3
-224 7 -7 80 -6 215 2 185 10 327 7 312 -8 -3 -3 -97 -11 -209 -18 -183 -12
-323 -30 -367 -48 -14 -6 -15 12 -12 161 3 156 2 165 -11 123 -24 -79 -48
-183 -56 -243 -9 -66 -7 -62 -38 -71 -29 -9 -37 12 -23 56 6 18 20 107 32 198
18 134 22 215 22 425 0 250 -6 354 -38 625 -18 151 -27 209 -55 365 -18 98
-21 141 -16 237 4 64 10 129 15 145 5 15 16 53 25 83 9 31 25 70 36 88 16 26
26 32 55 32 20 0 68 6 108 14 40 8 106 20 147 26 41 7 82 13 90 15 32 8 219
-6 297 -22z m1030 -139 c26 -15 73 -45 103 -67 81 -60 232 -197 217 -197 -7 0
-22 8 -33 18 -29 27 -242 184 -301 223 -80 52 -70 69 14 23z m-2086 -177 c0
-76 16 -70 19 8 l2 40 9 -40 c24 -118 31 -220 25 -380 -15 -394 -17 -570 -6
-555 5 8 10 40 11 70 0 30 4 63 8 73 6 17 8 17 20 3 20 -24 31 -19 31 12 0 15
4 33 8 40 8 13 32 -142 32 -207 0 -30 -1 -31 -49 -31 -28 0 -53 4 -56 10 -4 6
-12 6 -24 -2 -11 -7 -35 -8 -65 -4 -45 7 -47 9 -42 34 11 53 26 373 33 694 6
313 7 327 25 317 15 -8 18 -22 19 -82z m1992 69 c128 -48 289 -145 377 -226
35 -33 41 -43 30 -51 -42 -26 -58 -18 -332 166 -8 6 -52 38 -97 73 -91 68 -86
79 22 38z m-1895 -474 c-3 -180 -8 -275 -16 -292 -11 -21 -12 -12 -7 54 3 43
5 183 5 310 1 168 3 226 11 213 7 -13 10 -108 7 -285z m4717 196 c20 -20 -14
-28 -116 -28 -88 0 -109 3 -109 14 0 9 13 17 33 19 47 7 184 3 192 -5z m-3390
-205 c-3 -16 -13 -35 -21 -43 -12 -12 -14 -11 -14 8 0 25 20 62 33 62 5 0 6
-12 2 -27z m3326 -450 c-16 -32 -70 -141 -120 -243 -90 -184 -127 -255 -200
-380 -21 -36 -49 -85 -63 -110 -14 -25 -34 -61 -45 -80 -11 -19 -40 -69 -63
-110 -24 -41 -62 -108 -86 -147 -24 -40 -44 -75 -44 -78 0 -9 -191 -328 -288
-480 -115 -181 -161 -255 -194 -315 -69 -122 -80 -139 -91 -148 -7 -5 -83 -12
-169 -15 -87 -3 -175 -11 -198 -18 -22 -7 -43 -10 -46 -7 -3 4 10 26 28 50 18
24 82 120 142 213 162 252 212 330 331 525 32 52 79 129 105 170 152 242 228
367 325 535 59 102 78 135 135 240 18 33 45 78 60 100 52 78 128 221 145 273
17 52 32 63 64 43 15 -10 11 -28 -24 -106 -53 -118 -65 -148 -64 -164 0 -13 2
-13 6 -1 3 8 13 22 22 31 9 10 43 69 76 133 52 100 63 115 88 119 25 3 28 1
24 -17 -22 -97 -159 -393 -260 -561 -29 -49 -80 -135 -113 -190 -32 -54 -71
-120 -87 -145 -15 -25 -30 -52 -34 -60 -4 -8 -36 -60 -71 -115 -36 -55 -114
-183 -175 -285 -60 -102 -138 -232 -172 -290 -130 -220 -175 -306 -175 -339 1
-25 1 -25 19 9 17 35 37 67 166 275 112 180 196 318 217 355 11 19 29 47 39
62 11 14 19 29 19 33 0 3 17 32 38 63 53 77 220 361 315 532 17 30 42 73 57
95 14 22 53 87 85 145 32 58 66 116 76 130 28 42 105 201 123 257 19 57 35 72
79 73 l28 0 -30 -57z m-1745 14 c0 -1 13 -33 28 -70 15 -38 46 -103 70 -145
24 -43 60 -108 81 -147 92 -168 305 -469 305 -430 0 11 -71 131 -121 205 -144
215 -312 560 -286 587 15 14 47 -36 128 -197 146 -291 265 -480 429 -684 30
-37 59 -74 64 -80 5 -7 -12 -45 -46 -101 -30 -50 -57 -98 -61 -107 -10 -28
-23 -21 -50 25 -13 23 -72 119 -132 212 -59 94 -121 193 -138 220 -17 28 -59
97 -95 154 -110 177 -232 400 -232 424 0 5 18 -10 40 -34 32 -36 39 -40 40
-23 0 11 -4 24 -8 30 -5 5 -19 36 -32 69 -13 33 -27 64 -32 70 -19 21 -9 37
19 30 16 -4 28 -7 29 -8z m894 -9 c0 -13 -7 -48 -15 -78 -18 -66 -17 -60 -5
-60 6 0 13 8 17 18 4 9 19 36 35 59 15 23 28 46 28 52 0 6 5 11 10 11 14 0 13
-11 -10 -58 -21 -43 -27 -92 -11 -92 5 0 26 29 47 65 21 35 40 63 42 60 2 -2
-2 -26 -8 -53 -13 -47 -9 -82 7 -82 9 0 33 47 33 64 0 6 9 22 20 36 l20 25 0
-30 c0 -19 7 -35 20 -43 27 -17 26 -61 -3 -114 -25 -44 -89 -165 -150 -278
-19 -36 -51 -94 -71 -130 -20 -36 -46 -84 -58 -107 -12 -24 -27 -43 -32 -43
-12 0 -70 76 -163 211 -31 46 -85 120 -119 164 -62 82 -116 171 -129 215 -7
21 -6 22 6 10 8 -8 23 -31 33 -52 45 -85 34 -80 217 -82 160 -1 165 0 222 27
31 15 57 31 57 36 0 11 -51 21 -106 21 -23 0 -45 4 -48 9 -3 5 4 31 16 57 16
36 22 68 22 117 l0 67 38 0 c33 0 38 -3 38 -22z m-2270 -88 c0 -8 -7 -2 -15
14 -19 36 -19 45 0 20 8 -10 14 -26 15 -34z m840 -110 c15 0 40 43 40 69 0 13
3 22 6 18 4 -3 6 -24 6 -47 -1 -41 14 -54 24 -22 11 33 27 62 36 62 4 0 8 -18
8 -41 0 -31 6 -47 29 -69 35 -36 31 -37 -89 -42 -83 -3 -85 -2 -84 20 0 12 2
55 4 95 l4 72 3 -57 c2 -32 8 -58 13 -58z m-302 -5 c37 -71 52 -111 47 -125
-5 -16 -2 -20 14 -20 14 0 21 -6 21 -18 0 -27 8 -31 38 -21 31 10 411 39 513
39 63 0 69 -2 88 -28 18 -26 88 -145 143 -242 74 -131 365 -599 432 -693 5 -8
-27 -73 -90 -182 -54 -94 -119 -210 -146 -259 -26 -49 -53 -93 -60 -98 -12 -8
-115 -5 -122 3 -1 2 -36 67 -76 144 -40 77 -90 169 -112 204 -21 34 -38 64
-38 66 0 2 -23 41 -52 87 -28 46 -109 178 -178 293 -178 293 -196 323 -295
475 -49 74 -105 164 -125 200 -20 36 -54 94 -75 130 -69 119 -75 131 -75 140
0 6 21 10 48 10 l47 0 53 -105z m-484 40 c20 -30 43 -63 50 -73 8 -9 36 -44
63 -77 52 -63 117 -158 200 -290 27 -44 87 -137 131 -207 45 -70 82 -130 82
-132 0 -3 25 -45 56 -93 31 -48 71 -110 89 -138 17 -27 56 -88 87 -135 31 -47
95 -146 143 -220 87 -134 145 -210 145 -190 0 27 -74 149 -252 417 -174 263
-232 353 -278 432 -36 63 -138 225 -205 326 -77 116 -175 274 -175 281 0 2 9
-1 21 -8 17 -11 22 -10 30 5 6 9 16 17 24 17 7 0 15 6 18 13 9 28 91 -82 213
-287 32 -55 70 -118 84 -141 93 -155 170 -285 188 -315 10 -19 43 -75 72 -125
29 -49 67 -118 86 -151 19 -34 52 -90 74 -125 55 -89 151 -253 190 -324 66
-120 79 -144 104 -184 l26 -41 -132 -1 c-139 0 -205 -11 -138 -22 55 -9 166
-19 284 -26 102 -6 110 -8 128 -32 20 -26 20 -26 -4 -72 -28 -56 -45 -66 -54
-30 l-7 26 -121 -8 c-67 -4 -141 -8 -165 -9 l-43 -1 -22 60 c-12 33 -29 74
-38 90 -9 17 -24 45 -32 64 -9 18 -49 93 -90 165 -40 72 -96 175 -124 228 -29
53 -77 138 -107 189 -30 50 -55 93 -55 95 0 3 -20 37 -44 77 -79 132 -151 255
-258 442 -41 72 -90 157 -110 190 -115 198 -188 333 -187 345 0 11 2 11 6 3 7
-18 23 -16 23 2 0 8 -4 15 -10 15 -5 0 -10 7 -10 15 0 23 4 19 44 -40z m1709
-245 c7 -9 37 -51 66 -95 30 -44 74 -107 99 -140 25 -33 72 -94 103 -136 32
-42 65 -79 73 -82 13 -5 13 -12 5 -37 -6 -17 -15 -30 -20 -28 -20 7 -270 382
-329 493 -23 44 -35 71 -26 60 9 -11 22 -27 29 -35z m-2793 -139 c-16 -32 -30
-34 -30 -7 0 19 5 26 20 26 17 0 19 -3 10 -19z m559 -437 c40 -63 71 -117 69
-119 -2 -3 -29 19 -60 48 -41 38 -61 67 -77 110 -42 115 -24 104 68 -39z m-98
-299 c16 -103 23 -134 47 -212 9 -26 6 -37 -14 -67 -14 -20 -31 -36 -39 -36
-23 0 -100 37 -202 96 -196 115 -208 119 -305 118 l-88 -1 0 103 0 103 58 4
c31 2 163 3 292 3 l235 -1 16 -110z m-844 28 c-3 -10 -5 -4 -5 12 0 17 2 24 5
18 2 -7 2 -21 0 -30z m26 -48 c4 -8 2 -17 -3 -20 -6 -4 -10 3 -10 14 0 25 6
27 13 6z m1052 -277 l38 -117 -13 -98 c-14 -111 -23 -140 -35 -102 -9 27 -52
93 -84 126 -12 12 -21 25 -21 27 0 3 18 29 40 58 36 47 51 88 34 88 -4 0 -30
-20 -58 -43 -66 -56 -95 -72 -108 -59 -7 7 -1 23 19 49 16 21 45 66 63 101 18
34 37 62 41 62 12 0 11 107 -1 115 -5 3 -10 23 -9 43 0 40 7 22 94 -250z
m-1031 217 c3 -8 1 -15 -4 -15 -6 0 -10 7 -10 15 0 8 2 15 4 15 2 0 6 -7 10
-15z m26 -71 c0 -8 -4 -12 -10 -9 -5 3 -10 13 -10 21 0 8 5 12 10 9 6 -3 10
-13 10 -21z m20 -57 c0 -18 -2 -19 -10 -7 -13 20 -13 43 0 35 6 -3 10 -16 10
-28z m331 7 c15 -7 49 -32 77 -56 49 -42 84 -62 222 -126 36 -17 81 -45 100
-64 19 -18 60 -53 90 -78 56 -45 70 -61 103 -112 19 -28 19 -28 -5 -37 -58
-22 -63 -21 -78 3 -29 48 -213 237 -222 228 -11 -11 12 -65 57 -131 20 -29 35
-55 32 -57 -2 -3 -29 15 -58 39 -87 71 -237 166 -281 177 -85 23 -78 8 65
-131 75 -74 137 -138 137 -142 0 -5 -13 -6 -30 -2 -16 4 -39 4 -50 0 -17 -5
-19 -10 -9 -21 19 -23 -6 -17 -38 9 -15 13 -82 65 -148 116 -66 50 -139 107
-162 126 -46 37 -181 85 -237 85 -63 0 -56 31 16 76 20 13 48 26 62 30 14 3
26 12 26 20 0 19 6 18 31 -7 11 -11 27 -18 36 -15 8 3 48 6 89 6 57 0 74 3 74
14 0 16 -21 26 -56 26 -30 0 -94 26 -94 38 0 13 221 1 251 -14z m-491 -269
c221 -28 247 -34 304 -71 37 -24 169 -154 163 -160 -2 -2 -77 2 -167 8 -200
12 -522 6 -528 -10 -2 -6 -4 -13 -5 -16 -1 -2 160 -6 358 -9 351 -4 361 -5
398 -27 20 -12 37 -26 37 -31 0 -5 -130 -9 -302 -9 -317 0 -518 -12 -562 -31
-14 -7 -29 -10 -32 -7 -4 5 15 84 75 303 17 61 31 85 48 85 10 0 106 -11 213
-25z m1221 -278 c19 -7 46 -20 60 -30 l24 -18 -35 6 c-19 3 -72 8 -117 11 -46
4 -83 9 -83 12 0 3 8 11 18 18 22 17 86 17 133 1z"/>
<path d="M5036 8832 c-3 -5 -24 -18 -48 -31 -94 -48 -98 -58 -98 -216 0 -118
1 -127 23 -149 15 -15 41 -25 75 -30 28 -3 84 -18 124 -32 114 -39 117 -39 81
-7 -34 31 -129 67 -201 78 -55 9 -62 26 -62 156 0 101 7 129 41 161 27 26 87
58 109 58 11 0 20 5 20 10 0 12 -57 14 -64 2z"/>
<path d="M6135 8746 c-234 -43 -356 -98 -434 -196 -85 -108 -113 -228 -73
-310 17 -33 20 -35 62 -32 41 3 136 24 175 38 30 12 14 -11 -17 -25 -48 -22
-118 -65 -118 -73 0 -19 155 4 176 25 4 4 14 7 22 7 9 0 3 -10 -15 -27 -30
-29 -78 -121 -69 -131 3 -2 12 1 21 8 28 23 17 -9 -25 -71 -45 -66 -43 -75 7
-27 22 21 33 27 33 17 0 -9 -11 -26 -25 -39 -14 -13 -25 -27 -25 -32 0 -24 35
2 120 88 52 52 115 109 138 126 76 53 249 155 283 167 65 23 230 6 273 -28 18
-14 273 -34 309 -24 27 7 12 20 -46 39 -28 9 -74 27 -102 40 -121 55 -236 84
-370 93 l-110 7 75 8 c41 4 145 8 230 9 l155 2 120 -58 c66 -32 128 -63 138
-69 17 -8 37 -4 26 6 -32 28 -147 96 -221 131 l-95 45 -150 0 c-149 0 -264
-13 -457 -51 -110 -21 -165 -16 -81 8 28 8 64 18 80 23 153 45 328 65 502 57
76 -3 147 -9 158 -12 11 -3 29 1 40 9 20 16 19 16 -15 46 -81 70 -233 173
-292 197 -90 38 -226 41 -403 9z m341 -61 c57 -15 124 -42 124 -50 0 -2 -57
-4 -127 -4 -150 1 -197 -9 -383 -80 -74 -28 -138 -51 -142 -51 -8 0 -89 -34
-120 -51 -10 -5 -23 -9 -29 -9 -6 0 -31 -14 -56 -30 -25 -17 -47 -29 -49 -28
-6 6 34 83 64 125 62 84 184 132 492 193 55 11 147 5 226 -15z m-463 -302 c-7
-2 -21 -2 -30 0 -10 3 -4 5 12 5 17 0 24 -2 18 -5z"/>
<path d="M5447 8470 c-3 -8 -8 -33 -11 -55 -3 -22 -9 -54 -12 -72 -4 -23 6
-68 35 -157 35 -106 41 -138 41 -208 0 -109 12 -127 33 -51 23 81 21 134 -7
244 -14 52 -32 134 -41 183 -20 106 -31 138 -38 116z"/>
<path d="M7829 8267 c-79 -31 -136 -73 -166 -124 -24 -42 -25 -49 -19 -138 8
-107 6 -112 -77 -233 -27 -40 -47 -75 -44 -78 14 -14 57 13 113 72 78 81 90
119 70 225 -8 41 -12 87 -9 103 9 42 89 121 140 136 74 22 73 25 73 -189 0
-298 21 -251 36 80 8 179 -1 190 -117 146z"/>
<path d="M6349 8207 c-33 -17 -66 -70 -78 -127 -12 -55 -9 -84 22 -185 18 -62
29 -78 92 -142 40 -40 70 -75 67 -78 -11 -10 -176 7 -247 26 -67 17 -101 14
-73 -8 64 -49 333 -68 411 -29 148 73 250 274 218 428 -7 34 -19 75 -28 92
l-15 29 -151 -6 c-83 -2 -161 -1 -173 3 -12 5 -30 4 -45 -3z m53 -113 c10 -23
25 -47 33 -54 22 -18 18 -55 -9 -87 l-24 -28 -35 38 c-50 52 -61 139 -24 185
14 17 35 -2 59 -54z"/>
<path d="M6788 7920 c-10 -13 -18 -30 -18 -36 0 -22 -65 -137 -102 -179 -50
-57 -132 -95 -204 -95 -39 0 -53 -3 -48 -11 9 -15 128 -6 169 12 140 61 234
187 223 300 l-3 34 -17 -25z"/>
<path d="M7765 7856 c-27 -12 -135 -116 -135 -130 0 -15 27 -2 83 40 71 53 88
43 28 -15 -39 -37 -51 -61 -32 -61 5 0 33 18 63 41 55 40 105 110 93 129 -9
14 -64 12 -100 -4z"/>
<path d="M5852 7825 c-11 -13 -9 -15 8 -15 11 0 20 7 20 15 0 19 -11 19 -28 0z"/>
<path d="M5900 7736 c0 -7 94 -64 155 -94 82 -40 196 -75 207 -64 10 10 -81
56 -192 99 -82 31 -110 43 -132 54 -18 9 -38 12 -38 5z"/>
<path d="M7451 7714 c0 -11 3 -14 6 -6 3 7 2 16 -1 19 -3 4 -6 -2 -5 -13z"/>
<path d="M7036 7677 c10 -17 99 -97 108 -97 25 0 -31 62 -85 94 -25 15 -30 15
-23 3z"/>
<path d="M7062 7574 c19 -20 42 -34 49 -32 18 6 -43 68 -67 68 -15 0 -12 -7
18 -36z"/>
<path d="M6976 7572 c-3 -6 3 -12 14 -15 11 -3 20 -13 20 -22 0 -9 5 -13 10
-10 6 4 17 2 25 -5 23 -19 26 6 2 27 -27 25 -63 37 -71 25z"/>
<path d="M6240 7124 c-214 -103 -467 -163 -612 -145 -42 5 -53 10 -56 26 -6
33 -14 34 -82 20 -36 -8 -93 -14 -127 -15 -34 0 -64 -4 -67 -9 -6 -10 1 -12
119 -31 39 -7 92 -16 118 -21 63 -12 177 -11 230 1 262 59 308 71 397 97 99
29 200 76 225 104 18 18 17 19 -16 19 -20 0 -74 -20 -129 -46z"/>
<path d="M5230 9447 c0 -9 19 -22 46 -33 100 -38 157 -101 204 -223 l26 -66
52 -3 c47 -3 52 -1 52 18 0 11 -4 28 -8 38 -71 147 -109 191 -207 241 -73 36
-165 52 -165 28z"/>
<path d="M9248 7386 c-119 -82 -233 -211 -281 -316 -16 -36 -30 -66 -32 -68
-1 -1 -20 16 -42 38 -50 50 -75 51 -196 10 -103 -35 -188 -39 -314 -15 -43 8
-80 15 -83 15 -22 0 -144 -119 -166 -162 -21 -40 -7 -34 35 14 20 24 54 63 77
87 l41 44 69 -22 c97 -32 187 -38 249 -17 27 10 54 21 60 25 18 14 91 31 131
31 48 0 94 -31 130 -87 26 -41 44 -48 44 -17 0 49 169 291 294 422 57 59 52
66 -16 18z"/>
<path d="M7014 6183 c-61 -97 -74 -122 -74 -139 0 -24 16 -15 42 24 13 20 41
61 61 91 35 49 49 101 28 101 -5 0 -31 -35 -57 -77z"/>
<path d="M6880 6130 c0 -5 -15 -27 -34 -47 -43 -49 -76 -114 -76 -153 0 -56
28 -33 80 68 60 116 69 142 46 142 -9 0 -16 -4 -16 -10z"/>
<path d="M7914 5697 c-41 -65 -100 -214 -89 -225 7 -8 7 -8 59 103 26 55 51
108 56 117 26 46 3 50 -26 5z"/>
<path d="M6102 6174 c-46 -68 -180 -331 -227 -444 -15 -36 -37 -87 -49 -115
-31 -71 -50 -134 -43 -142 4 -3 9 -4 11 -2 7 7 171 351 186 389 23 57 109 230
151 302 43 73 45 78 27 78 -7 0 -33 -30 -56 -66z"/>
<path d="M4912 3193 c-31 -29 -46 -54 -62 -102 -30 -95 -10 -95 39 -2 23 45
51 86 62 91 28 15 83 9 86 -10 1 -8 5 -42 9 -75 l7 -60 13 49 c7 27 16 52 21
57 4 4 121 3 258 -2 240 -10 530 -4 598 11 30 6 28 7 -23 13 -90 11 -370 13
-607 3 l-221 -8 -4 23 c-4 30 -41 49 -94 49 -34 0 -49 -7 -82 -37z"/>
<path d="M5412 5745 c-1 -22 6 -51 14 -65 l15 -25 -6 25 c-4 14 -10 43 -15 65
l-7 40 -1 -40z"/>
<path d="M4940 5317 c0 -9 5 -17 10 -17 6 0 10 -8 11 -17 0 -11 3 -13 6 -6 2
7 -3 23 -11 35 -13 18 -16 19 -16 5z"/>
<path d="M7472 4960 c0 -14 2 -19 5 -12 2 6 2 18 0 25 -3 6 -5 1 -5 -13z"/>
<path d="M3284 4263 c-30 -44 -26 -184 6 -240 23 -41 42 -53 54 -34 3 5 -4 35
-15 67 -16 43 -22 83 -22 147 0 48 -1 87 -2 87 -2 0 -11 -12 -21 -27z"/>
<path d="M2260 4272 c0 -7 -10 -12 -23 -12 -58 0 -187 -84 -228 -148 -38 -60
-38 -110 2 -212 30 -80 106 -196 135 -207 18 -7 32 11 78 102 41 82 57 173 33
193 -13 11 -15 4 -19 -47 -4 -62 -58 -188 -84 -198 -41 -15 -134 179 -134 280
0 21 8 52 18 69 20 35 118 111 178 138 44 20 61 37 50 47 -3 4 -6 1 -6 -5z"/>
<path d="M2320 4047 c0 -1 18 -38 41 -82 30 -58 39 -88 36 -110 -3 -16 -10
-61 -16 -98 -6 -38 -9 -73 -5 -78 9 -15 40 -10 57 9 44 49 -2 248 -79 337 -18
21 -34 32 -34 22z"/>
<path d="M7860 3198 c0 -40 3 -84 7 -97 15 -59 30 53 17 132 -11 62 -24 42
-24 -35z"/>
<path d="M7973 2990 c-38 -23 -46 -48 -10 -29 12 7 33 20 46 30 32 25 5 24
-36 -1z"/>
<path d="M4365 3694 c36 -26 89 -71 120 -101 62 -59 112 -82 98 -46 -11 29
-94 100 -154 133 -60 32 -99 41 -64 14z"/>
<path d="M4140 2688 c-117 -20 -167 -41 -140 -59 30 -19 340 38 340 63 0 10
-128 8 -200 -4z"/>
<path d="M4810 1040 c0 -116 11 -142 26 -62 l9 47 14 -45 c7 -25 15 -52 18
-60 4 -13 5 -13 13 0 9 14 4 178 -6 209 -4 11 -8 10 -23 -3 -18 -17 -20 -16
-26 3 -15 49 -25 14 -25 -89z"/>
<path d="M6124 801 c32 -36 313 -56 323 -24 8 23 -33 30 -185 36 -143 4 -152
4 -138 -12z"/>
<path d="M3848 1224 c16 -30 191 -60 206 -36 15 24 -16 34 -153 48 -60 7 -63
6 -53 -12z"/>
<path d="M3752 1168 c5 -15 155 -108 175 -108 21 0 15 35 -9 57 -51 45 -176
83 -166 51z"/>
<path d="M3990 1045 c0 -18 54 -86 83 -104 34 -21 77 -28 77 -13 -2 29 -160
146 -160 117z"/>
<path d="M4864 9780 c-40 -9 -78 -20 -85 -22 -8 -3 24 -17 71 -32 90 -28 187
-72 259 -118 49 -31 86 -35 144 -15 66 23 64 34 -5 42 -65 7 -129 31 -135 52
-3 8 14 13 54 15 44 2 59 7 61 19 2 13 -9 18 -56 23 -33 4 -94 18 -137 31 -90
29 -79 29 -171 5z"/>
<path d="M7220 9440 c0 -5 5 -10 10 -10 6 0 10 5 10 10 0 6 -4 10 -10 10 -5 0
-10 -4 -10 -10z"/>
<path d="M4118 6823 c-46 -63 -60 -103 -38 -103 16 0 90 120 90 147 0 12 -1
23 -2 23 -2 0 -24 -30 -50 -67z"/>
<path d="M3960 6731 c0 -28 87 -98 102 -83 9 9 1 23 -33 57 -48 48 -69 56 -69
26z"/>
<path d="M3887 6683 c-16 -15 -5 -41 31 -75 30 -30 41 -34 60 -27 31 12 28 21
-23 68 -45 41 -56 47 -68 34z"/>
<path d="M3820 6658 c0 -4 14 -29 30 -55 27 -42 31 -56 30 -113 -1 -36 -1 -71
-1 -77 2 -24 19 -13 30 18 18 52 13 108 -11 142 -28 40 -78 94 -78 85z"/>
<path d="M3666 5895 c-14 -22 -19 -47 -19 -100 0 -75 11 -104 79 -210 18 -30
34 -59 34 -65 0 -18 34 -7 38 13 2 9 -13 39 -32 66 -56 76 -69 116 -75 226
l-6 99 -19 -29z"/>
<path d="M9246 4552 c-3 -6 -2 -13 4 -17 22 -14 8 -33 -28 -38 -25 -5 -49 -18
-72 -43 -19 -20 -51 -44 -71 -54 -40 -21 -64 -46 -51 -54 13 -8 96 37 150 82
26 21 54 42 62 46 8 4 25 13 38 20 l23 13 -24 28 c-15 18 -26 24 -31 17z"/>
<path d="M3089 3601 c17 -17 20 -27 14 -49 -14 -47 -5 -128 18 -169 30 -54 43
-65 35 -28 -23 102 -24 120 -6 172 17 49 17 53 1 67 -10 9 -32 19 -51 22 l-33
7 22 -22z"/>
<path d="M1650 3455 c0 -8 83 -88 125 -120 38 -29 144 -63 210 -67 51 -3 81
14 35 20 -66 9 -249 87 -315 136 -41 31 -55 38 -55 31z"/>
<path d="M8840 2667 c-19 -13 -91 -53 -160 -88 -78 -40 -118 -65 -106 -67 52
-10 220 64 275 121 43 45 38 65 -9 34z"/>
<path d="M7431 804 c-51 -16 -76 -34 -45 -33 98 3 258 26 262 37 5 17 -159 14
-217 -4z"/>
<path d="M1675 520 c-44 -5 -93 -12 -110 -18 -21 -7 116 -11 471 -11 399 -1
508 2 534 12 29 13 20 14 -112 20 -181 9 -678 6 -783 -3z"/>
<path d="M3963 513 c71 -2 183 -2 250 0 67 1 10 3 -128 3 -137 0 -192 -2 -122
-3z"/>
</g>
</svg>
