<?xml version="1.0" standalone="no"?>
<!DOCTYPE svg PUBLIC "-//W3C//DTD SVG 20010904//EN"
 "http://www.w3.org/TR/2001/REC-SVG-20010904/DTD/svg10.dtd">
<svg version="1.0" xmlns="http://www.w3.org/2000/svg"
 width="1080.000000pt" height="1080.000000pt" viewBox="0 0 1080.000000 1080.000000"
 preserveAspectRatio="xMidYMid meet">

<g transform="translate(0.000000,1080.000000) scale(0.100000,-0.100000)"
fill="#000000" stroke="none">
<path d="M5270 9495 c-52 -7 -120 -18 -150 -25 -30 -7 -71 -15 -90 -20 -38 -8
-123 -36 -155 -50 -11 -5 -67 -27 -125 -50 -231 -91 -403 -200 -531 -338 -113
-122 -175 -224 -219 -363 -68 -210 -91 -392 -91 -718 0 -101 -2 -187 -4 -192
-3 -4 -21 -1 -40 7 -78 32 -147 7 -218 -79 -103 -126 -112 -266 -27 -441 39
-81 120 -187 167 -218 39 -26 140 -64 182 -70 19 -2 27 -11 33 -38 68 -291
153 -494 295 -707 109 -165 265 -281 432 -321 39 -9 71 -21 71 -26 0 -24 -145
-145 -306 -253 -285 -193 -363 -276 -475 -508 -101 -208 -207 -366 -349 -515
-39 -41 -103 -113 -143 -160 -39 -47 -93 -107 -119 -135 -25 -27 -65 -74 -88
-102 -37 -47 -39 -54 -23 -59 10 -3 42 -17 72 -30 55 -26 78 -34 211 -74 60
-18 90 -35 148 -83 39 -33 72 -62 72 -64 0 -2 -9 -16 -20 -31 -18 -25 -20 -49
-27 -289 l-6 -263 -31 -4 c-17 -2 -64 -9 -104 -15 -40 -6 -91 -11 -115 -12
-54 -1 -79 -10 -69 -26 6 -10 34 -10 127 -2 66 6 172 9 235 6 122 -7 269 -23
278 -31 2 -3 0 -31 -6 -63 -6 -32 -14 -188 -18 -346 -4 -158 -11 -290 -15
-293 -5 -2 -61 -6 -126 -7 l-118 -2 -13 124 c-8 82 -19 136 -32 160 -34 64
-35 64 -58 50 -18 -12 -24 -10 -44 8 -17 15 -29 18 -43 13 -19 -8 -19 -9 1 -9
28 -1 52 -38 56 -87 3 -31 5 -35 12 -19 16 41 30 65 36 65 11 0 29 -95 23
-119 -3 -13 -1 -26 5 -30 10 -6 17 -70 14 -123 -2 -25 -6 -28 -35 -28 -31 0
-35 4 -45 39 -7 21 -12 68 -12 105 0 50 -3 66 -14 66 -8 0 -33 10 -55 22 -33
17 -41 27 -41 49 0 15 5 31 10 34 6 3 10 11 10 17 0 6 -9 3 -20 -7 -17 -15
-20 -31 -20 -101 0 -81 -1 -84 -25 -90 -27 -7 -34 -24 -10 -24 8 0 15 6 15 13
0 8 4 7 10 -3 5 -8 10 -34 10 -58 l0 -43 -62 3 -63 3 0 48 c1 26 2 131 3 233
l2 186 28 -6 c62 -14 450 -30 483 -20 31 10 -131 23 -456 37 l-50 2 -5 115
c-4 99 -7 115 -22 118 -21 4 -22 -26 -23 -453 l0 -250 -40 0 -40 0 -2 354 c-1
194 -5 356 -8 359 -15 15 -28 -25 -34 -100 l-6 -83 -110 -5 c-60 -3 -115 -2
-121 3 -7 4 -14 1 -18 -9 -8 -22 -9 -21 18 -28 20 -5 25 -14 31 -61 4 -34 3
-61 -4 -68 -20 -25 29 -41 123 -41 l89 -1 0 -155 0 -155 -75 -3 -75 -3 -6 77
c-4 42 -7 111 -7 152 0 42 -3 73 -6 69 -4 -3 -7 -70 -8 -149 l-1 -143 -29 0
-29 -1 -4 -334 c-2 -184 -6 -341 -9 -348 -2 -8 -16 -12 -35 -10 l-32 3 -2 255
c-2 390 -16 690 -30 690 -17 0 -28 -29 -17 -44 4 -6 5 -72 1 -146 -4 -74 -8
-272 -8 -438 1 -167 -1 -305 -3 -308 -6 -5 -283 15 -303 22 -17 7 -17 24 -13
240 5 238 3 254 -33 254 -23 0 -29 29 -29 141 0 66 4 100 12 106 9 6 43 5 98
-3 102 -16 198 -18 162 -4 -25 11 -252 50 -285 50 -22 0 -22 -2 -18 -125 1
-69 0 -137 -4 -152 l-6 -26 -92 7 c-56 4 -97 11 -105 20 -11 11 -12 36 -7 125
l8 111 47 0 c26 0 62 3 80 6 27 6 31 10 25 28 -4 12 -10 40 -12 63 -5 42 -5
42 33 49 21 4 127 4 236 1 109 -4 198 -3 198 2 0 12 -253 40 -265 30 -11 -11
-179 -11 -252 0 -29 4 -56 4 -60 0 -5 -4 -80 -8 -168 -10 l-160 -4 0 50 0 50
145 10 c156 11 161 25 9 25 -48 0 -101 3 -118 6 l-32 7 3 61 3 61 90 13 c50 7
128 18 175 25 47 8 90 12 97 9 9 -3 11 -26 6 -85 -3 -45 -9 -83 -13 -85 -4 -1
-16 -9 -26 -17 -16 -11 -17 -16 -5 -27 8 -8 15 -9 17 -3 5 13 271 7 296 -6 12
-7 18 -6 18 2 0 8 15 9 53 4 28 -4 88 -11 132 -14 76 -6 80 -7 83 -31 5 -34
22 -51 22 -21 0 12 4 31 10 41 7 13 6 21 -5 30 -20 17 -19 75 3 107 23 37 22
67 -4 100 -27 34 -42 25 -19 -11 15 -23 16 -28 1 -57 -9 -18 -16 -57 -16 -87
l0 -54 -32 6 c-29 6 -353 24 -460 26 l-38 0 0 73 c0 59 4 77 18 90 10 10 22
14 26 10 4 -4 32 -11 64 -15 31 -4 89 -12 127 -18 106 -16 212 -23 195 -12 -8
5 -49 14 -90 21 -105 17 -178 30 -228 41 -23 6 -61 10 -84 10 -62 0 -67 13
-68 172 0 75 4 139 8 142 7 4 112 -7 282 -29 25 -4 74 -13 110 -21 36 -8 75
-17 87 -19 22 -5 22 -8 20 -167 -2 -138 0 -163 13 -166 13 -2 15 18 13 145 -1
81 -5 153 -8 161 -4 12 3 14 41 8 61 -8 64 -11 65 -59 0 -40 8 -86 27 -172
l10 -40 1 34 c0 19 -4 60 -11 91 -6 31 -8 73 -4 94 7 37 8 38 39 31 136 -29
252 -41 261 -26 5 7 -2 11 -17 11 -14 0 -28 7 -31 16 -8 20 -8 171 1 257 5 54
9 67 23 67 18 0 74 49 66 58 -3 2 -19 -6 -36 -18 -55 -39 -57 -33 -65 209 -4
122 -10 234 -14 249 l-8 27 -8 -34 c-4 -19 -7 -209 -8 -422 0 -397 -2 -411
-38 -388 -11 6 -14 34 -14 116 0 316 -6 523 -14 523 -24 0 -31 -75 -31 -341
l0 -279 -32 0 c-63 0 -62 -5 -54 242 6 196 12 264 27 316 2 8 -3 18 -11 23
-38 23 -172 78 -240 98 -165 50 -256 84 -268 99 -9 12 -12 58 -11 167 l1 150
-44 -1 c-23 -1 -93 -5 -154 -9 -61 -4 -127 -5 -148 -1 -37 7 -37 7 -16 24 20
16 21 27 23 237 1 121 0 558 -3 970 l-5 750 -25 0 c-24 0 -25 -3 -33 -90 -6
-73 -1 -1790 6 -1860 2 -18 -4 -19 -120 -16 l-123 3 -11 -29 c-7 -19 -13 -246
-17 -683 l-7 -655 -100 -5 -100 -5 0 -80 0 -80 -55 1 c-85 2 -180 16 -180 26
0 5 -10 8 -22 6 -22 -3 -23 -7 -28 -153 l-5 -150 -62 0 c-33 0 -64 -2 -66 -5
-3 -3 -9 -52 -13 -109 l-7 -104 -72 6 c-40 4 -85 11 -100 17 -15 6 -30 8 -33
5 -22 -21 -30 -561 -10 -587 11 -13 71 -18 343 -32 182 -9 445 -23 585 -31
140 -8 408 -19 595 -24 347 -11 392 -8 440 25 22 16 61 19 69 5 3 -4 16 -6 30
-4 13 3 35 -3 49 -12 22 -14 72 -18 319 -26 571 -18 1093 -28 1135 -22 78 11
33 23 -85 23 -64 0 -184 9 -267 20 -82 10 -235 24 -340 30 -104 6 -193 15
-197 19 -10 9 9 263 19 271 5 3 64 3 133 -1 216 -12 372 -11 368 4 -5 14 -203
29 -366 27 -57 0 -112 2 -122 5 -10 3 -21 20 -25 38 l-7 32 -9 -27 c-11 -29
-36 -43 -53 -29 -7 6 -11 60 -11 158 l0 148 90 -4 c50 -1 92 -5 94 -7 3 -2 3
-52 2 -112 -1 -59 2 -118 8 -132 8 -22 10 -22 11 -5 5 106 20 229 27 236 6 6
102 5 255 -2 l245 -12 6 -295 c7 -290 12 -329 41 -319 6 2 13 17 16 33 l5 29
85 -3 c47 -2 100 -6 119 -9 26 -4 33 -3 29 8 -6 18 -46 26 -140 28 -64 1 -79
4 -87 19 -6 10 -10 131 -11 277 0 143 -5 264 -9 268 -5 5 -45 11 -88 13 -44 2
-91 7 -104 13 -25 9 -25 11 -18 78 4 37 9 199 10 358 3 239 1 297 -11 327 -18
45 -27 47 -40 12 -9 -24 -14 -26 -48 -21 -20 4 -67 9 -103 13 -37 4 -72 9 -77
13 -11 7 -22 541 -11 541 4 0 13 -10 22 -22 13 -21 35 -45 167 -181 25 -25 52
-53 60 -62 9 -9 15 -35 15 -63 l0 -47 56 2 c43 2 58 -1 63 -12 3 -10 18 -14
43 -13 21 1 78 -7 127 -17 l88 -20 19 24 c12 14 19 39 19 65 l0 41 14 -27 c9
-17 21 -102 30 -220 35 -422 56 -590 96 -768 4 -19 28 -127 53 -240 26 -113
58 -236 73 -275 25 -67 26 -78 28 -290 l2 -220 -40 -5 c-36 -4 -42 -9 -51 -41
-5 -19 -22 -50 -37 -68 -16 -18 -28 -38 -28 -46 0 -32 -27 -37 -235 -36 -233
1 -313 -11 -388 -59 -79 -50 -157 -165 -157 -231 0 -29 0 -29 -65 -29 -36 0
-65 -4 -65 -9 0 -29 109 -35 382 -22 539 25 808 51 901 87 48 18 46 18 57 -11
11 -29 51 -42 89 -29 30 11 29 -7 11 264 -6 96 -14 178 -18 181 -4 4 -53 9
-109 11 -112 5 -112 5 -92 -50 9 -27 7 -39 -15 -84 -33 -66 -45 -82 -73 -97
-28 -14 -28 -18 -2 79 11 44 19 99 17 122 -3 42 -4 43 -43 48 l-40 5 34 8 c18
4 80 7 137 7 99 0 104 1 108 23 20 99 10 688 -24 1445 -6 123 -8 227 -5 233 4
5 37 9 74 9 l67 0 13 -152 c12 -161 23 -302 41 -558 14 -195 44 -478 70 -680
28 -206 39 -314 34 -322 -2 -3 -19 -9 -37 -13 -17 -4 -39 -8 -47 -11 -13 -3
-15 -35 -14 -211 1 -115 2 -213 3 -219 0 -7 32 -14 74 -18 90 -9 107 -14 107
-31 0 -21 27 -32 100 -39 36 -4 101 -13 145 -21 173 -31 658 -48 683 -23 21
21 13 59 -29 146 -50 103 -110 166 -200 211 -90 44 -178 58 -271 44 -40 -7
-82 -15 -94 -18 -26 -8 -55 37 -80 123 -19 67 -29 82 -57 82 -19 0 -20 4 -14
213 4 116 11 262 16 322 5 61 19 234 30 385 23 302 72 934 79 1018 3 44 10 59
39 88 19 20 37 33 39 31 3 -3 -4 -32 -16 -66 -11 -33 -20 -71 -20 -84 0 -30
29 -57 61 -57 27 0 146 36 226 68 47 19 54 20 68 6 24 -25 44 -1 47 59 2 38 7
52 18 52 8 0 16 -9 18 -20 2 -11 8 -24 12 -29 11 -11 187 150 307 284 70 76
110 112 150 132 136 69 266 154 291 190 l24 38 -91 182 c-51 101 -121 237
-157 303 -85 156 -177 377 -265 640 -39 115 -79 218 -88 228 -10 10 -56 31
-104 47 -200 69 -328 151 -566 365 -94 83 -94 103 -3 151 92 49 172 113 298
239 108 108 219 259 253 345 43 108 65 185 80 280 14 80 21 104 32 101 8 -2
34 -7 59 -10 l45 -6 -4 -159 c-1 -88 -7 -170 -11 -182 -5 -12 -6 -25 -2 -29 4
-4 7 -127 8 -273 1 -384 19 -397 28 -22 4 162 9 296 11 299 12 11 307 49 415
53 l85 3 5 -395 c3 -217 7 -384 8 -370 1 14 7 70 13 125 12 123 21 1178 11
1330 l-7 110 -8 -105 c-4 -58 -11 -229 -15 -380 l-7 -275 -85 -7 c-147 -13
-374 -38 -397 -44 l-23 -6 0 155 0 156 58 11 c104 21 184 85 284 225 99 140
138 248 138 386 0 108 -23 158 -94 207 -59 40 -107 42 -174 8 -82 -42 -232
-215 -232 -268 0 -10 11 -25 25 -34 41 -27 36 -38 -43 -103 -55 -44 -54 -60 1
-22 80 56 96 89 67 143 l-19 36 28 39 c60 82 170 162 224 163 31 0 77 -30 97
-63 24 -39 27 -158 6 -228 -30 -97 -110 -225 -189 -301 -64 -61 -172 -118
-225 -118 -59 0 -102 38 -102 91 0 21 4 39 9 39 5 0 11 9 14 21 5 20 5 20 -14
3 -37 -33 -63 -103 -139 -364 -34 -117 -121 -284 -209 -401 -190 -253 -461
-426 -793 -506 -55 -14 -113 -18 -233 -18 -153 1 -164 2 -253 33 -205 71 -299
176 -488 552 -80 160 -154 355 -174 465 -5 28 -14 97 -20 155 -5 58 -17 173
-25 255 -20 204 -21 901 -1 1065 24 194 42 261 98 375 47 95 84 145 181 243
132 135 307 233 576 322 342 114 565 121 926 30 225 -58 421 -159 511 -264 68
-79 130 -250 153 -419 16 -113 13 -404 -4 -538 -12 -94 -65 -406 -79 -471 -5
-22 16 -12 56 26 45 43 176 124 284 176 98 47 127 70 86 70 -36 0 -138 -32
-178 -55 -23 -13 -44 -22 -46 -19 -3 2 1 28 9 57 22 84 35 381 23 547 -21 284
-47 375 -151 525 -183 264 -518 435 -954 485 -110 12 -163 11 -285 -5z m-1390
-1801 l40 -27 0 -172 c0 -121 -3 -174 -11 -177 -12 -4 -7 -27 31 -133 16 -45
40 -134 40 -150 0 -10 -61 5 -101 25 -96 49 -202 241 -215 390 -5 57 -4 68 16
93 42 53 89 27 134 -76 26 -59 35 -140 16 -152 -34 -21 26 -165 70 -165 28 0
25 17 -10 47 -24 20 -30 33 -30 63 0 21 5 42 10 45 17 10 10 87 -13 147 -31
79 -81 146 -122 163 -45 19 -48 27 -22 56 58 66 94 71 167 23z m1760 -1864 c0
-107 -1 -111 -28 -140 -16 -16 -39 -43 -53 -61 -26 -35 -165 -156 -274 -239
-38 -30 -78 -63 -88 -73 -20 -23 -18 -25 -47 32 -12 24 -64 87 -115 140 -51
53 -96 106 -99 118 -4 13 -4 55 0 94 l7 71 71 -8 c125 -13 348 -7 407 10 80
24 79 25 79 -53 0 -80 6 -102 26 -94 12 4 13 28 8 139 l-7 134 44 20 c70 31
69 33 69 -90z m10 -232 c0 -69 27 -284 41 -325 14 -43 6 -53 -39 -47 -85 12
-85 11 -78 52 14 80 19 195 7 188 -6 -4 -11 -32 -11 -62 0 -77 -40 -135 -216
-309 -77 -77 -158 -161 -179 -188 l-38 -48 -35 58 c-97 161 -208 390 -232 479
-32 120 -13 125 86 22 39 -40 98 -112 133 -160 34 -49 67 -88 73 -88 12 0 12
0 -29 71 -40 68 -152 204 -194 235 -50 37 -89 50 -100 33 -20 -31 -11 -95 28
-203 8 -21 10 -42 6 -47 -12 -12 -143 -16 -144 -4 -2 17 49 204 83 300 28 82
37 97 38 62 0 -24 3 -27 20 -22 16 5 42 -15 128 -103 117 -119 132 -136 132
-152 0 -5 5 -10 10 -10 6 0 10 -8 10 -17 1 -10 7 -31 14 -48 l13 -30 16 32 c9
17 47 53 83 80 91 66 250 199 267 223 17 24 27 16 27 -20 0 -33 -15 -49 -142
-150 -111 -89 -168 -146 -168 -170 1 -12 2 -12 10 2 6 9 54 49 107 89 53 40
117 92 141 116 25 24 51 43 57 43 17 0 25 23 25 75 0 55 15 95 35 95 11 0 15
-12 15 -52z m355 -117 c64 -34 61 -49 -5 -20 -34 15 -45 17 -52 7 -10 -16 -2
-177 14 -269 12 -72 4 -100 -33 -120 -19 -10 -20 -9 -9 10 6 12 15 21 21 21 7
0 9 18 4 53 -12 101 -17 347 -6 347 5 0 35 -13 66 -29z m-1525 -95 c0 -3 -8
-12 -17 -22 -10 -10 -16 -31 -16 -52 1 -31 0 -33 -9 -17 -6 11 -12 22 -14 23
-1 2 -29 -12 -62 -31 -33 -19 -70 -38 -83 -42 l-24 -7 25 18 c14 10 27 21 30
24 3 3 22 16 43 29 21 13 43 28 50 35 30 30 77 55 77 42z m1 -176 c5 0 9 -10
9 -22 -1 -20 -4 -18 -19 12 -11 19 -16 39 -13 45 4 5 8 0 10 -12 2 -13 8 -23
13 -23z m26 -72 c-3 -8 -6 -5 -6 6 -1 11 2 17 5 13 3 -3 4 -12 1 -19z m166
-49 c-108 -117 -161 -169 -174 -169 -7 0 4 17 24 38 20 21 37 46 37 55 0 9 6
17 13 17 6 0 41 29 77 64 76 75 93 72 23 -5z m-146 9 c-3 -8 -6 -5 -6 6 -1 11
2 17 5 13 3 -3 4 -12 1 -19z m1273 -66 c0 -12 -4 -12 -20 3 -11 10 -20 25 -20
33 0 12 4 12 20 -3 11 -10 20 -25 20 -33z m-1253 16 c-3 -8 -6 -5 -6 6 -1 11
2 17 5 13 3 -3 4 -12 1 -19z m780 -410 c-29 -23 -47 -23 -47 0 0 30 18 41 46
28 l24 -11 -23 -17z m873 -61 c0 -24 5 -70 11 -103 13 -73 68 -254 77 -254 4
0 34 27 66 59 74 74 99 89 121 71 14 -12 10 -17 -32 -43 -59 -37 -210 -184
-243 -237 -14 -22 -28 -40 -31 -40 -4 0 -9 -10 -12 -21 -5 -19 -2 -18 26 8 85
79 103 93 116 91 25 -5 24 -27 -1 -37 -13 -5 -54 -34 -90 -65 -36 -31 -69 -56
-73 -56 -4 0 -13 8 -20 17 -11 15 -15 12 -36 -32 -19 -37 -35 -54 -71 -74 -51
-27 -61 -41 -28 -41 11 0 20 4 20 9 0 12 64 41 72 33 4 -4 23 -59 44 -122 37
-118 44 -179 28 -239 -8 -30 -17 -37 -60 -52 -82 -29 -206 -59 -215 -53 -5 3
-9 39 -9 80 0 75 0 75 -35 95 -19 11 -43 35 -55 53 -19 31 -22 33 -57 26 -279
-57 -315 -63 -323 -49 -5 7 -5 18 1 25 5 6 7 18 4 26 -9 22 18 44 77 64 29 9
69 25 88 35 29 16 31 19 12 19 -12 0 -41 -8 -65 -19 -107 -47 -127 -49 -127
-11 0 23 26 42 90 65 80 30 103 42 91 49 -6 4 -20 5 -30 1 -28 -8 -36 13 -15
37 50 55 110 58 212 12 29 -13 58 -24 65 -24 7 0 23 -9 37 -20 14 -11 40 -19
60 -19 34 0 34 1 10 11 -94 41 -189 90 -193 101 -5 12 27 243 39 279 3 10 20
24 37 33 74 35 397 317 397 347 0 4 5 8 10 8 6 0 10 -19 10 -43z m-1809 -182
c24 -22 75 -66 112 -98 l67 -59 0 -134 c0 -109 3 -136 15 -140 19 -8 -3 -44
-27 -44 -10 0 -18 -4 -18 -10 0 -5 -9 -10 -20 -10 -11 0 -20 -4 -20 -10 0 -14
2 -14 90 31 l81 41 52 -32 c81 -49 90 -57 83 -76 -4 -11 -12 -14 -24 -9 -29
12 -146 23 -156 15 -4 -5 17 -11 48 -15 42 -6 74 -19 126 -52 39 -25 70 -51
70 -59 0 -7 -15 -18 -32 -23 -18 -5 -26 -10 -17 -10 26 -2 38 -23 28 -50 -9
-22 -12 -23 -77 -18 -37 4 -93 9 -124 13 -84 10 -102 2 -122 -50 -12 -32 -24
-46 -39 -48 -16 -2 -21 -8 -18 -23 2 -11 5 -31 5 -45 1 -23 -2 -25 -44 -22
-61 3 -140 21 -167 38 -26 16 -30 55 -12 101 6 15 16 39 21 53 6 14 14 33 19
42 5 10 9 25 9 33 0 8 5 15 10 15 6 0 10 10 10 22 0 17 -6 12 -25 -22 -14 -25
-32 -61 -41 -80 -8 -19 -20 -43 -25 -52 -5 -10 -9 -24 -9 -31 0 -27 -32 -79
-42 -69 -6 6 -6 16 0 29 6 10 24 61 42 113 35 109 89 230 101 230 5 0 12 0 17
0 4 1 9 -14 12 -32 l5 -33 31 62 30 61 -51 30 c-27 17 -76 58 -108 91 -33 34
-62 61 -66 61 -4 0 -22 27 -41 60 -19 33 -37 60 -42 60 -17 0 -57 74 -52 96 5
18 -1 26 -28 41 -28 15 -55 18 -175 17 -79 -1 -143 0 -143 2 0 1 24 10 54 18
65 19 269 22 348 4 29 -6 54 -13 56 -14 2 -1 -6 -21 -18 -43 -11 -23 -18 -46
-15 -51 7 -11 112 124 139 178 l17 34 28 -44 c16 -23 48 -61 72 -83z m-1949
-6 c-7 -27 -32 -491 -31 -560 2 -74 -7 -111 -20 -92 -3 5 -27 24 -53 41 -59
40 -88 77 -88 111 0 15 -6 35 -13 45 -12 16 -14 16 -26 2 -19 -23 -96 -22
-107 2 -4 9 -6 23 -5 30 1 6 -5 12 -14 12 -19 0 -19 -19 1 -48 12 -17 25 -22
59 -22 54 0 64 -13 35 -52 -12 -16 -20 -32 -17 -34 8 -8 47 38 47 54 0 21 25
8 28 -15 3 -19 73 -94 97 -104 6 -2 27 -15 48 -29 37 -24 38 -27 33 -69 -3
-24 -6 -79 -6 -122 l0 -79 -38 0 c-20 0 -53 5 -72 10 -59 18 -366 -24 -418
-56 -18 -12 -23 -12 -27 -1 -3 7 -4 91 -3 187 l3 175 52 6 c28 4 66 14 84 23
49 24 57 21 62 -26 2 -24 3 -17 2 15 -2 32 -6 61 -9 64 -2 3 -19 -5 -36 -17
-41 -29 -144 -40 -153 -16 -5 11 -11 512 -7 576 0 3 134 5 298 3 215 -2 296
-6 294 -14z m2804 -196 c-10 -10 -19 5 -10 18 6 11 8 11 12 0 2 -7 1 -15 -2
-18z m-146 -90 c0 -54 -3 -73 -10 -63 -17 27 -12 140 7 140 2 0 3 -35 3 -77z
m-2553 -39 c26 -8 57 -19 68 -24 11 -5 55 -21 98 -35 43 -14 112 -39 153 -57
l76 -32 -7 -115 c-4 -64 -9 -117 -10 -119 -6 -6 -92 33 -123 56 -37 26 -49 24
-33 -6 10 -19 88 -62 113 -62 7 0 21 -7 31 -14 15 -11 17 -31 17 -145 0 -106
-3 -133 -15 -137 -12 -5 -81 6 -338 57 -26 5 -61 9 -76 9 -16 0 -31 6 -33 13
-7 19 0 606 7 617 8 13 16 13 72 -6z m1826 -141 c-3 -7 -9 -13 -14 -13 -15 0
-79 62 -74 70 8 13 93 -43 88 -57z m750 50 c-7 -2 -19 -2 -25 0 -7 3 -2 5 12
5 14 0 19 -2 13 -5z m-6 -270 c-2 -21 -4 -6 -4 32 0 39 2 55 4 38 2 -18 2 -50
0 -70z m-122 8 c3 -5 -3 -17 -12 -27 -11 -11 -18 -13 -21 -5 -9 28 18 55 33
32z m-2717 -418 c2 -128 1 -143 -15 -151 -10 -6 -70 -15 -133 -21 -63 -7 -131
-15 -152 -18 l-36 -5 -7 64 c-3 34 -5 99 -3 143 l3 80 135 27 c74 14 151 26
170 25 l35 -2 3 -142z m-378 -62 c0 -117 -2 -140 -16 -145 -43 -16 -44 -12
-44 132 0 76 3 142 7 145 3 4 17 7 30 7 23 0 23 0 23 -139z m9 -195 c8 -9 11
-54 9 -132 l-3 -119 -145 0 -145 0 3 40 c2 22 9 43 15 47 7 4 51 8 98 8 l86 0
6 76 c4 42 9 80 13 85 8 14 50 11 63 -5z m-113 -30 c3 -13 4 -38 2 -57 l-3
-34 -70 -3 c-57 -2 -72 0 -82 14 -14 19 -18 86 -6 97 3 4 39 7 79 7 69 0 74
-1 80 -24z m1432 -63 l3 -73 -73 0 c-40 0 -79 4 -87 9 -19 12 -33 123 -17 134
6 4 47 6 91 5 l80 -3 3 -72z m-1791 -49 c53 -18 91 -25 119 -21 42 4 42 4 48
-34 10 -64 8 -66 -127 -72 -67 -3 -125 -3 -129 -1 -10 6 -11 138 -1 147 8 9 2
11 90 -19z m598 -136 c3 -7 7 -38 9 -68 2 -30 5 -58 5 -62 1 -4 36 -8 79 -10
l77 -3 3 -118 3 -118 -113 3 -113 3 -3 94 c-1 52 2 107 7 122 7 21 6 29 -4 33
-7 2 -16 2 -19 -1 -3 -4 -6 -62 -6 -130 l0 -123 -104 0 c-57 0 -111 3 -120 6
-13 5 -16 25 -16 119 0 82 3 114 12 117 7 3 -31 8 -84 11 -54 4 -105 4 -113 1
-12 -5 -15 -27 -15 -115 0 -82 -3 -111 -13 -115 -24 -9 -280 25 -289 39 -4 6
-8 49 -8 95 l0 82 69 0 68 0 -5 50 c-6 68 3 77 75 70 57 -5 58 -6 61 -37 5
-52 -11 -71 -66 -76 -42 -3 -41 -4 16 -5 l62 -2 0 44 c0 63 7 76 43 76 17 0
69 5 115 12 106 15 115 10 122 -68 l5 -59 45 -2 c41 -1 42 -1 10 5 -35 7 -35
7 -35 62 l0 55 40 0 40 0 0 -63 c0 -43 4 -62 13 -62 8 0 12 19 12 59 0 66 5
72 65 82 62 10 65 10 70 -3z m333 -36 c5 -65 -6 -72 -107 -72 -47 0 -103 -4
-124 -9 -52 -12 -69 6 -65 68 l3 46 100 6 c55 3 120 5 145 5 l45 -1 3 -43z
m1251 -86 c6 -17 11 -56 13 -86 3 -49 1 -55 -18 -58 -11 -2 -32 2 -47 7 -27
10 -27 11 -27 109 0 54 3 102 7 105 11 11 62 -43 72 -77z m-1946 -46 c-16
-212 -14 -200 -44 -200 -15 0 -39 4 -54 10 l-25 10 6 97 c4 54 12 101 18 106
6 4 31 6 56 5 41 -3 45 -5 43 -28z m1579 -100 c191 -14 247 -21 258 -35 7 -8
10 -65 8 -151 l-3 -138 -224 3 c-123 1 -230 5 -237 8 -11 4 -14 39 -14 170 l0
166 43 -7 c23 -3 99 -11 169 -16z m-2092 -94 c63 -8 156 -20 205 -26 50 -7
105 -11 123 -11 l32 2 0 -125 c0 -131 -4 -156 -25 -156 -20 0 -27 34 -25 113
3 90 2 122 -6 115 -3 -4 -9 -55 -12 -115 l-7 -108 -188 -3 c-144 -2 -188 -5
-184 -15 3 -9 56 -13 193 -17 l189 -5 3 -28 c4 -30 22 -28 22 3 0 18 23 34 34
23 8 -8 8 -108 -1 -116 -3 -4 -12 -2 -19 4 -8 7 -19 7 -31 1 -11 -5 -63 -6
-128 -1 -60 4 -165 8 -232 8 -110 1 -123 3 -123 19 0 9 -1 115 -4 234 -2 120
-1 220 3 223 3 4 19 4 36 1 16 -3 82 -12 145 -20z m750 -50 l75 -3 12 -74 c6
-41 12 -102 12 -136 l1 -63 -36 0 -37 0 6 96 c7 120 -11 115 -21 -6 l-7 -83
-180 2 c-99 1 -183 5 -187 7 -10 6 -11 258 -1 267 6 6 77 5 363 -7z m436 -5
c92 -1 113 -4 118 -17 9 -23 7 -417 -2 -431 -6 -10 -31 -11 -108 -3 -54 5
-145 10 -201 10 -67 0 -104 4 -109 12 -10 16 -5 111 6 122 5 5 39 8 75 7 36
-1 107 1 158 6 l92 7 -60 7 c-33 4 -108 7 -167 8 l-106 1 -11 50 c-11 49 -16
222 -7 231 2 2 51 1 108 -2 56 -4 153 -7 214 -8z m1021 -207 c139 -4 216 -10
221 -18 5 -6 6 -72 3 -146 l-6 -135 -270 4 c-148 2 -273 5 -277 8 -10 5 -10
178 -1 251 l6 54 56 -6 c31 -3 152 -8 268 -12z m-1449 -151 l-3 -68 -175 4
c-96 2 -181 8 -187 13 -13 11 -18 100 -6 111 3 4 89 7 190 7 l184 0 -3 -67z
m90 2 c3 -75 -7 -93 -42 -77 -23 10 -26 17 -26 66 0 42 4 57 18 65 35 22 47 9
50 -54z m3445 -552 c4 -7 -7 -94 -19 -160 -12 -61 -64 20 -64 99 0 30 3 58 7
61 9 9 71 9 76 0z m161 -102 c3 -58 0 -113 -5 -123 -14 -26 -39 -23 -39 6 0
12 -4 36 -10 52 -13 37 -29 157 -23 167 3 4 20 7 39 5 l34 -3 4 -104z m-541
-58 c-7 -2 -19 -2 -25 0 -7 3 -2 5 12 5 14 0 19 -2 13 -5z"/>
<path d="M5614 3869 c-8 -13 13 -29 39 -29 20 0 22 11 5 28 -15 15 -35 15 -44
1z"/>
<path d="M5718 3705 c-2 -3 -33 -10 -69 -15 -35 -6 -79 -14 -96 -17 -50 -8
-41 -27 10 -19 23 3 70 10 104 15 64 9 83 16 83 32 0 9 -23 13 -32 4z"/>
<path d="M4460 3872 c0 -4 -10 -12 -22 -17 -22 -10 -37 -35 -21 -35 4 1 24 14
43 30 24 22 29 30 17 30 -9 0 -17 -3 -17 -8z"/>
<path d="M4332 3800 c0 -14 2 -19 5 -12 2 6 2 18 0 25 -3 6 -5 1 -5 -13z"/>
<path d="M4626 3773 c-3 -3 -6 -10 -6 -14 0 -11 97 -39 129 -38 21 1 22 2 6 6
-19 4 -70 25 -106 44 -9 5 -19 5 -23 2z"/>
<path d="M2707 3849 c6 -8 13 -32 15 -54 2 -27 8 -40 18 -40 28 0 1 93 -30
103 -12 4 -13 2 -3 -9z"/>
<path d="M2490 3843 c0 -21 61 -63 91 -63 48 0 88 26 89 58 0 7 -15 -1 -32
-17 -42 -39 -68 -39 -113 0 -19 17 -35 27 -35 22z"/>
<path d="M2585 3705 c22 -13 49 -24 60 -24 14 0 16 2 5 6 -8 3 -17 9 -20 12
-11 13 -50 31 -67 31 -11 0 -3 -10 22 -25z"/>
<path d="M4775 8755 c-55 -31 -384 -315 -385 -333 -1 -4 -35 -43 -76 -87 -66
-71 -72 -81 -55 -88 25 -12 74 11 186 88 50 34 129 85 178 115 l87 53 86 -6
86 -6 -6 25 c-4 13 1 46 9 72 27 79 29 132 6 170 -12 17 -29 32 -38 32 -10 0
-45 -16 -78 -35z"/>
<path d="M5307 8762 c-42 -46 -36 -154 14 -226 28 -42 53 -53 134 -59 145 -12
289 -85 427 -214 124 -118 167 -124 82 -13 -45 59 -261 266 -359 345 -28 21
-81 67 -120 101 -38 33 -80 66 -92 72 -31 17 -68 15 -86 -6z"/>
<path d="M4867 8454 c-22 -29 -14 -47 8 -18 12 16 20 45 13 44 -2 0 -11 -12
-21 -26z"/>
<path d="M5340 8465 c0 -13 49 -70 55 -63 2 2 -9 20 -25 39 -16 19 -29 30 -30
24z"/>
<path d="M4911 8270 c-7 -47 -23 -141 -37 -210 -58 -297 -95 -393 -181 -469
-46 -40 -53 -51 -53 -84 0 -31 7 -45 43 -80 54 -54 108 -71 214 -65 73 4 142
22 131 34 -3 2 -34 9 -69 15 -59 9 -178 59 -223 94 -19 15 -19 16 15 53 58 60
77 95 109 192 60 182 94 447 73 560 l-9 45 -13 -85z"/>
<path d="M8116 8285 c-4 -10 -20 -15 -53 -15 -26 0 -97 -4 -157 -10 -61 -5
-176 -14 -256 -21 -253 -19 -560 -62 -720 -100 -137 -32 -160 -39 -160 -49 0
-13 132 -13 218 0 37 5 106 14 155 20 48 5 124 15 170 20 203 25 649 70 715
72 l74 3 -2 -1685 c0 -927 -4 -1688 -8 -1692 -4 -4 -117 -12 -252 -19 -568
-27 -776 -42 -819 -60 -16 -7 -27 -6 -37 2 -7 6 -19 7 -26 2 -7 -4 -44 -11
-83 -15 -38 -3 4 -4 95 -2 91 2 217 8 280 13 250 20 562 36 700 36 l145 0 0
-1398 0 -1398 -65 -35 c-91 -50 -97 -58 -30 -48 30 5 197 8 370 6 253 -2 311
0 295 10 -25 15 -127 25 -363 36 -100 5 -186 12 -190 17 -4 4 122 5 281 2 227
-4 287 -2 287 8 0 9 -43 14 -167 19 -145 6 -254 20 -242 30 6 5 892 -12 1174
-22 138 -5 275 -7 305 -3 54 6 53 7 -40 14 -725 55 -912 67 -1090 68 -252 1
-160 15 145 23 149 3 320 11 380 16 61 5 184 12 274 16 120 5 158 10 145 17
-12 7 -175 13 -429 16 -404 4 -409 5 -335 20 60 13 128 15 330 13 229 -3 349
2 338 14 -8 8 -323 34 -409 34 -51 0 -89 4 -91 10 -2 6 -2 1077 -1 2381 l2
2370 -53 72 c-29 40 -84 120 -123 179 -39 58 -80 119 -91 135 -11 15 -100 150
-199 298 -191 289 -274 424 -320 520 -35 75 -54 92 -67 60z"/>
<path d="M5418 8243 c-35 -40 -49 -207 -24 -288 13 -44 45 -63 88 -52 41 11
53 49 51 158 -2 139 -25 199 -77 199 -13 0 -30 -8 -38 -17z"/>
<path d="M4605 8224 c-27 -29 -38 -81 -38 -180 1 -98 16 -128 69 -132 53 -4
65 11 71 92 9 103 -5 195 -32 222 -30 30 -40 30 -70 -2z"/>
<path d="M7768 7966 c-5 -43 -8 -125 -8 -181 0 -70 -4 -106 -12 -113 -7 -5
-35 -12 -63 -15 -81 -8 -343 -47 -435 -64 -47 -8 -105 -18 -129 -22 -25 -3
-46 -11 -48 -16 -6 -19 348 16 492 50 61 13 128 25 149 25 l39 0 -7 -222 c-4
-126 -2 -297 4 -393 5 -93 13 -339 17 -545 8 -368 8 -361 13 395 l5 770 60 5
c33 3 69 11 80 18 17 11 8 12 -57 7 -43 -3 -79 -5 -80 -3 -1 2 -4 89 -7 193
-5 169 -7 181 -13 111z"/>
<path d="M3560 7979 c-63 -4 -149 -12 -190 -18 -41 -6 -115 -15 -165 -21 -121
-15 -224 -30 -260 -40 -16 -5 -55 -12 -85 -15 -87 -10 -90 -12 -90 -53 0 -41
-7 -56 -31 -64 -14 -5 -17 -42 -23 -260 -4 -139 -10 -422 -12 -628 -4 -348 -6
-375 -22 -381 -20 -8 -305 -44 -425 -55 -80 -7 -97 -15 -77 -39 9 -11 46 -15
159 -17 131 -3 139 -4 76 -11 -97 -11 -175 -28 -175 -40 0 -11 125 0 333 30
54 7 46 23 -13 23 -27 0 -50 5 -50 10 0 6 18 10 40 10 21 0 62 5 90 11 28 6
54 9 56 6 11 -11 10 -508 0 -516 -14 -11 -114 -30 -121 -23 -3 3 -5 68 -5 145
0 77 -3 138 -6 135 -3 -4 -10 -66 -14 -139 -6 -85 -14 -137 -22 -145 -13 -12
-105 -32 -185 -41 -24 -3 -43 -10 -43 -15 0 -8 28 -8 88 -3 48 4 103 8 122 9
l35 1 3 -111 c3 -142 -3 -161 -60 -168 -24 -3 -70 -10 -103 -15 -58 -9 -56 -9
43 -8 56 0 107 -4 112 -9 11 -11 14 -462 5 -733 -5 -162 -5 -165 10 -107 12
46 16 141 18 460 l2 401 50 6 50 5 -50 5 -50 4 -3 135 c-3 155 -1 160 80 160
l48 0 0 -502 c0 -277 -3 -604 -6 -726 -8 -254 2 -234 -96 -196 -35 13 -51 15
-59 7 -15 -15 18 -44 105 -89 39 -20 79 -43 88 -51 15 -13 21 -12 52 14 36 28
36 28 36 109 0 49 5 86 13 96 8 12 36 18 97 22 47 3 128 11 180 16 52 6 140
13 195 17 l100 7 -59 10 -60 11 3 65 c3 81 -10 72 -18 -12 l-6 -63 -45 -8
c-25 -5 -84 -9 -131 -10 -54 -1 -92 -7 -102 -15 -11 -9 -39 -12 -89 -10 l-73
3 0 405 c0 594 23 2809 29 2819 6 8 62 18 366 61 80 11 170 25 200 31 125 22
246 39 286 39 38 0 44 3 50 25 3 14 4 32 0 40 -6 17 -15 17 -196 4z"/>
<path d="M6735 7650 c-3 -5 -1 -10 5 -10 6 0 20 -19 30 -42 15 -36 17 -52 9
-98 -24 -136 -109 -220 -222 -220 -50 0 -107 17 -107 32 0 6 -6 5 -15 -2 -8
-7 -15 -16 -15 -20 0 -14 56 -32 120 -37 53 -4 74 -2 110 15 58 26 113 84 139
145 33 77 26 215 -12 239 -17 11 -35 10 -42 -2z"/>
<path d="M3203 7643 c15 -2 37 -2 50 0 12 2 0 4 -28 4 -27 0 -38 -2 -22 -4z"/>
<path d="M7405 7530 c-104 -12 -176 -26 -215 -45 l-35 -16 60 6 c33 4 94 11
135 16 41 5 103 12 138 15 61 7 77 16 46 28 -17 7 -29 6 -129 -4z"/>
<path d="M3088 7476 c-5 -27 -8 -113 -8 -191 0 -125 -2 -144 -18 -158 -10 -10
-29 -17 -41 -17 -33 0 -114 -21 -126 -33 -10 -10 87 -3 131 9 13 3 27 0 35 -9
12 -13 16 -13 31 0 9 8 52 19 95 24 43 5 105 14 138 19 33 5 97 15 143 21 84
13 115 30 94 51 -14 14 -142 -5 -357 -53 -22 -5 -53 -10 -70 -11 l-30 -3 -5
200 c-4 142 -7 186 -12 151z"/>
<path d="M7599 7472 c-3 -24 3 -186 13 -360 9 -175 18 -432 19 -572 1 -140 4
-320 8 -400 l6 -145 8 259 c13 482 6 830 -24 1066 -6 47 -14 110 -18 140 l-7
55 -5 -43z"/>
<path d="M7151 7200 c-1 -80 4 -183 10 -230 6 -48 10 -274 9 -525 0 -242 3
-476 7 -520 7 -80 7 -80 15 -35 5 25 12 214 16 420 l7 375 115 6 c136 7 200
17 200 31 0 7 -55 9 -157 7 -135 -3 -158 -2 -160 11 -6 51 -24 269 -34 405
-14 214 -27 238 -28 55z"/>
<path d="M5590 7218 c25 -24 127 -78 197 -104 36 -12 68 -25 71 -28 6 -7 -59
-94 -77 -101 -7 -3 -20 0 -27 6 -10 8 -40 10 -97 5 -524 -45 -765 -45 -1011 0
-94 17 -301 84 -368 119 -27 14 -50 25 -52 25 -2 0 -6 -24 -9 -52 -4 -29 -10
-72 -13 -95 -4 -26 -3 -43 3 -43 12 0 33 45 33 71 0 12 4 19 8 17 5 -1 43 -44
85 -95 98 -117 203 -212 288 -263 37 -22 70 -40 73 -40 4 0 25 -8 49 -19 86
-37 99 -41 152 -41 66 0 70 -13 23 -61 -41 -40 -23 -49 29 -15 22 15 61 28 93
32 181 23 417 141 651 326 47 37 90 68 94 68 4 0 14 -8 22 -17 13 -16 13 -15
8 12 -5 31 5 53 57 114 31 36 49 33 87 -15 13 -17 26 -24 37 -20 13 5 13 10
-6 36 -23 32 -92 83 -125 93 -11 3 -72 24 -135 47 -159 57 -159 57 -140 38z
m-1137 -217 c81 -20 149 -35 252 -52 82 -14 482 -18 737 -6 192 9 202 6 135
-41 -144 -101 -206 -138 -312 -182 -148 -63 -316 -74 -462 -29 -123 38 -198
86 -320 203 -100 96 -126 126 -108 126 3 0 38 -8 78 -19z"/>
<path d="M3375 7098 c-109 -21 -199 -44 -190 -49 20 -11 395 39 395 53 0 11
-141 8 -205 -4z"/>
<path d="M3068 7014 c-5 -4 -7 -127 -7 -273 1 -197 4 -250 10 -206 11 71 7
490 -3 479z"/>
<path d="M3147 6951 c-4 -18 -7 -176 -7 -351 0 -354 1 -348 -65 -336 -27 5
-35 4 -35 -8 0 -12 10 -14 50 -9 39 4 50 3 51 -8 0 -8 0 -144 -1 -304 0 -159
4 -296 8 -303 11 -16 22 202 22 434 0 102 4 175 10 179 21 13 375 63 385 55 7
-6 22 -1 40 10 38 25 85 27 85 3 3 -117 -1 -516 -5 -573 l-5 -75 14 45 c11 32
17 119 22 325 5 204 10 284 19 293 13 14 84 27 210 38 67 6 95 17 95 35 0 16
-108 8 -257 -20 -23 -4 -47 -5 -53 -1 -8 5 -11 82 -10 258 0 138 -3 253 -8
256 -10 6 -22 -214 -22 -401 0 -111 -2 -123 -19 -133 -11 -5 -31 -10 -44 -10
l-25 0 -5 258 c-7 374 -25 394 -26 30 -1 -199 -4 -289 -12 -294 -6 -3 -41 -10
-78 -15 -36 -4 -95 -13 -131 -19 -36 -6 -91 -13 -122 -17 l-58 -6 -1 319 c-1
176 -4 333 -8 349 l-7 30 -7 -34z"/>
<path d="M5831 6874 c0 -11 3 -14 6 -6 3 7 2 16 -1 19 -3 4 -6 -2 -5 -13z"/>
<path d="M6417 6623 c-7 -39 -10 -43 -36 -43 -57 0 -69 -15 -16 -20 l50 -5 -3
-235 c-2 -152 1 -240 7 -250 8 -11 11 58 11 233 0 157 4 256 11 268 7 13 7 24
1 32 -6 7 -12 23 -14 37 -3 19 -5 16 -11 -17z"/>
<path d="M5140 6454 c-63 -20 -93 -23 -185 -21 -119 2 -155 -12 -64 -26 64
-10 214 -4 249 11 90 36 109 46 104 53 -7 12 -17 10 -104 -17z"/>
<path d="M4137 6283 c-8 -82 -7 -300 2 -438 6 -99 6 -99 14 85 4 102 10 238
14 303 5 100 4 117 -9 117 -11 0 -17 -17 -21 -67z"/>
<path d="M2239 6220 c-2 -41 -4 -160 -4 -265 0 -104 -4 -446 -7 -760 -7 -564
-1 -613 21 -192 6 109 11 267 11 352 0 113 3 155 13 158 10 4 10 6 0 6 -18 1
-18 272 -1 289 9 9 9 15 0 24 -8 8 -12 64 -13 182 -1 94 -4 196 -9 226 l-7 55
-4 -75z"/>
<path d="M3577 6253 c-4 -3 -7 -96 -7 -206 0 -110 2 -198 4 -196 2 2 6 69 9
149 4 80 9 171 13 203 6 53 0 70 -19 50z"/>
<path d="M4247 6174 c-10 -10 -9 -506 2 -522 18 -30 25 30 29 258 3 186 1 239
-10 253 -7 10 -17 15 -21 11z"/>
<path d="M7565 5579 c-55 -4 -190 -12 -300 -19 -110 -6 -236 -15 -280 -20 -44
-5 -176 -19 -293 -32 -205 -21 -213 -23 -208 -42 2 -12 8 -42 11 -68 10 -69
17 -72 137 -58 57 6 162 16 233 21 129 8 237 18 450 39 61 6 221 19 357 28
136 10 250 20 253 24 3 3 -6 8 -20 12 -29 7 -32 23 -7 42 16 13 15 14 -6 20
-19 6 -22 11 -17 35 l7 29 -109 -1 c-59 -1 -153 -5 -208 -10z"/>
<path d="M3720 5239 c-138 -11 -286 -29 -330 -40 -113 -28 -177 -39 -273 -50
-67 -7 -105 -15 -99 -21 12 -12 831 24 853 37 5 4 7 15 4 25 -3 10 -1 21 5 25
5 3 10 13 10 21 0 16 -7 16 -170 3z"/>
<path d="M6964 5155 c0 -55 1 -76 3 -47 2 29 2 74 0 100 -2 26 -3 2 -3 -53z"/>
<path d="M3553 4740 c0 -36 2 -50 4 -32 2 17 2 47 0 65 -2 17 -4 3 -4 -33z"/>
<path d="M2395 4630 c-11 -5 -51 -9 -88 -9 -50 -1 -68 -4 -64 -13 3 -10 32
-12 106 -10 99 2 141 12 141 32 0 12 -67 12 -95 0z"/>
<path d="M3540 4620 c-8 -5 -35 -13 -60 -18 l-45 -10 63 -1 c56 -1 62 1 62 19
0 22 1 22 -20 10z"/>
<path d="M2190 4516 c0 -24 17 -28 95 -21 54 5 75 11 75 21 0 11 -19 14 -85
14 -67 0 -85 -3 -85 -14z"/>
<path d="M6978 4482 c-69 -2 -88 -6 -88 -17 0 -13 34 -15 228 -14 230 0 328 8
286 22 -24 8 -287 14 -426 9z"/>
<path d="M3005 4310 c-3 -5 -32 -10 -63 -10 -41 0 -53 -3 -42 -10 16 -11 98
-3 115 11 6 4 31 9 55 12 l45 4 -52 1 c-28 1 -55 -2 -58 -8z"/>
<path d="M2865 4151 c-7 -89 -2 -131 16 -131 5 0 9 49 9 110 0 61 -4 110 -9
110 -5 0 -12 -40 -16 -89z"/>
<path d="M7167 4210 c-57 -4 -103 -12 -110 -19 -10 -10 1 -11 53 -7 36 4 103
10 150 14 61 5 78 9 60 14 -14 4 -32 7 -40 6 -8 0 -59 -4 -113 -8z"/>
<path d="M7367 3978 c-9 -114 -8 -324 2 -373 6 -26 9 48 10 208 0 136 -1 247
-3 247 -1 0 -6 -37 -9 -82z"/>
<path d="M7706 3708 c-4 -152 -4 -291 0 -310 12 -43 21 276 14 457 -5 118 -6
104 -14 -147z"/>
<path d="M7014 3675 c0 -93 2 -133 3 -88 2 45 2 122 0 170 -1 48 -3 12 -3 -82z"/>
<path d="M3337 3774 c-4 -4 -7 -12 -7 -18 0 -16 68 -91 76 -84 3 4 -3 17 -15
29 -12 13 -21 28 -21 34 0 18 -25 47 -33 39z"/>
<path d="M3538 3763 c7 -3 16 -2 19 1 4 3 -2 6 -13 5 -11 0 -14 -3 -6 -6z"/>
<path d="M3490 3615 c-52 -28 -95 -31 -162 -10 -56 17 -60 12 -15 -15 61 -37
164 -23 211 29 23 26 22 25 -34 -4z"/>
<path d="M6771 3558 c0 -7 4 -22 9 -33 7 -17 9 -15 9 13 1 17 -3 32 -9 32 -5
0 -10 -6 -9 -12z"/>
<path d="M7155 3480 c-60 -4 -241 -11 -402 -15 l-291 -8 -7 -36 c-4 -20 -7
-138 -7 -263 l1 -228 -42 -1 c-131 -4 -247 -15 -247 -24 0 -18 691 -6 907 16
51 5 107 9 124 9 l32 0 -6 -626 c-3 -345 -8 -628 -10 -630 -6 -7 -456 24 -692
46 -55 6 -183 16 -284 22 l-183 13 1 225 c2 207 8 260 25 231 20 -31 43 -7
101 105 52 101 60 112 68 92 11 -30 48 -69 59 -62 4 3 -2 19 -14 37 -12 17
-27 50 -33 74 -13 53 -27 59 -35 17 -8 -35 -58 -143 -76 -161 -7 -7 -22 -28
-34 -48 -49 -80 -57 -44 -63 285 -4 269 -9 330 -27 330 -15 0 -31 -412 -30
-777 1 -381 1 -383 23 -399 22 -16 22 -16 -8 -9 -51 11 -78 11 -82 -2 -9 -25
56 -35 279 -43 125 -5 242 -11 260 -14 36 -6 241 -21 498 -36 91 -5 212 -14
270 -20 408 -40 545 -49 815 -55 209 -4 217 -1 70 25 -106 19 -308 42 -557 65
-92 8 -180 20 -195 26 -28 11 -27 11 32 33 33 13 80 32 105 44 90 41 148 60
158 50 7 -7 641 -28 822 -27 48 0 52 2 30 11 -42 17 -505 50 -705 49 l-140 0
63 30 c34 16 63 30 64 32 1 1 4 155 7 342 l6 340 123 5 c93 4 125 9 132 20 8
13 -10 16 -123 20 l-132 5 3 155 c3 194 3 198 -46 202 -32 3 -37 6 -36 28 1
14 5 86 9 161 l7 136 -58 28 c-52 24 -90 40 -229 100 -70 30 -96 37 -111 31
-18 -7 105 -76 208 -117 63 -24 117 -48 138 -59 13 -6 14 -31 11 -151 -2 -79
-6 -148 -9 -153 -6 -10 -386 -1 -404 10 -7 4 -9 62 -8 168 4 230 1 356 -7 354
-5 0 -57 -4 -118 -8z m78 -267 c-3 -126 -9 -235 -14 -244 -10 -19 -218 -33
-519 -34 l-195 0 -6 210 c-3 116 -10 230 -14 254 -8 41 -7 44 11 35 20 -10
354 -7 589 5 77 4 143 5 146 4 4 -2 5 -105 2 -230z m481 -297 l49 -2 -1 -189
c-1 -105 -7 -337 -14 -518 l-12 -327 -78 -30 c-43 -17 -104 -42 -135 -56 -123
-56 -193 -84 -208 -84 -9 0 -13 60 -18 238 -5 208 -4 240 11 262 23 36 39 50
56 50 9 0 16 7 16 15 0 20 68 125 81 125 5 0 18 -13 27 -30 9 -16 22 -30 28
-30 14 0 54 82 54 110 0 11 -4 20 -10 20 -5 0 -10 -10 -10 -23 0 -30 -22 -78
-35 -74 -5 2 -23 29 -40 61 -29 56 -45 70 -53 47 -2 -6 3 -11 12 -11 26 0 19
-24 -30 -96 -58 -86 -83 -114 -102 -114 -13 0 -14 32 -9 248 4 136 7 287 7
336 l0 89 183 -8 c100 -4 204 -8 231 -9z m-711 -1283 c-13 -2 -35 -2 -50 0
-16 2 -5 4 22 4 28 0 40 -2 28 -4z"/>
<path d="M6566 3375 c12 -8 68 -26 125 -41 85 -22 124 -27 213 -26 100 0 112
-1 147 -25 54 -36 58 -53 10 -53 -35 0 -99 -23 -111 -41 -3 -3 -14 -9 -25 -12
-16 -4 -15 -5 6 -6 15 0 57 8 94 20 52 16 70 18 79 9 8 -9 8 -14 -1 -17 -7 -3
-13 -10 -13 -17 0 -22 -60 -84 -102 -105 -31 -15 -37 -21 -21 -21 49 0 143 78
143 119 0 8 31 25 34 19 1 -2 7 -14 13 -28 12 -25 12 -25 12 -2 1 27 -33 98
-63 130 -36 40 -78 51 -188 50 -57 -1 -119 3 -138 9 -41 13 -211 53 -225 53
-5 0 0 -7 11 -15z"/>
<path d="M6833 3153 c9 -2 23 -2 30 0 6 3 -1 5 -18 5 -16 0 -22 -2 -12 -5z"/>
<path d="M6710 3131 c0 -7 -14 -33 -31 -57 -35 -51 -30 -75 6 -30 40 50 50 75
37 88 -9 9 -12 9 -12 -1z"/>
<path d="M6756 3072 c-10 -17 81 -52 134 -52 27 0 50 5 50 10 0 6 -16 10 -36
10 -39 0 -112 18 -131 32 -6 5 -14 5 -17 0z"/>
<path d="M7534 2518 c-4 -5 1 -17 10 -26 15 -15 16 -15 16 0 0 9 6 18 12 20 7
3 2 7 -10 10 -12 4 -25 2 -28 -4z"/>
<path d="M7649 2505 c55 -14 76 -12 66 6 -4 5 -32 9 -63 8 l-57 -1 54 -13z"/>
<path d="M7630 2240 c-48 -46 -57 -50 -101 -50 -46 0 -129 33 -129 52 0 4 -5
8 -12 8 -17 0 21 -38 56 -56 17 -8 59 -18 93 -20 62 -5 62 -5 107 39 25 24 46
51 46 60 0 9 -2 17 -4 17 -1 0 -27 -22 -56 -50z"/>
<path d="M7425 2120 c3 -5 35 -10 70 -10 35 0 67 5 70 10 4 6 -22 10 -70 10
-48 0 -74 -4 -70 -10z"/>
<path d="M4218 3038 c-5 -132 0 -170 20 -146 8 11 27 12 84 7 104 -11 158 -10
158 1 0 14 -65 30 -155 38 l-80 7 -6 103 c-4 57 -9 105 -12 108 -2 3 -7 -50
-9 -118z"/>
<path d="M4221 2693 c-1 -116 3 -183 9 -183 12 0 13 267 1 325 -6 27 -9 -18
-10 -142z"/>
<path d="M3701 2634 c0 -11 3 -14 6 -6 3 7 2 16 -1 19 -3 4 -6 -2 -5 -13z"/>
<path d="M6770 2534 c-58 -10 -137 -27 -160 -34 -14 -5 -37 -11 -52 -14 -16
-4 -28 -11 -28 -17 0 -12 36 -7 168 23 85 19 99 20 160 8 84 -16 92 -19 92
-35 0 -22 -197 -211 -237 -227 -80 -34 -145 -48 -218 -48 -86 0 -114 11 -187
72 -66 54 -80 37 -17 -20 84 -77 85 -77 179 -76 154 1 251 30 322 99 46 44 57
31 18 -24 -30 -40 -98 -91 -123 -91 -7 0 -17 -4 -22 -8 -6 -5 -29 -15 -52 -22
-24 -7 -43 -17 -43 -23 0 -5 8 -6 18 -2 9 4 33 11 52 15 124 27 173 65 267
209 42 64 82 120 89 124 23 13 16 45 -16 67 -24 17 -49 23 -108 25 -42 2 -88
2 -102 -1z"/>
<path d="M6660 2043 c-54 -11 -134 -15 -285 -14 -217 0 -295 -11 -169 -25 129
-14 353 -9 442 11 45 10 82 21 82 26 0 4 12 10 28 12 25 4 25 4 2 4 -14 1 -59
-6 -100 -14z"/>
<path d="M3585 1670 c-379 -10 -862 -29 -1000 -40 -66 -6 -192 -10 -279 -10
-88 0 -156 -3 -153 -7 14 -13 168 -12 592 2 927 32 1083 36 1455 37 327 1 380
3 350 14 -39 14 -485 16 -965 4z"/>
<path d="M6031 1564 c46 -45 500 -103 817 -104 197 0 132 24 -133 50 -60 6
-141 15 -180 20 -38 5 -115 14 -170 20 -55 6 -134 15 -175 20 -41 6 -97 10
-125 10 -45 0 -48 -1 -34 -16z"/>
<path d="M4470 870 c-118 -4 -262 -12 -320 -18 -178 -19 -344 -32 -442 -34
l-93 -1 75 -7 c126 -12 1823 -11 1940 1 199 20 206 23 85 30 -478 30 -923 40
-1245 29z"/>
</g>
</svg>
