<?xml version="1.0" standalone="no"?>
<!DOCTYPE svg PUBLIC "-//W3C//DTD SVG 20010904//EN"
 "http://www.w3.org/TR/2001/REC-SVG-20010904/DTD/svg10.dtd">
<svg version="1.0" xmlns="http://www.w3.org/2000/svg"
 width="79.000000pt" height="147.000000pt" viewBox="0 0 79.000000 147.000000"
 preserveAspectRatio="xMidYMid meet">

<g transform="translate(0.000000,147.000000) scale(0.100000,-0.100000)"
fill="#000000" stroke="none">
<path d="M368 1396 c-57 -15 -165 -85 -228 -146 -71 -69 -95 -137 -95 -275 0
-100 3 -116 28 -170 42 -89 68 -118 165 -181 48 -31 110 -77 139 -101 91 -76
128 -202 53 -178 -24 8 -45 45 -55 100 -10 59 -19 65 -96 65 -65 0 -72 -2
-128 -42 -66 -47 -76 -64 -72 -123 7 -101 70 -199 162 -250 47 -26 64 -30 129
-30 88 1 123 16 241 106 85 65 114 104 135 182 28 104 12 202 -48 292 -44 66
-85 103 -208 188 -118 82 -137 109 -147 209 -9 105 26 91 41 -16 3 -22 11 -43
18 -48 7 -4 43 -8 79 -8 64 0 68 2 134 51 l68 52 -7 56 c-8 82 -22 124 -59
177 -53 79 -155 116 -249 90z m129 -57 c64 -24 123 -122 123 -204 0 -35 0 -35
-45 -35 -36 0 -45 3 -45 18 0 37 -23 96 -45 118 -28 28 -63 30 -112 7 -95 -44
-114 -272 -31 -360 12 -13 63 -51 113 -85 110 -76 188 -148 223 -207 54 -93
38 -263 -33 -333 -62 -63 -172 -86 -249 -54 -43 18 -103 71 -123 110 -19 37
-43 132 -35 140 3 3 24 6 47 6 41 0 43 -2 48 -34 8 -51 35 -103 63 -121 33
-22 111 -22 151 -1 57 29 85 114 63 191 -18 64 -76 125 -201 211 -132 91 -173
137 -199 222 -51 165 0 345 113 401 46 23 128 28 174 10z"/>
</g>
</svg>
