<?xml version="1.0" standalone="no"?>
<!DOCTYPE svg PUBLIC "-//W3C//DTD SVG 20010904//EN"
 "http://www.w3.org/TR/2001/REC-SVG-20010904/DTD/svg10.dtd">
<svg version="1.0" xmlns="http://www.w3.org/2000/svg"
 width="1080.000000pt" height="1080.000000pt" viewBox="0 0 1080.000000 1080.000000"
 preserveAspectRatio="xMidYMid meet">

<g transform="translate(0.000000,1080.000000) scale(0.100000,-0.100000)"
fill="#000000" stroke="none">
<path d="M5130 10365 c-121 -13 -125 -14 -260 -47 -139 -34 -294 -116 -410
-217 -51 -44 -23 -38 84 19 135 70 331 134 511 166 105 18 380 18 515 -1 340
-48 561 -159 884 -441 182 -159 218 -189 350 -298 53 -43 96 -82 96 -87 0 -9
-31 -5 -70 8 -8 2 -62 13 -119 24 -75 13 -108 16 -115 8 -14 -13 18 -39 48
-39 22 -1 93 -28 356 -135 309 -126 357 -125 208 5 -46 40 -129 107 -186 149
-143 106 -365 284 -437 352 -295 277 -501 396 -857 495 -68 19 -351 54 -428
53 -30 -1 -107 -7 -170 -14z"/>
<path d="M4875 10159 c-193 -46 -362 -132 -477 -243 -47 -45 -48 -47 -48 -106
0 -55 -10 -75 -25 -50 -16 25 -211 4 -333 -36 -65 -21 -153 -63 -176 -82 -48
-43 -130 -187 -186 -327 -47 -117 -69 -204 -90 -355 -11 -77 -25 -154 -52
-280 -32 -153 -50 -354 -41 -462 7 -95 28 -107 39 -22 7 59 21 62 26 4 2 -23
8 -35 18 -35 12 0 16 26 21 145 4 80 11 170 17 200 36 193 76 373 94 425 28
81 106 227 195 363 97 149 111 180 119 246 4 31 12 60 18 64 17 13 145 60 198
73 80 19 175 -26 279 -132 61 -63 83 -98 145 -234 l19 -40 3 42 c2 26 -7 70
-23 118 -15 42 -24 82 -22 90 3 7 31 25 61 40 121 59 390 37 576 -48 89 -40
243 -149 345 -243 83 -77 219 -197 263 -233 57 -47 70 -66 101 -155 23 -66 39
-87 88 -117 41 -26 53 -18 31 19 -20 33 -48 111 -48 133 0 8 -7 38 -15 67 -14
46 -35 71 -225 261 -332 332 -437 408 -633 460 -40 11 -106 22 -147 26 -69 6
-85 3 -190 -30 -131 -43 -152 -52 -200 -94 -40 -36 -51 -38 -73 -13 -20 22
-16 27 65 89 167 127 480 212 782 213 130 0 153 7 74 21 -69 12 -148 27 -218
43 -112 24 -248 39 -302 33 -167 -17 -396 -141 -447 -241 -14 -25 -29 -45 -35
-43 -6 2 -21 23 -33 47 l-23 44 38 39 c62 65 215 130 452 194 98 26 118 28
295 28 148 0 202 -4 245 -17 132 -40 191 -59 285 -92 108 -39 129 -43 123 -23
-16 49 -347 170 -616 226 -64 13 -280 13 -337 0z"/>
<path d="M5761 9724 c25 -28 179 -164 280 -248 33 -27 75 -75 96 -109 73 -121
163 -177 294 -185 43 -2 83 -10 88 -16 4 -6 20 -49 35 -96 43 -136 66 -177
129 -224 29 -21 49 -51 82 -122 24 -51 66 -121 93 -155 61 -75 112 -214 90
-248 -11 -18 -9 -24 17 -52 17 -17 57 -52 90 -77 101 -78 113 -97 37 -58 -40
20 -203 62 -325 84 -15 2 -36 15 -45 29 -43 62 -68 85 -146 138 -86 58 -134
76 -183 67 -30 -6 -133 -105 -133 -128 0 -7 16 -25 35 -40 19 -14 35 -30 35
-35 0 -5 -30 -9 -67 -9 -119 -1 -470 -42 -503 -60 -34 -18 -70 -11 -102 21
-31 30 -31 30 -24 112 8 99 21 196 31 220 5 12 2 17 -8 17 -14 0 -45 -55 -79
-140 -31 -75 -70 -138 -103 -165 -34 -27 -44 -30 -123 -33 -92 -3 -372 12
-532 28 -153 16 -528 23 -585 12 -27 -6 -69 -14 -92 -17 -80 -12 -43 -23 105
-30 81 -4 163 -10 182 -14 30 -7 22 -9 -50 -15 -152 -14 -290 -41 -467 -92
-35 -10 -29 18 16 84 161 238 231 509 231 895 0 92 -4 167 -8 167 -4 0 -14
-21 -21 -47 -7 -27 -20 -67 -27 -91 -15 -46 -33 -133 -60 -282 -9 -52 -32
-140 -51 -195 -19 -55 -37 -119 -40 -143 -5 -39 -10 -46 -52 -72 -42 -27 -46
-28 -49 -11 -2 10 15 55 37 100 80 163 126 315 146 481 4 30 15 104 26 164 10
59 16 113 13 118 -3 5 -17 13 -30 18 -31 12 -30 34 1 72 14 16 25 36 25 44 0
18 -146 -101 -200 -164 -42 -49 -137 -231 -165 -317 -66 -203 -105 -425 -105
-604 l0 -122 -30 -27 c-30 -28 -70 -51 -127 -72 -67 -25 -196 -261 -208 -381
-7 -63 -11 -56 108 -163 49 -44 97 -96 107 -115 27 -54 41 -156 33 -249 l-6
-83 48 -45 47 -46 92 3 91 3 5 -69 c7 -83 26 -132 67 -165 16 -14 88 -65 161
-114 73 -50 132 -95 132 -100 0 -6 -55 -38 -122 -70 -304 -148 -470 -257 -529
-349 -22 -33 -39 -64 -39 -69 0 -5 -18 -57 -41 -116 -61 -159 -117 -315 -150
-422 -17 -52 -48 -149 -70 -215 -53 -161 -94 -290 -109 -345 -7 -25 -23 -74
-35 -110 -13 -36 -33 -99 -46 -140 -12 -41 -32 -106 -44 -145 -69 -213 -70
-275 -8 -407 49 -102 128 -239 188 -323 23 -33 68 -98 100 -145 61 -91 189
-262 238 -320 97 -114 172 -190 188 -190 28 0 59 -36 59 -68 0 -15 4 -32 9
-38 26 -27 57 -155 106 -424 39 -220 70 -512 105 -1015 11 -155 24 -262 46
-405 38 -239 39 -243 98 -256 67 -14 69 -21 23 -63 -23 -21 -51 -45 -62 -54
-93 -73 -211 -176 -243 -213 -78 -88 -100 -170 -62 -231 20 -34 36 -45 115
-80 l50 -22 -212 -1 c-184 0 -304 -8 -390 -26 -14 -3 -23 -12 -23 -24 0 -52
71 -58 830 -69 371 -6 938 -16 1260 -22 883 -16 1356 -15 1404 3 47 17 57 35
24 42 -76 16 -223 28 -355 28 -84 0 -165 3 -180 8 -26 8 -24 8 15 9 52 1 186
36 224 59 23 13 33 14 60 5 47 -17 84 -21 258 -33 85 -6 189 -15 230 -20 115
-15 299 -42 355 -51 28 -5 124 -18 215 -29 91 -11 194 -24 230 -30 110 -17
280 -24 280 -12 0 13 -30 19 -145 32 -49 5 -115 15 -145 23 -30 8 -86 18 -125
22 l-70 7 50 13 c84 21 183 26 655 35 365 7 468 11 520 24 67 17 141 53 147
72 11 33 -537 47 -752 20 -60 -8 -162 -21 -225 -30 -234 -31 -526 -51 -534
-37 -10 16 118 48 289 71 102 15 133 23 283 78 167 61 203 106 152 189 -16 26
-51 48 -173 108 -85 41 -157 75 -160 75 -4 0 -31 11 -62 25 -121 56 -327 125
-371 125 -25 0 -72 -9 -107 -21 l-61 -21 -18 22 c-24 30 -23 37 11 54 16 9 31
23 35 31 17 45 -3 343 -46 705 -17 140 -17 615 0 745 48 372 54 393 199 790
29 78 31 80 66 83 19 2 40 9 46 15 10 13 31 134 51 292 23 194 29 243 41 335
7 52 13 174 13 270 1 161 -1 184 -27 285 -16 61 -44 155 -62 210 -19 55 -50
154 -70 220 -44 142 -70 221 -123 370 -92 257 -173 509 -202 629 -38 154 -61
220 -95 266 -23 31 -45 52 -165 149 -80 65 -140 123 -140 136 0 7 35 35 78 63
83 55 183 144 201 179 6 12 11 32 11 44 0 23 0 23 -27 -3 -16 -15 -77 -57
-138 -93 -122 -75 -193 -122 -214 -143 -8 -8 -39 -32 -70 -55 -31 -23 -85 -66
-121 -97 -166 -143 -441 -358 -525 -411 -133 -84 -253 -111 -439 -97 -235 17
-354 69 -791 351 -79 51 -156 99 -173 108 -17 10 -38 34 -48 55 -34 71 -111
194 -117 187 -14 -13 -6 -45 23 -100 17 -31 28 -58 26 -61 -3 -2 -17 5 -33 16
-56 39 -161 99 -273 156 -176 90 -252 139 -282 182 -34 50 -54 126 -62 234 -4
47 -16 148 -28 225 -12 77 -24 185 -27 240 -6 94 -8 98 -20 70 -41 -90 -53
-308 -25 -432 19 -83 19 -103 1 -116 -9 -6 -9 -10 1 -14 21 -8 3 -23 -29 -23
-35 0 -76 20 -103 49 -28 31 -17 131 30 267 32 94 38 127 44 239 9 146 5 161
-55 214 -38 33 -75 41 -75 16 0 -9 12 -26 26 -38 25 -22 26 -25 29 -185 l4
-164 -47 49 c-26 26 -75 68 -110 93 -72 50 -97 87 -88 134 6 33 74 171 108
219 47 66 123 72 235 17 82 -41 142 -109 183 -208 50 -120 66 -146 122 -208
102 -110 313 -229 489 -274 110 -28 499 12 626 65 20 9 40 12 44 8 4 -5 3 -26
-3 -48 -18 -66 0 -89 122 -160 175 -102 256 -127 410 -128 120 0 180 18 262
78 49 36 118 127 118 156 0 9 -9 28 -20 42 -11 14 -20 28 -20 32 0 4 28 4 63
1 147 -14 402 -18 461 -7 111 21 257 63 288 85 24 16 37 38 55 91 13 38 27 73
32 78 5 5 15 -10 24 -35 9 -24 45 -127 81 -230 67 -192 143 -378 156 -378 15
0 17 12 10 43 -23 92 -65 229 -87 287 -14 36 -39 101 -56 145 -16 44 -33 85
-37 90 -4 6 -17 41 -30 78 -18 57 -20 75 -12 115 6 26 16 83 22 127 13 91 44
191 70 225 14 19 23 21 57 16 44 -8 99 -48 125 -93 16 -28 16 -29 -26 -94
-124 -194 -124 -239 0 -132 94 82 144 145 144 181 0 34 -113 206 -186 284 -30
31 -54 59 -54 63 0 3 29 5 63 4 80 -3 99 7 66 32 -13 10 -31 19 -39 19 -9 0
-20 4 -25 8 -6 5 -35 15 -66 22 -31 7 -65 20 -77 29 -12 9 -44 63 -73 121 -28
58 -71 133 -96 168 -63 88 -268 486 -279 541 -9 45 5 51 84 34 37 -8 85 -12
107 -11 l40 3 -70 23 c-38 13 -90 26 -115 29 -126 15 -462 165 -595 264 -251
188 -293 219 -300 219 -5 0 2 -12 16 -26z m789 -1401 c72 -36 130 -70 130 -75
0 -4 -31 -8 -69 -8 -68 0 -68 0 -93 38 -17 25 -44 46 -86 66 -60 28 -71 46
-31 46 11 0 78 -30 149 -67z m-2735 -179 c0 -12 -35 -115 -47 -136 -8 -16 -12
-15 -52 11 -24 15 -69 33 -100 41 -51 12 -76 30 -43 30 8 0 31 15 51 33 36 30
42 32 114 31 43 -1 77 -6 77 -10z m2929 -44 c21 -8 26 -16 26 -43 0 -32 -20
-178 -36 -263 -7 -36 -6 -38 10 -25 40 33 94 161 111 264 4 23 11 37 20 37 18
0 20 -49 6 -113 -5 -23 -15 -76 -21 -117 -6 -41 -18 -109 -27 -150 -9 -41 -19
-94 -23 -118 -4 -24 -11 -47 -17 -53 -8 -8 -52 -22 -273 -86 -34 -10 -93 -16
-155 -16 -86 0 -113 4 -194 32 -155 53 -237 104 -286 180 -25 38 -74 179 -95
274 -17 73 -7 97 57 137 74 47 83 43 83 -37 0 -38 -5 -123 -12 -191 -11 -119
-11 -124 9 -144 19 -18 32 -20 135 -19 141 1 426 20 453 30 13 5 -3 10 -50 14
-179 17 -285 32 -285 39 0 5 5 17 12 27 8 14 8 57 0 176 -7 86 -10 161 -7 165
7 12 528 12 559 0z m-1870 -8 c17 -29 28 -347 11 -330 -2 2 -9 59 -15 128 -22
223 -46 190 -37 -51 l5 -148 -76 -4 c-89 -6 -435 -44 -473 -53 -26 -6 -26 -5
-33 68 -3 40 -18 122 -31 183 -27 119 -30 141 -16 149 17 11 293 39 531 55 63
4 118 9 122 9 4 1 9 -2 12 -6z m367 -32 c78 -14 99 -41 99 -130 0 -83 -32
-183 -88 -278 -22 -37 -51 -88 -63 -115 -17 -36 -33 -52 -64 -66 -176 -83
-238 -96 -440 -96 -205 1 -301 23 -439 103 -65 38 -158 116 -204 171 -36 44
-132 193 -132 207 0 3 -16 29 -36 56 -24 32 -33 53 -27 59 5 5 43 10 84 11 82
1 132 -18 180 -66 14 -14 47 -77 74 -141 27 -63 52 -115 57 -115 4 0 8 -11 8
-24 0 -20 6 -24 48 -30 26 -3 137 -2 247 4 110 5 277 10 370 10 187 0 206 3
223 30 11 19 10 26 -28 200 -12 52 -9 188 5 210 8 13 57 13 126 0z m401 -22
c36 -17 58 -58 58 -107 0 -154 76 -311 216 -447 52 -50 53 -51 60 -126 6 -68
4 -81 -17 -123 -24 -48 -85 -102 -159 -141 -49 -26 -261 -27 -340 -1 -86 27
-172 80 -207 125 -31 41 -32 44 -26 115 7 80 19 114 86 234 45 82 112 244 140
339 22 74 43 111 75 128 33 19 80 20 114 4z m1145 -1555 c22 -21 72 -67 112
-102 90 -79 111 -112 152 -237 18 -54 59 -173 92 -264 108 -301 205 -602 257
-800 58 -222 57 -218 100 -359 17 -58 29 -114 26 -127 -8 -29 -56 -48 -101
-40 -20 4 -58 20 -86 37 -92 54 -95 29 -6 -56 67 -64 150 -112 210 -122 42 -6
42 -4 27 -133 -5 -47 -14 -161 -20 -255 -10 -174 -14 -208 -52 -400 -22 -116
-40 -165 -61 -165 -7 0 -51 11 -97 24 -47 13 -110 30 -140 37 -71 17 -76 21
-57 61 14 29 28 81 57 213 5 22 14 81 20 130 19 151 64 307 107 370 7 11 13
25 13 31 0 7 -34 29 -75 50 -116 59 -119 63 -104 170 11 86 9 251 -7 470 -5
68 -3 106 10 155 15 63 21 122 9 89 -3 -8 -9 -17 -12 -20 -3 -3 -22 -39 -41
-80 -19 -41 -101 -174 -181 -295 -207 -312 -330 -518 -317 -531 4 -3 15 -1 26
5 12 6 29 11 40 11 54 0 141 80 187 171 57 113 96 168 157 218 34 27 64 49 66
46 2 -2 -1 -27 -7 -57 -5 -29 -15 -93 -21 -143 -13 -102 -20 -124 -65 -230
-43 -100 -65 -134 -136 -211 -129 -140 -162 -242 -99 -306 28 -27 36 -30 76
-25 25 2 72 19 105 36 55 29 88 41 64 23 -17 -12 -139 -163 -171 -212 -34 -51
-61 -105 -66 -135 -2 -17 2 -19 25 -17 50 5 130 47 202 105 39 31 72 52 73 46
7 -17 -77 -115 -175 -206 -53 -48 -101 -93 -107 -99 -16 -15 -90 -64 -97 -64
-4 0 -21 24 -38 54 -40 72 -86 123 -140 158 -65 41 -71 38 -71 -34 0 -57 -1
-61 -16 -47 -22 23 -47 145 -74 369 -6 52 -16 124 -21 160 -5 36 -18 151 -29
255 -12 105 -28 235 -37 290 -22 140 -20 217 6 295 22 66 70 311 96 495 28
191 37 250 46 304 5 30 9 69 9 87 0 44 16 51 48 21 53 -48 78 -59 122 -52 39
7 40 6 40 -21 0 -15 11 -46 24 -68 l24 -42 -19 -54 c-11 -30 -33 -94 -49 -142
-33 -99 -118 -311 -165 -413 -18 -38 -42 -90 -53 -115 -11 -25 -36 -80 -56
-124 -41 -91 -44 -107 -15 -80 55 49 213 311 342 570 101 201 117 247 117 326
l0 69 -51 49 c-60 58 -60 62 6 203 64 137 66 164 13 239 -10 13 -24 62 -33
109 -8 46 -28 131 -45 189 -16 58 -30 110 -30 117 0 13 68 63 86 63 6 0 29
-17 51 -37z m-2577 -1 c0 -4 -18 -32 -41 -62 -52 -70 -116 -179 -135 -233 -22
-59 -74 -267 -74 -296 0 -19 4 -22 22 -18 16 5 40 -9 98 -59 110 -92 112 -98
68 -187 -55 -109 -55 -107 -2 -157 25 -25 73 -85 107 -135 33 -49 82 -118 108
-151 26 -34 76 -106 110 -160 74 -116 70 -111 224 -292 66 -77 135 -159 153
-181 18 -23 37 -41 43 -41 5 0 9 15 9 34 0 41 -73 153 -205 311 -83 100 -175
226 -175 239 0 3 -36 60 -80 126 -49 74 -85 142 -96 178 -9 31 -26 86 -37 121
l-21 63 33 62 c39 72 59 96 78 96 23 0 14 20 -19 39 -70 41 -256 175 -267 193
-10 16 -9 25 6 51 10 18 25 52 32 77 30 100 55 168 81 220 15 30 33 72 39 93
21 64 54 45 65 -39 3 -28 17 -93 31 -145 13 -51 22 -96 19 -101 -3 -4 2 -5 10
-2 22 8 282 -257 347 -353 178 -262 361 -506 387 -517 23 -10 37 5 106 109 80
120 96 133 96 74 0 -22 7 -56 15 -76 32 -77 13 -262 -60 -583 -101 -444 -141
-716 -124 -839 10 -73 2 -94 -30 -74 -15 9 -23 9 -37 -2 -16 -11 -17 -18 -7
-52 22 -77 48 -143 56 -143 12 0 7 43 -13 104 -11 33 -20 63 -20 68 0 16 35 7
104 -27 39 -19 103 -46 141 -60 72 -27 170 -77 310 -158 74 -43 80 -45 97 -30
10 9 61 101 114 204 103 203 172 316 226 371 l35 35 -19 36 c-10 21 -41 99
-67 175 -27 75 -75 209 -106 297 -86 241 -205 606 -205 628 0 11 36 71 80 134
45 62 83 120 87 128 9 25 30 17 44 -17 7 -17 30 -51 51 -75 20 -24 55 -74 77
-111 21 -37 50 -78 64 -91 l25 -23 15 28 c7 16 19 54 25 84 6 30 16 80 23 110
18 88 81 293 97 315 13 18 14 14 8 -40 -6 -61 -31 -224 -68 -440 -11 -66 -23
-145 -28 -175 -19 -125 -31 -199 -43 -260 -15 -84 -15 -383 1 -480 6 -41 17
-104 22 -140 6 -36 15 -110 20 -165 21 -225 50 -510 70 -674 17 -147 25 -183
50 -237 35 -73 63 -98 133 -119 73 -22 154 -19 218 7 57 23 258 150 296 186
15 15 23 39 28 79 10 85 11 88 38 71 43 -29 64 -74 76 -165 20 -140 30 -463
19 -633 -23 -393 -26 -565 -12 -775 15 -234 23 -296 64 -470 15 -66 31 -148
34 -182 7 -62 7 -62 -21 -69 -15 -3 -64 -23 -108 -44 -103 -50 -521 -190 -566
-190 -39 0 -110 40 -152 85 -39 43 -134 235 -197 400 -5 11 -15 36 -23 55 -8
19 -44 110 -80 201 -36 91 -75 187 -86 213 -12 26 -47 111 -78 189 -30 78 -83
196 -115 262 -33 66 -67 142 -76 170 -23 79 -19 215 8 215 9 0 60 -101 60
-120 0 -21 70 -171 101 -216 38 -56 167 -223 210 -272 23 -26 29 -42 29 -81 0
-27 13 -89 29 -138 15 -48 45 -142 65 -208 42 -133 168 -401 240 -510 26 -39
63 -81 83 -95 34 -23 46 -25 147 -25 99 0 116 3 156 25 75 42 118 130 107 220
-5 39 -56 176 -112 305 -28 65 -64 165 -58 165 3 0 27 -8 53 -17 56 -20 80 -9
80 35 0 40 -64 91 -196 156 -116 58 -123 63 -263 203 -79 78 -142 145 -139
148 3 3 20 -1 39 -9 19 -8 72 -22 118 -31 46 -9 102 -23 124 -31 49 -17 70
-12 86 23 11 24 9 29 -42 79 -30 29 -88 74 -128 101 -68 45 -74 52 -79 89 -12
89 -76 150 -245 233 -171 85 -242 105 -375 106 -63 1 -117 5 -119 11 -8 17 63
44 119 44 81 0 203 -18 308 -46 91 -25 142 -28 143 -10 0 12 -98 44 -176 58
-33 5 -116 13 -185 18 -69 4 -156 15 -195 24 -77 18 -181 21 -217 7 -13 -5
-49 -17 -81 -26 -67 -20 -80 -14 -91 43 -5 31 -3 34 30 48 20 9 55 14 78 12
40 -3 42 0 38 32 -1 5 -23 24 -49 42 -44 30 -53 32 -131 32 l-83 0 3 41 3 40
45 0 c111 2 95 44 -68 184 -36 30 -76 76 -93 106 -16 29 -37 59 -46 67 -15 12
-16 10 -9 -16 17 -68 18 -86 7 -86 -18 0 -63 105 -59 137 3 27 4 28 61 25 45
-2 57 1 57 13 0 19 -65 36 -141 36 l-60 1 6 31 c3 18 10 73 15 122 5 50 14
122 20 160 23 160 32 320 28 492 l-5 182 -41 103 c-22 57 -53 137 -68 178 -43
117 -178 388 -182 366 -2 -10 0 -28 6 -40 5 -11 15 -41 22 -66 7 -25 19 -63
27 -85 8 -22 25 -71 38 -110 36 -105 112 -275 134 -299 18 -20 19 -33 16 -201
-2 -99 -8 -209 -14 -245 -11 -72 -17 -123 -32 -250 -19 -168 -31 -247 -59
-390 -16 -80 -34 -196 -39 -258 -6 -62 -13 -118 -17 -124 -20 -32 -251 21
-419 97 -164 74 -185 85 -185 97 0 7 14 35 32 63 l31 50 16 -25 c43 -67 84
-99 169 -135 97 -40 285 -105 306 -105 23 0 46 47 46 92 0 34 -8 52 -35 87
-48 60 -312 331 -353 361 -23 17 -36 37 -42 65 -5 22 -7 41 -5 44 3 2 16 -4
29 -13 14 -9 31 -16 39 -16 8 0 39 -18 71 -40 83 -59 114 -72 167 -74 64 -1
85 18 82 80 -2 64 -31 139 -73 187 -19 22 -79 76 -133 119 -54 43 -95 78 -91
78 4 0 32 -9 63 -19 50 -17 85 -26 239 -63 89 -21 122 18 102 122 -20 108 -33
118 -318 271 -82 44 -110 67 -194 154 -63 65 -73 81 -57 83 48 8 -5 128 -111
250 -94 108 -105 137 -166 417 -40 185 -97 340 -138 374 -12 11 -20 6 -46 -31
-63 -86 -80 -145 -80 -272 0 -100 0 -100 50 -201 47 -96 68 -165 116 -390 32
-151 58 -345 52 -390 l-4 -30 -11 25 c-6 14 -16 59 -23 100 -6 41 -15 88 -18
104 -9 35 -32 47 -32 17 0 -35 -49 -123 -66 -119 -33 6 -68 128 -93 318 -53
397 -75 623 -75 740 0 96 37 217 94 304 27 41 111 138 189 217 134 137 162
179 109 164 -141 -42 -419 -257 -480 -372 -13 -24 -27 -43 -31 -43 -9 0 -47
86 -47 107 0 56 151 165 391 283 87 43 171 83 187 89 156 63 162 65 162 53z
m2398 -114 c19 -76 23 -101 32 -228 22 -290 22 -278 -8 -364 -15 -44 -34 -84
-43 -89 -18 -11 -116 30 -139 58 -13 16 -2 112 32 280 5 28 12 106 15 175 l5
125 42 42 c22 23 44 42 47 42 4 1 11 -18 17 -41z m-2102 -24 c26 -15 93 -56
149 -93 56 -36 145 -93 199 -126 53 -33 140 -88 194 -122 53 -34 127 -77 164
-95 l68 -32 -24 -26 c-44 -47 -166 -204 -166 -213 0 -14 26 9 103 90 68 72
135 113 182 113 14 0 25 -3 25 -6 0 -8 -172 -307 -210 -364 -9 -13 -11 -13
-20 0 -5 8 -10 25 -10 38 0 40 -28 23 -56 -34 l-27 -55 -29 28 c-45 42 -152
189 -269 368 -58 88 -145 207 -193 264 -48 57 -94 118 -103 135 -20 37 -44
136 -37 148 7 11 8 11 60 -18z m1924 -91 c0 -11 -54 -163 -90 -253 -28 -69
-46 -129 -113 -360 -27 -94 -46 -179 -50 -225 -1 -16 -7 -30 -13 -30 -20 0
-168 207 -256 359 l-87 151 49 25 c26 14 70 36 97 49 59 30 353 222 402 262
34 28 61 37 61 22z m-2819 -978 c21 -71 23 -97 21 -235 -2 -105 3 -192 14
-270 9 -63 17 -149 18 -190 1 -71 0 -75 -22 -78 -13 -2 -28 -14 -34 -27 -14
-31 -5 -42 81 -103 37 -26 109 -80 162 -122 53 -41 129 -100 168 -130 98 -75
126 -118 126 -189 -1 -65 -15 -89 -142 -237 -154 -181 -229 -272 -271 -332
-24 -33 -50 -63 -57 -65 -7 -3 -43 30 -84 77 -70 80 -129 165 -302 431 -47 72
-126 193 -177 270 -91 140 -122 198 -122 232 0 32 66 157 96 184 16 14 41 40
55 57 27 36 74 49 276 77 135 19 151 24 168 48 21 30 19 68 -10 172 -23 83
-25 107 -25 300 0 115 3 228 7 250 l6 40 13 -40 c6 -22 22 -76 35 -120z m639
-1459 c0 -16 -15 -36 -43 -59 -30 -24 -47 -49 -56 -79 -52 -169 -91 -255 -171
-373 -73 -108 -118 -130 -194 -96 -27 12 -46 26 -46 36 0 9 22 40 48 68 67 72
198 228 263 312 107 138 182 225 190 219 5 -3 9 -16 9 -28z m3105 -436 c7 0
16 -4 19 -8 5 -9 -52 -188 -78 -247 -8 -16 -17 -41 -21 -54 -4 -12 -11 -19
-15 -15 -9 10 -36 118 -46 184 -8 55 -43 127 -84 173 -28 33 -37 57 -24 69 3
3 57 -18 120 -48 63 -30 121 -54 129 -54z m-2801 -452 c-14 -101 -18 -247 -8
-272 14 -36 30 -12 74 109 20 57 53 105 72 105 4 0 8 -30 8 -67 0 -80 13 -111
29 -73 6 14 22 39 37 55 26 30 26 30 21 5 -3 -14 -17 -74 -30 -135 -47 -213
-58 -425 -23 -425 13 0 44 88 66 190 12 54 82 190 88 171 3 -10 -40 -313 -64
-441 -18 -98 -36 -174 -65 -280 -39 -136 -42 -241 -9 -248 22 -3 130 173 130
213 0 8 5 15 11 15 9 0 10 -74 4 -280 -5 -198 -4 -280 4 -280 12 0 43 56 78
139 28 66 52 171 97 421 36 203 42 237 76 460 27 172 46 267 66 327 17 53 85
175 93 168 2 -3 -3 -31 -12 -62 -9 -32 -20 -134 -26 -228 -5 -93 -21 -258 -35
-365 -23 -172 -36 -244 -66 -380 -4 -19 -13 -57 -19 -85 -15 -68 -26 -111 -45
-170 -22 -71 -101 -360 -116 -425 -7 -30 -16 -68 -21 -84 -5 -16 -9 -44 -9
-62 0 -40 13 -38 -160 -19 -74 8 -200 22 -279 30 -139 16 -195 26 -291 58 -25
8 -64 20 -88 27 -23 7 -47 18 -52 25 -11 13 -80 689 -80 786 0 25 17 25 25 -2
4 -11 31 -72 61 -135 48 -100 58 -115 77 -112 21 3 22 9 25 98 5 145 -12 227
-96 455 -17 44 -39 101 -50 127 -37 83 -72 311 -56 360 6 19 12 12 41 -47 20
-39 48 -105 64 -148 39 -105 72 -167 104 -197 34 -32 40 -22 55 89 7 47 19
119 27 159 21 100 10 154 -67 318 -39 84 -53 165 -31 179 14 8 32 -14 126
-160 72 -112 90 -134 101 -123 7 7 24 56 39 108 26 94 79 200 100 200 7 0 7
-28 -1 -92z m1126 -252 c0 -8 -5 -48 -10 -89 -17 -118 9 -231 98 -428 11 -24
72 -174 137 -334 64 -159 125 -308 135 -330 10 -22 43 -99 73 -170 127 -297
203 -429 255 -441 55 -12 55 -12 48 -57 -5 -35 -1 -51 23 -94 16 -29 26 -55
22 -57 -4 -3 -41 -14 -82 -25 -56 -15 -132 -22 -309 -30 -516 -23 -772 -38
-1011 -57 -80 -6 -86 -1 -101 90 l-11 65 51 78 c81 124 88 142 123 358 6 39
15 84 19 100 14 47 45 173 96 380 25 105 59 233 75 285 16 52 34 113 41 135
83 295 249 635 309 635 10 0 19 -6 19 -14z m2073 -1882 c161 -80 298 -149 306
-153 26 -13 21 -26 -18 -45 l-40 -19 -113 36 c-62 20 -162 50 -223 67 -60 18
-119 37 -130 43 -22 11 -206 183 -218 204 -6 10 7 13 68 13 l76 0 292 -146z
m-3733 -171 c-17 -26 -30 -52 -30 -58 0 -21 -55 -63 -90 -69 -39 -7 -92 4 -97
21 -2 6 18 26 44 45 49 34 182 107 195 108 4 0 -6 -21 -22 -47z m911 -70 c10
-45 9 -61 -6 -110 -25 -80 -51 -130 -78 -147 -27 -17 -154 -29 -162 -16 -4 6
-1 10 4 10 6 0 44 32 85 71 79 74 93 101 116 213 14 66 23 62 41 -21z m-145
-38 c-10 -40 -53 -75 -92 -75 -19 0 -34 5 -34 10 0 6 6 10 14 10 19 0 76 48
76 64 0 7 5 17 12 24 18 18 32 -2 24 -33z"/>
<path d="M5973 7607 c38 -29 264 -147 282 -147 8 0 15 4 15 8 0 10 -64 62
-105 85 -51 29 -177 77 -199 76 -19 0 -19 -2 7 -22z"/>
<path d="M5561 7902 c-12 -23 9 -173 31 -218 19 -40 43 -45 35 -8 -3 16 -14
74 -23 129 -18 109 -26 128 -43 97z"/>
<path d="M5466 7769 c-4 -22 -4 -57 0 -77 8 -44 48 -137 62 -146 22 -14 22 17
-3 111 -14 53 -25 110 -25 125 0 45 -26 34 -34 -13z"/>
<path d="M6995 5757 c-3 -23 -9 -135 -11 -250 -4 -207 -4 -207 -33 -255 -15
-26 -44 -76 -63 -112 -73 -136 -176 -308 -231 -386 -95 -135 -109 -196 -37
-159 47 24 111 94 219 240 233 313 235 323 185 883 -8 84 -18 99 -29 39z"/>
<path d="M6476 5582 c-13 -21 18 -70 69 -111 31 -23 60 -41 67 -39 6 2 -12 31
-39 63 -63 75 -89 99 -97 87z"/>
<path d="M6436 5251 c-6 -9 18 -32 52 -50 31 -16 28 2 -5 34 -30 27 -39 30
-47 16z"/>
<path d="M7300 4873 c0 -7 5 -13 10 -13 6 0 10 -6 10 -13 0 -8 11 -24 25 -37
14 -13 25 -18 25 -12 0 17 -69 90 -70 75z"/>
<path d="M7270 4769 c0 -40 42 -98 85 -119 49 -24 110 -27 118 -6 10 25 -44
72 -88 79 -24 4 -53 19 -72 37 -38 36 -43 37 -43 9z"/>
<path d="M6952 4586 c-17 -19 -46 -65 -66 -103 -20 -37 -77 -120 -127 -183
-85 -109 -145 -207 -133 -219 2 -3 14 1 26 8 11 7 36 21 54 32 46 26 177 132
210 172 42 49 80 144 93 230 6 43 11 82 11 87 0 22 -40 8 -68 -24z"/>
<path d="M7435 4150 c-11 -17 -35 -183 -35 -240 0 -58 13 -92 28 -75 5 6 20
37 33 70 30 74 32 163 6 218 -19 40 -22 42 -32 27z"/>
<path d="M4462 5940 c-17 -40 -18 -50 -7 -50 8 0 17 11 21 24 9 37 27 22 59
-49 17 -36 34 -65 39 -65 4 0 5 8 1 18 -4 9 -11 31 -15 47 -13 54 -49 125 -63
125 -8 0 -24 -22 -35 -50z"/>
<path d="M4310 5960 c0 -5 5 -10 11 -10 5 0 7 5 4 10 -3 6 -8 10 -11 10 -2 0
-4 -4 -4 -10z"/>
<path d="M4505 5563 c-11 -14 -33 -40 -48 -56 -15 -16 -25 -32 -22 -36 4 -3
18 8 33 26 79 91 80 93 64 93 -4 0 -16 -12 -27 -27z"/>
<path d="M4580 5175 c-7 -9 -11 -17 -9 -20 3 -2 10 5 17 15 14 24 10 26 -8 5z"/>
<path d="M4410 4928 c1 -43 50 -164 79 -194 13 -13 31 -24 41 -24 10 0 20 -3
22 -7 2 -5 34 -24 72 -43 65 -33 126 -90 126 -117 0 -7 5 -13 11 -13 16 0 2
48 -26 92 -25 38 -113 88 -157 88 -40 1 -56 24 -77 109 -21 85 -52 141 -77
141 -9 0 -14 -11 -14 -32z"/>
<path d="M6510 5982 c0 -10 24 -38 57 -65 38 -32 34 -1 -4 37 -37 36 -53 44
-53 28z"/>
<path d="M3163 4523 c-28 -29 -32 -38 -20 -44 8 -5 75 -10 149 -11 137 -3 168
4 168 37 0 19 -138 55 -216 55 -41 0 -51 -5 -81 -37z"/>
<path d="M3156 4378 c-11 -35 -14 -185 -6 -230 15 -75 96 -228 122 -228 5 0
23 14 39 31 26 28 29 38 29 95 0 96 -44 203 -122 297 -41 48 -56 56 -62 35z"/>
<path d="M3430 4008 c0 -46 -7 -131 -16 -191 -15 -105 -13 -157 6 -157 16 0
48 54 69 118 31 91 28 149 -13 238 -19 41 -37 74 -40 74 -3 0 -6 -37 -6 -82z"/>
<path d="M3602 3878 c-80 -133 -94 -248 -30 -248 18 0 76 71 103 127 15 30 14
36 -9 90 -13 31 -28 59 -34 61 -5 1 -19 -12 -30 -30z"/>
<path d="M3729 3688 c-64 -69 -126 -258 -85 -258 29 0 148 271 125 286 -5 3
-23 -10 -40 -28z"/>
<path d="M6648 9324 c-11 -10 11 -34 31 -34 9 0 41 -9 71 -21 30 -11 76 -29
103 -38 26 -10 50 -21 55 -25 4 -4 7 -103 7 -219 1 -202 2 -216 27 -295 40
-122 114 -252 136 -238 5 3 -4 79 -20 168 -39 218 -45 266 -53 378 -4 52 -13
119 -20 148 -13 51 -13 52 9 52 13 0 36 -5 52 -10 l29 -10 0 -138 c1 -104 7
-174 28 -287 15 -82 34 -190 43 -240 16 -92 28 -125 44 -125 19 0 21 46 10
247 -11 202 -23 281 -69 448 -12 46 -15 72 -8 76 9 7 103 -17 162 -41 52 -21
85 -29 85 -20 0 15 -131 93 -196 117 -99 35 -320 90 -397 97 -37 4 -80 9 -95
12 -15 3 -30 2 -34 -2z"/>
<path d="M5970 9149 c0 -16 74 -121 106 -150 42 -38 155 -112 161 -105 9 9
-18 66 -60 129 -26 40 -58 71 -99 98 -59 37 -108 51 -108 28z"/>
<path d="M4590 8381 c-14 -5 -53 -20 -87 -35 -50 -21 -78 -26 -144 -26 -154 0
-68 -15 124 -22 106 -3 215 -11 242 -17 61 -13 160 -28 238 -35 49 -4 57 -2
57 12 0 20 -170 106 -240 122 -53 11 -154 12 -190 1z"/>
<path d="M7088 7821 c-29 -41 -49 -99 -30 -87 6 4 19 24 29 44 9 20 21 40 26
43 5 4 7 13 5 22 -2 11 -11 5 -30 -22z"/>
<path d="M4719 7080 c-73 -55 -127 -107 -144 -139 -16 -32 -41 -148 -33 -156
11 -12 34 8 62 53 16 26 51 83 78 127 27 44 66 97 86 118 49 50 21 49 -49 -3z"/>
<path d="M6353 6833 c8 -49 71 -174 103 -204 21 -20 27 -21 34 -9 26 41 -2
118 -73 202 -50 60 -72 63 -64 11z"/>
<path d="M6006 6653 c-12 -12 -79 -32 -131 -38 -27 -4 -113 -8 -190 -9 -242
-4 -346 -49 -579 -248 -68 -59 -41 -59 46 -1 170 114 310 159 568 183 63 6
144 18 180 27 77 18 139 57 140 86 0 9 -24 9 -34 0z"/>
<path d="M2390 480 c-157 -4 -252 -10 -265 -18 -16 -9 13 -12 140 -12 226 -1
395 -14 675 -54 165 -23 298 -29 444 -21 105 5 136 10 136 21 0 15 -35 35 -95
52 -45 13 -564 43 -702 40 -48 -1 -198 -4 -333 -8z"/>
</g>
</svg>
