<?xml version="1.0" standalone="no"?>
<!DOCTYPE svg PUBLIC "-//W3C//DTD SVG 20010904//EN"
 "http://www.w3.org/TR/2001/REC-SVG-20010904/DTD/svg10.dtd">
<svg version="1.0" xmlns="http://www.w3.org/2000/svg"
 width="512.000000pt" height="512.000000pt" viewBox="0 0 512.000000 512.000000"
 preserveAspectRatio="xMidYMid meet">

<g transform="translate(0.000000,512.000000) scale(0.100000,-0.100000)"
fill="#000000" stroke="none">
<path d="M725 4673 c-121 -44 -205 -118 -258 -231 -30 -63 -32 -74 -32 -177 0
-194 -52 -131 794 -977 l726 -728 -726 -727 c-846 -848 -794 -784 -794 -978 0
-108 1 -113 37 -186 46 -93 112 -158 206 -202 63 -30 74 -32 177 -32 194 0
131 -52 978 794 l727 726 728 -726 c847 -846 783 -794 977 -794 108 0 113 1
186 37 93 46 158 112 202 206 30 63 32 74 32 177 0 194 52 131 -794 978 l-726
727 726 728 c846 846 794 783 794 977 0 103 -2 114 -32 177 -44 94 -109 160
-202 206 -73 36 -78 37 -186 37 -194 0 -130 52 -977 -794 l-728 -726 -727 726
c-679 678 -733 729 -797 760 -61 30 -80 34 -165 36 -73 3 -108 -1 -146 -14z"/>
</g>
</svg>
