<svg id="svg" xmlns="http://www.w3.org/2000/svg" xmlns:xlink="http://www.w3.org/1999/xlink" width="400" height="400" viewBox="0, 0, 400,400"><g id="svgg"><path id="path0" d="M47.048 10.821 C -3.370 36.309,-13.556 103.499,27.041 142.788 L 38.217 153.604 95.910 95.910 L 153.604 38.217 142.788 27.041 C 118.055 1.484,78.704 -5.183,47.048 10.821 M115.637 117.016 L 58.533 174.168 142.191 257.826 L 225.848 341.483 283.660 283.671 L 341.472 225.859 258.508 142.862 C 212.878 97.213,174.913 59.864,174.142 59.864 C 173.371 59.864,147.044 85.582,115.637 117.016 M305.199 305.685 L 247.142 363.789 310.646 379.199 C 408.234 402.879,403.525 407.692,378.830 309.505 L 363.256 247.581 305.199 305.685 " stroke="none" fill="#000000" fill-rule="evenodd"></path></g></svg>