<?xml version="1.0" standalone="no"?>
<!DOCTYPE svg PUBLIC "-//W3C//DTD SVG 20010904//EN"
 "http://www.w3.org/TR/2001/REC-SVG-20010904/DTD/svg10.dtd">
<svg version="1.0" xmlns="http://www.w3.org/2000/svg"
 width="2598.000000pt" height="2879.000000pt" viewBox="0 0 2598.000000 2879.000000"
 preserveAspectRatio="xMidYMid meet">

<g transform="translate(0.000000,2879.000000) scale(0.100000,-0.100000)"
fill="#000000" stroke="none">
<path d="M9745 28779 c-27 -4 -97 -13 -155 -19 -113 -11 -129 -15 -175 -35
-16 -7 -63 -18 -103 -24 -41 -6 -86 -18 -101 -25 -14 -8 -53 -22 -86 -31 -33
-10 -69 -23 -80 -30 -11 -7 -43 -20 -72 -29 -28 -10 -57 -23 -63 -31 -6 -8
-26 -17 -43 -21 -36 -8 -146 -64 -184 -94 -14 -11 -31 -20 -39 -20 -7 0 -25
-11 -41 -24 -15 -13 -41 -31 -58 -40 -71 -40 -198 -135 -297 -223 -38 -35 -73
-63 -77 -63 -22 0 -381 -394 -381 -418 0 -6 -8 -17 -18 -24 -18 -14 -28 -26
-95 -128 -56 -84 -81 -125 -108 -177 -12 -24 -25 -43 -29 -43 -5 0 -14 -17
-20 -37 -7 -21 -37 -88 -66 -149 -30 -61 -54 -120 -54 -131 0 -11 -11 -40 -23
-64 -13 -24 -27 -61 -31 -82 -4 -21 -18 -70 -30 -110 -13 -39 -27 -97 -31
-127 -4 -30 -12 -66 -18 -80 -5 -14 -17 -65 -25 -115 -12 -76 -15 -332 -18
-1680 -2 -874 -6 -1600 -9 -1612 -4 -15 -17 -26 -43 -33 -33 -10 -1030 -10
-4297 0 -60 1 -420 -3 -800 -9 -727 -9 -938 -21 -989 -54 -14 -10 -58 -24 -98
-32 -40 -9 -79 -22 -88 -30 -9 -8 -35 -21 -59 -30 -23 -8 -54 -24 -68 -35 -14
-11 -30 -20 -35 -20 -15 0 -135 -83 -192 -132 -121 -107 -256 -258 -291 -328
-10 -19 -21 -37 -26 -40 -4 -3 -17 -26 -29 -50 -11 -25 -27 -56 -35 -70 -31
-54 -63 -138 -74 -190 -6 -30 -18 -68 -26 -83 -23 -45 -37 -181 -37 -357 0
-176 11 -262 43 -348 10 -29 19 -59 19 -68 0 -22 69 -195 85 -210 7 -8 21 -34
30 -59 10 -25 21 -45 25 -45 4 0 14 -15 21 -32 7 -18 51 -78 98 -133 90 -107
107 -125 162 -167 18 -14 53 -44 77 -66 23 -23 51 -44 62 -47 11 -4 20 -10 20
-15 0 -4 25 -18 55 -31 30 -12 55 -26 55 -30 0 -4 17 -13 38 -20 20 -7 53 -22
72 -35 19 -12 53 -25 75 -29 22 -4 65 -17 95 -30 30 -13 87 -26 125 -30 62 -6
168 -21 317 -44 83 -13 75 17 102 -381 9 -129 21 -278 26 -330 16 -144 28
-287 40 -475 6 -93 15 -199 20 -235 5 -36 16 -166 24 -290 8 -124 18 -250 22
-280 3 -30 10 -86 15 -125 4 -38 15 -176 24 -305 8 -129 19 -273 25 -320 11
-94 24 -253 40 -490 6 -85 15 -184 20 -220 5 -36 16 -166 24 -290 8 -124 18
-250 22 -280 3 -30 10 -86 15 -125 4 -38 13 -151 19 -250 11 -198 25 -360 41
-475 5 -41 16 -181 25 -310 8 -129 19 -266 24 -305 5 -38 16 -173 25 -300 8
-126 19 -273 25 -325 16 -142 28 -286 40 -475 6 -93 15 -199 20 -235 5 -36 14
-130 20 -210 22 -299 31 -407 40 -480 5 -41 16 -178 24 -305 9 -126 22 -288
31 -360 8 -71 19 -218 25 -325 9 -182 18 -275 40 -425 5 -33 14 -157 20 -275
6 -118 13 -226 17 -240 12 -50 23 -179 33 -375 6 -110 17 -256 26 -325 21
-177 23 -199 40 -445 14 -214 26 -338 38 -400 3 -16 10 -127 16 -245 6 -118
18 -264 26 -325 7 -60 18 -195 24 -300 10 -188 22 -324 40 -440 6 -33 14 -157
20 -275 6 -118 13 -226 17 -240 11 -46 23 -173 37 -405 9 -126 22 -288 31
-360 8 -71 19 -218 25 -325 9 -182 18 -275 40 -425 5 -33 14 -157 20 -275 6
-118 13 -226 17 -240 12 -50 23 -179 33 -375 6 -110 17 -254 26 -320 8 -66 19
-196 25 -290 17 -292 28 -438 38 -495 5 -30 17 -113 26 -185 8 -71 24 -157 34
-190 11 -33 24 -93 30 -133 6 -40 17 -83 25 -95 8 -12 20 -51 26 -87 6 -36 18
-78 26 -95 8 -16 22 -60 30 -97 9 -37 20 -70 24 -73 5 -3 19 -37 30 -74 11
-38 26 -74 34 -80 8 -7 20 -34 26 -61 6 -27 18 -54 26 -61 8 -6 21 -34 29 -62
8 -28 21 -57 28 -66 8 -9 21 -37 31 -63 10 -27 21 -48 26 -48 5 0 14 -17 20
-38 7 -20 21 -46 30 -57 10 -11 26 -39 35 -63 10 -23 21 -42 25 -42 4 0 18
-19 30 -42 49 -97 127 -221 142 -226 4 -2 16 -18 25 -35 9 -18 36 -57 60 -87
24 -30 62 -80 83 -110 87 -121 423 -462 656 -667 18 -16 48 -39 69 -53 20 -14
52 -37 70 -52 18 -16 37 -28 43 -28 5 0 16 -7 23 -16 8 -9 28 -26 45 -38 17
-11 57 -39 89 -61 62 -43 125 -81 190 -115 22 -11 65 -36 95 -55 30 -19 78
-45 106 -59 28 -13 55 -29 58 -35 4 -6 15 -11 25 -11 9 0 48 -16 87 -35 38
-19 74 -35 80 -35 6 0 22 -9 36 -19 13 -11 44 -24 68 -31 25 -6 59 -20 75 -30
17 -10 48 -22 70 -26 22 -3 60 -17 85 -29 25 -12 62 -25 83 -29 21 -4 55 -16
75 -26 21 -11 70 -24 110 -30 40 -5 89 -17 110 -26 20 -8 75 -22 122 -30 47
-9 105 -22 130 -29 25 -8 101 -19 170 -25 195 -18 204 -21 208 -53 l3 -27
6160 0 6159 0 0 28 c0 28 0 29 93 40 50 6 128 14 172 18 44 4 97 13 118 20 21
8 78 21 127 29 49 8 104 22 123 30 20 8 68 20 109 26 40 6 83 17 95 25 13 8
50 21 84 30 33 9 75 24 92 34 18 10 50 21 72 25 22 3 65 18 95 32 30 14 78 35
105 48 28 13 79 37 115 53 36 17 76 34 89 37 12 4 38 17 57 30 19 13 48 27 65
30 17 4 33 13 35 20 3 7 20 19 37 26 18 7 59 31 92 51 33 21 83 50 110 63 28
14 68 39 90 56 22 16 56 41 75 55 48 34 85 61 155 114 33 25 71 53 85 62 14 9
45 35 70 58 25 22 76 69 113 103 99 91 241 232 329 328 95 105 208 240 208
250 0 4 7 15 17 24 46 46 223 310 256 381 8 17 20 34 25 38 6 3 22 30 37 59
14 28 39 75 55 102 16 28 36 66 45 85 9 19 27 58 40 85 13 28 27 61 30 75 4
14 13 32 20 40 7 8 20 37 29 64 9 27 22 56 30 65 7 9 21 43 31 75 9 32 22 68
30 80 7 12 17 39 21 61 3 22 17 65 29 95 12 30 26 78 30 105 4 28 15 68 25 91
11 22 25 81 33 131 8 50 20 99 25 110 11 19 35 181 48 318 3 39 10 77 15 86 5
9 13 129 19 265 9 239 20 365 40 484 6 30 14 147 20 260 6 113 19 277 30 365
11 88 24 250 30 360 11 202 23 338 33 365 3 8 11 114 17 235 11 219 22 340 40
445 5 30 14 150 20 265 6 116 17 262 25 325 8 63 22 225 30 360 9 135 20 277
26 315 5 39 16 171 24 295 8 124 22 281 30 350 9 69 20 186 25 260 5 74 14
212 20 305 6 94 15 184 20 200 5 17 13 127 19 245 12 218 24 354 41 445 5 28
14 145 20 260 6 116 20 282 30 370 11 88 24 250 30 360 11 203 23 338 33 365
3 8 11 114 17 235 10 206 15 266 40 440 5 39 14 158 20 265 6 107 17 254 25
325 9 72 22 238 31 370 8 132 19 272 25 310 5 39 16 171 24 295 8 124 22 281
30 350 9 69 20 186 25 260 5 74 14 212 20 305 6 94 15 184 20 200 5 17 14 131
20 255 7 124 19 270 26 325 8 55 21 201 29 325 8 124 23 311 35 415 11 105 24
273 30 375 11 191 23 324 33 350 3 8 11 114 17 235 10 206 17 276 40 450 5 39
14 158 20 265 6 107 17 247 25 310 8 63 19 205 25 315 11 209 25 359 40 435 5
25 14 144 20 265 7 121 18 267 26 325 8 58 19 168 24 245 33 499 32 494 55
509 11 7 41 16 65 19 25 3 95 12 155 21 61 9 139 20 175 25 36 5 86 18 111 29
26 12 66 24 90 28 24 3 55 14 69 22 14 9 59 34 99 55 95 48 155 85 191 117 16
14 45 39 65 55 78 64 116 104 197 202 87 107 126 165 148 223 8 19 18 38 23
41 14 10 67 147 83 218 9 35 22 77 29 91 37 71 38 546 2 633 -8 18 -22 65 -31
104 -14 63 -53 166 -77 203 -5 8 -21 38 -35 65 -34 68 -74 135 -93 156 -9 9
-29 34 -46 54 -116 141 -293 293 -420 358 -125 65 -200 97 -237 103 -24 4 -65
17 -93 29 -36 17 -85 27 -180 35 -108 11 -1244 32 -1605 30 -2692 -9 -4270
-10 -4302 0 -31 9 -38 16 -43 43 -3 18 -7 752 -9 1632 -3 1428 -5 1608 -19
1675 -9 41 -24 111 -33 155 -9 44 -27 112 -40 152 -13 39 -24 80 -24 90 0 10
-9 37 -20 58 -11 22 -27 65 -35 95 -8 30 -37 98 -64 151 -27 54 -52 110 -56
127 -3 16 -15 38 -26 48 -10 9 -19 21 -19 27 0 9 -67 116 -89 143 -5 6 -19 29
-30 50 -12 21 -37 59 -56 84 -19 25 -43 56 -52 70 -10 14 -25 32 -34 40 -9 8
-50 55 -90 104 -74 90 -218 235 -274 278 -16 12 -33 27 -37 34 -4 6 -33 31
-65 55 -32 24 -61 48 -64 52 -3 5 -17 16 -31 25 -14 9 -51 35 -83 57 -32 22
-65 44 -74 50 -9 5 -48 31 -87 56 -72 47 -231 129 -251 129 -5 0 -21 9 -35 19
-13 11 -43 24 -67 31 -25 6 -54 18 -65 25 -12 7 -41 19 -66 25 -25 7 -63 20
-86 31 -23 10 -70 23 -105 28 -35 6 -89 20 -120 31 -31 10 -103 24 -160 30
-57 5 -133 14 -169 20 -79 12 -6360 11 -6435 -1z m6075 -2849 c13 -8 15 -179
18 -1426 2 -1310 1 -1419 -14 -1436 -17 -17 -112 -18 -2860 -18 l-2844 0 -15
23 c-13 21 -15 180 -13 1429 3 1173 5 1408 17 1421 12 16 224 17 2855 17 1773
0 2847 -4 2856 -10z m5630 -5785 c14 -13 17 -29 13 -88 -10 -183 -24 -341 -37
-442 -8 -60 -20 -209 -26 -330 -7 -121 -14 -223 -16 -226 -8 -14 -33 -290 -39
-439 -4 -91 -13 -212 -21 -270 -8 -58 -19 -170 -25 -250 -23 -340 -29 -411
-43 -520 -8 -63 -20 -209 -26 -325 -6 -115 -15 -228 -20 -250 -5 -22 -13 -114
-19 -205 -7 -91 -16 -228 -21 -305 -5 -77 -16 -187 -24 -245 -8 -58 -19 -202
-26 -320 -6 -118 -15 -237 -20 -265 -17 -93 -30 -249 -40 -455 -5 -113 -13
-219 -18 -236 -5 -17 -15 -111 -21 -210 -23 -341 -31 -440 -45 -549 -8 -60
-20 -204 -26 -320 -6 -115 -15 -232 -20 -260 -11 -57 -26 -249 -35 -440 -4
-71 -13 -179 -21 -240 -8 -60 -19 -175 -25 -255 -23 -340 -29 -411 -43 -520
-8 -63 -20 -209 -26 -325 -6 -115 -15 -228 -20 -250 -5 -22 -13 -114 -19 -205
-7 -91 -16 -228 -21 -305 -5 -77 -16 -187 -24 -245 -8 -58 -19 -202 -25 -320
-6 -118 -14 -225 -17 -238 -14 -68 -33 -270 -39 -423 -4 -96 -13 -223 -21
-284 -14 -106 -22 -204 -43 -515 -6 -80 -17 -194 -25 -255 -8 -60 -20 -204
-26 -320 -6 -115 -15 -232 -20 -260 -11 -57 -26 -249 -35 -440 -4 -71 -13
-179 -21 -240 -8 -60 -19 -175 -25 -255 -21 -311 -29 -409 -43 -515 -8 -60
-20 -207 -26 -325 -6 -118 -15 -233 -20 -255 -5 -22 -13 -112 -19 -200 -6 -88
-15 -225 -21 -305 -5 -80 -16 -194 -24 -255 -8 -60 -20 -204 -26 -320 -6 -115
-13 -220 -16 -233 -16 -76 -35 -283 -39 -452 -4 -107 -13 -235 -21 -285 -18
-111 -53 -256 -64 -270 -4 -5 -15 -36 -23 -68 -9 -33 -22 -66 -30 -75 -9 -10
-23 -36 -32 -60 -10 -23 -21 -42 -25 -42 -4 0 -14 -15 -21 -32 -52 -128 -337
-412 -494 -494 -111 -57 -133 -70 -147 -82 -9 -7 -41 -19 -72 -27 -31 -8 -67
-21 -79 -30 -22 -14 -141 -36 -317 -58 -125 -16 -11631 -15 -11755 1 -169 21
-272 40 -301 55 -16 8 -56 22 -88 31 -33 8 -62 19 -65 24 -3 5 -24 18 -46 30
-103 51 -207 115 -244 150 -11 9 -35 31 -55 47 -79 65 -117 104 -194 197 -45
53 -90 114 -100 135 -50 96 -73 138 -86 152 -8 9 -20 39 -27 66 -6 28 -19 64
-27 80 -8 17 -26 77 -38 135 -23 101 -32 204 -54 555 -5 88 -16 210 -24 270
-8 61 -20 205 -26 320 -6 116 -15 233 -20 260 -10 55 -26 250 -35 445 -4 69
-13 175 -21 235 -8 61 -19 175 -25 255 -21 311 -29 409 -43 515 -8 61 -17 169
-21 240 -9 190 -24 383 -35 440 -5 28 -14 147 -20 265 -6 118 -20 278 -30 355
-11 77 -24 239 -30 360 -7 121 -15 238 -20 260 -12 56 -28 248 -40 465 -6 102
-15 214 -20 250 -9 64 -21 213 -40 485 -5 77 -16 190 -24 250 -8 61 -20 207
-26 325 -6 118 -15 233 -20 255 -5 22 -13 110 -19 195 -6 85 -16 223 -22 305
-6 83 -14 179 -19 215 -5 36 -14 133 -20 215 -6 83 -15 209 -20 280 -5 72 -16
180 -24 240 -8 61 -20 205 -26 320 -6 116 -16 242 -20 280 -10 75 -24 243 -39
475 -6 80 -17 195 -25 255 -8 61 -20 207 -26 325 -6 118 -15 238 -20 265 -15
87 -29 245 -35 405 -5 145 -11 209 -35 385 -5 39 -14 162 -20 275 -6 113 -18
250 -26 305 -8 55 -21 210 -30 345 -8 135 -19 283 -24 330 -13 108 -27 273
-39 470 -6 85 -17 205 -25 265 -8 61 -20 205 -26 320 -6 116 -15 235 -20 265
-19 120 -31 254 -41 450 -5 113 -14 234 -19 270 -10 69 -23 230 -39 470 -6 80
-17 195 -25 255 -8 61 -20 207 -26 325 -6 118 -15 238 -20 265 -10 49 -22 203
-35 423 -5 83 -4 116 5 127 11 13 1003 15 8483 15 7594 0 8472 -2 8487 -15z"/>
<path d="M9884 17281 c-40 -5 -96 -18 -125 -29 -30 -11 -74 -23 -99 -27 -25
-4 -54 -13 -65 -19 -11 -7 -38 -19 -60 -26 -22 -7 -47 -18 -55 -25 -8 -7 -40
-25 -70 -39 -80 -38 -133 -68 -157 -91 -12 -11 -37 -32 -55 -47 -145 -119
-296 -295 -353 -412 -21 -43 -49 -94 -62 -113 -13 -19 -28 -55 -33 -81 -6 -26
-19 -67 -30 -92 -10 -25 -29 -102 -42 -170 l-23 -125 -3 -4400 c-2 -3978 -1
-4410 14 -4505 8 -58 20 -134 25 -170 5 -36 18 -81 28 -100 10 -19 21 -53 25
-75 9 -50 26 -95 36 -95 5 0 16 -22 25 -49 9 -27 21 -51 28 -54 7 -2 18 -22
26 -43 16 -45 26 -59 138 -193 76 -91 212 -212 318 -283 55 -36 174 -98 189
-98 8 0 24 -8 37 -19 13 -10 51 -24 84 -31 33 -6 70 -18 82 -26 41 -26 381
-61 450 -46 26 6 94 13 150 16 76 4 116 11 160 29 32 13 77 27 100 31 22 3 70
22 105 41 34 19 90 49 123 65 74 38 124 68 154 96 13 12 39 35 57 50 44 37
157 150 190 190 15 18 36 42 48 55 27 30 63 91 122 209 26 52 51 97 55 100 5
3 15 38 24 78 8 40 23 92 34 115 46 106 46 61 45 4677 0 3227 -4 4361 -12
4465 -9 101 -19 159 -37 208 -14 38 -25 75 -25 83 0 27 -61 163 -108 245 -15
25 -38 65 -51 89 -20 37 -96 132 -163 204 -10 11 -18 22 -18 26 0 3 -23 23
-52 45 -28 22 -59 47 -68 55 -40 36 -98 78 -130 95 -19 10 -37 21 -40 26 -3 4
-26 17 -50 28 -25 12 -52 25 -60 31 -31 20 -148 62 -220 80 -41 10 -89 26
-106 34 -36 19 -384 30 -500 17z"/>
<path d="M15645 17281 c-44 -4 -93 -13 -110 -22 -16 -9 -58 -21 -92 -28 -35
-7 -89 -23 -120 -37 -96 -43 -204 -98 -210 -107 -3 -5 -21 -16 -41 -24 -62
-26 -259 -199 -332 -292 -14 -18 -35 -43 -48 -57 -12 -14 -31 -42 -42 -64 -11
-21 -24 -41 -29 -44 -13 -8 -131 -250 -131 -269 0 -9 -13 -56 -29 -104 -21
-64 -32 -127 -42 -228 -16 -183 -26 -8682 -10 -8785 6 -36 14 -121 19 -190 6
-82 15 -137 26 -157 9 -18 23 -65 31 -105 9 -39 22 -79 30 -88 8 -9 20 -32 27
-50 6 -19 22 -50 35 -68 13 -19 23 -40 23 -47 0 -19 60 -104 147 -208 111
-133 345 -327 393 -327 10 0 28 -8 41 -18 52 -39 137 -79 191 -90 32 -6 78
-20 103 -32 43 -20 219 -41 365 -44 105 -2 333 25 377 45 23 10 65 24 93 30
28 6 77 24 108 40 31 16 62 29 68 29 6 0 19 9 29 20 10 11 23 20 29 20 20 0
123 69 194 130 9 8 32 26 50 39 38 27 95 86 146 151 19 25 43 54 53 65 39 42
83 110 89 138 3 15 12 31 19 33 7 3 21 24 30 46 9 23 24 52 34 65 10 12 22 44
26 70 4 27 17 71 30 98 15 33 29 95 40 185 9 74 21 148 26 164 13 42 12 8691
-1 8770 -6 33 -19 116 -30 184 -11 68 -28 142 -39 165 -10 23 -22 59 -25 80
-7 36 -71 165 -88 177 -4 3 -14 25 -22 48 -13 37 -61 108 -92 137 -6 5 -39 44
-74 85 -71 84 -250 239 -298 259 -18 8 -32 17 -32 21 0 5 -21 15 -47 24 -25 9
-53 22 -62 30 -25 21 -139 66 -211 82 -35 8 -78 21 -95 30 -58 29 -305 41
-520 25z"/>
</g>
</svg>
